0
SECTION
2
HEADER
9
$INSUNITS
70
4
9
$ACADVER
1
AC1014
9
$HANDSEED
5
FFFF
0
ENDSEC
0
SECTION
2
TABLES
0
TABLE
2
VPORT
5
8
100
AcDbSymbolTable
0
ENDTAB
0
TABLE
2
LTYPE
5
5
100
AcDbSymbolTable
0
LTYPE
5
14
100
AcDbSymbolTableRecord
100
AcDbLinetypeTableRecord
2
BYBLOCK
70
0
0
LTYPE
5
15
100
AcDbSymbolTableRecord
100
AcDbLinetypeTableRecord
2
BYLAYER
70
0
0
ENDTAB
0
TABLE
2
LAYER
5
2
100
AcDbSymbolTable
70
2
0
LAYER
5
50
100
AcDbSymbolTableRecord
100
AcDbLayerTableRecord
2
0
70
0
6
CONTINUOUS
0
ENDTAB
0
TABLE
2
STYLE
5
3
100
AcDbSymbolTable
70
1
0
STYLE
5
11
100
AcDbSymbolTableRecord
100
AcDbTextStyleTableRecord
2
STANDARD
70
0
0
ENDTAB
0
TABLE
2
VIEW
5
6
100
AcDbSymbolTable
70
0
0
ENDTAB
0
TABLE
2
UCS
5
7
100
AcDbSymbolTable
70
0
0
ENDTAB
0
TABLE
2
APPID
5
9
100
AcDbSymbolTable
70
2
0
APPID
5
12
100
AcDbSymbolTableRecord
100
AcDbRegAppTableRecord
2
ACAD
70
0
0
ENDTAB
0
TABLE
2
DIMSTYLE
5
A
100
AcDbSymbolTable
70
1
0
ENDTAB
0
TABLE
2
BLOCK_RECORD
5
1
100
AcDbSymbolTable
70
1
0
BLOCK_RECORD
5
1F
100
AcDbSymbolTableRecord
100
AcDbBlockTableRecord
2
*MODEL_SPACE
0
BLOCK_RECORD
5
1B
100
AcDbSymbolTableRecord
100
AcDbBlockTableRecord
2
*PAPER_SPACE
0
ENDTAB
0
ENDSEC
0
SECTION
2
BLOCKS
0
BLOCK
5
20
100
AcDbEntity
100
AcDbBlockBegin
2
*MODEL_SPACE
0
ENDBLK
5
21
100
AcDbEntity
100
AcDbBlockEnd
0
BLOCK
5
1C
100
AcDbEntity
100
AcDbBlockBegin
2
*PAPER_SPACE
0
ENDBLK
5
1D
100
AcDbEntity
100
AcDbBlockEnd
0
ENDSEC
0
SECTION
2
ENTITIES
0
LWPOLYLINE
5
100
100
AcDbEntity
8
0
100
AcDbPolyline
90
4
70
1
43
0.0
10
-29.285714285714288
20
-105
10
-19.285714285714285
20
-105
10
-19.285714285714285
20
-115
10
-29.285714285714288
20
-115
0
LWPOLYLINE
5
101
100
AcDbEntity
8
0
100
AcDbPolyline
90
4
70
1
43
0.0
10
-29.285714285714288
20
-76.428571428571416
10
-19.285714285714285
20
-76.428571428571416
10
-19.285714285714285
20
-86.428571428571416
10
-29.285714285714288
20
-86.428571428571416
0
LWPOLYLINE
5
102
100
AcDbEntity
8
0
100
AcDbPolyline
90
4
70
1
43
0.0
10
-43.571428571428577
20
-76.428571428571416
10
-33.571428571428569
20
-76.428571428571416
10
-33.571428571428569
20
-86.428571428571416
10
-43.571428571428577
20
-86.428571428571416
0
LWPOLYLINE
5
103
100
AcDbEntity
8
0
100
AcDbPolyline
90
4
70
1
43
0.0
10
-57.857142857142854
20
-76.428571428571416
10
-47.857142857142854
20
-76.428571428571416
10
-47.857142857142854
20
-86.428571428571416
10
-57.857142857142854
20
-86.428571428571416
0
LWPOLYLINE
5
104
100
AcDbEntity
8
0
100
AcDbPolyline
90
4
70
1
43
0.0
10
-72.142857142857139
20
-76.428571428571416
10
-62.142857142857146
20
-76.428571428571416
10
-62.142857142857146
20
-86.428571428571416
10
-72.142857142857139
20
-86.428571428571416
0
LWPOLYLINE
5
105
100
AcDbEntity
8
0
100
AcDbPolyline
90
4
70
1
43
0.0
10
-29.285714285714288
20
-62.142857142857146
10
-19.285714285714285
20
-62.142857142857146
10
-19.285714285714285
20
-72.142857142857139
10
-29.285714285714288
20
-72.142857142857139
0
LWPOLYLINE
5
106
100
AcDbEntity
8
0
100
AcDbPolyline
90
4
70
1
43
0.0
10
-86.428571428571416
20
-76.428571428571416
10
-76.428571428571431
20
-76.428571428571416
10
-76.428571428571431
20
-86.428571428571416
10
-86.428571428571416
20
-86.428571428571416
0
LWPOLYLINE
5
107
100
AcDbEntity
8
0
100
AcDbPolyline
90
4
70
1
43
0.0
10
-15
20
-62.142857142857146
10
-5
20
-62.142857142857146
10
-5
20
-72.142857142857139
10
-15
20
-72.142857142857139
0
LWPOLYLINE
5
108
100
AcDbEntity
8
0
100
AcDbPolyline
90
4
70
1
43
0.0
10
-100.71428571428571
20
-76.428571428571416
10
-90.714285714285708
20
-76.428571428571416
10
-90.714285714285708
20
-86.428571428571416
10
-100.71428571428571
20
-86.428571428571416
0
LWPOLYLINE
5
109
100
AcDbEntity
8
0
100
AcDbPolyline
90
4
70
1
43
0.0
10
-115
20
-76.428571428571416
10
-105
20
-76.428571428571416
10
-105
20
-86.428571428571416
10
-115
20
-86.428571428571416
0
LWPOLYLINE
5
110
100
AcDbEntity
8
0
100
AcDbPolyline
90
4
70
1
43
0.0
10
-43.571428571428577
20
-105
10
-33.571428571428569
20
-105
10
-33.571428571428569
20
-115
10
-43.571428571428577
20
-115
0
LWPOLYLINE
5
111
100
AcDbEntity
8
0
100
AcDbPolyline
90
4
70
1
43
0.0
10
-57.857142857142854
20
-105
10
-47.857142857142854
20
-105
10
-47.857142857142854
20
-115
10
-57.857142857142854
20
-115
0
LWPOLYLINE
5
112
100
AcDbEntity
8
0
100
AcDbPolyline
90
4
70
1
43
0.0
10
-72.142857142857139
20
-105
10
-62.142857142857146
20
-105
10
-62.142857142857146
20
-115
10
-72.142857142857139
20
-115
0
LWPOLYLINE
5
113
100
AcDbEntity
8
0
100
AcDbPolyline
90
4
70
1
43
0.0
10
-86.428571428571416
20
-105
10
-76.428571428571431
20
-105
10
-76.428571428571431
20
-115
10
-86.428571428571416
20
-115
0
LWPOLYLINE
5
114
100
AcDbEntity
8
0
100
AcDbPolyline
90
4
70
1
43
0.0
10
-100.71428571428571
20
-105
10
-90.714285714285708
20
-105
10
-90.714285714285708
20
-115
10
-100.71428571428571
20
-115
0
LWPOLYLINE
5
115
100
AcDbEntity
8
0
100
AcDbPolyline
90
4
70
1
43
0.0
10
-115
20
-105
10
-105
20
-105
10
-105
20
-115
10
-115
20
-115
0
LWPOLYLINE
5
116
100
AcDbEntity
8
0
100
AcDbPolyline
90
4
70
1
43
0.0
10
-15
20
-90.714285714285708
10
-5
20
-90.714285714285708
10
-5
20
-100.71428571428571
10
-15
20
-100.71428571428571
0
LWPOLYLINE
5
117
100
AcDbEntity
8
0
100
AcDbPolyline
90
4
70
1
43
0.0
10
-29.285714285714288
20
-90.714285714285708
10
-19.285714285714285
20
-90.714285714285708
10
-19.285714285714285
20
-100.71428571428571
10
-29.285714285714288
20
-100.71428571428571
0
LWPOLYLINE
5
118
100
AcDbEntity
8
0
100
AcDbPolyline
90
4
70
1
43
0.0
10
-43.571428571428577
20
-90.714285714285708
10
-33.571428571428569
20
-90.714285714285708
10
-33.571428571428569
20
-100.71428571428571
10
-43.571428571428577
20
-100.71428571428571
0
LWPOLYLINE
5
119
100
AcDbEntity
8
0
100
AcDbPolyline
90
4
70
1
43
0.0
10
-57.857142857142854
20
-90.714285714285708
10
-47.857142857142854
20
-90.714285714285708
10
-47.857142857142854
20
-100.71428571428571
10
-57.857142857142854
20
-100.71428571428571
0
LWPOLYLINE
5
120
100
AcDbEntity
8
0
100
AcDbPolyline
90
4
70
1
43
0.0
10
-72.142857142857139
20
-90.714285714285708
10
-62.142857142857146
20
-90.714285714285708
10
-62.142857142857146
20
-100.71428571428571
10
-72.142857142857139
20
-100.71428571428571
0
LWPOLYLINE
5
121
100
AcDbEntity
8
0
100
AcDbPolyline
90
4
70
1
43
0.0
10
-86.428571428571416
20
-90.714285714285708
10
-76.428571428571431
20
-90.714285714285708
10
-76.428571428571431
20
-100.71428571428571
10
-86.428571428571416
20
-100.71428571428571
0
LWPOLYLINE
5
122
100
AcDbEntity
8
0
100
AcDbPolyline
90
4
70
1
43
0.0
10
-100.71428571428571
20
-90.714285714285708
10
-90.714285714285708
20
-90.714285714285708
10
-90.714285714285708
20
-100.71428571428571
10
-100.71428571428571
20
-100.71428571428571
0
LWPOLYLINE
5
123
100
AcDbEntity
8
0
100
AcDbPolyline
90
4
70
1
43
0.0
10
-115
20
-90.714285714285708
10
-105
20
-90.714285714285708
10
-105
20
-100.71428571428571
10
-115
20
-100.71428571428571
0
LWPOLYLINE
5
124
100
AcDbEntity
8
0
100
AcDbPolyline
90
4
70
1
43
0.0
10
-15
20
-76.428571428571416
10
-5
20
-76.428571428571416
10
-5
20
-86.428571428571416
10
-15
20
-86.428571428571416
0
LWPOLYLINE
5
125
100
AcDbEntity
8
0
100
AcDbPolyline
90
4
70
1
43
0.0
10
-115
20
-62.142857142857146
10
-105
20
-62.142857142857146
10
-105
20
-72.142857142857139
10
-115
20
-72.142857142857139
0
LWPOLYLINE
5
126
100
AcDbEntity
8
0
100
AcDbPolyline
90
4
70
1
43
0.0
10
-86.428571428571416
20
-47.857142857142854
10
-76.428571428571431
20
-47.857142857142854
10
-76.428571428571431
20
-57.857142857142854
10
-86.428571428571416
20
-57.857142857142854
0
LWPOLYLINE
5
127
100
AcDbEntity
8
0
100
AcDbPolyline
90
4
70
1
43
0.0
10
-15
20
-47.857142857142854
10
-5
20
-47.857142857142854
10
-5
20
-57.857142857142854
10
-15
20
-57.857142857142854
0
LWPOLYLINE
5
128
100
AcDbEntity
8
0
100
AcDbPolyline
90
4
70
1
43
0.0
10
-57.857142857142854
20
-47.857142857142854
10
-47.857142857142854
20
-47.857142857142854
10
-47.857142857142854
20
-57.857142857142854
10
-57.857142857142854
20
-57.857142857142854
0
LWPOLYLINE
5
129
100
AcDbEntity
8
0
100
AcDbPolyline
90
4
70
1
43
0.0
10
-43.571428571428577
20
-47.857142857142854
10
-33.571428571428569
20
-47.857142857142854
10
-33.571428571428569
20
-57.857142857142854
10
-43.571428571428577
20
-57.857142857142854
0
LWPOLYLINE
5
130
100
AcDbEntity
8
0
100
AcDbPolyline
90
4
70
1
43
0.0
10
-100.71428571428571
20
-62.142857142857146
10
-90.714285714285708
20
-62.142857142857146
10
-90.714285714285708
20
-72.142857142857139
10
-100.71428571428571
20
-72.142857142857139
0
LWPOLYLINE
5
131
100
AcDbEntity
8
0
100
AcDbPolyline
90
4
70
1
43
0.0
10
-100.71428571428571
20
-47.857142857142854
10
-90.714285714285708
20
-47.857142857142854
10
-90.714285714285708
20
-57.857142857142854
10
-100.71428571428571
20
-57.857142857142854
0
LWPOLYLINE
5
132
100
AcDbEntity
8
0
100
AcDbPolyline
90
4
70
1
43
0.0
10
-29.285714285714288
20
-47.857142857142854
10
-19.285714285714285
20
-47.857142857142854
10
-19.285714285714285
20
-57.857142857142854
10
-29.285714285714288
20
-57.857142857142854
0
LWPOLYLINE
5
133
100
AcDbEntity
8
0
100
AcDbPolyline
90
4
70
1
43
0.0
10
-72.142857142857139
20
-47.857142857142854
10
-62.142857142857146
20
-47.857142857142854
10
-62.142857142857146
20
-57.857142857142854
10
-72.142857142857139
20
-57.857142857142854
0
LWPOLYLINE
5
134
100
AcDbEntity
8
0
100
AcDbPolyline
90
4
70
1
43
0.0
10
-72.142857142857139
20
-19.285714285714288
10
-62.142857142857146
20
-19.285714285714288
10
-62.142857142857146
20
-29.285714285714288
10
-72.142857142857139
20
-29.285714285714288
0
LWPOLYLINE
5
135
100
AcDbEntity
8
0
100
AcDbPolyline
90
4
70
1
43
0.0
10
-57.857142857142854
20
-19.285714285714288
10
-47.857142857142854
20
-19.285714285714288
10
-47.857142857142854
20
-29.285714285714288
10
-57.857142857142854
20
-29.285714285714288
0
LWPOLYLINE
5
136
100
AcDbEntity
8
0
100
AcDbPolyline
90
4
70
1
43
0.0
10
-43.571428571428577
20
-19.285714285714288
10
-33.571428571428569
20
-19.285714285714288
10
-33.571428571428569
20
-29.285714285714288
10
-43.571428571428577
20
-29.285714285714288
0
LWPOLYLINE
5
137
100
AcDbEntity
8
0
100
AcDbPolyline
90
4
70
1
43
0.0
10
-29.285714285714288
20
-19.285714285714288
10
-19.285714285714285
20
-19.285714285714288
10
-19.285714285714285
20
-29.285714285714288
10
-29.285714285714288
20
-29.285714285714288
0
LWPOLYLINE
5
138
100
AcDbEntity
8
0
100
AcDbPolyline
90
4
70
1
43
0.0
10
-15
20
-19.285714285714288
10
-5
20
-19.285714285714288
10
-5
20
-29.285714285714288
10
-15
20
-29.285714285714288
0
LWPOLYLINE
5
139
100
AcDbEntity
8
0
100
AcDbPolyline
90
4
70
1
43
0.0
10
-115
20
-33.571428571428569
10
-105
20
-33.571428571428569
10
-105
20
-43.571428571428569
10
-115
20
-43.571428571428569
0
LWPOLYLINE
5
140
100
AcDbEntity
8
0
100
AcDbPolyline
90
4
70
1
43
0.0
10
-100.71428571428571
20
-33.571428571428569
10
-90.714285714285708
20
-33.571428571428569
10
-90.714285714285708
20
-43.571428571428569
10
-100.71428571428571
20
-43.571428571428569
0
LWPOLYLINE
5
141
100
AcDbEntity
8
0
100
AcDbPolyline
90
4
70
1
43
0.0
10
-86.428571428571416
20
-33.571428571428569
10
-76.428571428571431
20
-33.571428571428569
10
-76.428571428571431
20
-43.571428571428569
10
-86.428571428571416
20
-43.571428571428569
0
LWPOLYLINE
5
142
100
AcDbEntity
8
0
100
AcDbPolyline
90
4
70
1
43
0.0
10
-72.142857142857139
20
-33.571428571428569
10
-62.142857142857146
20
-33.571428571428569
10
-62.142857142857146
20
-43.571428571428569
10
-72.142857142857139
20
-43.571428571428569
0
LWPOLYLINE
5
143
100
AcDbEntity
8
0
100
AcDbPolyline
90
4
70
1
43
0.0
10
-57.857142857142854
20
-33.571428571428569
10
-47.857142857142854
20
-33.571428571428569
10
-47.857142857142854
20
-43.571428571428569
10
-57.857142857142854
20
-43.571428571428569
0
LWPOLYLINE
5
144
100
AcDbEntity
8
0
100
AcDbPolyline
90
4
70
1
43
0.0
10
-43.571428571428577
20
-33.571428571428569
10
-33.571428571428569
20
-33.571428571428569
10
-33.571428571428569
20
-43.571428571428569
10
-43.571428571428577
20
-43.571428571428569
0
LWPOLYLINE
5
145
100
AcDbEntity
8
0
100
AcDbPolyline
90
4
70
1
43
0.0
10
-29.285714285714288
20
-33.571428571428569
10
-19.285714285714285
20
-33.571428571428569
10
-19.285714285714285
20
-43.571428571428569
10
-29.285714285714288
20
-43.571428571428569
0
LWPOLYLINE
5
146
100
AcDbEntity
8
0
100
AcDbPolyline
90
4
70
1
43
0.0
10
-15
20
-33.571428571428569
10
-5
20
-33.571428571428569
10
-5
20
-43.571428571428569
10
-15
20
-43.571428571428569
0
LWPOLYLINE
5
147
100
AcDbEntity
8
0
100
AcDbPolyline
90
4
70
1
43
0.0
10
-115
20
-47.857142857142854
10
-105
20
-47.857142857142854
10
-105
20
-57.857142857142854
10
-115
20
-57.857142857142854
0
LWPOLYLINE
5
148
100
AcDbEntity
8
0
100
AcDbPolyline
90
4
70
1
43
0.0
10
-86.428571428571416
20
-19.285714285714288
10
-76.428571428571431
20
-19.285714285714288
10
-76.428571428571431
20
-29.285714285714288
10
-86.428571428571416
20
-29.285714285714288
0
LWPOLYLINE
5
149
100
AcDbEntity
8
0
100
AcDbPolyline
90
4
70
1
43
0.0
10
-100.71428571428571
20
-19.285714285714288
10
-90.714285714285708
20
-19.285714285714288
10
-90.714285714285708
20
-29.285714285714288
10
-100.71428571428571
20
-29.285714285714288
0
LWPOLYLINE
5
150
100
AcDbEntity
8
0
100
AcDbPolyline
90
4
70
1
43
0.0
10
-115
20
-19.285714285714288
10
-105
20
-19.285714285714288
10
-105
20
-29.285714285714288
10
-115
20
-29.285714285714288
0
LWPOLYLINE
5
151
100
AcDbEntity
8
0
100
AcDbPolyline
90
4
70
1
43
0.0
10
-15
20
-5
10
-5
20
-5
10
-5
20
-15
10
-15
20
-15
0
LWPOLYLINE
5
152
100
AcDbEntity
8
0
100
AcDbPolyline
90
4
70
1
43
0.0
10
-29.285714285714288
20
-5
10
-19.285714285714285
20
-5
10
-19.285714285714285
20
-15
10
-29.285714285714288
20
-15
0
LWPOLYLINE
5
153
100
AcDbEntity
8
0
100
AcDbPolyline
90
4
70
1
43
0.0
10
-43.571428571428577
20
-5
10
-33.571428571428569
20
-5
10
-33.571428571428569
20
-15
10
-43.571428571428577
20
-15
0
LWPOLYLINE
5
154
100
AcDbEntity
8
0
100
AcDbPolyline
90
4
70
1
43
0.0
10
-57.857142857142854
20
-5
10
-47.857142857142854
20
-5
10
-47.857142857142854
20
-15
10
-57.857142857142854
20
-15
0
LWPOLYLINE
5
155
100
AcDbEntity
8
0
100
AcDbPolyline
90
4
70
1
43
0.0
10
-72.142857142857139
20
-5
10
-62.142857142857146
20
-5
10
-62.142857142857146
20
-15
10
-72.142857142857139
20
-15
0
LWPOLYLINE
5
156
100
AcDbEntity
8
0
100
AcDbPolyline
90
4
70
1
43
0.0
10
-86.428571428571416
20
-5
10
-76.428571428571431
20
-5
10
-76.428571428571431
20
-15
10
-86.428571428571416
20
-15
0
LWPOLYLINE
5
157
100
AcDbEntity
8
0
100
AcDbPolyline
90
4
70
1
43
0.0
10
-100.71428571428571
20
-5
10
-90.714285714285708
20
-5
10
-90.714285714285708
20
-15
10
-100.71428571428571
20
-15
0
LWPOLYLINE
5
158
100
AcDbEntity
8
0
100
AcDbPolyline
90
4
70
1
43
0.0
10
-115
20
-5
10
-105
20
-5
10
-105
20
-15
10
-115
20
-15
0
LWPOLYLINE
5
159
100
AcDbEntity
8
0
100
AcDbPolyline
90
4
70
1
43
0.0
10
-57.857142857142854
20
-62.142857142857146
10
-47.857142857142854
20
-62.142857142857146
10
-47.857142857142854
20
-72.142857142857139
10
-57.857142857142854
20
-72.142857142857139
0
LWPOLYLINE
5
160
100
AcDbEntity
8
0
100
AcDbPolyline
90
4
70
1
43
0.0
10
-86.428571428571416
20
-62.142857142857146
10
-76.428571428571431
20
-62.142857142857146
10
-76.428571428571431
20
-72.142857142857139
10
-86.428571428571416
20
-72.142857142857139
0
LWPOLYLINE
5
161
100
AcDbEntity
8
0
100
AcDbPolyline
90
4
70
1
43
0.0
10
-43.571428571428577
20
-62.142857142857146
10
-33.571428571428569
20
-62.142857142857146
10
-33.571428571428569
20
-72.142857142857139
10
-43.571428571428577
20
-72.142857142857139
0
LWPOLYLINE
5
162
100
AcDbEntity
8
0
100
AcDbPolyline
90
4
70
1
43
0.0
10
-72.142857142857139
20
-62.142857142857146
10
-62.142857142857146
20
-62.142857142857146
10
-62.142857142857146
20
-72.142857142857139
10
-72.142857142857139
20
-72.142857142857139
0
LWPOLYLINE
5
163
100
AcDbEntity
8
0
100
AcDbPolyline
90
4
70
1
43
0.0
10
-15
20
-105
10
-5
20
-105
10
-5
20
-115
10
-15
20
-115
0
LWPOLYLINE
5
164
100
AcDbEntity
8
0
100
AcDbPolyline
90
100
70
1
43
0.0
10
-119.99999995529652
20
-5.0000015646219254
10
-123
20
-5.0000015646219254
10
-123
20
-15.000001713633537
10
-119.99999995529652
20
-15.000001713633537
10
-119.99999995529652
20
-25.000001564621925
10
-123
20
-25.000001564621925
10
-123
20
-35.000001713633537
10
-119.99999995529652
20
-35.000001713633537
10
-119.99999995529652
20
-45.000001564621925
10
-123
20
-45.000001564621925
10
-123
20
-55.000001713633537
10
-119.99999995529652
20
-55.000001713633537
10
-119.99999995529652
20
-65.000001564621925
10
-123
20
-65.000001564621925
10
-123
20
-75.000001713633537
10
-119.99999995529652
20
-75.000001713633537
10
-119.99999995529652
20
-85.000001564621925
10
-123
20
-85.000001564621925
10
-123
20
-95.000001713633537
10
-119.99999995529652
20
-95.000001713633537
10
-119.99999995529652
20
-105.00000156462193
10
-123
20
-105.00000156462193
10
-123
20
-115.00000171363354
10
-119.99999995529652
20
-115.00000171363354
10
-120
20
-120
10
-115
20
-120
10
-115
20
-123
10
-105
20
-123
10
-105
20
-120
10
-95
20
-120
10
-95
20
-123
10
-85
20
-123
10
-85
20
-120
10
-75
20
-120
10
-75
20
-123
10
-65
20
-123
10
-65
20
-120
10
-55
20
-120
10
-55
20
-123
10
-45
20
-123
10
-45
20
-120
10
-35
20
-120
10
-35
20
-123
10
-25
20
-123
10
-25
20
-120
10
-15
20
-120
10
-15
20
-123
10
-5
20
-123
10
-5
20
-120
10
0
20
-120
10
0
20
-115.00000171363354
10
3.0000000447034836
20
-115.00000171363354
10
3.0000000447034836
20
-105.00000156462193
10
0
20
-105.00000156462193
10
0
20
-95.000001713633537
10
3.0000000447034836
20
-95.000001713633537
10
3.0000000447034836
20
-85.000001564621925
10
0
20
-85.000001564621925
10
0
20
-75.000001713633537
10
3.0000000447034836
20
-75.000001713633537
10
3.0000000447034836
20
-65.000001564621925
10
0
20
-65.000001564621925
10
0
20
-55.000001713633537
10
3.0000000447034836
20
-55.000001713633537
10
3.0000000447034836
20
-45.000001564621925
10
0
20
-45.000001564621925
10
0
20
-35.000001713633537
10
3.0000000447034836
20
-35.000001713633537
10
3.0000000447034836
20
-25.000001564621925
10
0
20
-25.000001564621925
10
0
20
-15.000001713633537
10
3.0000000447034836
20
-15.000001713633537
10
3.0000000447034836
20
-5.0000015646219254
10
0
20
-5.0000015646219254
10
0
20
0
10
-5
20
0
10
-5
20
3.0000000000000071
10
-15
20
3.0000000000000071
10
-15
20
0
10
-25
20
0
10
-25
20
3.0000000000000071
10
-35
20
3.0000000000000071
10
-35
20
0
10
-45
20
0
10
-45
20
3.0000000000000071
10
-55
20
3.0000000000000071
10
-55
20
0
10
-65
20
0
10
-65
20
3.0000000000000071
10
-75
20
3.0000000000000071
10
-75
20
0
10
-85
20
0
10
-85
20
3.0000000000000071
10
-95
20
3.0000000000000071
10
-95
20
0
10
-105
20
0
10
-105
20
3.0000000000000071
10
-115
20
3.0000000000000071
10
-115
20
0
10
-120
20
0
0
ENDSEC
0
SECTION
2
OBJECTS
0
DICTIONARY
5
C
100
AcDbDictionary
3
ACAD_GROUP
350
D
3
ACAD_MLINESTYLE
350
17
0
DICTIONARY
5
D
100
AcDbDictionary
0
DICTIONARY
5
1A
330
C
100
AcDbDictionary
0
DICTIONARY
5
17
100
AcDbDictionary
0
ENDSEC
0
EOF
