0
SECTION
2
HEADER
9
$INSUNITS
70
4
9
$ACADVER
1
AC1014
9
$HANDSEED
5
FFFF
0
ENDSEC
0
SECTION
2
TABLES
0
TABLE
2
VPORT
5
8
100
AcDbSymbolTable
0
ENDTAB
0
TABLE
2
LTYPE
5
5
100
AcDbSymbolTable
0
LTYPE
5
14
100
AcDbSymbolTableRecord
100
AcDbLinetypeTableRecord
2
BYBLOCK
70
0
0
LTYPE
5
15
100
AcDbSymbolTableRecord
100
AcDbLinetypeTableRecord
2
BYLAYER
70
0
0
ENDTAB
0
TABLE
2
LAYER
5
2
100
AcDbSymbolTable
70
2
0
LAYER
5
50
100
AcDbSymbolTableRecord
100
AcDbLayerTableRecord
2
0
70
0
6
CONTINUOUS
0
ENDTAB
0
TABLE
2
STYLE
5
3
100
AcDbSymbolTable
70
1
0
STYLE
5
11
100
AcDbSymbolTableRecord
100
AcDbTextStyleTableRecord
2
STANDARD
70
0
0
ENDTAB
0
TABLE
2
VIEW
5
6
100
AcDbSymbolTable
70
0
0
ENDTAB
0
TABLE
2
UCS
5
7
100
AcDbSymbolTable
70
0
0
ENDTAB
0
TABLE
2
APPID
5
9
100
AcDbSymbolTable
70
2
0
APPID
5
12
100
AcDbSymbolTableRecord
100
AcDbRegAppTableRecord
2
ACAD
70
0
0
ENDTAB
0
TABLE
2
DIMSTYLE
5
A
100
AcDbSymbolTable
70
1
0
ENDTAB
0
TABLE
2
BLOCK_RECORD
5
1
100
AcDbSymbolTable
70
1
0
BLOCK_RECORD
5
1F
100
AcDbSymbolTableRecord
100
AcDbBlockTableRecord
2
*MODEL_SPACE
0
BLOCK_RECORD
5
1B
100
AcDbSymbolTableRecord
100
AcDbBlockTableRecord
2
*PAPER_SPACE
0
ENDTAB
0
ENDSEC
0
SECTION
2
BLOCKS
0
BLOCK
5
20
100
AcDbEntity
100
AcDbBlockBegin
2
*MODEL_SPACE
0
ENDBLK
5
21
100
AcDbEntity
100
AcDbBlockEnd
0
BLOCK
5
1C
100
AcDbEntity
100
AcDbBlockBegin
2
*PAPER_SPACE
0
ENDBLK
5
1D
100
AcDbEntity
100
AcDbBlockEnd
0
ENDSEC
0
SECTION
2
ENTITIES
0
LWPOLYLINE
5
100
100
AcDbEntity
8
0
100
AcDbPolyline
90
4
70
1
43
0.0
10
48.199999463558434
20
-87.079999999999998
10
50.199999463558441
20
-87.079999999999998
10
50.199999463558441
20
-89.079999999999998
10
48.199999463558434
20
-89.079999999999998
0
LWPOLYLINE
5
101
100
AcDbEntity
8
0
100
AcDbPolyline
90
4
70
1
43
0.0
10
52.519999463558442
20
-87.079999999999998
10
54.519999463558442
20
-87.079999999999998
10
54.519999463558442
20
-89.079999999999998
10
52.519999463558442
20
-89.079999999999998
0
LWPOLYLINE
5
102
100
AcDbEntity
8
0
100
AcDbPolyline
90
4
70
1
43
0.0
10
56.839999463558442
20
-87.079999999999998
10
58.839999463558442
20
-87.079999999999998
10
58.839999463558442
20
-89.079999999999998
10
56.839999463558442
20
-89.079999999999998
0
LWPOLYLINE
5
103
100
AcDbEntity
8
0
100
AcDbPolyline
90
4
70
1
43
0.0
10
48.199999463558434
20
-82.759999999999991
10
50.199999463558441
20
-82.759999999999991
10
50.199999463558441
20
-84.759999999999991
10
48.199999463558434
20
-84.759999999999991
0
LWPOLYLINE
5
104
100
AcDbEntity
8
0
100
AcDbPolyline
90
4
70
1
43
0.0
10
52.519999463558442
20
-82.759999999999991
10
54.519999463558442
20
-82.759999999999991
10
54.519999463558442
20
-84.759999999999991
10
52.519999463558442
20
-84.759999999999991
0
LWPOLYLINE
5
105
100
AcDbEntity
8
0
100
AcDbPolyline
90
4
70
1
43
0.0
10
56.839999463558442
20
-82.759999999999991
10
58.839999463558442
20
-82.759999999999991
10
58.839999463558442
20
-84.759999999999991
10
56.839999463558442
20
-84.759999999999991
0
LWPOLYLINE
5
106
100
AcDbEntity
8
0
100
AcDbPolyline
90
4
70
1
43
0.0
10
48.199999463558434
20
-78.439999999999998
10
50.199999463558441
20
-78.439999999999998
10
50.199999463558441
20
-80.439999999999998
10
48.199999463558434
20
-80.439999999999998
0
LWPOLYLINE
5
107
100
AcDbEntity
8
0
100
AcDbPolyline
90
4
70
1
43
0.0
10
52.519999463558442
20
-78.439999999999998
10
54.519999463558442
20
-78.439999999999998
10
54.519999463558442
20
-80.439999999999998
10
52.519999463558442
20
-80.439999999999998
0
LWPOLYLINE
5
108
100
AcDbEntity
8
0
100
AcDbPolyline
90
4
70
1
43
0.0
10
56.839999463558442
20
-78.439999999999998
10
58.839999463558442
20
-78.439999999999998
10
58.839999463558442
20
-80.439999999999998
10
56.839999463558442
20
-80.439999999999998
0
LWPOLYLINE
5
109
100
AcDbEntity
8
0
100
AcDbPolyline
90
4
70
1
43
0.0
10
48.199999463558434
20
-74.120000000000005
10
50.199999463558441
20
-74.120000000000005
10
50.199999463558441
20
-76.120000000000005
10
48.199999463558434
20
-76.120000000000005
0
LWPOLYLINE
5
110
100
AcDbEntity
8
0
100
AcDbPolyline
90
4
70
1
43
0.0
10
52.519999463558442
20
-74.120000000000005
10
54.519999463558442
20
-74.120000000000005
10
54.519999463558442
20
-76.120000000000005
10
52.519999463558442
20
-76.120000000000005
0
LWPOLYLINE
5
111
100
AcDbEntity
8
0
100
AcDbPolyline
90
4
70
1
43
0.0
10
56.839999463558442
20
-74.120000000000005
10
58.839999463558442
20
-74.120000000000005
10
58.839999463558442
20
-76.120000000000005
10
56.839999463558442
20
-76.120000000000005
0
LWPOLYLINE
5
112
100
AcDbEntity
8
0
100
AcDbPolyline
90
4
70
1
43
0.0
10
4.9999994635584351
20
-69.800000000000011
10
6.9999994635584351
20
-69.800000000000011
10
6.9999994635584351
20
-71.799999999999997
10
4.9999994635584351
20
-71.799999999999997
0
LWPOLYLINE
5
113
100
AcDbEntity
8
0
100
AcDbPolyline
90
4
70
1
43
0.0
10
9.3199994635584353
20
-69.800000000000011
10
11.319999463558435
20
-69.800000000000011
10
11.319999463558435
20
-71.799999999999997
10
9.3199994635584353
20
-71.799999999999997
0
LWPOLYLINE
5
114
100
AcDbEntity
8
0
100
AcDbPolyline
90
4
70
1
43
0.0
10
13.639999463558436
20
-69.800000000000011
10
15.639999463558436
20
-69.800000000000011
10
15.639999463558436
20
-71.799999999999997
10
13.639999463558436
20
-71.799999999999997
0
LWPOLYLINE
5
115
100
AcDbEntity
8
0
100
AcDbPolyline
90
4
70
1
43
0.0
10
17.959999463558439
20
-69.800000000000011
10
19.959999463558439
20
-69.800000000000011
10
19.959999463558439
20
-71.799999999999997
10
17.959999463558439
20
-71.799999999999997
0
LWPOLYLINE
5
116
100
AcDbEntity
8
0
100
AcDbPolyline
90
4
70
1
43
0.0
10
22.279999463558436
20
-69.800000000000011
10
24.279999463558436
20
-69.800000000000011
10
24.279999463558436
20
-71.799999999999997
10
22.279999463558436
20
-71.799999999999997
0
LWPOLYLINE
5
117
100
AcDbEntity
8
0
100
AcDbPolyline
90
4
70
1
43
0.0
10
26.599999463558433
20
-69.800000000000011
10
28.599999463558436
20
-69.800000000000011
10
28.599999463558436
20
-71.799999999999997
10
26.599999463558433
20
-71.799999999999997
0
LWPOLYLINE
5
118
100
AcDbEntity
8
0
100
AcDbPolyline
90
4
70
1
43
0.0
10
30.91999946355844
20
-69.800000000000011
10
32.91999946355844
20
-69.800000000000011
10
32.91999946355844
20
-71.799999999999997
10
30.91999946355844
20
-71.799999999999997
0
LWPOLYLINE
5
119
100
AcDbEntity
8
0
100
AcDbPolyline
90
4
70
1
43
0.0
10
35.239999463558441
20
-69.800000000000011
10
37.239999463558441
20
-69.800000000000011
10
37.239999463558441
20
-71.799999999999997
10
35.239999463558441
20
-71.799999999999997
0
LWPOLYLINE
5
120
100
AcDbEntity
8
0
100
AcDbPolyline
90
4
70
1
43
0.0
10
39.559999463558441
20
-69.800000000000011
10
41.559999463558441
20
-69.800000000000011
10
41.559999463558441
20
-71.799999999999997
10
39.559999463558441
20
-71.799999999999997
0
LWPOLYLINE
5
121
100
AcDbEntity
8
0
100
AcDbPolyline
90
4
70
1
43
0.0
10
43.879999463558441
20
-69.800000000000011
10
45.879999463558434
20
-69.800000000000011
10
45.879999463558434
20
-71.799999999999997
10
43.879999463558441
20
-71.799999999999997
0
LWPOLYLINE
5
122
100
AcDbEntity
8
0
100
AcDbPolyline
90
4
70
1
43
0.0
10
48.199999463558434
20
-69.800000000000011
10
50.199999463558441
20
-69.800000000000011
10
50.199999463558441
20
-71.799999999999997
10
48.199999463558434
20
-71.799999999999997
0
LWPOLYLINE
5
123
100
AcDbEntity
8
0
100
AcDbPolyline
90
4
70
1
43
0.0
10
52.519999463558442
20
-69.800000000000011
10
54.519999463558442
20
-69.800000000000011
10
54.519999463558442
20
-71.799999999999997
10
52.519999463558442
20
-71.799999999999997
0
LWPOLYLINE
5
124
100
AcDbEntity
8
0
100
AcDbPolyline
90
4
70
1
43
0.0
10
56.839999463558442
20
-69.800000000000011
10
58.839999463558442
20
-69.800000000000011
10
58.839999463558442
20
-71.799999999999997
10
56.839999463558442
20
-71.799999999999997
0
LWPOLYLINE
5
125
100
AcDbEntity
8
0
100
AcDbPolyline
90
4
70
1
43
0.0
10
4.9999994635584351
20
-65.480000000000004
10
6.9999994635584351
20
-65.480000000000004
10
6.9999994635584351
20
-67.47999999999999
10
4.9999994635584351
20
-67.47999999999999
0
LWPOLYLINE
5
126
100
AcDbEntity
8
0
100
AcDbPolyline
90
4
70
1
43
0.0
10
9.3199994635584353
20
-65.480000000000004
10
11.319999463558435
20
-65.480000000000004
10
11.319999463558435
20
-67.47999999999999
10
9.3199994635584353
20
-67.47999999999999
0
LWPOLYLINE
5
127
100
AcDbEntity
8
0
100
AcDbPolyline
90
4
70
1
43
0.0
10
13.639999463558436
20
-65.480000000000004
10
15.639999463558436
20
-65.480000000000004
10
15.639999463558436
20
-67.47999999999999
10
13.639999463558436
20
-67.47999999999999
0
LWPOLYLINE
5
128
100
AcDbEntity
8
0
100
AcDbPolyline
90
4
70
1
43
0.0
10
17.959999463558439
20
-65.480000000000004
10
19.959999463558439
20
-65.480000000000004
10
19.959999463558439
20
-67.47999999999999
10
17.959999463558439
20
-67.47999999999999
0
LWPOLYLINE
5
129
100
AcDbEntity
8
0
100
AcDbPolyline
90
4
70
1
43
0.0
10
22.279999463558436
20
-65.480000000000004
10
24.279999463558436
20
-65.480000000000004
10
24.279999463558436
20
-67.47999999999999
10
22.279999463558436
20
-67.47999999999999
0
LWPOLYLINE
5
130
100
AcDbEntity
8
0
100
AcDbPolyline
90
4
70
1
43
0.0
10
26.599999463558433
20
-65.480000000000004
10
28.599999463558436
20
-65.480000000000004
10
28.599999463558436
20
-67.47999999999999
10
26.599999463558433
20
-67.47999999999999
0
LWPOLYLINE
5
131
100
AcDbEntity
8
0
100
AcDbPolyline
90
4
70
1
43
0.0
10
30.91999946355844
20
-65.480000000000004
10
32.91999946355844
20
-65.480000000000004
10
32.91999946355844
20
-67.47999999999999
10
30.91999946355844
20
-67.47999999999999
0
LWPOLYLINE
5
132
100
AcDbEntity
8
0
100
AcDbPolyline
90
4
70
1
43
0.0
10
35.239999463558441
20
-65.480000000000004
10
37.239999463558441
20
-65.480000000000004
10
37.239999463558441
20
-67.47999999999999
10
35.239999463558441
20
-67.47999999999999
0
LWPOLYLINE
5
133
100
AcDbEntity
8
0
100
AcDbPolyline
90
4
70
1
43
0.0
10
39.559999463558441
20
-65.480000000000004
10
41.559999463558441
20
-65.480000000000004
10
41.559999463558441
20
-67.47999999999999
10
39.559999463558441
20
-67.47999999999999
0
LWPOLYLINE
5
134
100
AcDbEntity
8
0
100
AcDbPolyline
90
4
70
1
43
0.0
10
43.879999463558441
20
-65.480000000000004
10
45.879999463558434
20
-65.480000000000004
10
45.879999463558434
20
-67.47999999999999
10
43.879999463558441
20
-67.47999999999999
0
LWPOLYLINE
5
135
100
AcDbEntity
8
0
100
AcDbPolyline
90
4
70
1
43
0.0
10
48.199999463558434
20
-65.480000000000004
10
50.199999463558441
20
-65.480000000000004
10
50.199999463558441
20
-67.47999999999999
10
48.199999463558434
20
-67.47999999999999
0
LWPOLYLINE
5
136
100
AcDbEntity
8
0
100
AcDbPolyline
90
4
70
1
43
0.0
10
52.519999463558442
20
-65.480000000000004
10
54.519999463558442
20
-65.480000000000004
10
54.519999463558442
20
-67.47999999999999
10
52.519999463558442
20
-67.47999999999999
0
LWPOLYLINE
5
137
100
AcDbEntity
8
0
100
AcDbPolyline
90
4
70
1
43
0.0
10
56.839999463558442
20
-65.480000000000004
10
58.839999463558442
20
-65.480000000000004
10
58.839999463558442
20
-67.47999999999999
10
56.839999463558442
20
-67.47999999999999
0
LWPOLYLINE
5
138
100
AcDbEntity
8
0
100
AcDbPolyline
90
4
70
1
43
0.0
10
4.9999994635584351
20
-61.159999999999997
10
6.9999994635584351
20
-61.159999999999997
10
6.9999994635584351
20
-63.159999999999989
10
4.9999994635584351
20
-63.159999999999989
0
LWPOLYLINE
5
139
100
AcDbEntity
8
0
100
AcDbPolyline
90
4
70
1
43
0.0
10
9.3199994635584353
20
-61.159999999999997
10
11.319999463558435
20
-61.159999999999997
10
11.319999463558435
20
-63.159999999999989
10
9.3199994635584353
20
-63.159999999999989
0
LWPOLYLINE
5
140
100
AcDbEntity
8
0
100
AcDbPolyline
90
4
70
1
43
0.0
10
13.639999463558436
20
-61.159999999999997
10
15.639999463558436
20
-61.159999999999997
10
15.639999463558436
20
-63.159999999999989
10
13.639999463558436
20
-63.159999999999989
0
LWPOLYLINE
5
141
100
AcDbEntity
8
0
100
AcDbPolyline
90
4
70
1
43
0.0
10
17.959999463558439
20
-61.159999999999997
10
19.959999463558439
20
-61.159999999999997
10
19.959999463558439
20
-63.159999999999989
10
17.959999463558439
20
-63.159999999999989
0
LWPOLYLINE
5
142
100
AcDbEntity
8
0
100
AcDbPolyline
90
4
70
1
43
0.0
10
22.279999463558436
20
-61.159999999999997
10
24.279999463558436
20
-61.159999999999997
10
24.279999463558436
20
-63.159999999999989
10
22.279999463558436
20
-63.159999999999989
0
LWPOLYLINE
5
143
100
AcDbEntity
8
0
100
AcDbPolyline
90
4
70
1
43
0.0
10
26.599999463558433
20
-61.159999999999997
10
28.599999463558436
20
-61.159999999999997
10
28.599999463558436
20
-63.159999999999989
10
26.599999463558433
20
-63.159999999999989
0
LWPOLYLINE
5
144
100
AcDbEntity
8
0
100
AcDbPolyline
90
4
70
1
43
0.0
10
30.91999946355844
20
-61.159999999999997
10
32.91999946355844
20
-61.159999999999997
10
32.91999946355844
20
-63.159999999999989
10
30.91999946355844
20
-63.159999999999989
0
LWPOLYLINE
5
145
100
AcDbEntity
8
0
100
AcDbPolyline
90
4
70
1
43
0.0
10
35.239999463558441
20
-61.159999999999997
10
37.239999463558441
20
-61.159999999999997
10
37.239999463558441
20
-63.159999999999989
10
35.239999463558441
20
-63.159999999999989
0
LWPOLYLINE
5
146
100
AcDbEntity
8
0
100
AcDbPolyline
90
4
70
1
43
0.0
10
39.559999463558441
20
-61.159999999999997
10
41.559999463558441
20
-61.159999999999997
10
41.559999463558441
20
-63.159999999999989
10
39.559999463558441
20
-63.159999999999989
0
LWPOLYLINE
5
147
100
AcDbEntity
8
0
100
AcDbPolyline
90
4
70
1
43
0.0
10
43.879999463558441
20
-61.159999999999997
10
45.879999463558434
20
-61.159999999999997
10
45.879999463558434
20
-63.159999999999989
10
43.879999463558441
20
-63.159999999999989
0
LWPOLYLINE
5
148
100
AcDbEntity
8
0
100
AcDbPolyline
90
4
70
1
43
0.0
10
48.199999463558434
20
-61.159999999999997
10
50.199999463558441
20
-61.159999999999997
10
50.199999463558441
20
-63.159999999999989
10
48.199999463558434
20
-63.159999999999989
0
LWPOLYLINE
5
149
100
AcDbEntity
8
0
100
AcDbPolyline
90
4
70
1
43
0.0
10
52.519999463558442
20
-61.159999999999997
10
54.519999463558442
20
-61.159999999999997
10
54.519999463558442
20
-63.159999999999989
10
52.519999463558442
20
-63.159999999999989
0
LWPOLYLINE
5
150
100
AcDbEntity
8
0
100
AcDbPolyline
90
4
70
1
43
0.0
10
56.839999463558442
20
-61.159999999999997
10
58.839999463558442
20
-61.159999999999997
10
58.839999463558442
20
-63.159999999999989
10
56.839999463558442
20
-63.159999999999989
0
LWPOLYLINE
5
151
100
AcDbEntity
8
0
100
AcDbPolyline
90
4
70
1
43
0.0
10
61.159999463558435
20
-113
10
63.159999463558442
20
-113
10
63.159999463558442
20
-115
10
61.159999463558435
20
-115
0
LWPOLYLINE
5
152
100
AcDbEntity
8
0
100
AcDbPolyline
90
4
70
1
43
0.0
10
65.479999463558443
20
-113
10
67.479999463558443
20
-113
10
67.479999463558443
20
-115
10
65.479999463558443
20
-115
0
LWPOLYLINE
5
153
100
AcDbEntity
8
0
100
AcDbPolyline
90
4
70
1
43
0.0
10
69.799999463558436
20
-113
10
71.799999463558436
20
-113
10
71.799999463558436
20
-115
10
69.799999463558436
20
-115
0
LWPOLYLINE
5
154
100
AcDbEntity
8
0
100
AcDbPolyline
90
4
70
1
43
0.0
10
74.119999463558443
20
-113
10
76.119999463558443
20
-113
10
76.119999463558443
20
-115
10
74.119999463558443
20
-115
0
LWPOLYLINE
5
155
100
AcDbEntity
8
0
100
AcDbPolyline
90
4
70
1
43
0.0
10
78.439999463558451
20
-113
10
80.439999463558451
20
-113
10
80.439999463558451
20
-115
10
78.439999463558451
20
-115
0
LWPOLYLINE
5
156
100
AcDbEntity
8
0
100
AcDbPolyline
90
4
70
1
43
0.0
10
61.159999463558435
20
-108.68000000000001
10
63.159999463558442
20
-108.68000000000001
10
63.159999463558442
20
-110.67999999999999
10
61.159999463558435
20
-110.67999999999999
0
LWPOLYLINE
5
157
100
AcDbEntity
8
0
100
AcDbPolyline
90
4
70
1
43
0.0
10
65.479999463558443
20
-108.68000000000001
10
67.479999463558443
20
-108.68000000000001
10
67.479999463558443
20
-110.67999999999999
10
65.479999463558443
20
-110.67999999999999
0
LWPOLYLINE
5
158
100
AcDbEntity
8
0
100
AcDbPolyline
90
4
70
1
43
0.0
10
69.799999463558436
20
-108.68000000000001
10
71.799999463558436
20
-108.68000000000001
10
71.799999463558436
20
-110.67999999999999
10
69.799999463558436
20
-110.67999999999999
0
LWPOLYLINE
5
159
100
AcDbEntity
8
0
100
AcDbPolyline
90
4
70
1
43
0.0
10
74.119999463558443
20
-108.68000000000001
10
76.119999463558443
20
-108.68000000000001
10
76.119999463558443
20
-110.67999999999999
10
74.119999463558443
20
-110.67999999999999
0
LWPOLYLINE
5
160
100
AcDbEntity
8
0
100
AcDbPolyline
90
4
70
1
43
0.0
10
78.439999463558451
20
-108.68000000000001
10
80.439999463558451
20
-108.68000000000001
10
80.439999463558451
20
-110.67999999999999
10
78.439999463558451
20
-110.67999999999999
0
LWPOLYLINE
5
161
100
AcDbEntity
8
0
100
AcDbPolyline
90
4
70
1
43
0.0
10
61.159999463558435
20
-104.36
10
63.159999463558442
20
-104.36
10
63.159999463558442
20
-106.35999999999999
10
61.159999463558435
20
-106.35999999999999
0
LWPOLYLINE
5
162
100
AcDbEntity
8
0
100
AcDbPolyline
90
4
70
1
43
0.0
10
65.479999463558443
20
-104.36
10
67.479999463558443
20
-104.36
10
67.479999463558443
20
-106.35999999999999
10
65.479999463558443
20
-106.35999999999999
0
LWPOLYLINE
5
163
100
AcDbEntity
8
0
100
AcDbPolyline
90
4
70
1
43
0.0
10
69.799999463558436
20
-104.36
10
71.799999463558436
20
-104.36
10
71.799999463558436
20
-106.35999999999999
10
69.799999463558436
20
-106.35999999999999
0
LWPOLYLINE
5
164
100
AcDbEntity
8
0
100
AcDbPolyline
90
4
70
1
43
0.0
10
74.119999463558443
20
-104.36
10
76.119999463558443
20
-104.36
10
76.119999463558443
20
-106.35999999999999
10
74.119999463558443
20
-106.35999999999999
0
LWPOLYLINE
5
165
100
AcDbEntity
8
0
100
AcDbPolyline
90
4
70
1
43
0.0
10
78.439999463558451
20
-104.36
10
80.439999463558451
20
-104.36
10
80.439999463558451
20
-106.35999999999999
10
78.439999463558451
20
-106.35999999999999
0
LWPOLYLINE
5
166
100
AcDbEntity
8
0
100
AcDbPolyline
90
4
70
1
43
0.0
10
61.159999463558435
20
-100.04000000000002
10
63.159999463558442
20
-100.04000000000002
10
63.159999463558442
20
-102.04000000000001
10
61.159999463558435
20
-102.04000000000001
0
LWPOLYLINE
5
167
100
AcDbEntity
8
0
100
AcDbPolyline
90
4
70
1
43
0.0
10
65.479999463558443
20
-100.04000000000002
10
67.479999463558443
20
-100.04000000000002
10
67.479999463558443
20
-102.04000000000001
10
65.479999463558443
20
-102.04000000000001
0
LWPOLYLINE
5
168
100
AcDbEntity
8
0
100
AcDbPolyline
90
4
70
1
43
0.0
10
69.799999463558436
20
-100.04000000000002
10
71.799999463558436
20
-100.04000000000002
10
71.799999463558436
20
-102.04000000000001
10
69.799999463558436
20
-102.04000000000001
0
LWPOLYLINE
5
169
100
AcDbEntity
8
0
100
AcDbPolyline
90
4
70
1
43
0.0
10
74.119999463558443
20
-100.04000000000002
10
76.119999463558443
20
-100.04000000000002
10
76.119999463558443
20
-102.04000000000001
10
74.119999463558443
20
-102.04000000000001
0
LWPOLYLINE
5
170
100
AcDbEntity
8
0
100
AcDbPolyline
90
4
70
1
43
0.0
10
78.439999463558451
20
-100.04000000000002
10
80.439999463558451
20
-100.04000000000002
10
80.439999463558451
20
-102.04000000000001
10
78.439999463558451
20
-102.04000000000001
0
LWPOLYLINE
5
171
100
AcDbEntity
8
0
100
AcDbPolyline
90
4
70
1
43
0.0
10
61.159999463558435
20
-95.720000000000013
10
63.159999463558442
20
-95.720000000000013
10
63.159999463558442
20
-97.719999999999999
10
61.159999463558435
20
-97.719999999999999
0
LWPOLYLINE
5
172
100
AcDbEntity
8
0
100
AcDbPolyline
90
4
70
1
43
0.0
10
65.479999463558443
20
-95.720000000000013
10
67.479999463558443
20
-95.720000000000013
10
67.479999463558443
20
-97.719999999999999
10
65.479999463558443
20
-97.719999999999999
0
LWPOLYLINE
5
173
100
AcDbEntity
8
0
100
AcDbPolyline
90
4
70
1
43
0.0
10
69.799999463558436
20
-95.720000000000013
10
71.799999463558436
20
-95.720000000000013
10
71.799999463558436
20
-97.719999999999999
10
69.799999463558436
20
-97.719999999999999
0
LWPOLYLINE
5
174
100
AcDbEntity
8
0
100
AcDbPolyline
90
4
70
1
43
0.0
10
74.119999463558443
20
-95.720000000000013
10
76.119999463558443
20
-95.720000000000013
10
76.119999463558443
20
-97.719999999999999
10
74.119999463558443
20
-97.719999999999999
0
LWPOLYLINE
5
175
100
AcDbEntity
8
0
100
AcDbPolyline
90
4
70
1
43
0.0
10
78.439999463558451
20
-95.720000000000013
10
80.439999463558451
20
-95.720000000000013
10
80.439999463558451
20
-97.719999999999999
10
78.439999463558451
20
-97.719999999999999
0
LWPOLYLINE
5
176
100
AcDbEntity
8
0
100
AcDbPolyline
90
4
70
1
43
0.0
10
61.159999463558435
20
-91.400000000000006
10
63.159999463558442
20
-91.400000000000006
10
63.159999463558442
20
-93.400000000000006
10
61.159999463558435
20
-93.400000000000006
0
LWPOLYLINE
5
177
100
AcDbEntity
8
0
100
AcDbPolyline
90
4
70
1
43
0.0
10
65.479999463558443
20
-91.400000000000006
10
67.479999463558443
20
-91.400000000000006
10
67.479999463558443
20
-93.400000000000006
10
65.479999463558443
20
-93.400000000000006
0
LWPOLYLINE
5
178
100
AcDbEntity
8
0
100
AcDbPolyline
90
4
70
1
43
0.0
10
69.799999463558436
20
-91.400000000000006
10
71.799999463558436
20
-91.400000000000006
10
71.799999463558436
20
-93.400000000000006
10
69.799999463558436
20
-93.400000000000006
0
LWPOLYLINE
5
179
100
AcDbEntity
8
0
100
AcDbPolyline
90
4
70
1
43
0.0
10
74.119999463558443
20
-91.400000000000006
10
76.119999463558443
20
-91.400000000000006
10
76.119999463558443
20
-93.400000000000006
10
74.119999463558443
20
-93.400000000000006
0
LWPOLYLINE
5
180
100
AcDbEntity
8
0
100
AcDbPolyline
90
4
70
1
43
0.0
10
78.439999463558451
20
-91.400000000000006
10
80.439999463558451
20
-91.400000000000006
10
80.439999463558451
20
-93.400000000000006
10
78.439999463558451
20
-93.400000000000006
0
LWPOLYLINE
5
181
100
AcDbEntity
8
0
100
AcDbPolyline
90
4
70
1
43
0.0
10
61.159999463558435
20
-87.079999999999998
10
63.159999463558442
20
-87.079999999999998
10
63.159999463558442
20
-89.079999999999998
10
61.159999463558435
20
-89.079999999999998
0
LWPOLYLINE
5
182
100
AcDbEntity
8
0
100
AcDbPolyline
90
4
70
1
43
0.0
10
65.479999463558443
20
-87.079999999999998
10
67.479999463558443
20
-87.079999999999998
10
67.479999463558443
20
-89.079999999999998
10
65.479999463558443
20
-89.079999999999998
0
LWPOLYLINE
5
183
100
AcDbEntity
8
0
100
AcDbPolyline
90
4
70
1
43
0.0
10
69.799999463558436
20
-87.079999999999998
10
71.799999463558436
20
-87.079999999999998
10
71.799999463558436
20
-89.079999999999998
10
69.799999463558436
20
-89.079999999999998
0
LWPOLYLINE
5
184
100
AcDbEntity
8
0
100
AcDbPolyline
90
4
70
1
43
0.0
10
74.119999463558443
20
-87.079999999999998
10
76.119999463558443
20
-87.079999999999998
10
76.119999463558443
20
-89.079999999999998
10
74.119999463558443
20
-89.079999999999998
0
LWPOLYLINE
5
185
100
AcDbEntity
8
0
100
AcDbPolyline
90
4
70
1
43
0.0
10
78.439999463558451
20
-87.079999999999998
10
80.439999463558451
20
-87.079999999999998
10
80.439999463558451
20
-89.079999999999998
10
78.439999463558451
20
-89.079999999999998
0
LWPOLYLINE
5
186
100
AcDbEntity
8
0
100
AcDbPolyline
90
4
70
1
43
0.0
10
61.159999463558435
20
-82.759999999999991
10
63.159999463558442
20
-82.759999999999991
10
63.159999463558442
20
-84.759999999999991
10
61.159999463558435
20
-84.759999999999991
0
LWPOLYLINE
5
187
100
AcDbEntity
8
0
100
AcDbPolyline
90
4
70
1
43
0.0
10
65.479999463558443
20
-82.759999999999991
10
67.479999463558443
20
-82.759999999999991
10
67.479999463558443
20
-84.759999999999991
10
65.479999463558443
20
-84.759999999999991
0
LWPOLYLINE
5
188
100
AcDbEntity
8
0
100
AcDbPolyline
90
4
70
1
43
0.0
10
69.799999463558436
20
-82.759999999999991
10
71.799999463558436
20
-82.759999999999991
10
71.799999463558436
20
-84.759999999999991
10
69.799999463558436
20
-84.759999999999991
0
LWPOLYLINE
5
189
100
AcDbEntity
8
0
100
AcDbPolyline
90
4
70
1
43
0.0
10
74.119999463558443
20
-82.759999999999991
10
76.119999463558443
20
-82.759999999999991
10
76.119999463558443
20
-84.759999999999991
10
74.119999463558443
20
-84.759999999999991
0
LWPOLYLINE
5
190
100
AcDbEntity
8
0
100
AcDbPolyline
90
4
70
1
43
0.0
10
78.439999463558451
20
-82.759999999999991
10
80.439999463558451
20
-82.759999999999991
10
80.439999463558451
20
-84.759999999999991
10
78.439999463558451
20
-84.759999999999991
0
LWPOLYLINE
5
191
100
AcDbEntity
8
0
100
AcDbPolyline
90
4
70
1
43
0.0
10
61.159999463558435
20
-78.439999999999998
10
63.159999463558442
20
-78.439999999999998
10
63.159999463558442
20
-80.439999999999998
10
61.159999463558435
20
-80.439999999999998
0
LWPOLYLINE
5
192
100
AcDbEntity
8
0
100
AcDbPolyline
90
4
70
1
43
0.0
10
65.479999463558443
20
-78.439999999999998
10
67.479999463558443
20
-78.439999999999998
10
67.479999463558443
20
-80.439999999999998
10
65.479999463558443
20
-80.439999999999998
0
LWPOLYLINE
5
193
100
AcDbEntity
8
0
100
AcDbPolyline
90
4
70
1
43
0.0
10
69.799999463558436
20
-78.439999999999998
10
71.799999463558436
20
-78.439999999999998
10
71.799999463558436
20
-80.439999999999998
10
69.799999463558436
20
-80.439999999999998
0
LWPOLYLINE
5
194
100
AcDbEntity
8
0
100
AcDbPolyline
90
4
70
1
43
0.0
10
74.119999463558443
20
-78.439999999999998
10
76.119999463558443
20
-78.439999999999998
10
76.119999463558443
20
-80.439999999999998
10
74.119999463558443
20
-80.439999999999998
0
LWPOLYLINE
5
195
100
AcDbEntity
8
0
100
AcDbPolyline
90
4
70
1
43
0.0
10
78.439999463558451
20
-78.439999999999998
10
80.439999463558451
20
-78.439999999999998
10
80.439999463558451
20
-80.439999999999998
10
78.439999463558451
20
-80.439999999999998
0
LWPOLYLINE
5
196
100
AcDbEntity
8
0
100
AcDbPolyline
90
4
70
1
43
0.0
10
61.159999463558435
20
-74.120000000000005
10
63.159999463558442
20
-74.120000000000005
10
63.159999463558442
20
-76.120000000000005
10
61.159999463558435
20
-76.120000000000005
0
LWPOLYLINE
5
197
100
AcDbEntity
8
0
100
AcDbPolyline
90
4
70
1
43
0.0
10
65.479999463558443
20
-74.120000000000005
10
67.479999463558443
20
-74.120000000000005
10
67.479999463558443
20
-76.120000000000005
10
65.479999463558443
20
-76.120000000000005
0
LWPOLYLINE
5
198
100
AcDbEntity
8
0
100
AcDbPolyline
90
4
70
1
43
0.0
10
69.799999463558436
20
-74.120000000000005
10
71.799999463558436
20
-74.120000000000005
10
71.799999463558436
20
-76.120000000000005
10
69.799999463558436
20
-76.120000000000005
0
LWPOLYLINE
5
199
100
AcDbEntity
8
0
100
AcDbPolyline
90
4
70
1
43
0.0
10
74.119999463558443
20
-74.120000000000005
10
76.119999463558443
20
-74.120000000000005
10
76.119999463558443
20
-76.120000000000005
10
74.119999463558443
20
-76.120000000000005
0
LWPOLYLINE
5
200
100
AcDbEntity
8
0
100
AcDbPolyline
90
4
70
1
43
0.0
10
78.439999463558451
20
-74.120000000000005
10
80.439999463558451
20
-74.120000000000005
10
80.439999463558451
20
-76.120000000000005
10
78.439999463558451
20
-76.120000000000005
0
LWPOLYLINE
5
201
100
AcDbEntity
8
0
100
AcDbPolyline
90
4
70
1
43
0.0
10
61.159999463558435
20
-69.800000000000011
10
63.159999463558442
20
-69.800000000000011
10
63.159999463558442
20
-71.799999999999997
10
61.159999463558435
20
-71.799999999999997
0
LWPOLYLINE
5
202
100
AcDbEntity
8
0
100
AcDbPolyline
90
4
70
1
43
0.0
10
65.479999463558443
20
-69.800000000000011
10
67.479999463558443
20
-69.800000000000011
10
67.479999463558443
20
-71.799999999999997
10
65.479999463558443
20
-71.799999999999997
0
LWPOLYLINE
5
203
100
AcDbEntity
8
0
100
AcDbPolyline
90
4
70
1
43
0.0
10
69.799999463558436
20
-69.800000000000011
10
71.799999463558436
20
-69.800000000000011
10
71.799999463558436
20
-71.799999999999997
10
69.799999463558436
20
-71.799999999999997
0
LWPOLYLINE
5
204
100
AcDbEntity
8
0
100
AcDbPolyline
90
4
70
1
43
0.0
10
74.119999463558443
20
-69.800000000000011
10
76.119999463558443
20
-69.800000000000011
10
76.119999463558443
20
-71.799999999999997
10
74.119999463558443
20
-71.799999999999997
0
LWPOLYLINE
5
205
100
AcDbEntity
8
0
100
AcDbPolyline
90
4
70
1
43
0.0
10
78.439999463558451
20
-69.800000000000011
10
80.439999463558451
20
-69.800000000000011
10
80.439999463558451
20
-71.799999999999997
10
78.439999463558451
20
-71.799999999999997
0
LWPOLYLINE
5
206
100
AcDbEntity
8
0
100
AcDbPolyline
90
4
70
1
43
0.0
10
61.159999463558435
20
-65.480000000000004
10
63.159999463558442
20
-65.480000000000004
10
63.159999463558442
20
-67.47999999999999
10
61.159999463558435
20
-67.47999999999999
0
LWPOLYLINE
5
207
100
AcDbEntity
8
0
100
AcDbPolyline
90
4
70
1
43
0.0
10
65.479999463558443
20
-65.480000000000004
10
67.479999463558443
20
-65.480000000000004
10
67.479999463558443
20
-67.47999999999999
10
65.479999463558443
20
-67.47999999999999
0
LWPOLYLINE
5
208
100
AcDbEntity
8
0
100
AcDbPolyline
90
4
70
1
43
0.0
10
69.799999463558436
20
-65.480000000000004
10
71.799999463558436
20
-65.480000000000004
10
71.799999463558436
20
-67.47999999999999
10
69.799999463558436
20
-67.47999999999999
0
LWPOLYLINE
5
209
100
AcDbEntity
8
0
100
AcDbPolyline
90
4
70
1
43
0.0
10
69.799999463558436
20
-61.159999999999997
10
71.799999463558436
20
-61.159999999999997
10
71.799999463558436
20
-63.159999999999989
10
69.799999463558436
20
-63.159999999999989
0
LWPOLYLINE
5
210
100
AcDbEntity
8
0
100
AcDbPolyline
90
4
70
1
43
0.0
10
74.119999463558443
20
-65.480000000000004
10
76.119999463558443
20
-65.480000000000004
10
76.119999463558443
20
-67.47999999999999
10
74.119999463558443
20
-67.47999999999999
0
LWPOLYLINE
5
211
100
AcDbEntity
8
0
100
AcDbPolyline
90
4
70
1
43
0.0
10
65.479999463558443
20
-61.159999999999997
10
67.479999463558443
20
-61.159999999999997
10
67.479999463558443
20
-63.159999999999989
10
65.479999463558443
20
-63.159999999999989
0
LWPOLYLINE
5
212
100
AcDbEntity
8
0
100
AcDbPolyline
90
4
70
1
43
0.0
10
61.159999463558435
20
-61.159999999999997
10
63.159999463558442
20
-61.159999999999997
10
63.159999463558442
20
-63.159999999999989
10
61.159999463558435
20
-63.159999999999989
0
LWPOLYLINE
5
213
100
AcDbEntity
8
0
100
AcDbPolyline
90
4
70
1
43
0.0
10
78.439999463558451
20
-65.480000000000004
10
80.439999463558451
20
-65.480000000000004
10
80.439999463558451
20
-67.47999999999999
10
78.439999463558451
20
-67.47999999999999
0
LWPOLYLINE
5
214
100
AcDbEntity
8
0
100
AcDbPolyline
90
4
70
1
43
0.0
10
95.719999463558452
20
-22.279999999999998
10
97.719999463558452
20
-22.279999999999998
10
97.719999463558452
20
-24.27999999999999
10
95.719999463558452
20
-24.27999999999999
0
LWPOLYLINE
5
215
100
AcDbEntity
8
0
100
AcDbPolyline
90
4
70
1
43
0.0
10
100.03999946355846
20
-22.279999999999998
10
102.03999946355844
20
-22.279999999999998
10
102.03999946355844
20
-24.27999999999999
10
100.03999946355846
20
-24.27999999999999
0
LWPOLYLINE
5
216
100
AcDbEntity
8
0
100
AcDbPolyline
90
4
70
1
43
0.0
10
104.35999946355847
20
-22.279999999999998
10
106.35999946355845
20
-22.279999999999998
10
106.35999946355845
20
-24.27999999999999
10
104.35999946355847
20
-24.27999999999999
0
LWPOLYLINE
5
217
100
AcDbEntity
8
0
100
AcDbPolyline
90
4
70
1
43
0.0
10
108.67999946355846
20
-22.279999999999998
10
110.67999946355846
20
-22.279999999999998
10
110.67999946355846
20
-24.27999999999999
10
108.67999946355846
20
-24.27999999999999
0
LWPOLYLINE
5
218
100
AcDbEntity
8
0
100
AcDbPolyline
90
4
70
1
43
0.0
10
112.99999946355845
20
-22.279999999999998
10
114.99999946355844
20
-22.279999999999998
10
114.99999946355844
20
-24.27999999999999
10
112.99999946355845
20
-24.27999999999999
0
LWPOLYLINE
5
219
100
AcDbEntity
8
0
100
AcDbPolyline
90
4
70
1
43
0.0
10
4.9999994635584351
20
-17.959999999999994
10
6.9999994635584351
20
-17.959999999999994
10
6.9999994635584351
20
-19.959999999999987
10
4.9999994635584351
20
-19.959999999999987
0
LWPOLYLINE
5
220
100
AcDbEntity
8
0
100
AcDbPolyline
90
4
70
1
43
0.0
10
9.3199994635584353
20
-17.959999999999994
10
11.319999463558435
20
-17.959999999999994
10
11.319999463558435
20
-19.959999999999987
10
9.3199994635584353
20
-19.959999999999987
0
LWPOLYLINE
5
221
100
AcDbEntity
8
0
100
AcDbPolyline
90
4
70
1
43
0.0
10
13.639999463558436
20
-17.959999999999994
10
15.639999463558436
20
-17.959999999999994
10
15.639999463558436
20
-19.959999999999987
10
13.639999463558436
20
-19.959999999999987
0
LWPOLYLINE
5
222
100
AcDbEntity
8
0
100
AcDbPolyline
90
4
70
1
43
0.0
10
17.959999463558439
20
-17.959999999999994
10
19.959999463558439
20
-17.959999999999994
10
19.959999463558439
20
-19.959999999999987
10
17.959999463558439
20
-19.959999999999987
0
LWPOLYLINE
5
223
100
AcDbEntity
8
0
100
AcDbPolyline
90
4
70
1
43
0.0
10
22.279999463558436
20
-17.959999999999994
10
24.279999463558436
20
-17.959999999999994
10
24.279999463558436
20
-19.959999999999987
10
22.279999463558436
20
-19.959999999999987
0
LWPOLYLINE
5
224
100
AcDbEntity
8
0
100
AcDbPolyline
90
4
70
1
43
0.0
10
26.599999463558433
20
-17.959999999999994
10
28.599999463558436
20
-17.959999999999994
10
28.599999463558436
20
-19.959999999999987
10
26.599999463558433
20
-19.959999999999987
0
LWPOLYLINE
5
225
100
AcDbEntity
8
0
100
AcDbPolyline
90
4
70
1
43
0.0
10
30.91999946355844
20
-17.959999999999994
10
32.91999946355844
20
-17.959999999999994
10
32.91999946355844
20
-19.959999999999987
10
30.91999946355844
20
-19.959999999999987
0
LWPOLYLINE
5
226
100
AcDbEntity
8
0
100
AcDbPolyline
90
4
70
1
43
0.0
10
35.239999463558441
20
-17.959999999999994
10
37.239999463558441
20
-17.959999999999994
10
37.239999463558441
20
-19.959999999999987
10
35.239999463558441
20
-19.959999999999987
0
LWPOLYLINE
5
227
100
AcDbEntity
8
0
100
AcDbPolyline
90
4
70
1
43
0.0
10
39.559999463558441
20
-17.959999999999994
10
41.559999463558441
20
-17.959999999999994
10
41.559999463558441
20
-19.959999999999987
10
39.559999463558441
20
-19.959999999999987
0
LWPOLYLINE
5
228
100
AcDbEntity
8
0
100
AcDbPolyline
90
4
70
1
43
0.0
10
43.879999463558441
20
-17.959999999999994
10
45.879999463558434
20
-17.959999999999994
10
45.879999463558434
20
-19.959999999999987
10
43.879999463558441
20
-19.959999999999987
0
LWPOLYLINE
5
229
100
AcDbEntity
8
0
100
AcDbPolyline
90
4
70
1
43
0.0
10
48.199999463558434
20
-17.959999999999994
10
50.199999463558441
20
-17.959999999999994
10
50.199999463558441
20
-19.959999999999987
10
48.199999463558434
20
-19.959999999999987
0
LWPOLYLINE
5
230
100
AcDbEntity
8
0
100
AcDbPolyline
90
4
70
1
43
0.0
10
52.519999463558442
20
-17.959999999999994
10
54.519999463558442
20
-17.959999999999994
10
54.519999463558442
20
-19.959999999999987
10
52.519999463558442
20
-19.959999999999987
0
LWPOLYLINE
5
231
100
AcDbEntity
8
0
100
AcDbPolyline
90
4
70
1
43
0.0
10
56.839999463558442
20
-17.959999999999994
10
58.839999463558442
20
-17.959999999999994
10
58.839999463558442
20
-19.959999999999987
10
56.839999463558442
20
-19.959999999999987
0
LWPOLYLINE
5
232
100
AcDbEntity
8
0
100
AcDbPolyline
90
4
70
1
43
0.0
10
61.159999463558435
20
-17.959999999999994
10
63.159999463558442
20
-17.959999999999994
10
63.159999463558442
20
-19.959999999999987
10
61.159999463558435
20
-19.959999999999987
0
LWPOLYLINE
5
233
100
AcDbEntity
8
0
100
AcDbPolyline
90
4
70
1
43
0.0
10
65.479999463558443
20
-17.959999999999994
10
67.479999463558443
20
-17.959999999999994
10
67.479999463558443
20
-19.959999999999987
10
65.479999463558443
20
-19.959999999999987
0
LWPOLYLINE
5
234
100
AcDbEntity
8
0
100
AcDbPolyline
90
4
70
1
43
0.0
10
69.799999463558436
20
-17.959999999999994
10
71.799999463558436
20
-17.959999999999994
10
71.799999463558436
20
-19.959999999999987
10
69.799999463558436
20
-19.959999999999987
0
LWPOLYLINE
5
235
100
AcDbEntity
8
0
100
AcDbPolyline
90
4
70
1
43
0.0
10
74.119999463558443
20
-17.959999999999994
10
76.119999463558443
20
-17.959999999999994
10
76.119999463558443
20
-19.959999999999987
10
74.119999463558443
20
-19.959999999999987
0
LWPOLYLINE
5
236
100
AcDbEntity
8
0
100
AcDbPolyline
90
4
70
1
43
0.0
10
78.439999463558451
20
-17.959999999999994
10
80.439999463558451
20
-17.959999999999994
10
80.439999463558451
20
-19.959999999999987
10
78.439999463558451
20
-19.959999999999987
0
LWPOLYLINE
5
237
100
AcDbEntity
8
0
100
AcDbPolyline
90
4
70
1
43
0.0
10
82.759999463558444
20
-17.959999999999994
10
84.759999463558444
20
-17.959999999999994
10
84.759999463558444
20
-19.959999999999987
10
82.759999463558444
20
-19.959999999999987
0
LWPOLYLINE
5
238
100
AcDbEntity
8
0
100
AcDbPolyline
90
4
70
1
43
0.0
10
87.079999463558437
20
-17.959999999999994
10
89.079999463558437
20
-17.959999999999994
10
89.079999463558437
20
-19.959999999999987
10
87.079999463558437
20
-19.959999999999987
0
LWPOLYLINE
5
239
100
AcDbEntity
8
0
100
AcDbPolyline
90
4
70
1
43
0.0
10
91.399999463558444
20
-17.959999999999994
10
93.399999463558444
20
-17.959999999999994
10
93.399999463558444
20
-19.959999999999987
10
91.399999463558444
20
-19.959999999999987
0
LWPOLYLINE
5
240
100
AcDbEntity
8
0
100
AcDbPolyline
90
4
70
1
43
0.0
10
95.719999463558452
20
-17.959999999999994
10
97.719999463558452
20
-17.959999999999994
10
97.719999463558452
20
-19.959999999999987
10
95.719999463558452
20
-19.959999999999987
0
LWPOLYLINE
5
241
100
AcDbEntity
8
0
100
AcDbPolyline
90
4
70
1
43
0.0
10
100.03999946355846
20
-17.959999999999994
10
102.03999946355844
20
-17.959999999999994
10
102.03999946355844
20
-19.959999999999987
10
100.03999946355846
20
-19.959999999999987
0
LWPOLYLINE
5
242
100
AcDbEntity
8
0
100
AcDbPolyline
90
4
70
1
43
0.0
10
104.35999946355847
20
-17.959999999999994
10
106.35999946355845
20
-17.959999999999994
10
106.35999946355845
20
-19.959999999999987
10
104.35999946355847
20
-19.959999999999987
0
LWPOLYLINE
5
243
100
AcDbEntity
8
0
100
AcDbPolyline
90
4
70
1
43
0.0
10
108.67999946355846
20
-17.959999999999994
10
110.67999946355846
20
-17.959999999999994
10
110.67999946355846
20
-19.959999999999987
10
108.67999946355846
20
-19.959999999999987
0
LWPOLYLINE
5
244
100
AcDbEntity
8
0
100
AcDbPolyline
90
4
70
1
43
0.0
10
112.99999946355845
20
-17.959999999999994
10
114.99999946355844
20
-17.959999999999994
10
114.99999946355844
20
-19.959999999999987
10
112.99999946355845
20
-19.959999999999987
0
LWPOLYLINE
5
245
100
AcDbEntity
8
0
100
AcDbPolyline
90
4
70
1
43
0.0
10
4.9999994635584351
20
-13.63999999999999
10
6.9999994635584351
20
-13.63999999999999
10
6.9999994635584351
20
-15.639999999999983
10
4.9999994635584351
20
-15.639999999999983
0
LWPOLYLINE
5
246
100
AcDbEntity
8
0
100
AcDbPolyline
90
4
70
1
43
0.0
10
9.3199994635584353
20
-13.63999999999999
10
11.319999463558435
20
-13.63999999999999
10
11.319999463558435
20
-15.639999999999983
10
9.3199994635584353
20
-15.639999999999983
0
LWPOLYLINE
5
247
100
AcDbEntity
8
0
100
AcDbPolyline
90
4
70
1
43
0.0
10
13.639999463558436
20
-13.63999999999999
10
15.639999463558436
20
-13.63999999999999
10
15.639999463558436
20
-15.639999999999983
10
13.639999463558436
20
-15.639999999999983
0
LWPOLYLINE
5
248
100
AcDbEntity
8
0
100
AcDbPolyline
90
4
70
1
43
0.0
10
17.959999463558439
20
-13.63999999999999
10
19.959999463558439
20
-13.63999999999999
10
19.959999463558439
20
-15.639999999999983
10
17.959999463558439
20
-15.639999999999983
0
LWPOLYLINE
5
249
100
AcDbEntity
8
0
100
AcDbPolyline
90
4
70
1
43
0.0
10
22.279999463558436
20
-13.63999999999999
10
24.279999463558436
20
-13.63999999999999
10
24.279999463558436
20
-15.639999999999983
10
22.279999463558436
20
-15.639999999999983
0
LWPOLYLINE
5
250
100
AcDbEntity
8
0
100
AcDbPolyline
90
4
70
1
43
0.0
10
26.599999463558433
20
-13.63999999999999
10
28.599999463558436
20
-13.63999999999999
10
28.599999463558436
20
-15.639999999999983
10
26.599999463558433
20
-15.639999999999983
0
LWPOLYLINE
5
251
100
AcDbEntity
8
0
100
AcDbPolyline
90
4
70
1
43
0.0
10
30.91999946355844
20
-13.63999999999999
10
32.91999946355844
20
-13.63999999999999
10
32.91999946355844
20
-15.639999999999983
10
30.91999946355844
20
-15.639999999999983
0
LWPOLYLINE
5
252
100
AcDbEntity
8
0
100
AcDbPolyline
90
4
70
1
43
0.0
10
35.239999463558441
20
-13.63999999999999
10
37.239999463558441
20
-13.63999999999999
10
37.239999463558441
20
-15.639999999999983
10
35.239999463558441
20
-15.639999999999983
0
LWPOLYLINE
5
253
100
AcDbEntity
8
0
100
AcDbPolyline
90
4
70
1
43
0.0
10
39.559999463558441
20
-13.63999999999999
10
41.559999463558441
20
-13.63999999999999
10
41.559999463558441
20
-15.639999999999983
10
39.559999463558441
20
-15.639999999999983
0
LWPOLYLINE
5
254
100
AcDbEntity
8
0
100
AcDbPolyline
90
4
70
1
43
0.0
10
43.879999463558441
20
-13.63999999999999
10
45.879999463558434
20
-13.63999999999999
10
45.879999463558434
20
-15.639999999999983
10
43.879999463558441
20
-15.639999999999983
0
LWPOLYLINE
5
255
100
AcDbEntity
8
0
100
AcDbPolyline
90
4
70
1
43
0.0
10
48.199999463558434
20
-13.63999999999999
10
50.199999463558441
20
-13.63999999999999
10
50.199999463558441
20
-15.639999999999983
10
48.199999463558434
20
-15.639999999999983
0
LWPOLYLINE
5
256
100
AcDbEntity
8
0
100
AcDbPolyline
90
4
70
1
43
0.0
10
52.519999463558442
20
-13.63999999999999
10
54.519999463558442
20
-13.63999999999999
10
54.519999463558442
20
-15.639999999999983
10
52.519999463558442
20
-15.639999999999983
0
LWPOLYLINE
5
257
100
AcDbEntity
8
0
100
AcDbPolyline
90
4
70
1
43
0.0
10
56.839999463558442
20
-13.63999999999999
10
58.839999463558442
20
-13.63999999999999
10
58.839999463558442
20
-15.639999999999983
10
56.839999463558442
20
-15.639999999999983
0
LWPOLYLINE
5
258
100
AcDbEntity
8
0
100
AcDbPolyline
90
4
70
1
43
0.0
10
61.159999463558435
20
-13.63999999999999
10
63.159999463558442
20
-13.63999999999999
10
63.159999463558442
20
-15.639999999999983
10
61.159999463558435
20
-15.639999999999983
0
LWPOLYLINE
5
259
100
AcDbEntity
8
0
100
AcDbPolyline
90
4
70
1
43
0.0
10
65.479999463558443
20
-13.63999999999999
10
67.479999463558443
20
-13.63999999999999
10
67.479999463558443
20
-15.639999999999983
10
65.479999463558443
20
-15.639999999999983
0
LWPOLYLINE
5
260
100
AcDbEntity
8
0
100
AcDbPolyline
90
4
70
1
43
0.0
10
69.799999463558436
20
-13.63999999999999
10
71.799999463558436
20
-13.63999999999999
10
71.799999463558436
20
-15.639999999999983
10
69.799999463558436
20
-15.639999999999983
0
LWPOLYLINE
5
261
100
AcDbEntity
8
0
100
AcDbPolyline
90
4
70
1
43
0.0
10
74.119999463558443
20
-13.63999999999999
10
76.119999463558443
20
-13.63999999999999
10
76.119999463558443
20
-15.639999999999983
10
74.119999463558443
20
-15.639999999999983
0
LWPOLYLINE
5
262
100
AcDbEntity
8
0
100
AcDbPolyline
90
4
70
1
43
0.0
10
78.439999463558451
20
-13.63999999999999
10
80.439999463558451
20
-13.63999999999999
10
80.439999463558451
20
-15.639999999999983
10
78.439999463558451
20
-15.639999999999983
0
LWPOLYLINE
5
263
100
AcDbEntity
8
0
100
AcDbPolyline
90
4
70
1
43
0.0
10
82.759999463558444
20
-13.63999999999999
10
84.759999463558444
20
-13.63999999999999
10
84.759999463558444
20
-15.639999999999983
10
82.759999463558444
20
-15.639999999999983
0
LWPOLYLINE
5
264
100
AcDbEntity
8
0
100
AcDbPolyline
90
4
70
1
43
0.0
10
87.079999463558437
20
-13.63999999999999
10
89.079999463558437
20
-13.63999999999999
10
89.079999463558437
20
-15.639999999999983
10
87.079999463558437
20
-15.639999999999983
0
LWPOLYLINE
5
265
100
AcDbEntity
8
0
100
AcDbPolyline
90
4
70
1
43
0.0
10
91.399999463558444
20
-13.63999999999999
10
93.399999463558444
20
-13.63999999999999
10
93.399999463558444
20
-15.639999999999983
10
91.399999463558444
20
-15.639999999999983
0
LWPOLYLINE
5
266
100
AcDbEntity
8
0
100
AcDbPolyline
90
4
70
1
43
0.0
10
95.719999463558452
20
-13.63999999999999
10
97.719999463558452
20
-13.63999999999999
10
97.719999463558452
20
-15.639999999999983
10
95.719999463558452
20
-15.639999999999983
0
LWPOLYLINE
5
267
100
AcDbEntity
8
0
100
AcDbPolyline
90
4
70
1
43
0.0
10
100.03999946355846
20
-13.63999999999999
10
102.03999946355844
20
-13.63999999999999
10
102.03999946355844
20
-15.639999999999983
10
100.03999946355846
20
-15.639999999999983
0
LWPOLYLINE
5
268
100
AcDbEntity
8
0
100
AcDbPolyline
90
4
70
1
43
0.0
10
104.35999946355847
20
-13.63999999999999
10
106.35999946355845
20
-13.63999999999999
10
106.35999946355845
20
-15.639999999999983
10
104.35999946355847
20
-15.639999999999983
0
LWPOLYLINE
5
269
100
AcDbEntity
8
0
100
AcDbPolyline
90
4
70
1
43
0.0
10
108.67999946355846
20
-13.63999999999999
10
110.67999946355846
20
-13.63999999999999
10
110.67999946355846
20
-15.639999999999983
10
108.67999946355846
20
-15.639999999999983
0
LWPOLYLINE
5
270
100
AcDbEntity
8
0
100
AcDbPolyline
90
4
70
1
43
0.0
10
112.99999946355845
20
-13.63999999999999
10
114.99999946355844
20
-13.63999999999999
10
114.99999946355844
20
-15.639999999999983
10
112.99999946355845
20
-15.639999999999983
0
LWPOLYLINE
5
271
100
AcDbEntity
8
0
100
AcDbPolyline
90
4
70
1
43
0.0
10
4.9999994635584351
20
-9.3199999999999861
10
6.9999994635584351
20
-9.3199999999999861
10
6.9999994635584351
20
-11.319999999999979
10
4.9999994635584351
20
-11.319999999999979
0
LWPOLYLINE
5
272
100
AcDbEntity
8
0
100
AcDbPolyline
90
4
70
1
43
0.0
10
9.3199994635584353
20
-9.3199999999999861
10
11.319999463558435
20
-9.3199999999999861
10
11.319999463558435
20
-11.319999999999979
10
9.3199994635584353
20
-11.319999999999979
0
LWPOLYLINE
5
273
100
AcDbEntity
8
0
100
AcDbPolyline
90
4
70
1
43
0.0
10
13.639999463558436
20
-9.3199999999999861
10
15.639999463558436
20
-9.3199999999999861
10
15.639999463558436
20
-11.319999999999979
10
13.639999463558436
20
-11.319999999999979
0
LWPOLYLINE
5
274
100
AcDbEntity
8
0
100
AcDbPolyline
90
4
70
1
43
0.0
10
17.959999463558439
20
-9.3199999999999861
10
19.959999463558439
20
-9.3199999999999861
10
19.959999463558439
20
-11.319999999999979
10
17.959999463558439
20
-11.319999999999979
0
LWPOLYLINE
5
275
100
AcDbEntity
8
0
100
AcDbPolyline
90
4
70
1
43
0.0
10
22.279999463558436
20
-9.3199999999999861
10
24.279999463558436
20
-9.3199999999999861
10
24.279999463558436
20
-11.319999999999979
10
22.279999463558436
20
-11.319999999999979
0
LWPOLYLINE
5
276
100
AcDbEntity
8
0
100
AcDbPolyline
90
4
70
1
43
0.0
10
26.599999463558433
20
-9.3199999999999861
10
28.599999463558436
20
-9.3199999999999861
10
28.599999463558436
20
-11.319999999999979
10
26.599999463558433
20
-11.319999999999979
0
LWPOLYLINE
5
277
100
AcDbEntity
8
0
100
AcDbPolyline
90
4
70
1
43
0.0
10
30.91999946355844
20
-9.3199999999999861
10
32.91999946355844
20
-9.3199999999999861
10
32.91999946355844
20
-11.319999999999979
10
30.91999946355844
20
-11.319999999999979
0
LWPOLYLINE
5
278
100
AcDbEntity
8
0
100
AcDbPolyline
90
4
70
1
43
0.0
10
35.239999463558441
20
-9.3199999999999861
10
37.239999463558441
20
-9.3199999999999861
10
37.239999463558441
20
-11.319999999999979
10
35.239999463558441
20
-11.319999999999979
0
LWPOLYLINE
5
279
100
AcDbEntity
8
0
100
AcDbPolyline
90
4
70
1
43
0.0
10
39.559999463558441
20
-9.3199999999999861
10
41.559999463558441
20
-9.3199999999999861
10
41.559999463558441
20
-11.319999999999979
10
39.559999463558441
20
-11.319999999999979
0
LWPOLYLINE
5
280
100
AcDbEntity
8
0
100
AcDbPolyline
90
4
70
1
43
0.0
10
43.879999463558441
20
-9.3199999999999861
10
45.879999463558434
20
-9.3199999999999861
10
45.879999463558434
20
-11.319999999999979
10
43.879999463558441
20
-11.319999999999979
0
LWPOLYLINE
5
281
100
AcDbEntity
8
0
100
AcDbPolyline
90
4
70
1
43
0.0
10
48.199999463558434
20
-9.3199999999999861
10
50.199999463558441
20
-9.3199999999999861
10
50.199999463558441
20
-11.319999999999979
10
48.199999463558434
20
-11.319999999999979
0
LWPOLYLINE
5
282
100
AcDbEntity
8
0
100
AcDbPolyline
90
4
70
1
43
0.0
10
52.519999463558442
20
-9.3199999999999861
10
54.519999463558442
20
-9.3199999999999861
10
54.519999463558442
20
-11.319999999999979
10
52.519999463558442
20
-11.319999999999979
0
LWPOLYLINE
5
283
100
AcDbEntity
8
0
100
AcDbPolyline
90
4
70
1
43
0.0
10
56.839999463558442
20
-9.3199999999999861
10
58.839999463558442
20
-9.3199999999999861
10
58.839999463558442
20
-11.319999999999979
10
56.839999463558442
20
-11.319999999999979
0
LWPOLYLINE
5
284
100
AcDbEntity
8
0
100
AcDbPolyline
90
4
70
1
43
0.0
10
61.159999463558435
20
-9.3199999999999861
10
63.159999463558442
20
-9.3199999999999861
10
63.159999463558442
20
-11.319999999999979
10
61.159999463558435
20
-11.319999999999979
0
LWPOLYLINE
5
285
100
AcDbEntity
8
0
100
AcDbPolyline
90
4
70
1
43
0.0
10
65.479999463558443
20
-9.3199999999999861
10
67.479999463558443
20
-9.3199999999999861
10
67.479999463558443
20
-11.319999999999979
10
65.479999463558443
20
-11.319999999999979
0
LWPOLYLINE
5
286
100
AcDbEntity
8
0
100
AcDbPolyline
90
4
70
1
43
0.0
10
69.799999463558436
20
-9.3199999999999861
10
71.799999463558436
20
-9.3199999999999861
10
71.799999463558436
20
-11.319999999999979
10
69.799999463558436
20
-11.319999999999979
0
LWPOLYLINE
5
287
100
AcDbEntity
8
0
100
AcDbPolyline
90
4
70
1
43
0.0
10
74.119999463558443
20
-9.3199999999999861
10
76.119999463558443
20
-9.3199999999999861
10
76.119999463558443
20
-11.319999999999979
10
74.119999463558443
20
-11.319999999999979
0
LWPOLYLINE
5
288
100
AcDbEntity
8
0
100
AcDbPolyline
90
4
70
1
43
0.0
10
78.439999463558451
20
-9.3199999999999861
10
80.439999463558451
20
-9.3199999999999861
10
80.439999463558451
20
-11.319999999999979
10
78.439999463558451
20
-11.319999999999979
0
LWPOLYLINE
5
289
100
AcDbEntity
8
0
100
AcDbPolyline
90
4
70
1
43
0.0
10
82.759999463558444
20
-9.3199999999999861
10
84.759999463558444
20
-9.3199999999999861
10
84.759999463558444
20
-11.319999999999979
10
82.759999463558444
20
-11.319999999999979
0
LWPOLYLINE
5
290
100
AcDbEntity
8
0
100
AcDbPolyline
90
4
70
1
43
0.0
10
87.079999463558437
20
-9.3199999999999861
10
89.079999463558437
20
-9.3199999999999861
10
89.079999463558437
20
-11.319999999999979
10
87.079999463558437
20
-11.319999999999979
0
LWPOLYLINE
5
291
100
AcDbEntity
8
0
100
AcDbPolyline
90
4
70
1
43
0.0
10
91.399999463558444
20
-9.3199999999999861
10
93.399999463558444
20
-9.3199999999999861
10
93.399999463558444
20
-11.319999999999979
10
91.399999463558444
20
-11.319999999999979
0
LWPOLYLINE
5
292
100
AcDbEntity
8
0
100
AcDbPolyline
90
4
70
1
43
0.0
10
95.719999463558452
20
-9.3199999999999861
10
97.719999463558452
20
-9.3199999999999861
10
97.719999463558452
20
-11.319999999999979
10
95.719999463558452
20
-11.319999999999979
0
LWPOLYLINE
5
293
100
AcDbEntity
8
0
100
AcDbPolyline
90
4
70
1
43
0.0
10
100.03999946355846
20
-9.3199999999999861
10
102.03999946355844
20
-9.3199999999999861
10
102.03999946355844
20
-11.319999999999979
10
100.03999946355846
20
-11.319999999999979
0
LWPOLYLINE
5
294
100
AcDbEntity
8
0
100
AcDbPolyline
90
4
70
1
43
0.0
10
104.35999946355847
20
-9.3199999999999861
10
106.35999946355845
20
-9.3199999999999861
10
106.35999946355845
20
-11.319999999999979
10
104.35999946355847
20
-11.319999999999979
0
LWPOLYLINE
5
295
100
AcDbEntity
8
0
100
AcDbPolyline
90
4
70
1
43
0.0
10
108.67999946355846
20
-9.3199999999999861
10
110.67999946355846
20
-9.3199999999999861
10
110.67999946355846
20
-11.319999999999979
10
108.67999946355846
20
-11.319999999999979
0
LWPOLYLINE
5
296
100
AcDbEntity
8
0
100
AcDbPolyline
90
4
70
1
43
0.0
10
112.99999946355845
20
-9.3199999999999861
10
114.99999946355844
20
-9.3199999999999861
10
114.99999946355844
20
-11.319999999999979
10
112.99999946355845
20
-11.319999999999979
0
LWPOLYLINE
5
297
100
AcDbEntity
8
0
100
AcDbPolyline
90
4
70
1
43
0.0
10
4.9999994635584351
20
-5
10
6.9999994635584351
20
-5
10
6.9999994635584351
20
-6.9999999999999929
10
4.9999994635584351
20
-6.9999999999999929
0
LWPOLYLINE
5
298
100
AcDbEntity
8
0
100
AcDbPolyline
90
4
70
1
43
0.0
10
9.3199994635584353
20
-5
10
11.319999463558435
20
-5
10
11.319999463558435
20
-6.9999999999999929
10
9.3199994635584353
20
-6.9999999999999929
0
LWPOLYLINE
5
299
100
AcDbEntity
8
0
100
AcDbPolyline
90
4
70
1
43
0.0
10
13.639999463558436
20
-5
10
15.639999463558436
20
-5
10
15.639999463558436
20
-6.9999999999999929
10
13.639999463558436
20
-6.9999999999999929
0
LWPOLYLINE
5
300
100
AcDbEntity
8
0
100
AcDbPolyline
90
4
70
1
43
0.0
10
17.959999463558439
20
-5
10
19.959999463558439
20
-5
10
19.959999463558439
20
-6.9999999999999929
10
17.959999463558439
20
-6.9999999999999929
0
LWPOLYLINE
5
301
100
AcDbEntity
8
0
100
AcDbPolyline
90
4
70
1
43
0.0
10
22.279999463558436
20
-5
10
24.279999463558436
20
-5
10
24.279999463558436
20
-6.9999999999999929
10
22.279999463558436
20
-6.9999999999999929
0
LWPOLYLINE
5
302
100
AcDbEntity
8
0
100
AcDbPolyline
90
4
70
1
43
0.0
10
26.599999463558433
20
-5
10
28.599999463558436
20
-5
10
28.599999463558436
20
-6.9999999999999929
10
26.599999463558433
20
-6.9999999999999929
0
LWPOLYLINE
5
303
100
AcDbEntity
8
0
100
AcDbPolyline
90
4
70
1
43
0.0
10
30.91999946355844
20
-5
10
32.91999946355844
20
-5
10
32.91999946355844
20
-6.9999999999999929
10
30.91999946355844
20
-6.9999999999999929
0
LWPOLYLINE
5
304
100
AcDbEntity
8
0
100
AcDbPolyline
90
4
70
1
43
0.0
10
35.239999463558441
20
-5
10
37.239999463558441
20
-5
10
37.239999463558441
20
-6.9999999999999929
10
35.239999463558441
20
-6.9999999999999929
0
LWPOLYLINE
5
305
100
AcDbEntity
8
0
100
AcDbPolyline
90
4
70
1
43
0.0
10
39.559999463558441
20
-5
10
41.559999463558441
20
-5
10
41.559999463558441
20
-6.9999999999999929
10
39.559999463558441
20
-6.9999999999999929
0
LWPOLYLINE
5
306
100
AcDbEntity
8
0
100
AcDbPolyline
90
4
70
1
43
0.0
10
43.879999463558441
20
-5
10
45.879999463558434
20
-5
10
45.879999463558434
20
-6.9999999999999929
10
43.879999463558441
20
-6.9999999999999929
0
LWPOLYLINE
5
307
100
AcDbEntity
8
0
100
AcDbPolyline
90
4
70
1
43
0.0
10
48.199999463558434
20
-5
10
50.199999463558441
20
-5
10
50.199999463558441
20
-6.9999999999999929
10
48.199999463558434
20
-6.9999999999999929
0
LWPOLYLINE
5
308
100
AcDbEntity
8
0
100
AcDbPolyline
90
4
70
1
43
0.0
10
52.519999463558442
20
-5
10
54.519999463558442
20
-5
10
54.519999463558442
20
-6.9999999999999929
10
52.519999463558442
20
-6.9999999999999929
0
LWPOLYLINE
5
309
100
AcDbEntity
8
0
100
AcDbPolyline
90
4
70
1
43
0.0
10
56.839999463558442
20
-5
10
58.839999463558442
20
-5
10
58.839999463558442
20
-6.9999999999999929
10
56.839999463558442
20
-6.9999999999999929
0
LWPOLYLINE
5
310
100
AcDbEntity
8
0
100
AcDbPolyline
90
4
70
1
43
0.0
10
61.159999463558435
20
-5
10
63.159999463558442
20
-5
10
63.159999463558442
20
-6.9999999999999929
10
61.159999463558435
20
-6.9999999999999929
0
LWPOLYLINE
5
311
100
AcDbEntity
8
0
100
AcDbPolyline
90
4
70
1
43
0.0
10
65.479999463558443
20
-5
10
67.479999463558443
20
-5
10
67.479999463558443
20
-6.9999999999999929
10
65.479999463558443
20
-6.9999999999999929
0
LWPOLYLINE
5
312
100
AcDbEntity
8
0
100
AcDbPolyline
90
4
70
1
43
0.0
10
69.799999463558436
20
-5
10
71.799999463558436
20
-5
10
71.799999463558436
20
-6.9999999999999929
10
69.799999463558436
20
-6.9999999999999929
0
LWPOLYLINE
5
313
100
AcDbEntity
8
0
100
AcDbPolyline
90
4
70
1
43
0.0
10
74.119999463558443
20
-5
10
76.119999463558443
20
-5
10
76.119999463558443
20
-6.9999999999999929
10
74.119999463558443
20
-6.9999999999999929
0
LWPOLYLINE
5
314
100
AcDbEntity
8
0
100
AcDbPolyline
90
4
70
1
43
0.0
10
78.439999463558451
20
-5
10
80.439999463558451
20
-5
10
80.439999463558451
20
-6.9999999999999929
10
78.439999463558451
20
-6.9999999999999929
0
LWPOLYLINE
5
315
100
AcDbEntity
8
0
100
AcDbPolyline
90
4
70
1
43
0.0
10
82.759999463558444
20
-5
10
84.759999463558444
20
-5
10
84.759999463558444
20
-6.9999999999999929
10
82.759999463558444
20
-6.9999999999999929
0
LWPOLYLINE
5
316
100
AcDbEntity
8
0
100
AcDbPolyline
90
4
70
1
43
0.0
10
87.079999463558437
20
-5
10
89.079999463558437
20
-5
10
89.079999463558437
20
-6.9999999999999929
10
87.079999463558437
20
-6.9999999999999929
0
LWPOLYLINE
5
317
100
AcDbEntity
8
0
100
AcDbPolyline
90
4
70
1
43
0.0
10
91.399999463558444
20
-5
10
93.399999463558444
20
-5
10
93.399999463558444
20
-6.9999999999999929
10
91.399999463558444
20
-6.9999999999999929
0
LWPOLYLINE
5
318
100
AcDbEntity
8
0
100
AcDbPolyline
90
4
70
1
43
0.0
10
95.719999463558452
20
-5
10
97.719999463558452
20
-5
10
97.719999463558452
20
-6.9999999999999929
10
95.719999463558452
20
-6.9999999999999929
0
LWPOLYLINE
5
319
100
AcDbEntity
8
0
100
AcDbPolyline
90
4
70
1
43
0.0
10
100.03999946355846
20
-5
10
102.03999946355844
20
-5
10
102.03999946355844
20
-6.9999999999999929
10
100.03999946355846
20
-6.9999999999999929
0
LWPOLYLINE
5
320
100
AcDbEntity
8
0
100
AcDbPolyline
90
4
70
1
43
0.0
10
104.35999946355847
20
-5
10
106.35999946355845
20
-5
10
106.35999946355845
20
-6.9999999999999929
10
104.35999946355847
20
-6.9999999999999929
0
LWPOLYLINE
5
321
100
AcDbEntity
8
0
100
AcDbPolyline
90
4
70
1
43
0.0
10
108.67999946355846
20
-5
10
110.67999946355846
20
-5
10
110.67999946355846
20
-6.9999999999999929
10
108.67999946355846
20
-6.9999999999999929
0
LWPOLYLINE
5
322
100
AcDbEntity
8
0
100
AcDbPolyline
90
4
70
1
43
0.0
10
13.639999463558436
20
-113
10
15.639999463558436
20
-113
10
15.639999463558436
20
-115
10
13.639999463558436
20
-115
0
LWPOLYLINE
5
323
100
AcDbEntity
8
0
100
AcDbPolyline
90
4
70
1
43
0.0
10
112.99999946355845
20
-5
10
114.99999946355844
20
-5
10
114.99999946355844
20
-6.9999999999999929
10
112.99999946355845
20
-6.9999999999999929
0
LWPOLYLINE
5
324
100
AcDbEntity
8
0
100
AcDbPolyline
90
4
70
1
43
0.0
10
17.959999463558439
20
-113
10
19.959999463558439
20
-113
10
19.959999463558439
20
-115
10
17.959999463558439
20
-115
0
LWPOLYLINE
5
325
100
AcDbEntity
8
0
100
AcDbPolyline
90
4
70
1
43
0.0
10
4.9999994635584351
20
-113
10
6.9999994635584351
20
-113
10
6.9999994635584351
20
-115
10
4.9999994635584351
20
-115
0
LWPOLYLINE
5
326
100
AcDbEntity
8
0
100
AcDbPolyline
90
4
70
1
43
0.0
10
9.3199994635584353
20
-113
10
11.319999463558435
20
-113
10
11.319999463558435
20
-115
10
9.3199994635584353
20
-115
0
LWPOLYLINE
5
327
100
AcDbEntity
8
0
100
AcDbPolyline
90
4
70
1
43
0.0
10
22.279999463558436
20
-113
10
24.279999463558436
20
-113
10
24.279999463558436
20
-115
10
22.279999463558436
20
-115
0
LWPOLYLINE
5
328
100
AcDbEntity
8
0
100
AcDbPolyline
90
4
70
1
43
0.0
10
26.599999463558433
20
-113
10
28.599999463558436
20
-113
10
28.599999463558436
20
-115
10
26.599999463558433
20
-115
0
LWPOLYLINE
5
329
100
AcDbEntity
8
0
100
AcDbPolyline
90
4
70
1
43
0.0
10
30.91999946355844
20
-113
10
32.91999946355844
20
-113
10
32.91999946355844
20
-115
10
30.91999946355844
20
-115
0
LWPOLYLINE
5
330
100
AcDbEntity
8
0
100
AcDbPolyline
90
4
70
1
43
0.0
10
35.239999463558441
20
-113
10
37.239999463558441
20
-113
10
37.239999463558441
20
-115
10
35.239999463558441
20
-115
0
LWPOLYLINE
5
331
100
AcDbEntity
8
0
100
AcDbPolyline
90
4
70
1
43
0.0
10
4.9999994635584351
20
-108.68000000000001
10
6.9999994635584351
20
-108.68000000000001
10
6.9999994635584351
20
-110.67999999999999
10
4.9999994635584351
20
-110.67999999999999
0
LWPOLYLINE
5
332
100
AcDbEntity
8
0
100
AcDbPolyline
90
4
70
1
43
0.0
10
9.3199994635584353
20
-108.68000000000001
10
11.319999463558435
20
-108.68000000000001
10
11.319999463558435
20
-110.67999999999999
10
9.3199994635584353
20
-110.67999999999999
0
LWPOLYLINE
5
333
100
AcDbEntity
8
0
100
AcDbPolyline
90
4
70
1
43
0.0
10
13.639999463558436
20
-108.68000000000001
10
15.639999463558436
20
-108.68000000000001
10
15.639999463558436
20
-110.67999999999999
10
13.639999463558436
20
-110.67999999999999
0
LWPOLYLINE
5
334
100
AcDbEntity
8
0
100
AcDbPolyline
90
4
70
1
43
0.0
10
17.959999463558439
20
-108.68000000000001
10
19.959999463558439
20
-108.68000000000001
10
19.959999463558439
20
-110.67999999999999
10
17.959999463558439
20
-110.67999999999999
0
LWPOLYLINE
5
335
100
AcDbEntity
8
0
100
AcDbPolyline
90
4
70
1
43
0.0
10
22.279999463558436
20
-108.68000000000001
10
24.279999463558436
20
-108.68000000000001
10
24.279999463558436
20
-110.67999999999999
10
22.279999463558436
20
-110.67999999999999
0
LWPOLYLINE
5
336
100
AcDbEntity
8
0
100
AcDbPolyline
90
4
70
1
43
0.0
10
26.599999463558433
20
-108.68000000000001
10
28.599999463558436
20
-108.68000000000001
10
28.599999463558436
20
-110.67999999999999
10
26.599999463558433
20
-110.67999999999999
0
LWPOLYLINE
5
337
100
AcDbEntity
8
0
100
AcDbPolyline
90
4
70
1
43
0.0
10
30.91999946355844
20
-108.68000000000001
10
32.91999946355844
20
-108.68000000000001
10
32.91999946355844
20
-110.67999999999999
10
30.91999946355844
20
-110.67999999999999
0
LWPOLYLINE
5
338
100
AcDbEntity
8
0
100
AcDbPolyline
90
4
70
1
43
0.0
10
35.239999463558441
20
-108.68000000000001
10
37.239999463558441
20
-108.68000000000001
10
37.239999463558441
20
-110.67999999999999
10
35.239999463558441
20
-110.67999999999999
0
LWPOLYLINE
5
339
100
AcDbEntity
8
0
100
AcDbPolyline
90
4
70
1
43
0.0
10
4.9999994635584351
20
-104.36
10
6.9999994635584351
20
-104.36
10
6.9999994635584351
20
-106.35999999999999
10
4.9999994635584351
20
-106.35999999999999
0
LWPOLYLINE
5
340
100
AcDbEntity
8
0
100
AcDbPolyline
90
4
70
1
43
0.0
10
9.3199994635584353
20
-104.36
10
11.319999463558435
20
-104.36
10
11.319999463558435
20
-106.35999999999999
10
9.3199994635584353
20
-106.35999999999999
0
LWPOLYLINE
5
341
100
AcDbEntity
8
0
100
AcDbPolyline
90
4
70
1
43
0.0
10
13.639999463558436
20
-104.36
10
15.639999463558436
20
-104.36
10
15.639999463558436
20
-106.35999999999999
10
13.639999463558436
20
-106.35999999999999
0
LWPOLYLINE
5
342
100
AcDbEntity
8
0
100
AcDbPolyline
90
4
70
1
43
0.0
10
17.959999463558439
20
-104.36
10
19.959999463558439
20
-104.36
10
19.959999463558439
20
-106.35999999999999
10
17.959999463558439
20
-106.35999999999999
0
LWPOLYLINE
5
343
100
AcDbEntity
8
0
100
AcDbPolyline
90
4
70
1
43
0.0
10
22.279999463558436
20
-104.36
10
24.279999463558436
20
-104.36
10
24.279999463558436
20
-106.35999999999999
10
22.279999463558436
20
-106.35999999999999
0
LWPOLYLINE
5
344
100
AcDbEntity
8
0
100
AcDbPolyline
90
4
70
1
43
0.0
10
26.599999463558433
20
-104.36
10
28.599999463558436
20
-104.36
10
28.599999463558436
20
-106.35999999999999
10
26.599999463558433
20
-106.35999999999999
0
LWPOLYLINE
5
345
100
AcDbEntity
8
0
100
AcDbPolyline
90
4
70
1
43
0.0
10
30.91999946355844
20
-104.36
10
32.91999946355844
20
-104.36
10
32.91999946355844
20
-106.35999999999999
10
30.91999946355844
20
-106.35999999999999
0
LWPOLYLINE
5
346
100
AcDbEntity
8
0
100
AcDbPolyline
90
4
70
1
43
0.0
10
35.239999463558441
20
-104.36
10
37.239999463558441
20
-104.36
10
37.239999463558441
20
-106.35999999999999
10
35.239999463558441
20
-106.35999999999999
0
LWPOLYLINE
5
347
100
AcDbEntity
8
0
100
AcDbPolyline
90
4
70
1
43
0.0
10
4.9999994635584351
20
-100.04000000000002
10
6.9999994635584351
20
-100.04000000000002
10
6.9999994635584351
20
-102.04000000000001
10
4.9999994635584351
20
-102.04000000000001
0
LWPOLYLINE
5
348
100
AcDbEntity
8
0
100
AcDbPolyline
90
4
70
1
43
0.0
10
9.3199994635584353
20
-100.04000000000002
10
11.319999463558435
20
-100.04000000000002
10
11.319999463558435
20
-102.04000000000001
10
9.3199994635584353
20
-102.04000000000001
0
LWPOLYLINE
5
349
100
AcDbEntity
8
0
100
AcDbPolyline
90
4
70
1
43
0.0
10
13.639999463558436
20
-100.04000000000002
10
15.639999463558436
20
-100.04000000000002
10
15.639999463558436
20
-102.04000000000001
10
13.639999463558436
20
-102.04000000000001
0
LWPOLYLINE
5
350
100
AcDbEntity
8
0
100
AcDbPolyline
90
4
70
1
43
0.0
10
17.959999463558439
20
-100.04000000000002
10
19.959999463558439
20
-100.04000000000002
10
19.959999463558439
20
-102.04000000000001
10
17.959999463558439
20
-102.04000000000001
0
LWPOLYLINE
5
351
100
AcDbEntity
8
0
100
AcDbPolyline
90
4
70
1
43
0.0
10
22.279999463558436
20
-100.04000000000002
10
24.279999463558436
20
-100.04000000000002
10
24.279999463558436
20
-102.04000000000001
10
22.279999463558436
20
-102.04000000000001
0
LWPOLYLINE
5
352
100
AcDbEntity
8
0
100
AcDbPolyline
90
4
70
1
43
0.0
10
26.599999463558433
20
-100.04000000000002
10
28.599999463558436
20
-100.04000000000002
10
28.599999463558436
20
-102.04000000000001
10
26.599999463558433
20
-102.04000000000001
0
LWPOLYLINE
5
353
100
AcDbEntity
8
0
100
AcDbPolyline
90
4
70
1
43
0.0
10
30.91999946355844
20
-100.04000000000002
10
32.91999946355844
20
-100.04000000000002
10
32.91999946355844
20
-102.04000000000001
10
30.91999946355844
20
-102.04000000000001
0
LWPOLYLINE
5
354
100
AcDbEntity
8
0
100
AcDbPolyline
90
4
70
1
43
0.0
10
35.239999463558441
20
-100.04000000000002
10
37.239999463558441
20
-100.04000000000002
10
37.239999463558441
20
-102.04000000000001
10
35.239999463558441
20
-102.04000000000001
0
LWPOLYLINE
5
355
100
AcDbEntity
8
0
100
AcDbPolyline
90
4
70
1
43
0.0
10
4.9999994635584351
20
-95.720000000000013
10
6.9999994635584351
20
-95.720000000000013
10
6.9999994635584351
20
-97.719999999999999
10
4.9999994635584351
20
-97.719999999999999
0
LWPOLYLINE
5
356
100
AcDbEntity
8
0
100
AcDbPolyline
90
4
70
1
43
0.0
10
9.3199994635584353
20
-95.720000000000013
10
11.319999463558435
20
-95.720000000000013
10
11.319999463558435
20
-97.719999999999999
10
9.3199994635584353
20
-97.719999999999999
0
LWPOLYLINE
5
357
100
AcDbEntity
8
0
100
AcDbPolyline
90
4
70
1
43
0.0
10
13.639999463558436
20
-95.720000000000013
10
15.639999463558436
20
-95.720000000000013
10
15.639999463558436
20
-97.719999999999999
10
13.639999463558436
20
-97.719999999999999
0
LWPOLYLINE
5
358
100
AcDbEntity
8
0
100
AcDbPolyline
90
4
70
1
43
0.0
10
17.959999463558439
20
-95.720000000000013
10
19.959999463558439
20
-95.720000000000013
10
19.959999463558439
20
-97.719999999999999
10
17.959999463558439
20
-97.719999999999999
0
LWPOLYLINE
5
359
100
AcDbEntity
8
0
100
AcDbPolyline
90
4
70
1
43
0.0
10
22.279999463558436
20
-95.720000000000013
10
24.279999463558436
20
-95.720000000000013
10
24.279999463558436
20
-97.719999999999999
10
22.279999463558436
20
-97.719999999999999
0
LWPOLYLINE
5
360
100
AcDbEntity
8
0
100
AcDbPolyline
90
4
70
1
43
0.0
10
26.599999463558433
20
-95.720000000000013
10
28.599999463558436
20
-95.720000000000013
10
28.599999463558436
20
-97.719999999999999
10
26.599999463558433
20
-97.719999999999999
0
LWPOLYLINE
5
361
100
AcDbEntity
8
0
100
AcDbPolyline
90
4
70
1
43
0.0
10
30.91999946355844
20
-95.720000000000013
10
32.91999946355844
20
-95.720000000000013
10
32.91999946355844
20
-97.719999999999999
10
30.91999946355844
20
-97.719999999999999
0
LWPOLYLINE
5
362
100
AcDbEntity
8
0
100
AcDbPolyline
90
4
70
1
43
0.0
10
35.239999463558441
20
-95.720000000000013
10
37.239999463558441
20
-95.720000000000013
10
37.239999463558441
20
-97.719999999999999
10
35.239999463558441
20
-97.719999999999999
0
LWPOLYLINE
5
363
100
AcDbEntity
8
0
100
AcDbPolyline
90
4
70
1
43
0.0
10
4.9999994635584351
20
-91.400000000000006
10
6.9999994635584351
20
-91.400000000000006
10
6.9999994635584351
20
-93.400000000000006
10
4.9999994635584351
20
-93.400000000000006
0
LWPOLYLINE
5
364
100
AcDbEntity
8
0
100
AcDbPolyline
90
4
70
1
43
0.0
10
9.3199994635584353
20
-91.400000000000006
10
11.319999463558435
20
-91.400000000000006
10
11.319999463558435
20
-93.400000000000006
10
9.3199994635584353
20
-93.400000000000006
0
LWPOLYLINE
5
365
100
AcDbEntity
8
0
100
AcDbPolyline
90
4
70
1
43
0.0
10
13.639999463558436
20
-91.400000000000006
10
15.639999463558436
20
-91.400000000000006
10
15.639999463558436
20
-93.400000000000006
10
13.639999463558436
20
-93.400000000000006
0
LWPOLYLINE
5
366
100
AcDbEntity
8
0
100
AcDbPolyline
90
4
70
1
43
0.0
10
17.959999463558439
20
-91.400000000000006
10
19.959999463558439
20
-91.400000000000006
10
19.959999463558439
20
-93.400000000000006
10
17.959999463558439
20
-93.400000000000006
0
LWPOLYLINE
5
367
100
AcDbEntity
8
0
100
AcDbPolyline
90
4
70
1
43
0.0
10
22.279999463558436
20
-91.400000000000006
10
24.279999463558436
20
-91.400000000000006
10
24.279999463558436
20
-93.400000000000006
10
22.279999463558436
20
-93.400000000000006
0
LWPOLYLINE
5
368
100
AcDbEntity
8
0
100
AcDbPolyline
90
4
70
1
43
0.0
10
26.599999463558433
20
-91.400000000000006
10
28.599999463558436
20
-91.400000000000006
10
28.599999463558436
20
-93.400000000000006
10
26.599999463558433
20
-93.400000000000006
0
LWPOLYLINE
5
369
100
AcDbEntity
8
0
100
AcDbPolyline
90
4
70
1
43
0.0
10
30.91999946355844
20
-91.400000000000006
10
32.91999946355844
20
-91.400000000000006
10
32.91999946355844
20
-93.400000000000006
10
30.91999946355844
20
-93.400000000000006
0
LWPOLYLINE
5
370
100
AcDbEntity
8
0
100
AcDbPolyline
90
4
70
1
43
0.0
10
35.239999463558441
20
-91.400000000000006
10
37.239999463558441
20
-91.400000000000006
10
37.239999463558441
20
-93.400000000000006
10
35.239999463558441
20
-93.400000000000006
0
LWPOLYLINE
5
371
100
AcDbEntity
8
0
100
AcDbPolyline
90
4
70
1
43
0.0
10
4.9999994635584351
20
-87.079999999999998
10
6.9999994635584351
20
-87.079999999999998
10
6.9999994635584351
20
-89.079999999999998
10
4.9999994635584351
20
-89.079999999999998
0
LWPOLYLINE
5
372
100
AcDbEntity
8
0
100
AcDbPolyline
90
4
70
1
43
0.0
10
9.3199994635584353
20
-87.079999999999998
10
11.319999463558435
20
-87.079999999999998
10
11.319999463558435
20
-89.079999999999998
10
9.3199994635584353
20
-89.079999999999998
0
LWPOLYLINE
5
373
100
AcDbEntity
8
0
100
AcDbPolyline
90
4
70
1
43
0.0
10
13.639999463558436
20
-87.079999999999998
10
15.639999463558436
20
-87.079999999999998
10
15.639999463558436
20
-89.079999999999998
10
13.639999463558436
20
-89.079999999999998
0
LWPOLYLINE
5
374
100
AcDbEntity
8
0
100
AcDbPolyline
90
4
70
1
43
0.0
10
17.959999463558439
20
-87.079999999999998
10
19.959999463558439
20
-87.079999999999998
10
19.959999463558439
20
-89.079999999999998
10
17.959999463558439
20
-89.079999999999998
0
LWPOLYLINE
5
375
100
AcDbEntity
8
0
100
AcDbPolyline
90
4
70
1
43
0.0
10
22.279999463558436
20
-87.079999999999998
10
24.279999463558436
20
-87.079999999999998
10
24.279999463558436
20
-89.079999999999998
10
22.279999463558436
20
-89.079999999999998
0
LWPOLYLINE
5
376
100
AcDbEntity
8
0
100
AcDbPolyline
90
4
70
1
43
0.0
10
26.599999463558433
20
-87.079999999999998
10
28.599999463558436
20
-87.079999999999998
10
28.599999463558436
20
-89.079999999999998
10
26.599999463558433
20
-89.079999999999998
0
LWPOLYLINE
5
377
100
AcDbEntity
8
0
100
AcDbPolyline
90
4
70
1
43
0.0
10
30.91999946355844
20
-87.079999999999998
10
32.91999946355844
20
-87.079999999999998
10
32.91999946355844
20
-89.079999999999998
10
30.91999946355844
20
-89.079999999999998
0
LWPOLYLINE
5
378
100
AcDbEntity
8
0
100
AcDbPolyline
90
4
70
1
43
0.0
10
35.239999463558441
20
-87.079999999999998
10
37.239999463558441
20
-87.079999999999998
10
37.239999463558441
20
-89.079999999999998
10
35.239999463558441
20
-89.079999999999998
0
LWPOLYLINE
5
379
100
AcDbEntity
8
0
100
AcDbPolyline
90
4
70
1
43
0.0
10
4.9999994635584351
20
-82.759999999999991
10
6.9999994635584351
20
-82.759999999999991
10
6.9999994635584351
20
-84.759999999999991
10
4.9999994635584351
20
-84.759999999999991
0
LWPOLYLINE
5
380
100
AcDbEntity
8
0
100
AcDbPolyline
90
4
70
1
43
0.0
10
9.3199994635584353
20
-82.759999999999991
10
11.319999463558435
20
-82.759999999999991
10
11.319999463558435
20
-84.759999999999991
10
9.3199994635584353
20
-84.759999999999991
0
LWPOLYLINE
5
381
100
AcDbEntity
8
0
100
AcDbPolyline
90
4
70
1
43
0.0
10
13.639999463558436
20
-82.759999999999991
10
15.639999463558436
20
-82.759999999999991
10
15.639999463558436
20
-84.759999999999991
10
13.639999463558436
20
-84.759999999999991
0
LWPOLYLINE
5
382
100
AcDbEntity
8
0
100
AcDbPolyline
90
4
70
1
43
0.0
10
17.959999463558439
20
-82.759999999999991
10
19.959999463558439
20
-82.759999999999991
10
19.959999463558439
20
-84.759999999999991
10
17.959999463558439
20
-84.759999999999991
0
LWPOLYLINE
5
383
100
AcDbEntity
8
0
100
AcDbPolyline
90
4
70
1
43
0.0
10
22.279999463558436
20
-82.759999999999991
10
24.279999463558436
20
-82.759999999999991
10
24.279999463558436
20
-84.759999999999991
10
22.279999463558436
20
-84.759999999999991
0
LWPOLYLINE
5
384
100
AcDbEntity
8
0
100
AcDbPolyline
90
4
70
1
43
0.0
10
26.599999463558433
20
-82.759999999999991
10
28.599999463558436
20
-82.759999999999991
10
28.599999463558436
20
-84.759999999999991
10
26.599999463558433
20
-84.759999999999991
0
LWPOLYLINE
5
385
100
AcDbEntity
8
0
100
AcDbPolyline
90
4
70
1
43
0.0
10
30.91999946355844
20
-82.759999999999991
10
32.91999946355844
20
-82.759999999999991
10
32.91999946355844
20
-84.759999999999991
10
30.91999946355844
20
-84.759999999999991
0
LWPOLYLINE
5
386
100
AcDbEntity
8
0
100
AcDbPolyline
90
4
70
1
43
0.0
10
35.239999463558441
20
-82.759999999999991
10
37.239999463558441
20
-82.759999999999991
10
37.239999463558441
20
-84.759999999999991
10
35.239999463558441
20
-84.759999999999991
0
LWPOLYLINE
5
387
100
AcDbEntity
8
0
100
AcDbPolyline
90
4
70
1
43
0.0
10
39.559999463558441
20
-113
10
41.559999463558441
20
-113
10
41.559999463558441
20
-115
10
39.559999463558441
20
-115
0
LWPOLYLINE
5
388
100
AcDbEntity
8
0
100
AcDbPolyline
90
4
70
1
43
0.0
10
43.879999463558441
20
-113
10
45.879999463558434
20
-113
10
45.879999463558434
20
-115
10
43.879999463558441
20
-115
0
LWPOLYLINE
5
389
100
AcDbEntity
8
0
100
AcDbPolyline
90
4
70
1
43
0.0
10
39.559999463558441
20
-108.68000000000001
10
41.559999463558441
20
-108.68000000000001
10
41.559999463558441
20
-110.67999999999999
10
39.559999463558441
20
-110.67999999999999
0
LWPOLYLINE
5
390
100
AcDbEntity
8
0
100
AcDbPolyline
90
4
70
1
43
0.0
10
43.879999463558441
20
-108.68000000000001
10
45.879999463558434
20
-108.68000000000001
10
45.879999463558434
20
-110.67999999999999
10
43.879999463558441
20
-110.67999999999999
0
LWPOLYLINE
5
391
100
AcDbEntity
8
0
100
AcDbPolyline
90
4
70
1
43
0.0
10
39.559999463558441
20
-104.36
10
41.559999463558441
20
-104.36
10
41.559999463558441
20
-106.35999999999999
10
39.559999463558441
20
-106.35999999999999
0
LWPOLYLINE
5
392
100
AcDbEntity
8
0
100
AcDbPolyline
90
4
70
1
43
0.0
10
43.879999463558441
20
-104.36
10
45.879999463558434
20
-104.36
10
45.879999463558434
20
-106.35999999999999
10
43.879999463558441
20
-106.35999999999999
0
LWPOLYLINE
5
393
100
AcDbEntity
8
0
100
AcDbPolyline
90
4
70
1
43
0.0
10
39.559999463558441
20
-100.04000000000002
10
41.559999463558441
20
-100.04000000000002
10
41.559999463558441
20
-102.04000000000001
10
39.559999463558441
20
-102.04000000000001
0
LWPOLYLINE
5
394
100
AcDbEntity
8
0
100
AcDbPolyline
90
4
70
1
43
0.0
10
43.879999463558441
20
-100.04000000000002
10
45.879999463558434
20
-100.04000000000002
10
45.879999463558434
20
-102.04000000000001
10
43.879999463558441
20
-102.04000000000001
0
LWPOLYLINE
5
395
100
AcDbEntity
8
0
100
AcDbPolyline
90
4
70
1
43
0.0
10
39.559999463558441
20
-95.720000000000013
10
41.559999463558441
20
-95.720000000000013
10
41.559999463558441
20
-97.719999999999999
10
39.559999463558441
20
-97.719999999999999
0
LWPOLYLINE
5
396
100
AcDbEntity
8
0
100
AcDbPolyline
90
4
70
1
43
0.0
10
43.879999463558441
20
-95.720000000000013
10
45.879999463558434
20
-95.720000000000013
10
45.879999463558434
20
-97.719999999999999
10
43.879999463558441
20
-97.719999999999999
0
LWPOLYLINE
5
397
100
AcDbEntity
8
0
100
AcDbPolyline
90
4
70
1
43
0.0
10
39.559999463558441
20
-91.400000000000006
10
41.559999463558441
20
-91.400000000000006
10
41.559999463558441
20
-93.400000000000006
10
39.559999463558441
20
-93.400000000000006
0
LWPOLYLINE
5
398
100
AcDbEntity
8
0
100
AcDbPolyline
90
4
70
1
43
0.0
10
43.879999463558441
20
-91.400000000000006
10
45.879999463558434
20
-91.400000000000006
10
45.879999463558434
20
-93.400000000000006
10
43.879999463558441
20
-93.400000000000006
0
LWPOLYLINE
5
399
100
AcDbEntity
8
0
100
AcDbPolyline
90
4
70
1
43
0.0
10
39.559999463558441
20
-87.079999999999998
10
41.559999463558441
20
-87.079999999999998
10
41.559999463558441
20
-89.079999999999998
10
39.559999463558441
20
-89.079999999999998
0
LWPOLYLINE
5
400
100
AcDbEntity
8
0
100
AcDbPolyline
90
4
70
1
43
0.0
10
43.879999463558441
20
-87.079999999999998
10
45.879999463558434
20
-87.079999999999998
10
45.879999463558434
20
-89.079999999999998
10
43.879999463558441
20
-89.079999999999998
0
LWPOLYLINE
5
401
100
AcDbEntity
8
0
100
AcDbPolyline
90
4
70
1
43
0.0
10
39.559999463558441
20
-82.759999999999991
10
41.559999463558441
20
-82.759999999999991
10
41.559999463558441
20
-84.759999999999991
10
39.559999463558441
20
-84.759999999999991
0
LWPOLYLINE
5
402
100
AcDbEntity
8
0
100
AcDbPolyline
90
4
70
1
43
0.0
10
43.879999463558441
20
-82.759999999999991
10
45.879999463558434
20
-82.759999999999991
10
45.879999463558434
20
-84.759999999999991
10
43.879999463558441
20
-84.759999999999991
0
LWPOLYLINE
5
403
100
AcDbEntity
8
0
100
AcDbPolyline
90
4
70
1
43
0.0
10
4.9999994635584351
20
-78.439999999999998
10
6.9999994635584351
20
-78.439999999999998
10
6.9999994635584351
20
-80.439999999999998
10
4.9999994635584351
20
-80.439999999999998
0
LWPOLYLINE
5
404
100
AcDbEntity
8
0
100
AcDbPolyline
90
4
70
1
43
0.0
10
9.3199994635584353
20
-78.439999999999998
10
11.319999463558435
20
-78.439999999999998
10
11.319999463558435
20
-80.439999999999998
10
9.3199994635584353
20
-80.439999999999998
0
LWPOLYLINE
5
405
100
AcDbEntity
8
0
100
AcDbPolyline
90
4
70
1
43
0.0
10
13.639999463558436
20
-78.439999999999998
10
15.639999463558436
20
-78.439999999999998
10
15.639999463558436
20
-80.439999999999998
10
13.639999463558436
20
-80.439999999999998
0
LWPOLYLINE
5
406
100
AcDbEntity
8
0
100
AcDbPolyline
90
4
70
1
43
0.0
10
17.959999463558439
20
-78.439999999999998
10
19.959999463558439
20
-78.439999999999998
10
19.959999463558439
20
-80.439999999999998
10
17.959999463558439
20
-80.439999999999998
0
LWPOLYLINE
5
407
100
AcDbEntity
8
0
100
AcDbPolyline
90
4
70
1
43
0.0
10
22.279999463558436
20
-78.439999999999998
10
24.279999463558436
20
-78.439999999999998
10
24.279999463558436
20
-80.439999999999998
10
22.279999463558436
20
-80.439999999999998
0
LWPOLYLINE
5
408
100
AcDbEntity
8
0
100
AcDbPolyline
90
4
70
1
43
0.0
10
26.599999463558433
20
-78.439999999999998
10
28.599999463558436
20
-78.439999999999998
10
28.599999463558436
20
-80.439999999999998
10
26.599999463558433
20
-80.439999999999998
0
LWPOLYLINE
5
409
100
AcDbEntity
8
0
100
AcDbPolyline
90
4
70
1
43
0.0
10
30.91999946355844
20
-78.439999999999998
10
32.91999946355844
20
-78.439999999999998
10
32.91999946355844
20
-80.439999999999998
10
30.91999946355844
20
-80.439999999999998
0
LWPOLYLINE
5
410
100
AcDbEntity
8
0
100
AcDbPolyline
90
4
70
1
43
0.0
10
35.239999463558441
20
-78.439999999999998
10
37.239999463558441
20
-78.439999999999998
10
37.239999463558441
20
-80.439999999999998
10
35.239999463558441
20
-80.439999999999998
0
LWPOLYLINE
5
411
100
AcDbEntity
8
0
100
AcDbPolyline
90
4
70
1
43
0.0
10
39.559999463558441
20
-78.439999999999998
10
41.559999463558441
20
-78.439999999999998
10
41.559999463558441
20
-80.439999999999998
10
39.559999463558441
20
-80.439999999999998
0
LWPOLYLINE
5
412
100
AcDbEntity
8
0
100
AcDbPolyline
90
4
70
1
43
0.0
10
43.879999463558441
20
-78.439999999999998
10
45.879999463558434
20
-78.439999999999998
10
45.879999463558434
20
-80.439999999999998
10
43.879999463558441
20
-80.439999999999998
0
LWPOLYLINE
5
413
100
AcDbEntity
8
0
100
AcDbPolyline
90
4
70
1
43
0.0
10
4.9999994635584351
20
-74.120000000000005
10
6.9999994635584351
20
-74.120000000000005
10
6.9999994635584351
20
-76.120000000000005
10
4.9999994635584351
20
-76.120000000000005
0
LWPOLYLINE
5
414
100
AcDbEntity
8
0
100
AcDbPolyline
90
4
70
1
43
0.0
10
9.3199994635584353
20
-74.120000000000005
10
11.319999463558435
20
-74.120000000000005
10
11.319999463558435
20
-76.120000000000005
10
9.3199994635584353
20
-76.120000000000005
0
LWPOLYLINE
5
415
100
AcDbEntity
8
0
100
AcDbPolyline
90
4
70
1
43
0.0
10
13.639999463558436
20
-74.120000000000005
10
15.639999463558436
20
-74.120000000000005
10
15.639999463558436
20
-76.120000000000005
10
13.639999463558436
20
-76.120000000000005
0
LWPOLYLINE
5
416
100
AcDbEntity
8
0
100
AcDbPolyline
90
4
70
1
43
0.0
10
17.959999463558439
20
-74.120000000000005
10
19.959999463558439
20
-74.120000000000005
10
19.959999463558439
20
-76.120000000000005
10
17.959999463558439
20
-76.120000000000005
0
LWPOLYLINE
5
417
100
AcDbEntity
8
0
100
AcDbPolyline
90
4
70
1
43
0.0
10
22.279999463558436
20
-74.120000000000005
10
24.279999463558436
20
-74.120000000000005
10
24.279999463558436
20
-76.120000000000005
10
22.279999463558436
20
-76.120000000000005
0
LWPOLYLINE
5
418
100
AcDbEntity
8
0
100
AcDbPolyline
90
4
70
1
43
0.0
10
26.599999463558433
20
-74.120000000000005
10
28.599999463558436
20
-74.120000000000005
10
28.599999463558436
20
-76.120000000000005
10
26.599999463558433
20
-76.120000000000005
0
LWPOLYLINE
5
419
100
AcDbEntity
8
0
100
AcDbPolyline
90
4
70
1
43
0.0
10
30.91999946355844
20
-74.120000000000005
10
32.91999946355844
20
-74.120000000000005
10
32.91999946355844
20
-76.120000000000005
10
30.91999946355844
20
-76.120000000000005
0
LWPOLYLINE
5
420
100
AcDbEntity
8
0
100
AcDbPolyline
90
4
70
1
43
0.0
10
35.239999463558441
20
-74.120000000000005
10
37.239999463558441
20
-74.120000000000005
10
37.239999463558441
20
-76.120000000000005
10
35.239999463558441
20
-76.120000000000005
0
LWPOLYLINE
5
421
100
AcDbEntity
8
0
100
AcDbPolyline
90
4
70
1
43
0.0
10
39.559999463558441
20
-74.120000000000005
10
41.559999463558441
20
-74.120000000000005
10
41.559999463558441
20
-76.120000000000005
10
39.559999463558441
20
-76.120000000000005
0
LWPOLYLINE
5
422
100
AcDbEntity
8
0
100
AcDbPolyline
90
4
70
1
43
0.0
10
43.879999463558441
20
-74.120000000000005
10
45.879999463558434
20
-74.120000000000005
10
45.879999463558434
20
-76.120000000000005
10
43.879999463558441
20
-76.120000000000005
0
LWPOLYLINE
5
423
100
AcDbEntity
8
0
100
AcDbPolyline
90
4
70
1
43
0.0
10
48.199999463558434
20
-113
10
50.199999463558441
20
-113
10
50.199999463558441
20
-115
10
48.199999463558434
20
-115
0
LWPOLYLINE
5
424
100
AcDbEntity
8
0
100
AcDbPolyline
90
4
70
1
43
0.0
10
52.519999463558442
20
-113
10
54.519999463558442
20
-113
10
54.519999463558442
20
-115
10
52.519999463558442
20
-115
0
LWPOLYLINE
5
425
100
AcDbEntity
8
0
100
AcDbPolyline
90
4
70
1
43
0.0
10
56.839999463558442
20
-113
10
58.839999463558442
20
-113
10
58.839999463558442
20
-115
10
56.839999463558442
20
-115
0
LWPOLYLINE
5
426
100
AcDbEntity
8
0
100
AcDbPolyline
90
4
70
1
43
0.0
10
48.199999463558434
20
-108.68000000000001
10
50.199999463558441
20
-108.68000000000001
10
50.199999463558441
20
-110.67999999999999
10
48.199999463558434
20
-110.67999999999999
0
LWPOLYLINE
5
427
100
AcDbEntity
8
0
100
AcDbPolyline
90
4
70
1
43
0.0
10
52.519999463558442
20
-108.68000000000001
10
54.519999463558442
20
-108.68000000000001
10
54.519999463558442
20
-110.67999999999999
10
52.519999463558442
20
-110.67999999999999
0
LWPOLYLINE
5
428
100
AcDbEntity
8
0
100
AcDbPolyline
90
4
70
1
43
0.0
10
56.839999463558442
20
-108.68000000000001
10
58.839999463558442
20
-108.68000000000001
10
58.839999463558442
20
-110.67999999999999
10
56.839999463558442
20
-110.67999999999999
0
LWPOLYLINE
5
429
100
AcDbEntity
8
0
100
AcDbPolyline
90
4
70
1
43
0.0
10
48.199999463558434
20
-104.36
10
50.199999463558441
20
-104.36
10
50.199999463558441
20
-106.35999999999999
10
48.199999463558434
20
-106.35999999999999
0
LWPOLYLINE
5
430
100
AcDbEntity
8
0
100
AcDbPolyline
90
4
70
1
43
0.0
10
52.519999463558442
20
-104.36
10
54.519999463558442
20
-104.36
10
54.519999463558442
20
-106.35999999999999
10
52.519999463558442
20
-106.35999999999999
0
LWPOLYLINE
5
431
100
AcDbEntity
8
0
100
AcDbPolyline
90
4
70
1
43
0.0
10
56.839999463558442
20
-104.36
10
58.839999463558442
20
-104.36
10
58.839999463558442
20
-106.35999999999999
10
56.839999463558442
20
-106.35999999999999
0
LWPOLYLINE
5
432
100
AcDbEntity
8
0
100
AcDbPolyline
90
4
70
1
43
0.0
10
48.199999463558434
20
-100.04000000000002
10
50.199999463558441
20
-100.04000000000002
10
50.199999463558441
20
-102.04000000000001
10
48.199999463558434
20
-102.04000000000001
0
LWPOLYLINE
5
433
100
AcDbEntity
8
0
100
AcDbPolyline
90
4
70
1
43
0.0
10
52.519999463558442
20
-100.04000000000002
10
54.519999463558442
20
-100.04000000000002
10
54.519999463558442
20
-102.04000000000001
10
52.519999463558442
20
-102.04000000000001
0
LWPOLYLINE
5
434
100
AcDbEntity
8
0
100
AcDbPolyline
90
4
70
1
43
0.0
10
56.839999463558442
20
-100.04000000000002
10
58.839999463558442
20
-100.04000000000002
10
58.839999463558442
20
-102.04000000000001
10
56.839999463558442
20
-102.04000000000001
0
LWPOLYLINE
5
435
100
AcDbEntity
8
0
100
AcDbPolyline
90
4
70
1
43
0.0
10
48.199999463558434
20
-95.720000000000013
10
50.199999463558441
20
-95.720000000000013
10
50.199999463558441
20
-97.719999999999999
10
48.199999463558434
20
-97.719999999999999
0
LWPOLYLINE
5
436
100
AcDbEntity
8
0
100
AcDbPolyline
90
4
70
1
43
0.0
10
56.839999463558442
20
-91.400000000000006
10
58.839999463558442
20
-91.400000000000006
10
58.839999463558442
20
-93.400000000000006
10
56.839999463558442
20
-93.400000000000006
0
LWPOLYLINE
5
437
100
AcDbEntity
8
0
100
AcDbPolyline
90
4
70
1
43
0.0
10
52.519999463558442
20
-95.720000000000013
10
54.519999463558442
20
-95.720000000000013
10
54.519999463558442
20
-97.719999999999999
10
52.519999463558442
20
-97.719999999999999
0
LWPOLYLINE
5
438
100
AcDbEntity
8
0
100
AcDbPolyline
90
4
70
1
43
0.0
10
52.519999463558442
20
-91.400000000000006
10
54.519999463558442
20
-91.400000000000006
10
54.519999463558442
20
-93.400000000000006
10
52.519999463558442
20
-93.400000000000006
0
LWPOLYLINE
5
439
100
AcDbEntity
8
0
100
AcDbPolyline
90
4
70
1
43
0.0
10
56.839999463558442
20
-95.720000000000013
10
58.839999463558442
20
-95.720000000000013
10
58.839999463558442
20
-97.719999999999999
10
56.839999463558442
20
-97.719999999999999
0
LWPOLYLINE
5
440
100
AcDbEntity
8
0
100
AcDbPolyline
90
4
70
1
43
0.0
10
48.199999463558434
20
-91.400000000000006
10
50.199999463558441
20
-91.400000000000006
10
50.199999463558441
20
-93.400000000000006
10
48.199999463558434
20
-93.400000000000006
0
LWPOLYLINE
5
441
100
AcDbEntity
8
0
100
AcDbPolyline
90
4
70
1
43
0.0
10
112.99999946355845
20
-35.240000000000002
10
114.99999946355844
20
-35.240000000000002
10
114.99999946355844
20
-37.239999999999995
10
112.99999946355845
20
-37.239999999999995
0
LWPOLYLINE
5
442
100
AcDbEntity
8
0
100
AcDbPolyline
90
4
70
1
43
0.0
10
108.67999946355846
20
-35.240000000000002
10
110.67999946355846
20
-35.240000000000002
10
110.67999946355846
20
-37.239999999999995
10
108.67999946355846
20
-37.239999999999995
0
LWPOLYLINE
5
443
100
AcDbEntity
8
0
100
AcDbPolyline
90
4
70
1
43
0.0
10
104.35999946355847
20
-35.240000000000002
10
106.35999946355845
20
-35.240000000000002
10
106.35999946355845
20
-37.239999999999995
10
104.35999946355847
20
-37.239999999999995
0
LWPOLYLINE
5
444
100
AcDbEntity
8
0
100
AcDbPolyline
90
4
70
1
43
0.0
10
100.03999946355846
20
-35.240000000000002
10
102.03999946355844
20
-35.240000000000002
10
102.03999946355844
20
-37.239999999999995
10
100.03999946355846
20
-37.239999999999995
0
LWPOLYLINE
5
445
100
AcDbEntity
8
0
100
AcDbPolyline
90
4
70
1
43
0.0
10
95.719999463558452
20
-35.240000000000002
10
97.719999463558452
20
-35.240000000000002
10
97.719999463558452
20
-37.239999999999995
10
95.719999463558452
20
-37.239999999999995
0
LWPOLYLINE
5
446
100
AcDbEntity
8
0
100
AcDbPolyline
90
4
70
1
43
0.0
10
4.9999994635584351
20
-30.920000000000005
10
6.9999994635584351
20
-30.920000000000005
10
6.9999994635584351
20
-32.920000000000002
10
4.9999994635584351
20
-32.920000000000002
0
LWPOLYLINE
5
447
100
AcDbEntity
8
0
100
AcDbPolyline
90
4
70
1
43
0.0
10
9.3199994635584353
20
-30.920000000000005
10
11.319999463558435
20
-30.920000000000005
10
11.319999463558435
20
-32.920000000000002
10
9.3199994635584353
20
-32.920000000000002
0
LWPOLYLINE
5
448
100
AcDbEntity
8
0
100
AcDbPolyline
90
4
70
1
43
0.0
10
13.639999463558436
20
-30.920000000000005
10
15.639999463558436
20
-30.920000000000005
10
15.639999463558436
20
-32.920000000000002
10
13.639999463558436
20
-32.920000000000002
0
LWPOLYLINE
5
449
100
AcDbEntity
8
0
100
AcDbPolyline
90
4
70
1
43
0.0
10
17.959999463558439
20
-30.920000000000005
10
19.959999463558439
20
-30.920000000000005
10
19.959999463558439
20
-32.920000000000002
10
17.959999463558439
20
-32.920000000000002
0
LWPOLYLINE
5
450
100
AcDbEntity
8
0
100
AcDbPolyline
90
4
70
1
43
0.0
10
22.279999463558436
20
-30.920000000000005
10
24.279999463558436
20
-30.920000000000005
10
24.279999463558436
20
-32.920000000000002
10
22.279999463558436
20
-32.920000000000002
0
LWPOLYLINE
5
451
100
AcDbEntity
8
0
100
AcDbPolyline
90
4
70
1
43
0.0
10
26.599999463558433
20
-30.920000000000005
10
28.599999463558436
20
-30.920000000000005
10
28.599999463558436
20
-32.920000000000002
10
26.599999463558433
20
-32.920000000000002
0
LWPOLYLINE
5
452
100
AcDbEntity
8
0
100
AcDbPolyline
90
4
70
1
43
0.0
10
30.91999946355844
20
-30.920000000000005
10
32.91999946355844
20
-30.920000000000005
10
32.91999946355844
20
-32.920000000000002
10
30.91999946355844
20
-32.920000000000002
0
LWPOLYLINE
5
453
100
AcDbEntity
8
0
100
AcDbPolyline
90
4
70
1
43
0.0
10
35.239999463558441
20
-30.920000000000005
10
37.239999463558441
20
-30.920000000000005
10
37.239999463558441
20
-32.920000000000002
10
35.239999463558441
20
-32.920000000000002
0
LWPOLYLINE
5
454
100
AcDbEntity
8
0
100
AcDbPolyline
90
4
70
1
43
0.0
10
39.559999463558441
20
-30.920000000000005
10
41.559999463558441
20
-30.920000000000005
10
41.559999463558441
20
-32.920000000000002
10
39.559999463558441
20
-32.920000000000002
0
LWPOLYLINE
5
455
100
AcDbEntity
8
0
100
AcDbPolyline
90
4
70
1
43
0.0
10
43.879999463558441
20
-30.920000000000005
10
45.879999463558434
20
-30.920000000000005
10
45.879999463558434
20
-32.920000000000002
10
43.879999463558441
20
-32.920000000000002
0
LWPOLYLINE
5
456
100
AcDbEntity
8
0
100
AcDbPolyline
90
4
70
1
43
0.0
10
48.199999463558434
20
-30.920000000000005
10
50.199999463558441
20
-30.920000000000005
10
50.199999463558441
20
-32.920000000000002
10
48.199999463558434
20
-32.920000000000002
0
LWPOLYLINE
5
457
100
AcDbEntity
8
0
100
AcDbPolyline
90
4
70
1
43
0.0
10
52.519999463558442
20
-30.920000000000005
10
54.519999463558442
20
-30.920000000000005
10
54.519999463558442
20
-32.920000000000002
10
52.519999463558442
20
-32.920000000000002
0
LWPOLYLINE
5
458
100
AcDbEntity
8
0
100
AcDbPolyline
90
4
70
1
43
0.0
10
56.839999463558442
20
-30.920000000000005
10
58.839999463558442
20
-30.920000000000005
10
58.839999463558442
20
-32.920000000000002
10
56.839999463558442
20
-32.920000000000002
0
LWPOLYLINE
5
459
100
AcDbEntity
8
0
100
AcDbPolyline
90
4
70
1
43
0.0
10
61.159999463558435
20
-30.920000000000005
10
63.159999463558442
20
-30.920000000000005
10
63.159999463558442
20
-32.920000000000002
10
61.159999463558435
20
-32.920000000000002
0
LWPOLYLINE
5
460
100
AcDbEntity
8
0
100
AcDbPolyline
90
4
70
1
43
0.0
10
65.479999463558443
20
-30.920000000000005
10
67.479999463558443
20
-30.920000000000005
10
67.479999463558443
20
-32.920000000000002
10
65.479999463558443
20
-32.920000000000002
0
LWPOLYLINE
5
461
100
AcDbEntity
8
0
100
AcDbPolyline
90
4
70
1
43
0.0
10
69.799999463558436
20
-30.920000000000005
10
71.799999463558436
20
-30.920000000000005
10
71.799999463558436
20
-32.920000000000002
10
69.799999463558436
20
-32.920000000000002
0
LWPOLYLINE
5
462
100
AcDbEntity
8
0
100
AcDbPolyline
90
4
70
1
43
0.0
10
74.119999463558443
20
-30.920000000000005
10
76.119999463558443
20
-30.920000000000005
10
76.119999463558443
20
-32.920000000000002
10
74.119999463558443
20
-32.920000000000002
0
LWPOLYLINE
5
463
100
AcDbEntity
8
0
100
AcDbPolyline
90
4
70
1
43
0.0
10
78.439999463558451
20
-30.920000000000005
10
80.439999463558451
20
-30.920000000000005
10
80.439999463558451
20
-32.920000000000002
10
78.439999463558451
20
-32.920000000000002
0
LWPOLYLINE
5
464
100
AcDbEntity
8
0
100
AcDbPolyline
90
4
70
1
43
0.0
10
82.759999463558444
20
-30.920000000000005
10
84.759999463558444
20
-30.920000000000005
10
84.759999463558444
20
-32.920000000000002
10
82.759999463558444
20
-32.920000000000002
0
LWPOLYLINE
5
465
100
AcDbEntity
8
0
100
AcDbPolyline
90
4
70
1
43
0.0
10
87.079999463558437
20
-30.920000000000005
10
89.079999463558437
20
-30.920000000000005
10
89.079999463558437
20
-32.920000000000002
10
87.079999463558437
20
-32.920000000000002
0
LWPOLYLINE
5
466
100
AcDbEntity
8
0
100
AcDbPolyline
90
4
70
1
43
0.0
10
91.399999463558444
20
-30.920000000000005
10
93.399999463558444
20
-30.920000000000005
10
93.399999463558444
20
-32.920000000000002
10
91.399999463558444
20
-32.920000000000002
0
LWPOLYLINE
5
467
100
AcDbEntity
8
0
100
AcDbPolyline
90
4
70
1
43
0.0
10
95.719999463558452
20
-30.920000000000005
10
97.719999463558452
20
-30.920000000000005
10
97.719999463558452
20
-32.920000000000002
10
95.719999463558452
20
-32.920000000000002
0
LWPOLYLINE
5
468
100
AcDbEntity
8
0
100
AcDbPolyline
90
4
70
1
43
0.0
10
100.03999946355846
20
-30.920000000000005
10
102.03999946355844
20
-30.920000000000005
10
102.03999946355844
20
-32.920000000000002
10
100.03999946355846
20
-32.920000000000002
0
LWPOLYLINE
5
469
100
AcDbEntity
8
0
100
AcDbPolyline
90
4
70
1
43
0.0
10
104.35999946355847
20
-30.920000000000005
10
106.35999946355845
20
-30.920000000000005
10
106.35999946355845
20
-32.920000000000002
10
104.35999946355847
20
-32.920000000000002
0
LWPOLYLINE
5
470
100
AcDbEntity
8
0
100
AcDbPolyline
90
4
70
1
43
0.0
10
108.67999946355846
20
-30.920000000000005
10
110.67999946355846
20
-30.920000000000005
10
110.67999946355846
20
-32.920000000000002
10
108.67999946355846
20
-32.920000000000002
0
LWPOLYLINE
5
471
100
AcDbEntity
8
0
100
AcDbPolyline
90
4
70
1
43
0.0
10
112.99999946355845
20
-30.920000000000005
10
114.99999946355844
20
-30.920000000000005
10
114.99999946355844
20
-32.920000000000002
10
112.99999946355845
20
-32.920000000000002
0
LWPOLYLINE
5
472
100
AcDbEntity
8
0
100
AcDbPolyline
90
4
70
1
43
0.0
10
4.9999994635584351
20
-26.600000000000001
10
6.9999994635584351
20
-26.600000000000001
10
6.9999994635584351
20
-28.599999999999994
10
4.9999994635584351
20
-28.599999999999994
0
LWPOLYLINE
5
473
100
AcDbEntity
8
0
100
AcDbPolyline
90
4
70
1
43
0.0
10
9.3199994635584353
20
-26.600000000000001
10
11.319999463558435
20
-26.600000000000001
10
11.319999463558435
20
-28.599999999999994
10
9.3199994635584353
20
-28.599999999999994
0
LWPOLYLINE
5
474
100
AcDbEntity
8
0
100
AcDbPolyline
90
4
70
1
43
0.0
10
13.639999463558436
20
-26.600000000000001
10
15.639999463558436
20
-26.600000000000001
10
15.639999463558436
20
-28.599999999999994
10
13.639999463558436
20
-28.599999999999994
0
LWPOLYLINE
5
475
100
AcDbEntity
8
0
100
AcDbPolyline
90
4
70
1
43
0.0
10
17.959999463558439
20
-26.600000000000001
10
19.959999463558439
20
-26.600000000000001
10
19.959999463558439
20
-28.599999999999994
10
17.959999463558439
20
-28.599999999999994
0
LWPOLYLINE
5
476
100
AcDbEntity
8
0
100
AcDbPolyline
90
4
70
1
43
0.0
10
22.279999463558436
20
-26.600000000000001
10
24.279999463558436
20
-26.600000000000001
10
24.279999463558436
20
-28.599999999999994
10
22.279999463558436
20
-28.599999999999994
0
LWPOLYLINE
5
477
100
AcDbEntity
8
0
100
AcDbPolyline
90
4
70
1
43
0.0
10
26.599999463558433
20
-26.600000000000001
10
28.599999463558436
20
-26.600000000000001
10
28.599999463558436
20
-28.599999999999994
10
26.599999463558433
20
-28.599999999999994
0
LWPOLYLINE
5
478
100
AcDbEntity
8
0
100
AcDbPolyline
90
4
70
1
43
0.0
10
30.91999946355844
20
-26.600000000000001
10
32.91999946355844
20
-26.600000000000001
10
32.91999946355844
20
-28.599999999999994
10
30.91999946355844
20
-28.599999999999994
0
LWPOLYLINE
5
479
100
AcDbEntity
8
0
100
AcDbPolyline
90
4
70
1
43
0.0
10
35.239999463558441
20
-26.600000000000001
10
37.239999463558441
20
-26.600000000000001
10
37.239999463558441
20
-28.599999999999994
10
35.239999463558441
20
-28.599999999999994
0
LWPOLYLINE
5
480
100
AcDbEntity
8
0
100
AcDbPolyline
90
4
70
1
43
0.0
10
39.559999463558441
20
-26.600000000000001
10
41.559999463558441
20
-26.600000000000001
10
41.559999463558441
20
-28.599999999999994
10
39.559999463558441
20
-28.599999999999994
0
LWPOLYLINE
5
481
100
AcDbEntity
8
0
100
AcDbPolyline
90
4
70
1
43
0.0
10
43.879999463558441
20
-26.600000000000001
10
45.879999463558434
20
-26.600000000000001
10
45.879999463558434
20
-28.599999999999994
10
43.879999463558441
20
-28.599999999999994
0
LWPOLYLINE
5
482
100
AcDbEntity
8
0
100
AcDbPolyline
90
4
70
1
43
0.0
10
48.199999463558434
20
-26.600000000000001
10
50.199999463558441
20
-26.600000000000001
10
50.199999463558441
20
-28.599999999999994
10
48.199999463558434
20
-28.599999999999994
0
LWPOLYLINE
5
483
100
AcDbEntity
8
0
100
AcDbPolyline
90
4
70
1
43
0.0
10
52.519999463558442
20
-26.600000000000001
10
54.519999463558442
20
-26.600000000000001
10
54.519999463558442
20
-28.599999999999994
10
52.519999463558442
20
-28.599999999999994
0
LWPOLYLINE
5
484
100
AcDbEntity
8
0
100
AcDbPolyline
90
4
70
1
43
0.0
10
56.839999463558442
20
-26.600000000000001
10
58.839999463558442
20
-26.600000000000001
10
58.839999463558442
20
-28.599999999999994
10
56.839999463558442
20
-28.599999999999994
0
LWPOLYLINE
5
485
100
AcDbEntity
8
0
100
AcDbPolyline
90
4
70
1
43
0.0
10
61.159999463558435
20
-26.600000000000001
10
63.159999463558442
20
-26.600000000000001
10
63.159999463558442
20
-28.599999999999994
10
61.159999463558435
20
-28.599999999999994
0
LWPOLYLINE
5
486
100
AcDbEntity
8
0
100
AcDbPolyline
90
4
70
1
43
0.0
10
65.479999463558443
20
-26.600000000000001
10
67.479999463558443
20
-26.600000000000001
10
67.479999463558443
20
-28.599999999999994
10
65.479999463558443
20
-28.599999999999994
0
LWPOLYLINE
5
487
100
AcDbEntity
8
0
100
AcDbPolyline
90
4
70
1
43
0.0
10
69.799999463558436
20
-26.600000000000001
10
71.799999463558436
20
-26.600000000000001
10
71.799999463558436
20
-28.599999999999994
10
69.799999463558436
20
-28.599999999999994
0
LWPOLYLINE
5
488
100
AcDbEntity
8
0
100
AcDbPolyline
90
4
70
1
43
0.0
10
74.119999463558443
20
-26.600000000000001
10
76.119999463558443
20
-26.600000000000001
10
76.119999463558443
20
-28.599999999999994
10
74.119999463558443
20
-28.599999999999994
0
LWPOLYLINE
5
489
100
AcDbEntity
8
0
100
AcDbPolyline
90
4
70
1
43
0.0
10
78.439999463558451
20
-26.600000000000001
10
80.439999463558451
20
-26.600000000000001
10
80.439999463558451
20
-28.599999999999994
10
78.439999463558451
20
-28.599999999999994
0
LWPOLYLINE
5
490
100
AcDbEntity
8
0
100
AcDbPolyline
90
4
70
1
43
0.0
10
82.759999463558444
20
-26.600000000000001
10
84.759999463558444
20
-26.600000000000001
10
84.759999463558444
20
-28.599999999999994
10
82.759999463558444
20
-28.599999999999994
0
LWPOLYLINE
5
491
100
AcDbEntity
8
0
100
AcDbPolyline
90
4
70
1
43
0.0
10
87.079999463558437
20
-26.600000000000001
10
89.079999463558437
20
-26.600000000000001
10
89.079999463558437
20
-28.599999999999994
10
87.079999463558437
20
-28.599999999999994
0
LWPOLYLINE
5
492
100
AcDbEntity
8
0
100
AcDbPolyline
90
4
70
1
43
0.0
10
91.399999463558444
20
-26.600000000000001
10
93.399999463558444
20
-26.600000000000001
10
93.399999463558444
20
-28.599999999999994
10
91.399999463558444
20
-28.599999999999994
0
LWPOLYLINE
5
493
100
AcDbEntity
8
0
100
AcDbPolyline
90
4
70
1
43
0.0
10
95.719999463558452
20
-26.600000000000001
10
97.719999463558452
20
-26.600000000000001
10
97.719999463558452
20
-28.599999999999994
10
95.719999463558452
20
-28.599999999999994
0
LWPOLYLINE
5
494
100
AcDbEntity
8
0
100
AcDbPolyline
90
4
70
1
43
0.0
10
100.03999946355846
20
-26.600000000000001
10
102.03999946355844
20
-26.600000000000001
10
102.03999946355844
20
-28.599999999999994
10
100.03999946355846
20
-28.599999999999994
0
LWPOLYLINE
5
495
100
AcDbEntity
8
0
100
AcDbPolyline
90
4
70
1
43
0.0
10
104.35999946355847
20
-26.600000000000001
10
106.35999946355845
20
-26.600000000000001
10
106.35999946355845
20
-28.599999999999994
10
104.35999946355847
20
-28.599999999999994
0
LWPOLYLINE
5
496
100
AcDbEntity
8
0
100
AcDbPolyline
90
4
70
1
43
0.0
10
108.67999946355846
20
-26.600000000000001
10
110.67999946355846
20
-26.600000000000001
10
110.67999946355846
20
-28.599999999999994
10
108.67999946355846
20
-28.599999999999994
0
LWPOLYLINE
5
497
100
AcDbEntity
8
0
100
AcDbPolyline
90
4
70
1
43
0.0
10
112.99999946355845
20
-26.600000000000001
10
114.99999946355844
20
-26.600000000000001
10
114.99999946355844
20
-28.599999999999994
10
112.99999946355845
20
-28.599999999999994
0
LWPOLYLINE
5
498
100
AcDbEntity
8
0
100
AcDbPolyline
90
4
70
1
43
0.0
10
4.9999994635584351
20
-22.279999999999998
10
6.9999994635584351
20
-22.279999999999998
10
6.9999994635584351
20
-24.27999999999999
10
4.9999994635584351
20
-24.27999999999999
0
LWPOLYLINE
5
499
100
AcDbEntity
8
0
100
AcDbPolyline
90
4
70
1
43
0.0
10
9.3199994635584353
20
-22.279999999999998
10
11.319999463558435
20
-22.279999999999998
10
11.319999463558435
20
-24.27999999999999
10
9.3199994635584353
20
-24.27999999999999
0
LWPOLYLINE
5
500
100
AcDbEntity
8
0
100
AcDbPolyline
90
4
70
1
43
0.0
10
13.639999463558436
20
-22.279999999999998
10
15.639999463558436
20
-22.279999999999998
10
15.639999463558436
20
-24.27999999999999
10
13.639999463558436
20
-24.27999999999999
0
LWPOLYLINE
5
501
100
AcDbEntity
8
0
100
AcDbPolyline
90
4
70
1
43
0.0
10
17.959999463558439
20
-22.279999999999998
10
19.959999463558439
20
-22.279999999999998
10
19.959999463558439
20
-24.27999999999999
10
17.959999463558439
20
-24.27999999999999
0
LWPOLYLINE
5
502
100
AcDbEntity
8
0
100
AcDbPolyline
90
4
70
1
43
0.0
10
22.279999463558436
20
-22.279999999999998
10
24.279999463558436
20
-22.279999999999998
10
24.279999463558436
20
-24.27999999999999
10
22.279999463558436
20
-24.27999999999999
0
LWPOLYLINE
5
503
100
AcDbEntity
8
0
100
AcDbPolyline
90
4
70
1
43
0.0
10
26.599999463558433
20
-22.279999999999998
10
28.599999463558436
20
-22.279999999999998
10
28.599999463558436
20
-24.27999999999999
10
26.599999463558433
20
-24.27999999999999
0
LWPOLYLINE
5
504
100
AcDbEntity
8
0
100
AcDbPolyline
90
4
70
1
43
0.0
10
30.91999946355844
20
-22.279999999999998
10
32.91999946355844
20
-22.279999999999998
10
32.91999946355844
20
-24.27999999999999
10
30.91999946355844
20
-24.27999999999999
0
LWPOLYLINE
5
505
100
AcDbEntity
8
0
100
AcDbPolyline
90
4
70
1
43
0.0
10
35.239999463558441
20
-22.279999999999998
10
37.239999463558441
20
-22.279999999999998
10
37.239999463558441
20
-24.27999999999999
10
35.239999463558441
20
-24.27999999999999
0
LWPOLYLINE
5
506
100
AcDbEntity
8
0
100
AcDbPolyline
90
4
70
1
43
0.0
10
39.559999463558441
20
-22.279999999999998
10
41.559999463558441
20
-22.279999999999998
10
41.559999463558441
20
-24.27999999999999
10
39.559999463558441
20
-24.27999999999999
0
LWPOLYLINE
5
507
100
AcDbEntity
8
0
100
AcDbPolyline
90
4
70
1
43
0.0
10
43.879999463558441
20
-22.279999999999998
10
45.879999463558434
20
-22.279999999999998
10
45.879999463558434
20
-24.27999999999999
10
43.879999463558441
20
-24.27999999999999
0
LWPOLYLINE
5
508
100
AcDbEntity
8
0
100
AcDbPolyline
90
4
70
1
43
0.0
10
48.199999463558434
20
-22.279999999999998
10
50.199999463558441
20
-22.279999999999998
10
50.199999463558441
20
-24.27999999999999
10
48.199999463558434
20
-24.27999999999999
0
LWPOLYLINE
5
509
100
AcDbEntity
8
0
100
AcDbPolyline
90
4
70
1
43
0.0
10
52.519999463558442
20
-22.279999999999998
10
54.519999463558442
20
-22.279999999999998
10
54.519999463558442
20
-24.27999999999999
10
52.519999463558442
20
-24.27999999999999
0
LWPOLYLINE
5
510
100
AcDbEntity
8
0
100
AcDbPolyline
90
4
70
1
43
0.0
10
56.839999463558442
20
-22.279999999999998
10
58.839999463558442
20
-22.279999999999998
10
58.839999463558442
20
-24.27999999999999
10
56.839999463558442
20
-24.27999999999999
0
LWPOLYLINE
5
511
100
AcDbEntity
8
0
100
AcDbPolyline
90
4
70
1
43
0.0
10
61.159999463558435
20
-22.279999999999998
10
63.159999463558442
20
-22.279999999999998
10
63.159999463558442
20
-24.27999999999999
10
61.159999463558435
20
-24.27999999999999
0
LWPOLYLINE
5
512
100
AcDbEntity
8
0
100
AcDbPolyline
90
4
70
1
43
0.0
10
65.479999463558443
20
-22.279999999999998
10
67.479999463558443
20
-22.279999999999998
10
67.479999463558443
20
-24.27999999999999
10
65.479999463558443
20
-24.27999999999999
0
LWPOLYLINE
5
513
100
AcDbEntity
8
0
100
AcDbPolyline
90
4
70
1
43
0.0
10
69.799999463558436
20
-22.279999999999998
10
71.799999463558436
20
-22.279999999999998
10
71.799999463558436
20
-24.27999999999999
10
69.799999463558436
20
-24.27999999999999
0
LWPOLYLINE
5
514
100
AcDbEntity
8
0
100
AcDbPolyline
90
4
70
1
43
0.0
10
91.399999463558444
20
-22.279999999999998
10
93.399999463558444
20
-22.279999999999998
10
93.399999463558444
20
-24.27999999999999
10
91.399999463558444
20
-24.27999999999999
0
LWPOLYLINE
5
515
100
AcDbEntity
8
0
100
AcDbPolyline
90
4
70
1
43
0.0
10
74.119999463558443
20
-22.279999999999998
10
76.119999463558443
20
-22.279999999999998
10
76.119999463558443
20
-24.27999999999999
10
74.119999463558443
20
-24.27999999999999
0
LWPOLYLINE
5
516
100
AcDbEntity
8
0
100
AcDbPolyline
90
4
70
1
43
0.0
10
87.079999463558437
20
-22.279999999999998
10
89.079999463558437
20
-22.279999999999998
10
89.079999463558437
20
-24.27999999999999
10
87.079999463558437
20
-24.27999999999999
0
LWPOLYLINE
5
517
100
AcDbEntity
8
0
100
AcDbPolyline
90
4
70
1
43
0.0
10
78.439999463558451
20
-22.279999999999998
10
80.439999463558451
20
-22.279999999999998
10
80.439999463558451
20
-24.27999999999999
10
78.439999463558451
20
-24.27999999999999
0
LWPOLYLINE
5
518
100
AcDbEntity
8
0
100
AcDbPolyline
90
4
70
1
43
0.0
10
82.759999463558444
20
-22.279999999999998
10
84.759999463558444
20
-22.279999999999998
10
84.759999463558444
20
-24.27999999999999
10
82.759999463558444
20
-24.27999999999999
0
LWPOLYLINE
5
519
100
AcDbEntity
8
0
100
AcDbPolyline
90
4
70
1
43
0.0
10
91.399999463558444
20
-95.720000000000013
10
93.399999463558444
20
-95.720000000000013
10
93.399999463558444
20
-97.719999999999999
10
91.399999463558444
20
-97.719999999999999
0
LWPOLYLINE
5
520
100
AcDbEntity
8
0
100
AcDbPolyline
90
4
70
1
43
0.0
10
95.719999463558452
20
-95.720000000000013
10
97.719999463558452
20
-95.720000000000013
10
97.719999463558452
20
-97.719999999999999
10
95.719999463558452
20
-97.719999999999999
0
LWPOLYLINE
5
521
100
AcDbEntity
8
0
100
AcDbPolyline
90
4
70
1
43
0.0
10
100.03999946355846
20
-95.720000000000013
10
102.03999946355844
20
-95.720000000000013
10
102.03999946355844
20
-97.719999999999999
10
100.03999946355846
20
-97.719999999999999
0
LWPOLYLINE
5
522
100
AcDbEntity
8
0
100
AcDbPolyline
90
4
70
1
43
0.0
10
104.35999946355847
20
-95.720000000000013
10
106.35999946355845
20
-95.720000000000013
10
106.35999946355845
20
-97.719999999999999
10
104.35999946355847
20
-97.719999999999999
0
LWPOLYLINE
5
523
100
AcDbEntity
8
0
100
AcDbPolyline
90
4
70
1
43
0.0
10
108.67999946355846
20
-95.720000000000013
10
110.67999946355846
20
-95.720000000000013
10
110.67999946355846
20
-97.719999999999999
10
108.67999946355846
20
-97.719999999999999
0
LWPOLYLINE
5
524
100
AcDbEntity
8
0
100
AcDbPolyline
90
4
70
1
43
0.0
10
112.99999946355845
20
-95.720000000000013
10
114.99999946355844
20
-95.720000000000013
10
114.99999946355844
20
-97.719999999999999
10
112.99999946355845
20
-97.719999999999999
0
LWPOLYLINE
5
525
100
AcDbEntity
8
0
100
AcDbPolyline
90
4
70
1
43
0.0
10
82.759999463558444
20
-91.400000000000006
10
84.759999463558444
20
-91.400000000000006
10
84.759999463558444
20
-93.400000000000006
10
82.759999463558444
20
-93.400000000000006
0
LWPOLYLINE
5
526
100
AcDbEntity
8
0
100
AcDbPolyline
90
4
70
1
43
0.0
10
87.079999463558437
20
-91.400000000000006
10
89.079999463558437
20
-91.400000000000006
10
89.079999463558437
20
-93.400000000000006
10
87.079999463558437
20
-93.400000000000006
0
LWPOLYLINE
5
527
100
AcDbEntity
8
0
100
AcDbPolyline
90
4
70
1
43
0.0
10
91.399999463558444
20
-91.400000000000006
10
93.399999463558444
20
-91.400000000000006
10
93.399999463558444
20
-93.400000000000006
10
91.399999463558444
20
-93.400000000000006
0
LWPOLYLINE
5
528
100
AcDbEntity
8
0
100
AcDbPolyline
90
4
70
1
43
0.0
10
95.719999463558452
20
-91.400000000000006
10
97.719999463558452
20
-91.400000000000006
10
97.719999463558452
20
-93.400000000000006
10
95.719999463558452
20
-93.400000000000006
0
LWPOLYLINE
5
529
100
AcDbEntity
8
0
100
AcDbPolyline
90
4
70
1
43
0.0
10
100.03999946355846
20
-91.400000000000006
10
102.03999946355844
20
-91.400000000000006
10
102.03999946355844
20
-93.400000000000006
10
100.03999946355846
20
-93.400000000000006
0
LWPOLYLINE
5
530
100
AcDbEntity
8
0
100
AcDbPolyline
90
4
70
1
43
0.0
10
82.759999463558444
20
-87.079999999999998
10
84.759999463558444
20
-87.079999999999998
10
84.759999463558444
20
-89.079999999999998
10
82.759999463558444
20
-89.079999999999998
0
LWPOLYLINE
5
531
100
AcDbEntity
8
0
100
AcDbPolyline
90
4
70
1
43
0.0
10
104.35999946355847
20
-91.400000000000006
10
106.35999946355845
20
-91.400000000000006
10
106.35999946355845
20
-93.400000000000006
10
104.35999946355847
20
-93.400000000000006
0
LWPOLYLINE
5
532
100
AcDbEntity
8
0
100
AcDbPolyline
90
4
70
1
43
0.0
10
87.079999463558437
20
-87.079999999999998
10
89.079999463558437
20
-87.079999999999998
10
89.079999463558437
20
-89.079999999999998
10
87.079999463558437
20
-89.079999999999998
0
LWPOLYLINE
5
533
100
AcDbEntity
8
0
100
AcDbPolyline
90
4
70
1
43
0.0
10
108.67999946355846
20
-91.400000000000006
10
110.67999946355846
20
-91.400000000000006
10
110.67999946355846
20
-93.400000000000006
10
108.67999946355846
20
-93.400000000000006
0
LWPOLYLINE
5
534
100
AcDbEntity
8
0
100
AcDbPolyline
90
4
70
1
43
0.0
10
112.99999946355845
20
-91.400000000000006
10
114.99999946355844
20
-91.400000000000006
10
114.99999946355844
20
-93.400000000000006
10
112.99999946355845
20
-93.400000000000006
0
LWPOLYLINE
5
535
100
AcDbEntity
8
0
100
AcDbPolyline
90
4
70
1
43
0.0
10
104.35999946355847
20
-78.439999999999998
10
106.35999946355845
20
-78.439999999999998
10
106.35999946355845
20
-80.439999999999998
10
104.35999946355847
20
-80.439999999999998
0
LWPOLYLINE
5
536
100
AcDbEntity
8
0
100
AcDbPolyline
90
4
70
1
43
0.0
10
100.03999946355846
20
-78.439999999999998
10
102.03999946355844
20
-78.439999999999998
10
102.03999946355844
20
-80.439999999999998
10
100.03999946355846
20
-80.439999999999998
0
LWPOLYLINE
5
537
100
AcDbEntity
8
0
100
AcDbPolyline
90
4
70
1
43
0.0
10
108.67999946355846
20
-78.439999999999998
10
110.67999946355846
20
-78.439999999999998
10
110.67999946355846
20
-80.439999999999998
10
108.67999946355846
20
-80.439999999999998
0
LWPOLYLINE
5
538
100
AcDbEntity
8
0
100
AcDbPolyline
90
4
70
1
43
0.0
10
95.719999463558452
20
-78.439999999999998
10
97.719999463558452
20
-78.439999999999998
10
97.719999463558452
20
-80.439999999999998
10
95.719999463558452
20
-80.439999999999998
0
LWPOLYLINE
5
539
100
AcDbEntity
8
0
100
AcDbPolyline
90
4
70
1
43
0.0
10
112.99999946355845
20
-78.439999999999998
10
114.99999946355844
20
-78.439999999999998
10
114.99999946355844
20
-80.439999999999998
10
112.99999946355845
20
-80.439999999999998
0
LWPOLYLINE
5
540
100
AcDbEntity
8
0
100
AcDbPolyline
90
4
70
1
43
0.0
10
91.399999463558444
20
-78.439999999999998
10
93.399999463558444
20
-78.439999999999998
10
93.399999463558444
20
-80.439999999999998
10
91.399999463558444
20
-80.439999999999998
0
LWPOLYLINE
5
541
100
AcDbEntity
8
0
100
AcDbPolyline
90
4
70
1
43
0.0
10
87.079999463558437
20
-78.439999999999998
10
89.079999463558437
20
-78.439999999999998
10
89.079999463558437
20
-80.439999999999998
10
87.079999463558437
20
-80.439999999999998
0
LWPOLYLINE
5
542
100
AcDbEntity
8
0
100
AcDbPolyline
90
4
70
1
43
0.0
10
82.759999463558444
20
-78.439999999999998
10
84.759999463558444
20
-78.439999999999998
10
84.759999463558444
20
-80.439999999999998
10
82.759999463558444
20
-80.439999999999998
0
LWPOLYLINE
5
543
100
AcDbEntity
8
0
100
AcDbPolyline
90
4
70
1
43
0.0
10
112.99999946355845
20
-82.759999999999991
10
114.99999946355844
20
-82.759999999999991
10
114.99999946355844
20
-84.759999999999991
10
112.99999946355845
20
-84.759999999999991
0
LWPOLYLINE
5
544
100
AcDbEntity
8
0
100
AcDbPolyline
90
4
70
1
43
0.0
10
108.67999946355846
20
-82.759999999999991
10
110.67999946355846
20
-82.759999999999991
10
110.67999946355846
20
-84.759999999999991
10
108.67999946355846
20
-84.759999999999991
0
LWPOLYLINE
5
545
100
AcDbEntity
8
0
100
AcDbPolyline
90
4
70
1
43
0.0
10
104.35999946355847
20
-82.759999999999991
10
106.35999946355845
20
-82.759999999999991
10
106.35999946355845
20
-84.759999999999991
10
104.35999946355847
20
-84.759999999999991
0
LWPOLYLINE
5
546
100
AcDbEntity
8
0
100
AcDbPolyline
90
4
70
1
43
0.0
10
100.03999946355846
20
-82.759999999999991
10
102.03999946355844
20
-82.759999999999991
10
102.03999946355844
20
-84.759999999999991
10
100.03999946355846
20
-84.759999999999991
0
LWPOLYLINE
5
547
100
AcDbEntity
8
0
100
AcDbPolyline
90
4
70
1
43
0.0
10
95.719999463558452
20
-82.759999999999991
10
97.719999463558452
20
-82.759999999999991
10
97.719999463558452
20
-84.759999999999991
10
95.719999463558452
20
-84.759999999999991
0
LWPOLYLINE
5
548
100
AcDbEntity
8
0
100
AcDbPolyline
90
4
70
1
43
0.0
10
91.399999463558444
20
-82.759999999999991
10
93.399999463558444
20
-82.759999999999991
10
93.399999463558444
20
-84.759999999999991
10
91.399999463558444
20
-84.759999999999991
0
LWPOLYLINE
5
549
100
AcDbEntity
8
0
100
AcDbPolyline
90
4
70
1
43
0.0
10
87.079999463558437
20
-82.759999999999991
10
89.079999463558437
20
-82.759999999999991
10
89.079999463558437
20
-84.759999999999991
10
87.079999463558437
20
-84.759999999999991
0
LWPOLYLINE
5
550
100
AcDbEntity
8
0
100
AcDbPolyline
90
4
70
1
43
0.0
10
82.759999463558444
20
-82.759999999999991
10
84.759999463558444
20
-82.759999999999991
10
84.759999463558444
20
-84.759999999999991
10
82.759999463558444
20
-84.759999999999991
0
LWPOLYLINE
5
551
100
AcDbEntity
8
0
100
AcDbPolyline
90
4
70
1
43
0.0
10
112.99999946355845
20
-87.079999999999998
10
114.99999946355844
20
-87.079999999999998
10
114.99999946355844
20
-89.079999999999998
10
112.99999946355845
20
-89.079999999999998
0
LWPOLYLINE
5
552
100
AcDbEntity
8
0
100
AcDbPolyline
90
4
70
1
43
0.0
10
108.67999946355846
20
-87.079999999999998
10
110.67999946355846
20
-87.079999999999998
10
110.67999946355846
20
-89.079999999999998
10
108.67999946355846
20
-89.079999999999998
0
LWPOLYLINE
5
553
100
AcDbEntity
8
0
100
AcDbPolyline
90
4
70
1
43
0.0
10
104.35999946355847
20
-87.079999999999998
10
106.35999946355845
20
-87.079999999999998
10
106.35999946355845
20
-89.079999999999998
10
104.35999946355847
20
-89.079999999999998
0
LWPOLYLINE
5
554
100
AcDbEntity
8
0
100
AcDbPolyline
90
4
70
1
43
0.0
10
100.03999946355846
20
-87.079999999999998
10
102.03999946355844
20
-87.079999999999998
10
102.03999946355844
20
-89.079999999999998
10
100.03999946355846
20
-89.079999999999998
0
LWPOLYLINE
5
555
100
AcDbEntity
8
0
100
AcDbPolyline
90
4
70
1
43
0.0
10
95.719999463558452
20
-87.079999999999998
10
97.719999463558452
20
-87.079999999999998
10
97.719999463558452
20
-89.079999999999998
10
95.719999463558452
20
-89.079999999999998
0
LWPOLYLINE
5
556
100
AcDbEntity
8
0
100
AcDbPolyline
90
4
70
1
43
0.0
10
91.399999463558444
20
-87.079999999999998
10
93.399999463558444
20
-87.079999999999998
10
93.399999463558444
20
-89.079999999999998
10
91.399999463558444
20
-89.079999999999998
0
LWPOLYLINE
5
557
100
AcDbEntity
8
0
100
AcDbPolyline
90
4
70
1
43
0.0
10
112.99999946355845
20
-74.120000000000005
10
114.99999946355844
20
-74.120000000000005
10
114.99999946355844
20
-76.120000000000005
10
112.99999946355845
20
-76.120000000000005
0
LWPOLYLINE
5
558
100
AcDbEntity
8
0
100
AcDbPolyline
90
4
70
1
43
0.0
10
87.079999463558437
20
-69.800000000000011
10
89.079999463558437
20
-69.800000000000011
10
89.079999463558437
20
-71.799999999999997
10
87.079999463558437
20
-71.799999999999997
0
LWPOLYLINE
5
559
100
AcDbEntity
8
0
100
AcDbPolyline
90
4
70
1
43
0.0
10
91.399999463558444
20
-69.800000000000011
10
93.399999463558444
20
-69.800000000000011
10
93.399999463558444
20
-71.799999999999997
10
91.399999463558444
20
-71.799999999999997
0
LWPOLYLINE
5
560
100
AcDbEntity
8
0
100
AcDbPolyline
90
4
70
1
43
0.0
10
95.719999463558452
20
-69.800000000000011
10
97.719999463558452
20
-69.800000000000011
10
97.719999463558452
20
-71.799999999999997
10
95.719999463558452
20
-71.799999999999997
0
LWPOLYLINE
5
561
100
AcDbEntity
8
0
100
AcDbPolyline
90
4
70
1
43
0.0
10
100.03999946355846
20
-69.800000000000011
10
102.03999946355844
20
-69.800000000000011
10
102.03999946355844
20
-71.799999999999997
10
100.03999946355846
20
-71.799999999999997
0
LWPOLYLINE
5
562
100
AcDbEntity
8
0
100
AcDbPolyline
90
4
70
1
43
0.0
10
104.35999946355847
20
-69.800000000000011
10
106.35999946355845
20
-69.800000000000011
10
106.35999946355845
20
-71.799999999999997
10
104.35999946355847
20
-71.799999999999997
0
LWPOLYLINE
5
563
100
AcDbEntity
8
0
100
AcDbPolyline
90
4
70
1
43
0.0
10
108.67999946355846
20
-69.800000000000011
10
110.67999946355846
20
-69.800000000000011
10
110.67999946355846
20
-71.799999999999997
10
108.67999946355846
20
-71.799999999999997
0
LWPOLYLINE
5
564
100
AcDbEntity
8
0
100
AcDbPolyline
90
4
70
1
43
0.0
10
112.99999946355845
20
-69.800000000000011
10
114.99999946355844
20
-69.800000000000011
10
114.99999946355844
20
-71.799999999999997
10
112.99999946355845
20
-71.799999999999997
0
LWPOLYLINE
5
565
100
AcDbEntity
8
0
100
AcDbPolyline
90
4
70
1
43
0.0
10
82.759999463558444
20
-65.480000000000004
10
84.759999463558444
20
-65.480000000000004
10
84.759999463558444
20
-67.47999999999999
10
82.759999463558444
20
-67.47999999999999
0
LWPOLYLINE
5
566
100
AcDbEntity
8
0
100
AcDbPolyline
90
4
70
1
43
0.0
10
87.079999463558437
20
-65.480000000000004
10
89.079999463558437
20
-65.480000000000004
10
89.079999463558437
20
-67.47999999999999
10
87.079999463558437
20
-67.47999999999999
0
LWPOLYLINE
5
567
100
AcDbEntity
8
0
100
AcDbPolyline
90
4
70
1
43
0.0
10
91.399999463558444
20
-65.480000000000004
10
93.399999463558444
20
-65.480000000000004
10
93.399999463558444
20
-67.47999999999999
10
91.399999463558444
20
-67.47999999999999
0
LWPOLYLINE
5
568
100
AcDbEntity
8
0
100
AcDbPolyline
90
4
70
1
43
0.0
10
95.719999463558452
20
-65.480000000000004
10
97.719999463558452
20
-65.480000000000004
10
97.719999463558452
20
-67.47999999999999
10
95.719999463558452
20
-67.47999999999999
0
LWPOLYLINE
5
569
100
AcDbEntity
8
0
100
AcDbPolyline
90
4
70
1
43
0.0
10
100.03999946355846
20
-65.480000000000004
10
102.03999946355844
20
-65.480000000000004
10
102.03999946355844
20
-67.47999999999999
10
100.03999946355846
20
-67.47999999999999
0
LWPOLYLINE
5
570
100
AcDbEntity
8
0
100
AcDbPolyline
90
4
70
1
43
0.0
10
104.35999946355847
20
-65.480000000000004
10
106.35999946355845
20
-65.480000000000004
10
106.35999946355845
20
-67.47999999999999
10
104.35999946355847
20
-67.47999999999999
0
LWPOLYLINE
5
571
100
AcDbEntity
8
0
100
AcDbPolyline
90
4
70
1
43
0.0
10
108.67999946355846
20
-65.480000000000004
10
110.67999946355846
20
-65.480000000000004
10
110.67999946355846
20
-67.47999999999999
10
108.67999946355846
20
-67.47999999999999
0
LWPOLYLINE
5
572
100
AcDbEntity
8
0
100
AcDbPolyline
90
4
70
1
43
0.0
10
112.99999946355845
20
-65.480000000000004
10
114.99999946355844
20
-65.480000000000004
10
114.99999946355844
20
-67.47999999999999
10
112.99999946355845
20
-67.47999999999999
0
LWPOLYLINE
5
573
100
AcDbEntity
8
0
100
AcDbPolyline
90
4
70
1
43
0.0
10
82.759999463558444
20
-61.159999999999997
10
84.759999463558444
20
-61.159999999999997
10
84.759999463558444
20
-63.159999999999989
10
82.759999463558444
20
-63.159999999999989
0
LWPOLYLINE
5
574
100
AcDbEntity
8
0
100
AcDbPolyline
90
4
70
1
43
0.0
10
87.079999463558437
20
-61.159999999999997
10
89.079999463558437
20
-61.159999999999997
10
89.079999463558437
20
-63.159999999999989
10
87.079999463558437
20
-63.159999999999989
0
LWPOLYLINE
5
575
100
AcDbEntity
8
0
100
AcDbPolyline
90
4
70
1
43
0.0
10
91.399999463558444
20
-61.159999999999997
10
93.399999463558444
20
-61.159999999999997
10
93.399999463558444
20
-63.159999999999989
10
91.399999463558444
20
-63.159999999999989
0
LWPOLYLINE
5
576
100
AcDbEntity
8
0
100
AcDbPolyline
90
4
70
1
43
0.0
10
95.719999463558452
20
-61.159999999999997
10
97.719999463558452
20
-61.159999999999997
10
97.719999463558452
20
-63.159999999999989
10
95.719999463558452
20
-63.159999999999989
0
LWPOLYLINE
5
577
100
AcDbEntity
8
0
100
AcDbPolyline
90
4
70
1
43
0.0
10
100.03999946355846
20
-61.159999999999997
10
102.03999946355844
20
-61.159999999999997
10
102.03999946355844
20
-63.159999999999989
10
100.03999946355846
20
-63.159999999999989
0
LWPOLYLINE
5
578
100
AcDbEntity
8
0
100
AcDbPolyline
90
4
70
1
43
0.0
10
104.35999946355847
20
-61.159999999999997
10
106.35999946355845
20
-61.159999999999997
10
106.35999946355845
20
-63.159999999999989
10
104.35999946355847
20
-63.159999999999989
0
LWPOLYLINE
5
579
100
AcDbEntity
8
0
100
AcDbPolyline
90
4
70
1
43
0.0
10
108.67999946355846
20
-61.159999999999997
10
110.67999946355846
20
-61.159999999999997
10
110.67999946355846
20
-63.159999999999989
10
108.67999946355846
20
-63.159999999999989
0
LWPOLYLINE
5
580
100
AcDbEntity
8
0
100
AcDbPolyline
90
4
70
1
43
0.0
10
112.99999946355845
20
-61.159999999999997
10
114.99999946355844
20
-61.159999999999997
10
114.99999946355844
20
-63.159999999999989
10
112.99999946355845
20
-63.159999999999989
0
LWPOLYLINE
5
581
100
AcDbEntity
8
0
100
AcDbPolyline
90
4
70
1
43
0.0
10
82.759999463558444
20
-56.840000000000003
10
84.759999463558444
20
-56.840000000000003
10
84.759999463558444
20
-58.839999999999996
10
82.759999463558444
20
-58.839999999999996
0
LWPOLYLINE
5
582
100
AcDbEntity
8
0
100
AcDbPolyline
90
4
70
1
43
0.0
10
87.079999463558437
20
-56.840000000000003
10
89.079999463558437
20
-56.840000000000003
10
89.079999463558437
20
-58.839999999999996
10
87.079999463558437
20
-58.839999999999996
0
LWPOLYLINE
5
583
100
AcDbEntity
8
0
100
AcDbPolyline
90
4
70
1
43
0.0
10
91.399999463558444
20
-56.840000000000003
10
93.399999463558444
20
-56.840000000000003
10
93.399999463558444
20
-58.839999999999996
10
91.399999463558444
20
-58.839999999999996
0
LWPOLYLINE
5
584
100
AcDbEntity
8
0
100
AcDbPolyline
90
4
70
1
43
0.0
10
95.719999463558452
20
-56.840000000000003
10
97.719999463558452
20
-56.840000000000003
10
97.719999463558452
20
-58.839999999999996
10
95.719999463558452
20
-58.839999999999996
0
LWPOLYLINE
5
585
100
AcDbEntity
8
0
100
AcDbPolyline
90
4
70
1
43
0.0
10
100.03999946355846
20
-56.840000000000003
10
102.03999946355844
20
-56.840000000000003
10
102.03999946355844
20
-58.839999999999996
10
100.03999946355846
20
-58.839999999999996
0
LWPOLYLINE
5
586
100
AcDbEntity
8
0
100
AcDbPolyline
90
4
70
1
43
0.0
10
104.35999946355847
20
-56.840000000000003
10
106.35999946355845
20
-56.840000000000003
10
106.35999946355845
20
-58.839999999999996
10
104.35999946355847
20
-58.839999999999996
0
LWPOLYLINE
5
587
100
AcDbEntity
8
0
100
AcDbPolyline
90
4
70
1
43
0.0
10
108.67999946355846
20
-56.840000000000003
10
110.67999946355846
20
-56.840000000000003
10
110.67999946355846
20
-58.839999999999996
10
108.67999946355846
20
-58.839999999999996
0
LWPOLYLINE
5
588
100
AcDbEntity
8
0
100
AcDbPolyline
90
4
70
1
43
0.0
10
112.99999946355845
20
-56.840000000000003
10
114.99999946355844
20
-56.840000000000003
10
114.99999946355844
20
-58.839999999999996
10
112.99999946355845
20
-58.839999999999996
0
LWPOLYLINE
5
589
100
AcDbEntity
8
0
100
AcDbPolyline
90
4
70
1
43
0.0
10
82.759999463558444
20
-52.519999999999996
10
84.759999463558444
20
-52.519999999999996
10
84.759999463558444
20
-54.519999999999989
10
82.759999463558444
20
-54.519999999999989
0
LWPOLYLINE
5
590
100
AcDbEntity
8
0
100
AcDbPolyline
90
4
70
1
43
0.0
10
87.079999463558437
20
-52.519999999999996
10
89.079999463558437
20
-52.519999999999996
10
89.079999463558437
20
-54.519999999999989
10
87.079999463558437
20
-54.519999999999989
0
LWPOLYLINE
5
591
100
AcDbEntity
8
0
100
AcDbPolyline
90
4
70
1
43
0.0
10
91.399999463558444
20
-52.519999999999996
10
93.399999463558444
20
-52.519999999999996
10
93.399999463558444
20
-54.519999999999989
10
91.399999463558444
20
-54.519999999999989
0
LWPOLYLINE
5
592
100
AcDbEntity
8
0
100
AcDbPolyline
90
4
70
1
43
0.0
10
95.719999463558452
20
-52.519999999999996
10
97.719999463558452
20
-52.519999999999996
10
97.719999463558452
20
-54.519999999999989
10
95.719999463558452
20
-54.519999999999989
0
LWPOLYLINE
5
593
100
AcDbEntity
8
0
100
AcDbPolyline
90
4
70
1
43
0.0
10
100.03999946355846
20
-52.519999999999996
10
102.03999946355844
20
-52.519999999999996
10
102.03999946355844
20
-54.519999999999989
10
100.03999946355846
20
-54.519999999999989
0
LWPOLYLINE
5
594
100
AcDbEntity
8
0
100
AcDbPolyline
90
4
70
1
43
0.0
10
104.35999946355847
20
-52.519999999999996
10
106.35999946355845
20
-52.519999999999996
10
106.35999946355845
20
-54.519999999999989
10
104.35999946355847
20
-54.519999999999989
0
LWPOLYLINE
5
595
100
AcDbEntity
8
0
100
AcDbPolyline
90
4
70
1
43
0.0
10
108.67999946355846
20
-52.519999999999996
10
110.67999946355846
20
-52.519999999999996
10
110.67999946355846
20
-54.519999999999989
10
108.67999946355846
20
-54.519999999999989
0
LWPOLYLINE
5
596
100
AcDbEntity
8
0
100
AcDbPolyline
90
4
70
1
43
0.0
10
112.99999946355845
20
-52.519999999999996
10
114.99999946355844
20
-52.519999999999996
10
114.99999946355844
20
-54.519999999999989
10
112.99999946355845
20
-54.519999999999989
0
LWPOLYLINE
5
597
100
AcDbEntity
8
0
100
AcDbPolyline
90
4
70
1
43
0.0
10
82.759999463558444
20
-48.200000000000003
10
84.759999463558444
20
-48.200000000000003
10
84.759999463558444
20
-50.199999999999996
10
82.759999463558444
20
-50.199999999999996
0
LWPOLYLINE
5
598
100
AcDbEntity
8
0
100
AcDbPolyline
90
4
70
1
43
0.0
10
87.079999463558437
20
-48.200000000000003
10
89.079999463558437
20
-48.200000000000003
10
89.079999463558437
20
-50.199999999999996
10
87.079999463558437
20
-50.199999999999996
0
LWPOLYLINE
5
599
100
AcDbEntity
8
0
100
AcDbPolyline
90
4
70
1
43
0.0
10
91.399999463558444
20
-48.200000000000003
10
93.399999463558444
20
-48.200000000000003
10
93.399999463558444
20
-50.199999999999996
10
91.399999463558444
20
-50.199999999999996
0
LWPOLYLINE
5
600
100
AcDbEntity
8
0
100
AcDbPolyline
90
4
70
1
43
0.0
10
95.719999463558452
20
-48.200000000000003
10
97.719999463558452
20
-48.200000000000003
10
97.719999463558452
20
-50.199999999999996
10
95.719999463558452
20
-50.199999999999996
0
LWPOLYLINE
5
601
100
AcDbEntity
8
0
100
AcDbPolyline
90
4
70
1
43
0.0
10
100.03999946355846
20
-48.200000000000003
10
102.03999946355844
20
-48.200000000000003
10
102.03999946355844
20
-50.199999999999996
10
100.03999946355846
20
-50.199999999999996
0
LWPOLYLINE
5
602
100
AcDbEntity
8
0
100
AcDbPolyline
90
4
70
1
43
0.0
10
104.35999946355847
20
-48.200000000000003
10
106.35999946355845
20
-48.200000000000003
10
106.35999946355845
20
-50.199999999999996
10
104.35999946355847
20
-50.199999999999996
0
LWPOLYLINE
5
603
100
AcDbEntity
8
0
100
AcDbPolyline
90
4
70
1
43
0.0
10
108.67999946355846
20
-48.200000000000003
10
110.67999946355846
20
-48.200000000000003
10
110.67999946355846
20
-50.199999999999996
10
108.67999946355846
20
-50.199999999999996
0
LWPOLYLINE
5
604
100
AcDbEntity
8
0
100
AcDbPolyline
90
4
70
1
43
0.0
10
112.99999946355845
20
-48.200000000000003
10
114.99999946355844
20
-48.200000000000003
10
114.99999946355844
20
-50.199999999999996
10
112.99999946355845
20
-50.199999999999996
0
LWPOLYLINE
5
605
100
AcDbEntity
8
0
100
AcDbPolyline
90
4
70
1
43
0.0
10
82.759999463558444
20
-43.879999999999995
10
84.759999463558444
20
-43.879999999999995
10
84.759999463558444
20
-45.879999999999995
10
82.759999463558444
20
-45.879999999999995
0
LWPOLYLINE
5
606
100
AcDbEntity
8
0
100
AcDbPolyline
90
4
70
1
43
0.0
10
87.079999463558437
20
-43.879999999999995
10
89.079999463558437
20
-43.879999999999995
10
89.079999463558437
20
-45.879999999999995
10
87.079999463558437
20
-45.879999999999995
0
LWPOLYLINE
5
607
100
AcDbEntity
8
0
100
AcDbPolyline
90
4
70
1
43
0.0
10
91.399999463558444
20
-43.879999999999995
10
93.399999463558444
20
-43.879999999999995
10
93.399999463558444
20
-45.879999999999995
10
91.399999463558444
20
-45.879999999999995
0
LWPOLYLINE
5
608
100
AcDbEntity
8
0
100
AcDbPolyline
90
4
70
1
43
0.0
10
95.719999463558452
20
-43.879999999999995
10
97.719999463558452
20
-43.879999999999995
10
97.719999463558452
20
-45.879999999999995
10
95.719999463558452
20
-45.879999999999995
0
LWPOLYLINE
5
609
100
AcDbEntity
8
0
100
AcDbPolyline
90
4
70
1
43
0.0
10
100.03999946355846
20
-43.879999999999995
10
102.03999946355844
20
-43.879999999999995
10
102.03999946355844
20
-45.879999999999995
10
100.03999946355846
20
-45.879999999999995
0
LWPOLYLINE
5
610
100
AcDbEntity
8
0
100
AcDbPolyline
90
4
70
1
43
0.0
10
104.35999946355847
20
-43.879999999999995
10
106.35999946355845
20
-43.879999999999995
10
106.35999946355845
20
-45.879999999999995
10
104.35999946355847
20
-45.879999999999995
0
LWPOLYLINE
5
611
100
AcDbEntity
8
0
100
AcDbPolyline
90
4
70
1
43
0.0
10
108.67999946355846
20
-43.879999999999995
10
110.67999946355846
20
-43.879999999999995
10
110.67999946355846
20
-45.879999999999995
10
108.67999946355846
20
-45.879999999999995
0
LWPOLYLINE
5
612
100
AcDbEntity
8
0
100
AcDbPolyline
90
4
70
1
43
0.0
10
112.99999946355845
20
-43.879999999999995
10
114.99999946355844
20
-43.879999999999995
10
114.99999946355844
20
-45.879999999999995
10
112.99999946355845
20
-45.879999999999995
0
LWPOLYLINE
5
613
100
AcDbEntity
8
0
100
AcDbPolyline
90
4
70
1
43
0.0
10
82.759999463558444
20
-39.559999999999995
10
84.759999463558444
20
-39.559999999999995
10
84.759999463558444
20
-41.559999999999988
10
82.759999463558444
20
-41.559999999999988
0
LWPOLYLINE
5
614
100
AcDbEntity
8
0
100
AcDbPolyline
90
4
70
1
43
0.0
10
87.079999463558437
20
-39.559999999999995
10
89.079999463558437
20
-39.559999999999995
10
89.079999463558437
20
-41.559999999999988
10
87.079999463558437
20
-41.559999999999988
0
LWPOLYLINE
5
615
100
AcDbEntity
8
0
100
AcDbPolyline
90
4
70
1
43
0.0
10
91.399999463558444
20
-39.559999999999995
10
93.399999463558444
20
-39.559999999999995
10
93.399999463558444
20
-41.559999999999988
10
91.399999463558444
20
-41.559999999999988
0
LWPOLYLINE
5
616
100
AcDbEntity
8
0
100
AcDbPolyline
90
4
70
1
43
0.0
10
95.719999463558452
20
-39.559999999999995
10
97.719999463558452
20
-39.559999999999995
10
97.719999463558452
20
-41.559999999999988
10
95.719999463558452
20
-41.559999999999988
0
LWPOLYLINE
5
617
100
AcDbEntity
8
0
100
AcDbPolyline
90
4
70
1
43
0.0
10
100.03999946355846
20
-39.559999999999995
10
102.03999946355844
20
-39.559999999999995
10
102.03999946355844
20
-41.559999999999988
10
100.03999946355846
20
-41.559999999999988
0
LWPOLYLINE
5
618
100
AcDbEntity
8
0
100
AcDbPolyline
90
4
70
1
43
0.0
10
104.35999946355847
20
-39.559999999999995
10
106.35999946355845
20
-39.559999999999995
10
106.35999946355845
20
-41.559999999999988
10
104.35999946355847
20
-41.559999999999988
0
LWPOLYLINE
5
619
100
AcDbEntity
8
0
100
AcDbPolyline
90
4
70
1
43
0.0
10
108.67999946355846
20
-39.559999999999995
10
110.67999946355846
20
-39.559999999999995
10
110.67999946355846
20
-41.559999999999988
10
108.67999946355846
20
-41.559999999999988
0
LWPOLYLINE
5
620
100
AcDbEntity
8
0
100
AcDbPolyline
90
4
70
1
43
0.0
10
112.99999946355845
20
-39.559999999999995
10
114.99999946355844
20
-39.559999999999995
10
114.99999946355844
20
-41.559999999999988
10
112.99999946355845
20
-41.559999999999988
0
LWPOLYLINE
5
621
100
AcDbEntity
8
0
100
AcDbPolyline
90
4
70
1
43
0.0
10
4.9999994635584351
20
-35.240000000000002
10
6.9999994635584351
20
-35.240000000000002
10
6.9999994635584351
20
-37.239999999999995
10
4.9999994635584351
20
-37.239999999999995
0
LWPOLYLINE
5
622
100
AcDbEntity
8
0
100
AcDbPolyline
90
4
70
1
43
0.0
10
9.3199994635584353
20
-35.240000000000002
10
11.319999463558435
20
-35.240000000000002
10
11.319999463558435
20
-37.239999999999995
10
9.3199994635584353
20
-37.239999999999995
0
LWPOLYLINE
5
623
100
AcDbEntity
8
0
100
AcDbPolyline
90
4
70
1
43
0.0
10
13.639999463558436
20
-35.240000000000002
10
15.639999463558436
20
-35.240000000000002
10
15.639999463558436
20
-37.239999999999995
10
13.639999463558436
20
-37.239999999999995
0
LWPOLYLINE
5
624
100
AcDbEntity
8
0
100
AcDbPolyline
90
4
70
1
43
0.0
10
17.959999463558439
20
-35.240000000000002
10
19.959999463558439
20
-35.240000000000002
10
19.959999463558439
20
-37.239999999999995
10
17.959999463558439
20
-37.239999999999995
0
LWPOLYLINE
5
625
100
AcDbEntity
8
0
100
AcDbPolyline
90
4
70
1
43
0.0
10
22.279999463558436
20
-35.240000000000002
10
24.279999463558436
20
-35.240000000000002
10
24.279999463558436
20
-37.239999999999995
10
22.279999463558436
20
-37.239999999999995
0
LWPOLYLINE
5
626
100
AcDbEntity
8
0
100
AcDbPolyline
90
4
70
1
43
0.0
10
26.599999463558433
20
-35.240000000000002
10
28.599999463558436
20
-35.240000000000002
10
28.599999463558436
20
-37.239999999999995
10
26.599999463558433
20
-37.239999999999995
0
LWPOLYLINE
5
627
100
AcDbEntity
8
0
100
AcDbPolyline
90
4
70
1
43
0.0
10
30.91999946355844
20
-35.240000000000002
10
32.91999946355844
20
-35.240000000000002
10
32.91999946355844
20
-37.239999999999995
10
30.91999946355844
20
-37.239999999999995
0
LWPOLYLINE
5
628
100
AcDbEntity
8
0
100
AcDbPolyline
90
4
70
1
43
0.0
10
35.239999463558441
20
-35.240000000000002
10
37.239999463558441
20
-35.240000000000002
10
37.239999463558441
20
-37.239999999999995
10
35.239999463558441
20
-37.239999999999995
0
LWPOLYLINE
5
629
100
AcDbEntity
8
0
100
AcDbPolyline
90
4
70
1
43
0.0
10
39.559999463558441
20
-35.240000000000002
10
41.559999463558441
20
-35.240000000000002
10
41.559999463558441
20
-37.239999999999995
10
39.559999463558441
20
-37.239999999999995
0
LWPOLYLINE
5
630
100
AcDbEntity
8
0
100
AcDbPolyline
90
4
70
1
43
0.0
10
43.879999463558441
20
-35.240000000000002
10
45.879999463558434
20
-35.240000000000002
10
45.879999463558434
20
-37.239999999999995
10
43.879999463558441
20
-37.239999999999995
0
LWPOLYLINE
5
631
100
AcDbEntity
8
0
100
AcDbPolyline
90
4
70
1
43
0.0
10
48.199999463558434
20
-35.240000000000002
10
50.199999463558441
20
-35.240000000000002
10
50.199999463558441
20
-37.239999999999995
10
48.199999463558434
20
-37.239999999999995
0
LWPOLYLINE
5
632
100
AcDbEntity
8
0
100
AcDbPolyline
90
4
70
1
43
0.0
10
52.519999463558442
20
-35.240000000000002
10
54.519999463558442
20
-35.240000000000002
10
54.519999463558442
20
-37.239999999999995
10
52.519999463558442
20
-37.239999999999995
0
LWPOLYLINE
5
633
100
AcDbEntity
8
0
100
AcDbPolyline
90
4
70
1
43
0.0
10
56.839999463558442
20
-35.240000000000002
10
58.839999463558442
20
-35.240000000000002
10
58.839999463558442
20
-37.239999999999995
10
56.839999463558442
20
-37.239999999999995
0
LWPOLYLINE
5
634
100
AcDbEntity
8
0
100
AcDbPolyline
90
4
70
1
43
0.0
10
61.159999463558435
20
-35.240000000000002
10
63.159999463558442
20
-35.240000000000002
10
63.159999463558442
20
-37.239999999999995
10
61.159999463558435
20
-37.239999999999995
0
LWPOLYLINE
5
635
100
AcDbEntity
8
0
100
AcDbPolyline
90
4
70
1
43
0.0
10
65.479999463558443
20
-35.240000000000002
10
67.479999463558443
20
-35.240000000000002
10
67.479999463558443
20
-37.239999999999995
10
65.479999463558443
20
-37.239999999999995
0
LWPOLYLINE
5
636
100
AcDbEntity
8
0
100
AcDbPolyline
90
4
70
1
43
0.0
10
69.799999463558436
20
-35.240000000000002
10
71.799999463558436
20
-35.240000000000002
10
71.799999463558436
20
-37.239999999999995
10
69.799999463558436
20
-37.239999999999995
0
LWPOLYLINE
5
637
100
AcDbEntity
8
0
100
AcDbPolyline
90
4
70
1
43
0.0
10
91.399999463558444
20
-35.240000000000002
10
93.399999463558444
20
-35.240000000000002
10
93.399999463558444
20
-37.239999999999995
10
91.399999463558444
20
-37.239999999999995
0
LWPOLYLINE
5
638
100
AcDbEntity
8
0
100
AcDbPolyline
90
4
70
1
43
0.0
10
74.119999463558443
20
-35.240000000000002
10
76.119999463558443
20
-35.240000000000002
10
76.119999463558443
20
-37.239999999999995
10
74.119999463558443
20
-37.239999999999995
0
LWPOLYLINE
5
639
100
AcDbEntity
8
0
100
AcDbPolyline
90
4
70
1
43
0.0
10
87.079999463558437
20
-35.240000000000002
10
89.079999463558437
20
-35.240000000000002
10
89.079999463558437
20
-37.239999999999995
10
87.079999463558437
20
-37.239999999999995
0
LWPOLYLINE
5
640
100
AcDbEntity
8
0
100
AcDbPolyline
90
4
70
1
43
0.0
10
82.759999463558444
20
-69.800000000000011
10
84.759999463558444
20
-69.800000000000011
10
84.759999463558444
20
-71.799999999999997
10
82.759999463558444
20
-71.799999999999997
0
LWPOLYLINE
5
641
100
AcDbEntity
8
0
100
AcDbPolyline
90
4
70
1
43
0.0
10
82.759999463558444
20
-35.240000000000002
10
84.759999463558444
20
-35.240000000000002
10
84.759999463558444
20
-37.239999999999995
10
82.759999463558444
20
-37.239999999999995
0
LWPOLYLINE
5
642
100
AcDbEntity
8
0
100
AcDbPolyline
90
4
70
1
43
0.0
10
78.439999463558451
20
-35.240000000000002
10
80.439999463558451
20
-35.240000000000002
10
80.439999463558451
20
-37.239999999999995
10
78.439999463558451
20
-37.239999999999995
0
LWPOLYLINE
5
643
100
AcDbEntity
8
0
100
AcDbPolyline
90
4
70
1
43
0.0
10
74.119999463558443
20
-61.159999999999997
10
76.119999463558443
20
-61.159999999999997
10
76.119999463558443
20
-63.159999999999989
10
74.119999463558443
20
-63.159999999999989
0
LWPOLYLINE
5
644
100
AcDbEntity
8
0
100
AcDbPolyline
90
4
70
1
43
0.0
10
78.439999463558451
20
-61.159999999999997
10
80.439999463558451
20
-61.159999999999997
10
80.439999463558451
20
-63.159999999999989
10
78.439999463558451
20
-63.159999999999989
0
LWPOLYLINE
5
645
100
AcDbEntity
8
0
100
AcDbPolyline
90
4
70
1
43
0.0
10
4.9999994635584351
20
-56.840000000000003
10
6.9999994635584351
20
-56.840000000000003
10
6.9999994635584351
20
-58.839999999999996
10
4.9999994635584351
20
-58.839999999999996
0
LWPOLYLINE
5
646
100
AcDbEntity
8
0
100
AcDbPolyline
90
4
70
1
43
0.0
10
9.3199994635584353
20
-56.840000000000003
10
11.319999463558435
20
-56.840000000000003
10
11.319999463558435
20
-58.839999999999996
10
9.3199994635584353
20
-58.839999999999996
0
LWPOLYLINE
5
647
100
AcDbEntity
8
0
100
AcDbPolyline
90
4
70
1
43
0.0
10
13.639999463558436
20
-56.840000000000003
10
15.639999463558436
20
-56.840000000000003
10
15.639999463558436
20
-58.839999999999996
10
13.639999463558436
20
-58.839999999999996
0
LWPOLYLINE
5
648
100
AcDbEntity
8
0
100
AcDbPolyline
90
4
70
1
43
0.0
10
17.959999463558439
20
-56.840000000000003
10
19.959999463558439
20
-56.840000000000003
10
19.959999463558439
20
-58.839999999999996
10
17.959999463558439
20
-58.839999999999996
0
LWPOLYLINE
5
649
100
AcDbEntity
8
0
100
AcDbPolyline
90
4
70
1
43
0.0
10
22.279999463558436
20
-56.840000000000003
10
24.279999463558436
20
-56.840000000000003
10
24.279999463558436
20
-58.839999999999996
10
22.279999463558436
20
-58.839999999999996
0
LWPOLYLINE
5
650
100
AcDbEntity
8
0
100
AcDbPolyline
90
4
70
1
43
0.0
10
26.599999463558433
20
-56.840000000000003
10
28.599999463558436
20
-56.840000000000003
10
28.599999463558436
20
-58.839999999999996
10
26.599999463558433
20
-58.839999999999996
0
LWPOLYLINE
5
651
100
AcDbEntity
8
0
100
AcDbPolyline
90
4
70
1
43
0.0
10
30.91999946355844
20
-56.840000000000003
10
32.91999946355844
20
-56.840000000000003
10
32.91999946355844
20
-58.839999999999996
10
30.91999946355844
20
-58.839999999999996
0
LWPOLYLINE
5
652
100
AcDbEntity
8
0
100
AcDbPolyline
90
4
70
1
43
0.0
10
35.239999463558441
20
-56.840000000000003
10
37.239999463558441
20
-56.840000000000003
10
37.239999463558441
20
-58.839999999999996
10
35.239999463558441
20
-58.839999999999996
0
LWPOLYLINE
5
653
100
AcDbEntity
8
0
100
AcDbPolyline
90
4
70
1
43
0.0
10
39.559999463558441
20
-56.840000000000003
10
41.559999463558441
20
-56.840000000000003
10
41.559999463558441
20
-58.839999999999996
10
39.559999463558441
20
-58.839999999999996
0
LWPOLYLINE
5
654
100
AcDbEntity
8
0
100
AcDbPolyline
90
4
70
1
43
0.0
10
43.879999463558441
20
-56.840000000000003
10
45.879999463558434
20
-56.840000000000003
10
45.879999463558434
20
-58.839999999999996
10
43.879999463558441
20
-58.839999999999996
0
LWPOLYLINE
5
655
100
AcDbEntity
8
0
100
AcDbPolyline
90
4
70
1
43
0.0
10
48.199999463558434
20
-56.840000000000003
10
50.199999463558441
20
-56.840000000000003
10
50.199999463558441
20
-58.839999999999996
10
48.199999463558434
20
-58.839999999999996
0
LWPOLYLINE
5
656
100
AcDbEntity
8
0
100
AcDbPolyline
90
4
70
1
43
0.0
10
52.519999463558442
20
-56.840000000000003
10
54.519999463558442
20
-56.840000000000003
10
54.519999463558442
20
-58.839999999999996
10
52.519999463558442
20
-58.839999999999996
0
LWPOLYLINE
5
657
100
AcDbEntity
8
0
100
AcDbPolyline
90
4
70
1
43
0.0
10
56.839999463558442
20
-56.840000000000003
10
58.839999463558442
20
-56.840000000000003
10
58.839999463558442
20
-58.839999999999996
10
56.839999463558442
20
-58.839999999999996
0
LWPOLYLINE
5
658
100
AcDbEntity
8
0
100
AcDbPolyline
90
4
70
1
43
0.0
10
61.159999463558435
20
-56.840000000000003
10
63.159999463558442
20
-56.840000000000003
10
63.159999463558442
20
-58.839999999999996
10
61.159999463558435
20
-58.839999999999996
0
LWPOLYLINE
5
659
100
AcDbEntity
8
0
100
AcDbPolyline
90
4
70
1
43
0.0
10
65.479999463558443
20
-56.840000000000003
10
67.479999463558443
20
-56.840000000000003
10
67.479999463558443
20
-58.839999999999996
10
65.479999463558443
20
-58.839999999999996
0
LWPOLYLINE
5
660
100
AcDbEntity
8
0
100
AcDbPolyline
90
4
70
1
43
0.0
10
69.799999463558436
20
-56.840000000000003
10
71.799999463558436
20
-56.840000000000003
10
71.799999463558436
20
-58.839999999999996
10
69.799999463558436
20
-58.839999999999996
0
LWPOLYLINE
5
661
100
AcDbEntity
8
0
100
AcDbPolyline
90
4
70
1
43
0.0
10
74.119999463558443
20
-56.840000000000003
10
76.119999463558443
20
-56.840000000000003
10
76.119999463558443
20
-58.839999999999996
10
74.119999463558443
20
-58.839999999999996
0
LWPOLYLINE
5
662
100
AcDbEntity
8
0
100
AcDbPolyline
90
4
70
1
43
0.0
10
78.439999463558451
20
-56.840000000000003
10
80.439999463558451
20
-56.840000000000003
10
80.439999463558451
20
-58.839999999999996
10
78.439999463558451
20
-58.839999999999996
0
LWPOLYLINE
5
663
100
AcDbEntity
8
0
100
AcDbPolyline
90
4
70
1
43
0.0
10
4.9999994635584351
20
-52.519999999999996
10
6.9999994635584351
20
-52.519999999999996
10
6.9999994635584351
20
-54.519999999999989
10
4.9999994635584351
20
-54.519999999999989
0
LWPOLYLINE
5
664
100
AcDbEntity
8
0
100
AcDbPolyline
90
4
70
1
43
0.0
10
9.3199994635584353
20
-52.519999999999996
10
11.319999463558435
20
-52.519999999999996
10
11.319999463558435
20
-54.519999999999989
10
9.3199994635584353
20
-54.519999999999989
0
LWPOLYLINE
5
665
100
AcDbEntity
8
0
100
AcDbPolyline
90
4
70
1
43
0.0
10
13.639999463558436
20
-52.519999999999996
10
15.639999463558436
20
-52.519999999999996
10
15.639999463558436
20
-54.519999999999989
10
13.639999463558436
20
-54.519999999999989
0
LWPOLYLINE
5
666
100
AcDbEntity
8
0
100
AcDbPolyline
90
4
70
1
43
0.0
10
17.959999463558439
20
-52.519999999999996
10
19.959999463558439
20
-52.519999999999996
10
19.959999463558439
20
-54.519999999999989
10
17.959999463558439
20
-54.519999999999989
0
LWPOLYLINE
5
667
100
AcDbEntity
8
0
100
AcDbPolyline
90
4
70
1
43
0.0
10
22.279999463558436
20
-52.519999999999996
10
24.279999463558436
20
-52.519999999999996
10
24.279999463558436
20
-54.519999999999989
10
22.279999463558436
20
-54.519999999999989
0
LWPOLYLINE
5
668
100
AcDbEntity
8
0
100
AcDbPolyline
90
4
70
1
43
0.0
10
26.599999463558433
20
-52.519999999999996
10
28.599999463558436
20
-52.519999999999996
10
28.599999463558436
20
-54.519999999999989
10
26.599999463558433
20
-54.519999999999989
0
LWPOLYLINE
5
669
100
AcDbEntity
8
0
100
AcDbPolyline
90
4
70
1
43
0.0
10
30.91999946355844
20
-52.519999999999996
10
32.91999946355844
20
-52.519999999999996
10
32.91999946355844
20
-54.519999999999989
10
30.91999946355844
20
-54.519999999999989
0
LWPOLYLINE
5
670
100
AcDbEntity
8
0
100
AcDbPolyline
90
4
70
1
43
0.0
10
35.239999463558441
20
-52.519999999999996
10
37.239999463558441
20
-52.519999999999996
10
37.239999463558441
20
-54.519999999999989
10
35.239999463558441
20
-54.519999999999989
0
LWPOLYLINE
5
671
100
AcDbEntity
8
0
100
AcDbPolyline
90
4
70
1
43
0.0
10
39.559999463558441
20
-52.519999999999996
10
41.559999463558441
20
-52.519999999999996
10
41.559999463558441
20
-54.519999999999989
10
39.559999463558441
20
-54.519999999999989
0
LWPOLYLINE
5
672
100
AcDbEntity
8
0
100
AcDbPolyline
90
4
70
1
43
0.0
10
43.879999463558441
20
-52.519999999999996
10
45.879999463558434
20
-52.519999999999996
10
45.879999463558434
20
-54.519999999999989
10
43.879999463558441
20
-54.519999999999989
0
LWPOLYLINE
5
673
100
AcDbEntity
8
0
100
AcDbPolyline
90
4
70
1
43
0.0
10
48.199999463558434
20
-52.519999999999996
10
50.199999463558441
20
-52.519999999999996
10
50.199999463558441
20
-54.519999999999989
10
48.199999463558434
20
-54.519999999999989
0
LWPOLYLINE
5
674
100
AcDbEntity
8
0
100
AcDbPolyline
90
4
70
1
43
0.0
10
52.519999463558442
20
-52.519999999999996
10
54.519999463558442
20
-52.519999999999996
10
54.519999463558442
20
-54.519999999999989
10
52.519999463558442
20
-54.519999999999989
0
LWPOLYLINE
5
675
100
AcDbEntity
8
0
100
AcDbPolyline
90
4
70
1
43
0.0
10
56.839999463558442
20
-52.519999999999996
10
58.839999463558442
20
-52.519999999999996
10
58.839999463558442
20
-54.519999999999989
10
56.839999463558442
20
-54.519999999999989
0
LWPOLYLINE
5
676
100
AcDbEntity
8
0
100
AcDbPolyline
90
4
70
1
43
0.0
10
61.159999463558435
20
-52.519999999999996
10
63.159999463558442
20
-52.519999999999996
10
63.159999463558442
20
-54.519999999999989
10
61.159999463558435
20
-54.519999999999989
0
LWPOLYLINE
5
677
100
AcDbEntity
8
0
100
AcDbPolyline
90
4
70
1
43
0.0
10
65.479999463558443
20
-52.519999999999996
10
67.479999463558443
20
-52.519999999999996
10
67.479999463558443
20
-54.519999999999989
10
65.479999463558443
20
-54.519999999999989
0
LWPOLYLINE
5
678
100
AcDbEntity
8
0
100
AcDbPolyline
90
4
70
1
43
0.0
10
69.799999463558436
20
-52.519999999999996
10
71.799999463558436
20
-52.519999999999996
10
71.799999463558436
20
-54.519999999999989
10
69.799999463558436
20
-54.519999999999989
0
LWPOLYLINE
5
679
100
AcDbEntity
8
0
100
AcDbPolyline
90
4
70
1
43
0.0
10
74.119999463558443
20
-52.519999999999996
10
76.119999463558443
20
-52.519999999999996
10
76.119999463558443
20
-54.519999999999989
10
74.119999463558443
20
-54.519999999999989
0
LWPOLYLINE
5
680
100
AcDbEntity
8
0
100
AcDbPolyline
90
4
70
1
43
0.0
10
78.439999463558451
20
-52.519999999999996
10
80.439999463558451
20
-52.519999999999996
10
80.439999463558451
20
-54.519999999999989
10
78.439999463558451
20
-54.519999999999989
0
LWPOLYLINE
5
681
100
AcDbEntity
8
0
100
AcDbPolyline
90
4
70
1
43
0.0
10
4.9999994635584351
20
-48.200000000000003
10
6.9999994635584351
20
-48.200000000000003
10
6.9999994635584351
20
-50.199999999999996
10
4.9999994635584351
20
-50.199999999999996
0
LWPOLYLINE
5
682
100
AcDbEntity
8
0
100
AcDbPolyline
90
4
70
1
43
0.0
10
9.3199994635584353
20
-48.200000000000003
10
11.319999463558435
20
-48.200000000000003
10
11.319999463558435
20
-50.199999999999996
10
9.3199994635584353
20
-50.199999999999996
0
LWPOLYLINE
5
683
100
AcDbEntity
8
0
100
AcDbPolyline
90
4
70
1
43
0.0
10
13.639999463558436
20
-48.200000000000003
10
15.639999463558436
20
-48.200000000000003
10
15.639999463558436
20
-50.199999999999996
10
13.639999463558436
20
-50.199999999999996
0
LWPOLYLINE
5
684
100
AcDbEntity
8
0
100
AcDbPolyline
90
4
70
1
43
0.0
10
17.959999463558439
20
-48.200000000000003
10
19.959999463558439
20
-48.200000000000003
10
19.959999463558439
20
-50.199999999999996
10
17.959999463558439
20
-50.199999999999996
0
LWPOLYLINE
5
685
100
AcDbEntity
8
0
100
AcDbPolyline
90
4
70
1
43
0.0
10
22.279999463558436
20
-48.200000000000003
10
24.279999463558436
20
-48.200000000000003
10
24.279999463558436
20
-50.199999999999996
10
22.279999463558436
20
-50.199999999999996
0
LWPOLYLINE
5
686
100
AcDbEntity
8
0
100
AcDbPolyline
90
4
70
1
43
0.0
10
26.599999463558433
20
-48.200000000000003
10
28.599999463558436
20
-48.200000000000003
10
28.599999463558436
20
-50.199999999999996
10
26.599999463558433
20
-50.199999999999996
0
LWPOLYLINE
5
687
100
AcDbEntity
8
0
100
AcDbPolyline
90
4
70
1
43
0.0
10
30.91999946355844
20
-48.200000000000003
10
32.91999946355844
20
-48.200000000000003
10
32.91999946355844
20
-50.199999999999996
10
30.91999946355844
20
-50.199999999999996
0
LWPOLYLINE
5
688
100
AcDbEntity
8
0
100
AcDbPolyline
90
4
70
1
43
0.0
10
35.239999463558441
20
-48.200000000000003
10
37.239999463558441
20
-48.200000000000003
10
37.239999463558441
20
-50.199999999999996
10
35.239999463558441
20
-50.199999999999996
0
LWPOLYLINE
5
689
100
AcDbEntity
8
0
100
AcDbPolyline
90
4
70
1
43
0.0
10
39.559999463558441
20
-48.200000000000003
10
41.559999463558441
20
-48.200000000000003
10
41.559999463558441
20
-50.199999999999996
10
39.559999463558441
20
-50.199999999999996
0
LWPOLYLINE
5
690
100
AcDbEntity
8
0
100
AcDbPolyline
90
4
70
1
43
0.0
10
43.879999463558441
20
-48.200000000000003
10
45.879999463558434
20
-48.200000000000003
10
45.879999463558434
20
-50.199999999999996
10
43.879999463558441
20
-50.199999999999996
0
LWPOLYLINE
5
691
100
AcDbEntity
8
0
100
AcDbPolyline
90
4
70
1
43
0.0
10
48.199999463558434
20
-48.200000000000003
10
50.199999463558441
20
-48.200000000000003
10
50.199999463558441
20
-50.199999999999996
10
48.199999463558434
20
-50.199999999999996
0
LWPOLYLINE
5
692
100
AcDbEntity
8
0
100
AcDbPolyline
90
4
70
1
43
0.0
10
52.519999463558442
20
-48.200000000000003
10
54.519999463558442
20
-48.200000000000003
10
54.519999463558442
20
-50.199999999999996
10
52.519999463558442
20
-50.199999999999996
0
LWPOLYLINE
5
693
100
AcDbEntity
8
0
100
AcDbPolyline
90
4
70
1
43
0.0
10
56.839999463558442
20
-48.200000000000003
10
58.839999463558442
20
-48.200000000000003
10
58.839999463558442
20
-50.199999999999996
10
56.839999463558442
20
-50.199999999999996
0
LWPOLYLINE
5
694
100
AcDbEntity
8
0
100
AcDbPolyline
90
4
70
1
43
0.0
10
61.159999463558435
20
-48.200000000000003
10
63.159999463558442
20
-48.200000000000003
10
63.159999463558442
20
-50.199999999999996
10
61.159999463558435
20
-50.199999999999996
0
LWPOLYLINE
5
695
100
AcDbEntity
8
0
100
AcDbPolyline
90
4
70
1
43
0.0
10
65.479999463558443
20
-48.200000000000003
10
67.479999463558443
20
-48.200000000000003
10
67.479999463558443
20
-50.199999999999996
10
65.479999463558443
20
-50.199999999999996
0
LWPOLYLINE
5
696
100
AcDbEntity
8
0
100
AcDbPolyline
90
4
70
1
43
0.0
10
69.799999463558436
20
-48.200000000000003
10
71.799999463558436
20
-48.200000000000003
10
71.799999463558436
20
-50.199999999999996
10
69.799999463558436
20
-50.199999999999996
0
LWPOLYLINE
5
697
100
AcDbEntity
8
0
100
AcDbPolyline
90
4
70
1
43
0.0
10
74.119999463558443
20
-48.200000000000003
10
76.119999463558443
20
-48.200000000000003
10
76.119999463558443
20
-50.199999999999996
10
74.119999463558443
20
-50.199999999999996
0
LWPOLYLINE
5
698
100
AcDbEntity
8
0
100
AcDbPolyline
90
4
70
1
43
0.0
10
78.439999463558451
20
-48.200000000000003
10
80.439999463558451
20
-48.200000000000003
10
80.439999463558451
20
-50.199999999999996
10
78.439999463558451
20
-50.199999999999996
0
LWPOLYLINE
5
699
100
AcDbEntity
8
0
100
AcDbPolyline
90
4
70
1
43
0.0
10
4.9999994635584351
20
-43.879999999999995
10
6.9999994635584351
20
-43.879999999999995
10
6.9999994635584351
20
-45.879999999999995
10
4.9999994635584351
20
-45.879999999999995
0
LWPOLYLINE
5
700
100
AcDbEntity
8
0
100
AcDbPolyline
90
4
70
1
43
0.0
10
9.3199994635584353
20
-43.879999999999995
10
11.319999463558435
20
-43.879999999999995
10
11.319999463558435
20
-45.879999999999995
10
9.3199994635584353
20
-45.879999999999995
0
LWPOLYLINE
5
701
100
AcDbEntity
8
0
100
AcDbPolyline
90
4
70
1
43
0.0
10
13.639999463558436
20
-43.879999999999995
10
15.639999463558436
20
-43.879999999999995
10
15.639999463558436
20
-45.879999999999995
10
13.639999463558436
20
-45.879999999999995
0
LWPOLYLINE
5
702
100
AcDbEntity
8
0
100
AcDbPolyline
90
4
70
1
43
0.0
10
17.959999463558439
20
-43.879999999999995
10
19.959999463558439
20
-43.879999999999995
10
19.959999463558439
20
-45.879999999999995
10
17.959999463558439
20
-45.879999999999995
0
LWPOLYLINE
5
703
100
AcDbEntity
8
0
100
AcDbPolyline
90
4
70
1
43
0.0
10
22.279999463558436
20
-43.879999999999995
10
24.279999463558436
20
-43.879999999999995
10
24.279999463558436
20
-45.879999999999995
10
22.279999463558436
20
-45.879999999999995
0
LWPOLYLINE
5
704
100
AcDbEntity
8
0
100
AcDbPolyline
90
4
70
1
43
0.0
10
26.599999463558433
20
-43.879999999999995
10
28.599999463558436
20
-43.879999999999995
10
28.599999463558436
20
-45.879999999999995
10
26.599999463558433
20
-45.879999999999995
0
LWPOLYLINE
5
705
100
AcDbEntity
8
0
100
AcDbPolyline
90
4
70
1
43
0.0
10
30.91999946355844
20
-43.879999999999995
10
32.91999946355844
20
-43.879999999999995
10
32.91999946355844
20
-45.879999999999995
10
30.91999946355844
20
-45.879999999999995
0
LWPOLYLINE
5
706
100
AcDbEntity
8
0
100
AcDbPolyline
90
4
70
1
43
0.0
10
35.239999463558441
20
-43.879999999999995
10
37.239999463558441
20
-43.879999999999995
10
37.239999463558441
20
-45.879999999999995
10
35.239999463558441
20
-45.879999999999995
0
LWPOLYLINE
5
707
100
AcDbEntity
8
0
100
AcDbPolyline
90
4
70
1
43
0.0
10
39.559999463558441
20
-43.879999999999995
10
41.559999463558441
20
-43.879999999999995
10
41.559999463558441
20
-45.879999999999995
10
39.559999463558441
20
-45.879999999999995
0
LWPOLYLINE
5
708
100
AcDbEntity
8
0
100
AcDbPolyline
90
4
70
1
43
0.0
10
43.879999463558441
20
-43.879999999999995
10
45.879999463558434
20
-43.879999999999995
10
45.879999463558434
20
-45.879999999999995
10
43.879999463558441
20
-45.879999999999995
0
LWPOLYLINE
5
709
100
AcDbEntity
8
0
100
AcDbPolyline
90
4
70
1
43
0.0
10
48.199999463558434
20
-43.879999999999995
10
50.199999463558441
20
-43.879999999999995
10
50.199999463558441
20
-45.879999999999995
10
48.199999463558434
20
-45.879999999999995
0
LWPOLYLINE
5
710
100
AcDbEntity
8
0
100
AcDbPolyline
90
4
70
1
43
0.0
10
52.519999463558442
20
-43.879999999999995
10
54.519999463558442
20
-43.879999999999995
10
54.519999463558442
20
-45.879999999999995
10
52.519999463558442
20
-45.879999999999995
0
LWPOLYLINE
5
711
100
AcDbEntity
8
0
100
AcDbPolyline
90
4
70
1
43
0.0
10
56.839999463558442
20
-43.879999999999995
10
58.839999463558442
20
-43.879999999999995
10
58.839999463558442
20
-45.879999999999995
10
56.839999463558442
20
-45.879999999999995
0
LWPOLYLINE
5
712
100
AcDbEntity
8
0
100
AcDbPolyline
90
4
70
1
43
0.0
10
61.159999463558435
20
-43.879999999999995
10
63.159999463558442
20
-43.879999999999995
10
63.159999463558442
20
-45.879999999999995
10
61.159999463558435
20
-45.879999999999995
0
LWPOLYLINE
5
713
100
AcDbEntity
8
0
100
AcDbPolyline
90
4
70
1
43
0.0
10
65.479999463558443
20
-43.879999999999995
10
67.479999463558443
20
-43.879999999999995
10
67.479999463558443
20
-45.879999999999995
10
65.479999463558443
20
-45.879999999999995
0
LWPOLYLINE
5
714
100
AcDbEntity
8
0
100
AcDbPolyline
90
4
70
1
43
0.0
10
69.799999463558436
20
-43.879999999999995
10
71.799999463558436
20
-43.879999999999995
10
71.799999463558436
20
-45.879999999999995
10
69.799999463558436
20
-45.879999999999995
0
LWPOLYLINE
5
715
100
AcDbEntity
8
0
100
AcDbPolyline
90
4
70
1
43
0.0
10
74.119999463558443
20
-43.879999999999995
10
76.119999463558443
20
-43.879999999999995
10
76.119999463558443
20
-45.879999999999995
10
74.119999463558443
20
-45.879999999999995
0
LWPOLYLINE
5
716
100
AcDbEntity
8
0
100
AcDbPolyline
90
4
70
1
43
0.0
10
78.439999463558451
20
-43.879999999999995
10
80.439999463558451
20
-43.879999999999995
10
80.439999463558451
20
-45.879999999999995
10
78.439999463558451
20
-45.879999999999995
0
LWPOLYLINE
5
717
100
AcDbEntity
8
0
100
AcDbPolyline
90
4
70
1
43
0.0
10
4.9999994635584351
20
-39.559999999999995
10
6.9999994635584351
20
-39.559999999999995
10
6.9999994635584351
20
-41.559999999999988
10
4.9999994635584351
20
-41.559999999999988
0
LWPOLYLINE
5
718
100
AcDbEntity
8
0
100
AcDbPolyline
90
4
70
1
43
0.0
10
9.3199994635584353
20
-39.559999999999995
10
11.319999463558435
20
-39.559999999999995
10
11.319999463558435
20
-41.559999999999988
10
9.3199994635584353
20
-41.559999999999988
0
LWPOLYLINE
5
719
100
AcDbEntity
8
0
100
AcDbPolyline
90
4
70
1
43
0.0
10
13.639999463558436
20
-39.559999999999995
10
15.639999463558436
20
-39.559999999999995
10
15.639999463558436
20
-41.559999999999988
10
13.639999463558436
20
-41.559999999999988
0
LWPOLYLINE
5
720
100
AcDbEntity
8
0
100
AcDbPolyline
90
4
70
1
43
0.0
10
17.959999463558439
20
-39.559999999999995
10
19.959999463558439
20
-39.559999999999995
10
19.959999463558439
20
-41.559999999999988
10
17.959999463558439
20
-41.559999999999988
0
LWPOLYLINE
5
721
100
AcDbEntity
8
0
100
AcDbPolyline
90
4
70
1
43
0.0
10
22.279999463558436
20
-39.559999999999995
10
24.279999463558436
20
-39.559999999999995
10
24.279999463558436
20
-41.559999999999988
10
22.279999463558436
20
-41.559999999999988
0
LWPOLYLINE
5
722
100
AcDbEntity
8
0
100
AcDbPolyline
90
4
70
1
43
0.0
10
26.599999463558433
20
-39.559999999999995
10
28.599999463558436
20
-39.559999999999995
10
28.599999463558436
20
-41.559999999999988
10
26.599999463558433
20
-41.559999999999988
0
LWPOLYLINE
5
723
100
AcDbEntity
8
0
100
AcDbPolyline
90
4
70
1
43
0.0
10
30.91999946355844
20
-39.559999999999995
10
32.91999946355844
20
-39.559999999999995
10
32.91999946355844
20
-41.559999999999988
10
30.91999946355844
20
-41.559999999999988
0
LWPOLYLINE
5
724
100
AcDbEntity
8
0
100
AcDbPolyline
90
4
70
1
43
0.0
10
35.239999463558441
20
-39.559999999999995
10
37.239999463558441
20
-39.559999999999995
10
37.239999463558441
20
-41.559999999999988
10
35.239999463558441
20
-41.559999999999988
0
LWPOLYLINE
5
725
100
AcDbEntity
8
0
100
AcDbPolyline
90
4
70
1
43
0.0
10
39.559999463558441
20
-39.559999999999995
10
41.559999463558441
20
-39.559999999999995
10
41.559999463558441
20
-41.559999999999988
10
39.559999463558441
20
-41.559999999999988
0
LWPOLYLINE
5
726
100
AcDbEntity
8
0
100
AcDbPolyline
90
4
70
1
43
0.0
10
43.879999463558441
20
-39.559999999999995
10
45.879999463558434
20
-39.559999999999995
10
45.879999463558434
20
-41.559999999999988
10
43.879999463558441
20
-41.559999999999988
0
LWPOLYLINE
5
727
100
AcDbEntity
8
0
100
AcDbPolyline
90
4
70
1
43
0.0
10
48.199999463558434
20
-39.559999999999995
10
50.199999463558441
20
-39.559999999999995
10
50.199999463558441
20
-41.559999999999988
10
48.199999463558434
20
-41.559999999999988
0
LWPOLYLINE
5
728
100
AcDbEntity
8
0
100
AcDbPolyline
90
4
70
1
43
0.0
10
52.519999463558442
20
-39.559999999999995
10
54.519999463558442
20
-39.559999999999995
10
54.519999463558442
20
-41.559999999999988
10
52.519999463558442
20
-41.559999999999988
0
LWPOLYLINE
5
729
100
AcDbEntity
8
0
100
AcDbPolyline
90
4
70
1
43
0.0
10
56.839999463558442
20
-39.559999999999995
10
58.839999463558442
20
-39.559999999999995
10
58.839999463558442
20
-41.559999999999988
10
56.839999463558442
20
-41.559999999999988
0
LWPOLYLINE
5
730
100
AcDbEntity
8
0
100
AcDbPolyline
90
4
70
1
43
0.0
10
61.159999463558435
20
-39.559999999999995
10
63.159999463558442
20
-39.559999999999995
10
63.159999463558442
20
-41.559999999999988
10
61.159999463558435
20
-41.559999999999988
0
LWPOLYLINE
5
731
100
AcDbEntity
8
0
100
AcDbPolyline
90
4
70
1
43
0.0
10
65.479999463558443
20
-39.559999999999995
10
67.479999463558443
20
-39.559999999999995
10
67.479999463558443
20
-41.559999999999988
10
65.479999463558443
20
-41.559999999999988
0
LWPOLYLINE
5
732
100
AcDbEntity
8
0
100
AcDbPolyline
90
4
70
1
43
0.0
10
69.799999463558436
20
-39.559999999999995
10
71.799999463558436
20
-39.559999999999995
10
71.799999463558436
20
-41.559999999999988
10
69.799999463558436
20
-41.559999999999988
0
LWPOLYLINE
5
733
100
AcDbEntity
8
0
100
AcDbPolyline
90
4
70
1
43
0.0
10
74.119999463558443
20
-39.559999999999995
10
76.119999463558443
20
-39.559999999999995
10
76.119999463558443
20
-41.559999999999988
10
74.119999463558443
20
-41.559999999999988
0
LWPOLYLINE
5
734
100
AcDbEntity
8
0
100
AcDbPolyline
90
4
70
1
43
0.0
10
78.439999463558451
20
-39.559999999999995
10
80.439999463558451
20
-39.559999999999995
10
80.439999463558451
20
-41.559999999999988
10
78.439999463558451
20
-41.559999999999988
0
LWPOLYLINE
5
735
100
AcDbEntity
8
0
100
AcDbPolyline
90
4
70
1
43
0.0
10
82.759999463558444
20
-113
10
84.759999463558444
20
-113
10
84.759999463558444
20
-115
10
82.759999463558444
20
-115
0
LWPOLYLINE
5
736
100
AcDbEntity
8
0
100
AcDbPolyline
90
4
70
1
43
0.0
10
87.079999463558437
20
-113
10
89.079999463558437
20
-113
10
89.079999463558437
20
-115
10
87.079999463558437
20
-115
0
LWPOLYLINE
5
737
100
AcDbEntity
8
0
100
AcDbPolyline
90
4
70
1
43
0.0
10
91.399999463558444
20
-113
10
93.399999463558444
20
-113
10
93.399999463558444
20
-115
10
91.399999463558444
20
-115
0
LWPOLYLINE
5
738
100
AcDbEntity
8
0
100
AcDbPolyline
90
4
70
1
43
0.0
10
95.719999463558452
20
-113
10
97.719999463558452
20
-113
10
97.719999463558452
20
-115
10
95.719999463558452
20
-115
0
LWPOLYLINE
5
739
100
AcDbEntity
8
0
100
AcDbPolyline
90
4
70
1
43
0.0
10
100.03999946355846
20
-113
10
102.03999946355844
20
-113
10
102.03999946355844
20
-115
10
100.03999946355846
20
-115
0
LWPOLYLINE
5
740
100
AcDbEntity
8
0
100
AcDbPolyline
90
4
70
1
43
0.0
10
104.35999946355847
20
-113
10
106.35999946355845
20
-113
10
106.35999946355845
20
-115
10
104.35999946355847
20
-115
0
LWPOLYLINE
5
741
100
AcDbEntity
8
0
100
AcDbPolyline
90
4
70
1
43
0.0
10
108.67999946355846
20
-113
10
110.67999946355846
20
-113
10
110.67999946355846
20
-115
10
108.67999946355846
20
-115
0
LWPOLYLINE
5
742
100
AcDbEntity
8
0
100
AcDbPolyline
90
4
70
1
43
0.0
10
112.99999946355845
20
-113
10
114.99999946355844
20
-113
10
114.99999946355844
20
-115
10
112.99999946355845
20
-115
0
LWPOLYLINE
5
743
100
AcDbEntity
8
0
100
AcDbPolyline
90
4
70
1
43
0.0
10
82.759999463558444
20
-108.68000000000001
10
84.759999463558444
20
-108.68000000000001
10
84.759999463558444
20
-110.67999999999999
10
82.759999463558444
20
-110.67999999999999
0
LWPOLYLINE
5
744
100
AcDbEntity
8
0
100
AcDbPolyline
90
4
70
1
43
0.0
10
87.079999463558437
20
-108.68000000000001
10
89.079999463558437
20
-108.68000000000001
10
89.079999463558437
20
-110.67999999999999
10
87.079999463558437
20
-110.67999999999999
0
LWPOLYLINE
5
745
100
AcDbEntity
8
0
100
AcDbPolyline
90
4
70
1
43
0.0
10
91.399999463558444
20
-108.68000000000001
10
93.399999463558444
20
-108.68000000000001
10
93.399999463558444
20
-110.67999999999999
10
91.399999463558444
20
-110.67999999999999
0
LWPOLYLINE
5
746
100
AcDbEntity
8
0
100
AcDbPolyline
90
4
70
1
43
0.0
10
95.719999463558452
20
-108.68000000000001
10
97.719999463558452
20
-108.68000000000001
10
97.719999463558452
20
-110.67999999999999
10
95.719999463558452
20
-110.67999999999999
0
LWPOLYLINE
5
747
100
AcDbEntity
8
0
100
AcDbPolyline
90
4
70
1
43
0.0
10
100.03999946355846
20
-108.68000000000001
10
102.03999946355844
20
-108.68000000000001
10
102.03999946355844
20
-110.67999999999999
10
100.03999946355846
20
-110.67999999999999
0
LWPOLYLINE
5
748
100
AcDbEntity
8
0
100
AcDbPolyline
90
4
70
1
43
0.0
10
104.35999946355847
20
-108.68000000000001
10
106.35999946355845
20
-108.68000000000001
10
106.35999946355845
20
-110.67999999999999
10
104.35999946355847
20
-110.67999999999999
0
LWPOLYLINE
5
749
100
AcDbEntity
8
0
100
AcDbPolyline
90
4
70
1
43
0.0
10
108.67999946355846
20
-108.68000000000001
10
110.67999946355846
20
-108.68000000000001
10
110.67999946355846
20
-110.67999999999999
10
108.67999946355846
20
-110.67999999999999
0
LWPOLYLINE
5
750
100
AcDbEntity
8
0
100
AcDbPolyline
90
4
70
1
43
0.0
10
100.03999946355846
20
-74.120000000000005
10
102.03999946355844
20
-74.120000000000005
10
102.03999946355844
20
-76.120000000000005
10
100.03999946355846
20
-76.120000000000005
0
LWPOLYLINE
5
751
100
AcDbEntity
8
0
100
AcDbPolyline
90
4
70
1
43
0.0
10
108.67999946355846
20
-74.120000000000005
10
110.67999946355846
20
-74.120000000000005
10
110.67999946355846
20
-76.120000000000005
10
108.67999946355846
20
-76.120000000000005
0
LWPOLYLINE
5
752
100
AcDbEntity
8
0
100
AcDbPolyline
90
4
70
1
43
0.0
10
95.719999463558452
20
-74.120000000000005
10
97.719999463558452
20
-74.120000000000005
10
97.719999463558452
20
-76.120000000000005
10
95.719999463558452
20
-76.120000000000005
0
LWPOLYLINE
5
753
100
AcDbEntity
8
0
100
AcDbPolyline
90
4
70
1
43
0.0
10
104.35999946355847
20
-74.120000000000005
10
106.35999946355845
20
-74.120000000000005
10
106.35999946355845
20
-76.120000000000005
10
104.35999946355847
20
-76.120000000000005
0
LWPOLYLINE
5
754
100
AcDbEntity
8
0
100
AcDbPolyline
90
4
70
1
43
0.0
10
91.399999463558444
20
-74.120000000000005
10
93.399999463558444
20
-74.120000000000005
10
93.399999463558444
20
-76.120000000000005
10
91.399999463558444
20
-76.120000000000005
0
LWPOLYLINE
5
755
100
AcDbEntity
8
0
100
AcDbPolyline
90
4
70
1
43
0.0
10
87.079999463558437
20
-74.120000000000005
10
89.079999463558437
20
-74.120000000000005
10
89.079999463558437
20
-76.120000000000005
10
87.079999463558437
20
-76.120000000000005
0
LWPOLYLINE
5
756
100
AcDbEntity
8
0
100
AcDbPolyline
90
4
70
1
43
0.0
10
82.759999463558444
20
-74.120000000000005
10
84.759999463558444
20
-74.120000000000005
10
84.759999463558444
20
-76.120000000000005
10
82.759999463558444
20
-76.120000000000005
0
LWPOLYLINE
5
757
100
AcDbEntity
8
0
100
AcDbPolyline
90
4
70
1
43
0.0
10
112.99999946355845
20
-108.68000000000001
10
114.99999946355844
20
-108.68000000000001
10
114.99999946355844
20
-110.67999999999999
10
112.99999946355845
20
-110.67999999999999
0
LWPOLYLINE
5
758
100
AcDbEntity
8
0
100
AcDbPolyline
90
4
70
1
43
0.0
10
82.759999463558444
20
-104.36
10
84.759999463558444
20
-104.36
10
84.759999463558444
20
-106.35999999999999
10
82.759999463558444
20
-106.35999999999999
0
LWPOLYLINE
5
759
100
AcDbEntity
8
0
100
AcDbPolyline
90
4
70
1
43
0.0
10
87.079999463558437
20
-104.36
10
89.079999463558437
20
-104.36
10
89.079999463558437
20
-106.35999999999999
10
87.079999463558437
20
-106.35999999999999
0
LWPOLYLINE
5
760
100
AcDbEntity
8
0
100
AcDbPolyline
90
4
70
1
43
0.0
10
91.399999463558444
20
-104.36
10
93.399999463558444
20
-104.36
10
93.399999463558444
20
-106.35999999999999
10
91.399999463558444
20
-106.35999999999999
0
LWPOLYLINE
5
761
100
AcDbEntity
8
0
100
AcDbPolyline
90
4
70
1
43
0.0
10
95.719999463558452
20
-104.36
10
97.719999463558452
20
-104.36
10
97.719999463558452
20
-106.35999999999999
10
95.719999463558452
20
-106.35999999999999
0
LWPOLYLINE
5
762
100
AcDbEntity
8
0
100
AcDbPolyline
90
4
70
1
43
0.0
10
100.03999946355846
20
-104.36
10
102.03999946355844
20
-104.36
10
102.03999946355844
20
-106.35999999999999
10
100.03999946355846
20
-106.35999999999999
0
LWPOLYLINE
5
763
100
AcDbEntity
8
0
100
AcDbPolyline
90
4
70
1
43
0.0
10
104.35999946355847
20
-104.36
10
106.35999946355845
20
-104.36
10
106.35999946355845
20
-106.35999999999999
10
104.35999946355847
20
-106.35999999999999
0
LWPOLYLINE
5
764
100
AcDbEntity
8
0
100
AcDbPolyline
90
4
70
1
43
0.0
10
108.67999946355846
20
-104.36
10
110.67999946355846
20
-104.36
10
110.67999946355846
20
-106.35999999999999
10
108.67999946355846
20
-106.35999999999999
0
LWPOLYLINE
5
765
100
AcDbEntity
8
0
100
AcDbPolyline
90
4
70
1
43
0.0
10
112.99999946355845
20
-104.36
10
114.99999946355844
20
-104.36
10
114.99999946355844
20
-106.35999999999999
10
112.99999946355845
20
-106.35999999999999
0
LWPOLYLINE
5
766
100
AcDbEntity
8
0
100
AcDbPolyline
90
4
70
1
43
0.0
10
82.759999463558444
20
-100.04000000000002
10
84.759999463558444
20
-100.04000000000002
10
84.759999463558444
20
-102.04000000000001
10
82.759999463558444
20
-102.04000000000001
0
LWPOLYLINE
5
767
100
AcDbEntity
8
0
100
AcDbPolyline
90
4
70
1
43
0.0
10
87.079999463558437
20
-100.04000000000002
10
89.079999463558437
20
-100.04000000000002
10
89.079999463558437
20
-102.04000000000001
10
87.079999463558437
20
-102.04000000000001
0
LWPOLYLINE
5
768
100
AcDbEntity
8
0
100
AcDbPolyline
90
4
70
1
43
0.0
10
91.399999463558444
20
-100.04000000000002
10
93.399999463558444
20
-100.04000000000002
10
93.399999463558444
20
-102.04000000000001
10
91.399999463558444
20
-102.04000000000001
0
LWPOLYLINE
5
769
100
AcDbEntity
8
0
100
AcDbPolyline
90
4
70
1
43
0.0
10
95.719999463558452
20
-100.04000000000002
10
97.719999463558452
20
-100.04000000000002
10
97.719999463558452
20
-102.04000000000001
10
95.719999463558452
20
-102.04000000000001
0
LWPOLYLINE
5
770
100
AcDbEntity
8
0
100
AcDbPolyline
90
4
70
1
43
0.0
10
100.03999946355846
20
-100.04000000000002
10
102.03999946355844
20
-100.04000000000002
10
102.03999946355844
20
-102.04000000000001
10
100.03999946355846
20
-102.04000000000001
0
LWPOLYLINE
5
771
100
AcDbEntity
8
0
100
AcDbPolyline
90
4
70
1
43
0.0
10
87.079999463558437
20
-95.720000000000013
10
89.079999463558437
20
-95.720000000000013
10
89.079999463558437
20
-97.719999999999999
10
87.079999463558437
20
-97.719999999999999
0
LWPOLYLINE
5
772
100
AcDbEntity
8
0
100
AcDbPolyline
90
4
70
1
43
0.0
10
104.35999946355847
20
-100.04000000000002
10
106.35999946355845
20
-100.04000000000002
10
106.35999946355845
20
-102.04000000000001
10
104.35999946355847
20
-102.04000000000001
0
LWPOLYLINE
5
773
100
AcDbEntity
8
0
100
AcDbPolyline
90
4
70
1
43
0.0
10
82.759999463558444
20
-95.720000000000013
10
84.759999463558444
20
-95.720000000000013
10
84.759999463558444
20
-97.719999999999999
10
82.759999463558444
20
-97.719999999999999
0
LWPOLYLINE
5
774
100
AcDbEntity
8
0
100
AcDbPolyline
90
4
70
1
43
0.0
10
108.67999946355846
20
-100.04000000000002
10
110.67999946355846
20
-100.04000000000002
10
110.67999946355846
20
-102.04000000000001
10
108.67999946355846
20
-102.04000000000001
0
LWPOLYLINE
5
775
100
AcDbEntity
8
0
100
AcDbPolyline
90
4
70
1
43
0.0
10
112.99999946355845
20
-100.04000000000002
10
114.99999946355844
20
-100.04000000000002
10
114.99999946355844
20
-102.04000000000001
10
112.99999946355845
20
-102.04000000000001
0
LWPOLYLINE
5
776
100
AcDbEntity
8
0
100
AcDbPolyline
90
100
70
1
43
0.0
10
65
20
0
10
55
20
0
10
55
20
3.0000000000000071
10
45
20
3.0000000000000071
10
45
20
0
10
35
20
0
10
35
20
3.0000000000000071
10
25
20
3.0000000000000071
10
25
20
0
10
15
20
0
10
15
20
3.0000000000000071
10
5
20
3.0000000000000071
10
5
20
0
10
0
20
0
10
0
20
-5.0000015646219254
10
-3.0000000447034836
20
-5.0000015646219254
10
-3.0000000447034836
20
-15.000001713633537
10
0
20
-15.000001713633537
10
0
20
-25.000001564621925
10
-3.0000000447034836
20
-25.000001564621925
10
-3.0000000447034836
20
-35.000001713633537
10
0
20
-35.000001713633537
10
0
20
-45.000001564621925
10
-3.0000000447034836
20
-45.000001564621925
10
-3.0000000447034836
20
-55.000001713633537
10
0
20
-55.000001713633537
10
0
20
-65.000001564621925
10
-3.0000000447034836
20
-65.000001564621925
10
-3.0000000447034836
20
-75.000001713633537
10
0
20
-75.000001713633537
10
0
20
-85.000001564621925
10
-3.0000000447034836
20
-85.000001564621925
10
-3.0000000447034836
20
-95.000001713633537
10
0
20
-95.000001713633537
10
0
20
-105.00000156462193
10
-3.0000000447034836
20
-105.00000156462193
10
-3.0000000447034836
20
-115.00000171363354
10
0
20
-115.00000171363354
10
0
20
-120
10
5
20
-120
10
5
20
-123
10
15
20
-123
10
15
20
-120
10
25
20
-120
10
25
20
-123
10
35
20
-123
10
35
20
-120
10
45
20
-120
10
45
20
-123
10
55
20
-123
10
55
20
-120
10
65
20
-120
10
65
20
-123
10
75
20
-123
10
75
20
-120
10
85
20
-120
10
85
20
-123
10
95
20
-123
10
95
20
-120
10
105
20
-120
10
105
20
-123
10
115
20
-123
10
115
20
-120
10
120
20
-120
10
119.99999995529652
20
-115.00000171363354
10
123
20
-115.00000171363354
10
123
20
-105.00000156462193
10
119.99999995529652
20
-105.00000156462193
10
119.99999995529652
20
-95.000001713633537
10
123
20
-95.000001713633537
10
123
20
-85.000001564621925
10
119.99999995529652
20
-85.000001564621925
10
119.99999995529652
20
-75.000001713633537
10
123
20
-75.000001713633537
10
123
20
-65.000001564621925
10
119.99999995529652
20
-65.000001564621925
10
119.99999995529652
20
-55.000001713633537
10
123
20
-55.000001713633537
10
123
20
-45.000001564621925
10
119.99999995529652
20
-45.000001564621925
10
119.99999995529652
20
-35.000001713633537
10
123
20
-35.000001713633537
10
123
20
-25.000001564621925
10
119.99999995529652
20
-25.000001564621925
10
119.99999995529652
20
-15.000001713633537
10
123
20
-15.000001713633537
10
123
20
-5.0000015646219254
10
119.99999995529652
20
-5.0000015646219254
10
120
20
0
10
115
20
0
10
115
20
3.0000000000000071
10
105
20
3.0000000000000071
10
105
20
0
10
95
20
0
10
95
20
3.0000000000000071
10
85
20
3.0000000000000071
10
85
20
0
10
75
20
0
10
75
20
3.0000000000000071
10
65
20
3.0000000000000071
0
ENDSEC
0
SECTION
2
OBJECTS
0
DICTIONARY
5
C
100
AcDbDictionary
3
ACAD_GROUP
350
D
3
ACAD_MLINESTYLE
350
17
0
DICTIONARY
5
D
100
AcDbDictionary
0
DICTIONARY
5
1A
330
C
100
AcDbDictionary
0
DICTIONARY
5
17
100
AcDbDictionary
0
ENDSEC
0
EOF
