0
SECTION
2
HEADER
9
$INSUNITS
70
4
9
$ACADVER
1
AC1014
9
$HANDSEED
5
FFFF
0
ENDSEC
0
SECTION
2
TABLES
0
TABLE
2
VPORT
5
8
100
AcDbSymbolTable
0
ENDTAB
0
TABLE
2
LTYPE
5
5
100
AcDbSymbolTable
0
LTYPE
5
14
100
AcDbSymbolTableRecord
100
AcDbLinetypeTableRecord
2
BYBLOCK
70
0
0
LTYPE
5
15
100
AcDbSymbolTableRecord
100
AcDbLinetypeTableRecord
2
BYLAYER
70
0
0
ENDTAB
0
TABLE
2
LAYER
5
2
100
AcDbSymbolTable
70
2
0
LAYER
5
50
100
AcDbSymbolTableRecord
100
AcDbLayerTableRecord
2
0
70
0
6
CONTINUOUS
0
ENDTAB
0
TABLE
2
STYLE
5
3
100
AcDbSymbolTable
70
1
0
STYLE
5
11
100
AcDbSymbolTableRecord
100
AcDbTextStyleTableRecord
2
STANDARD
70
0
0
ENDTAB
0
TABLE
2
VIEW
5
6
100
AcDbSymbolTable
70
0
0
ENDTAB
0
TABLE
2
UCS
5
7
100
AcDbSymbolTable
70
0
0
ENDTAB
0
TABLE
2
APPID
5
9
100
AcDbSymbolTable
70
2
0
APPID
5
12
100
AcDbSymbolTableRecord
100
AcDbRegAppTableRecord
2
ACAD
70
0
0
ENDTAB
0
TABLE
2
DIMSTYLE
5
A
100
AcDbSymbolTable
70
1
0
ENDTAB
0
TABLE
2
BLOCK_RECORD
5
1
100
AcDbSymbolTable
70
1
0
BLOCK_RECORD
5
1F
100
AcDbSymbolTableRecord
100
AcDbBlockTableRecord
2
*MODEL_SPACE
0
BLOCK_RECORD
5
1B
100
AcDbSymbolTableRecord
100
AcDbBlockTableRecord
2
*PAPER_SPACE
0
ENDTAB
0
ENDSEC
0
SECTION
2
BLOCKS
0
BLOCK
5
20
100
AcDbEntity
100
AcDbBlockBegin
2
*MODEL_SPACE
0
ENDBLK
5
21
100
AcDbEntity
100
AcDbBlockEnd
0
BLOCK
5
1C
100
AcDbEntity
100
AcDbBlockBegin
2
*PAPER_SPACE
0
ENDBLK
5
1D
100
AcDbEntity
100
AcDbBlockEnd
0
ENDSEC
0
SECTION
2
ENTITIES
0
LWPOLYLINE
5
100
100
AcDbEntity
8
0
100
AcDbPolyline
90
4
70
1
43
0.0
10
73.588234757676091
20
-29.941176470588218
10
77.588234757676105
20
-29.941176470588218
10
77.588234757676105
20
-33.941176470588218
10
73.588234757676091
20
-33.941176470588218
0
LWPOLYLINE
5
101
100
AcDbEntity
8
0
100
AcDbPolyline
90
4
70
1
43
0.0
10
79.823528875323163
20
-29.941176470588218
10
83.823528875323149
20
-29.941176470588218
10
83.823528875323149
20
-33.941176470588218
10
79.823528875323163
20
-33.941176470588218
0
LWPOLYLINE
5
102
100
AcDbEntity
8
0
100
AcDbPolyline
90
4
70
1
43
0.0
10
86.058822992970221
20
-29.941176470588218
10
90.058822992970207
20
-29.941176470588218
10
90.058822992970207
20
-33.941176470588218
10
86.058822992970221
20
-33.941176470588218
0
LWPOLYLINE
5
103
100
AcDbEntity
8
0
100
AcDbPolyline
90
4
70
1
43
0.0
10
92.294117110617279
20
-29.941176470588218
10
96.294117110617265
20
-29.941176470588218
10
96.294117110617265
20
-33.941176470588218
10
92.294117110617279
20
-33.941176470588218
0
LWPOLYLINE
5
104
100
AcDbEntity
8
0
100
AcDbPolyline
90
4
70
1
43
0.0
10
98.529411228264351
20
-29.941176470588218
10
102.52941122826434
20
-29.941176470588218
10
102.52941122826434
20
-33.941176470588218
10
98.529411228264351
20
-33.941176470588218
0
LWPOLYLINE
5
105
100
AcDbEntity
8
0
100
AcDbPolyline
90
4
70
1
43
0.0
10
104.76470534591141
20
-29.941176470588218
10
108.76470534591138
20
-29.941176470588218
10
108.76470534591138
20
-33.941176470588218
10
104.76470534591141
20
-33.941176470588218
0
LWPOLYLINE
5
106
100
AcDbEntity
8
0
100
AcDbPolyline
90
4
70
1
43
0.0
10
110.99999946355845
20
-29.941176470588218
10
114.99999946355844
20
-29.941176470588218
10
114.99999946355844
20
-33.941176470588218
10
110.99999946355845
20
-33.941176470588218
0
LWPOLYLINE
5
107
100
AcDbEntity
8
0
100
AcDbPolyline
90
4
70
1
43
0.0
10
4.9999994635584351
20
-23.705882352941163
10
8.9999994635584351
20
-23.705882352941163
10
8.9999994635584351
20
-27.705882352941167
10
4.9999994635584351
20
-27.705882352941167
0
LWPOLYLINE
5
108
100
AcDbEntity
8
0
100
AcDbPolyline
90
4
70
1
43
0.0
10
11.235293581205495
20
-23.705882352941163
10
15.235293581205497
20
-23.705882352941163
10
15.235293581205497
20
-27.705882352941167
10
11.235293581205495
20
-27.705882352941167
0
LWPOLYLINE
5
109
100
AcDbEntity
8
0
100
AcDbPolyline
90
4
70
1
43
0.0
10
17.470587698852555
20
-23.705882352941163
10
21.470587698852555
20
-23.705882352941163
10
21.470587698852555
20
-27.705882352941167
10
17.470587698852555
20
-27.705882352941167
0
LWPOLYLINE
5
110
100
AcDbEntity
8
0
100
AcDbPolyline
90
4
70
1
43
0.0
10
23.705881816499613
20
-23.705882352941163
10
27.70588181649962
20
-23.705882352941163
10
27.70588181649962
20
-27.705882352941167
10
23.705881816499613
20
-27.705882352941167
0
LWPOLYLINE
5
111
100
AcDbEntity
8
0
100
AcDbPolyline
90
4
70
1
43
0.0
10
29.941175934146674
20
-23.705882352941163
10
33.941175934146671
20
-23.705882352941163
10
33.941175934146671
20
-27.705882352941167
10
29.941175934146674
20
-27.705882352941167
0
LWPOLYLINE
5
112
100
AcDbEntity
8
0
100
AcDbPolyline
90
4
70
1
43
0.0
10
36.176470051793729
20
-23.705882352941163
10
40.176470051793736
20
-23.705882352941163
10
40.176470051793736
20
-27.705882352941167
10
36.176470051793729
20
-27.705882352941167
0
LWPOLYLINE
5
113
100
AcDbEntity
8
0
100
AcDbPolyline
90
4
70
1
43
0.0
10
42.411764169440794
20
-23.705882352941163
10
46.411764169440801
20
-23.705882352941163
10
46.411764169440801
20
-27.705882352941167
10
42.411764169440794
20
-27.705882352941167
0
LWPOLYLINE
5
114
100
AcDbEntity
8
0
100
AcDbPolyline
90
4
70
1
43
0.0
10
48.647058287087852
20
-23.705882352941163
10
52.647058287087852
20
-23.705882352941163
10
52.647058287087852
20
-27.705882352941167
10
48.647058287087852
20
-27.705882352941167
0
LWPOLYLINE
5
115
100
AcDbEntity
8
0
100
AcDbPolyline
90
4
70
1
43
0.0
10
54.882352404734917
20
-23.705882352941163
10
58.882352404734917
20
-23.705882352941163
10
58.882352404734917
20
-27.705882352941167
10
54.882352404734917
20
-27.705882352941167
0
LWPOLYLINE
5
116
100
AcDbEntity
8
0
100
AcDbPolyline
90
4
70
1
43
0.0
10
61.117646522381975
20
-23.705882352941163
10
65.117646522381975
20
-23.705882352941163
10
65.117646522381975
20
-27.705882352941167
10
61.117646522381975
20
-27.705882352941167
0
LWPOLYLINE
5
117
100
AcDbEntity
8
0
100
AcDbPolyline
90
4
70
1
43
0.0
10
67.352940640029033
20
-23.705882352941163
10
71.352940640029033
20
-23.705882352941163
10
71.352940640029033
20
-27.705882352941167
10
67.352940640029033
20
-27.705882352941167
0
LWPOLYLINE
5
118
100
AcDbEntity
8
0
100
AcDbPolyline
90
4
70
1
43
0.0
10
73.588234757676091
20
-23.705882352941163
10
77.588234757676105
20
-23.705882352941163
10
77.588234757676105
20
-27.705882352941167
10
73.588234757676091
20
-27.705882352941167
0
LWPOLYLINE
5
119
100
AcDbEntity
8
0
100
AcDbPolyline
90
4
70
1
43
0.0
10
79.823528875323163
20
-23.705882352941163
10
83.823528875323149
20
-23.705882352941163
10
83.823528875323149
20
-27.705882352941167
10
79.823528875323163
20
-27.705882352941167
0
LWPOLYLINE
5
120
100
AcDbEntity
8
0
100
AcDbPolyline
90
4
70
1
43
0.0
10
86.058822992970221
20
-23.705882352941163
10
90.058822992970207
20
-23.705882352941163
10
90.058822992970207
20
-27.705882352941167
10
86.058822992970221
20
-27.705882352941167
0
LWPOLYLINE
5
121
100
AcDbEntity
8
0
100
AcDbPolyline
90
4
70
1
43
0.0
10
92.294117110617279
20
-23.705882352941163
10
96.294117110617265
20
-23.705882352941163
10
96.294117110617265
20
-27.705882352941167
10
92.294117110617279
20
-27.705882352941167
0
LWPOLYLINE
5
122
100
AcDbEntity
8
0
100
AcDbPolyline
90
4
70
1
43
0.0
10
98.529411228264351
20
-23.705882352941163
10
102.52941122826434
20
-23.705882352941163
10
102.52941122826434
20
-27.705882352941167
10
98.529411228264351
20
-27.705882352941167
0
LWPOLYLINE
5
123
100
AcDbEntity
8
0
100
AcDbPolyline
90
4
70
1
43
0.0
10
104.76470534591141
20
-23.705882352941163
10
108.76470534591138
20
-23.705882352941163
10
108.76470534591138
20
-27.705882352941167
10
104.76470534591141
20
-27.705882352941167
0
LWPOLYLINE
5
124
100
AcDbEntity
8
0
100
AcDbPolyline
90
4
70
1
43
0.0
10
110.99999946355845
20
-23.705882352941163
10
114.99999946355844
20
-23.705882352941163
10
114.99999946355844
20
-27.705882352941167
10
110.99999946355845
20
-27.705882352941167
0
LWPOLYLINE
5
125
100
AcDbEntity
8
0
100
AcDbPolyline
90
4
70
1
43
0.0
10
4.9999994635584351
20
-17.470588235294091
10
8.9999994635584351
20
-17.470588235294091
10
8.9999994635584351
20
-21.470588235294095
10
4.9999994635584351
20
-21.470588235294095
0
LWPOLYLINE
5
126
100
AcDbEntity
8
0
100
AcDbPolyline
90
4
70
1
43
0.0
10
11.235293581205495
20
-17.470588235294091
10
15.235293581205497
20
-17.470588235294091
10
15.235293581205497
20
-21.470588235294095
10
11.235293581205495
20
-21.470588235294095
0
LWPOLYLINE
5
127
100
AcDbEntity
8
0
100
AcDbPolyline
90
4
70
1
43
0.0
10
17.470587698852555
20
-17.470588235294091
10
21.470587698852555
20
-17.470588235294091
10
21.470587698852555
20
-21.470588235294095
10
17.470587698852555
20
-21.470588235294095
0
LWPOLYLINE
5
128
100
AcDbEntity
8
0
100
AcDbPolyline
90
4
70
1
43
0.0
10
23.705881816499613
20
-17.470588235294091
10
27.70588181649962
20
-17.470588235294091
10
27.70588181649962
20
-21.470588235294095
10
23.705881816499613
20
-21.470588235294095
0
LWPOLYLINE
5
129
100
AcDbEntity
8
0
100
AcDbPolyline
90
4
70
1
43
0.0
10
29.941175934146674
20
-17.470588235294091
10
33.941175934146671
20
-17.470588235294091
10
33.941175934146671
20
-21.470588235294095
10
29.941175934146674
20
-21.470588235294095
0
LWPOLYLINE
5
130
100
AcDbEntity
8
0
100
AcDbPolyline
90
4
70
1
43
0.0
10
36.176470051793729
20
-17.470588235294091
10
40.176470051793736
20
-17.470588235294091
10
40.176470051793736
20
-21.470588235294095
10
36.176470051793729
20
-21.470588235294095
0
LWPOLYLINE
5
131
100
AcDbEntity
8
0
100
AcDbPolyline
90
4
70
1
43
0.0
10
42.411764169440794
20
-17.470588235294091
10
46.411764169440801
20
-17.470588235294091
10
46.411764169440801
20
-21.470588235294095
10
42.411764169440794
20
-21.470588235294095
0
LWPOLYLINE
5
132
100
AcDbEntity
8
0
100
AcDbPolyline
90
4
70
1
43
0.0
10
48.647058287087852
20
-17.470588235294091
10
52.647058287087852
20
-17.470588235294091
10
52.647058287087852
20
-21.470588235294095
10
48.647058287087852
20
-21.470588235294095
0
LWPOLYLINE
5
133
100
AcDbEntity
8
0
100
AcDbPolyline
90
4
70
1
43
0.0
10
54.882352404734917
20
-17.470588235294091
10
58.882352404734917
20
-17.470588235294091
10
58.882352404734917
20
-21.470588235294095
10
54.882352404734917
20
-21.470588235294095
0
LWPOLYLINE
5
134
100
AcDbEntity
8
0
100
AcDbPolyline
90
4
70
1
43
0.0
10
61.117646522381975
20
-17.470588235294091
10
65.117646522381975
20
-17.470588235294091
10
65.117646522381975
20
-21.470588235294095
10
61.117646522381975
20
-21.470588235294095
0
LWPOLYLINE
5
135
100
AcDbEntity
8
0
100
AcDbPolyline
90
4
70
1
43
0.0
10
67.352940640029033
20
-17.470588235294091
10
71.352940640029033
20
-17.470588235294091
10
71.352940640029033
20
-21.470588235294095
10
67.352940640029033
20
-21.470588235294095
0
LWPOLYLINE
5
136
100
AcDbEntity
8
0
100
AcDbPolyline
90
4
70
1
43
0.0
10
73.588234757676091
20
-17.470588235294091
10
77.588234757676105
20
-17.470588235294091
10
77.588234757676105
20
-21.470588235294095
10
73.588234757676091
20
-21.470588235294095
0
LWPOLYLINE
5
137
100
AcDbEntity
8
0
100
AcDbPolyline
90
4
70
1
43
0.0
10
79.823528875323163
20
-17.470588235294091
10
83.823528875323149
20
-17.470588235294091
10
83.823528875323149
20
-21.470588235294095
10
79.823528875323163
20
-21.470588235294095
0
LWPOLYLINE
5
138
100
AcDbEntity
8
0
100
AcDbPolyline
90
4
70
1
43
0.0
10
86.058822992970221
20
-17.470588235294091
10
90.058822992970207
20
-17.470588235294091
10
90.058822992970207
20
-21.470588235294095
10
86.058822992970221
20
-21.470588235294095
0
LWPOLYLINE
5
139
100
AcDbEntity
8
0
100
AcDbPolyline
90
4
70
1
43
0.0
10
92.294117110617279
20
-17.470588235294091
10
96.294117110617265
20
-17.470588235294091
10
96.294117110617265
20
-21.470588235294095
10
92.294117110617279
20
-21.470588235294095
0
LWPOLYLINE
5
140
100
AcDbEntity
8
0
100
AcDbPolyline
90
4
70
1
43
0.0
10
98.529411228264351
20
-17.470588235294091
10
102.52941122826434
20
-17.470588235294091
10
102.52941122826434
20
-21.470588235294095
10
98.529411228264351
20
-21.470588235294095
0
LWPOLYLINE
5
141
100
AcDbEntity
8
0
100
AcDbPolyline
90
4
70
1
43
0.0
10
104.76470534591141
20
-17.470588235294091
10
108.76470534591138
20
-17.470588235294091
10
108.76470534591138
20
-21.470588235294095
10
104.76470534591141
20
-21.470588235294095
0
LWPOLYLINE
5
142
100
AcDbEntity
8
0
100
AcDbPolyline
90
4
70
1
43
0.0
10
110.99999946355845
20
-17.470588235294091
10
114.99999946355844
20
-17.470588235294091
10
114.99999946355844
20
-21.470588235294095
10
110.99999946355845
20
-21.470588235294095
0
LWPOLYLINE
5
143
100
AcDbEntity
8
0
100
AcDbPolyline
90
4
70
1
43
0.0
10
4.9999994635584351
20
-11.235294117647037
10
8.9999994635584351
20
-11.235294117647037
10
8.9999994635584351
20
-15.23529411764704
10
4.9999994635584351
20
-15.23529411764704
0
LWPOLYLINE
5
144
100
AcDbEntity
8
0
100
AcDbPolyline
90
4
70
1
43
0.0
10
11.235293581205495
20
-11.235294117647037
10
15.235293581205497
20
-11.235294117647037
10
15.235293581205497
20
-15.23529411764704
10
11.235293581205495
20
-15.23529411764704
0
LWPOLYLINE
5
145
100
AcDbEntity
8
0
100
AcDbPolyline
90
4
70
1
43
0.0
10
17.470587698852555
20
-11.235294117647037
10
21.470587698852555
20
-11.235294117647037
10
21.470587698852555
20
-15.23529411764704
10
17.470587698852555
20
-15.23529411764704
0
LWPOLYLINE
5
146
100
AcDbEntity
8
0
100
AcDbPolyline
90
4
70
1
43
0.0
10
23.705881816499613
20
-11.235294117647037
10
27.70588181649962
20
-11.235294117647037
10
27.70588181649962
20
-15.23529411764704
10
23.705881816499613
20
-15.23529411764704
0
LWPOLYLINE
5
147
100
AcDbEntity
8
0
100
AcDbPolyline
90
4
70
1
43
0.0
10
29.941175934146674
20
-11.235294117647037
10
33.941175934146671
20
-11.235294117647037
10
33.941175934146671
20
-15.23529411764704
10
29.941175934146674
20
-15.23529411764704
0
LWPOLYLINE
5
148
100
AcDbEntity
8
0
100
AcDbPolyline
90
4
70
1
43
0.0
10
36.176470051793729
20
-11.235294117647037
10
40.176470051793736
20
-11.235294117647037
10
40.176470051793736
20
-15.23529411764704
10
36.176470051793729
20
-15.23529411764704
0
LWPOLYLINE
5
149
100
AcDbEntity
8
0
100
AcDbPolyline
90
4
70
1
43
0.0
10
42.411764169440794
20
-11.235294117647037
10
46.411764169440801
20
-11.235294117647037
10
46.411764169440801
20
-15.23529411764704
10
42.411764169440794
20
-15.23529411764704
0
LWPOLYLINE
5
150
100
AcDbEntity
8
0
100
AcDbPolyline
90
4
70
1
43
0.0
10
48.647058287087852
20
-11.235294117647037
10
52.647058287087852
20
-11.235294117647037
10
52.647058287087852
20
-15.23529411764704
10
48.647058287087852
20
-15.23529411764704
0
LWPOLYLINE
5
151
100
AcDbEntity
8
0
100
AcDbPolyline
90
4
70
1
43
0.0
10
54.882352404734917
20
-11.235294117647037
10
58.882352404734917
20
-11.235294117647037
10
58.882352404734917
20
-15.23529411764704
10
54.882352404734917
20
-15.23529411764704
0
LWPOLYLINE
5
152
100
AcDbEntity
8
0
100
AcDbPolyline
90
4
70
1
43
0.0
10
61.117646522381975
20
-11.235294117647037
10
65.117646522381975
20
-11.235294117647037
10
65.117646522381975
20
-15.23529411764704
10
61.117646522381975
20
-15.23529411764704
0
LWPOLYLINE
5
153
100
AcDbEntity
8
0
100
AcDbPolyline
90
4
70
1
43
0.0
10
67.352940640029033
20
-11.235294117647037
10
71.352940640029033
20
-11.235294117647037
10
71.352940640029033
20
-15.23529411764704
10
67.352940640029033
20
-15.23529411764704
0
LWPOLYLINE
5
154
100
AcDbEntity
8
0
100
AcDbPolyline
90
4
70
1
43
0.0
10
73.588234757676091
20
-11.235294117647037
10
77.588234757676105
20
-11.235294117647037
10
77.588234757676105
20
-15.23529411764704
10
73.588234757676091
20
-15.23529411764704
0
LWPOLYLINE
5
155
100
AcDbEntity
8
0
100
AcDbPolyline
90
4
70
1
43
0.0
10
79.823528875323163
20
-11.235294117647037
10
83.823528875323149
20
-11.235294117647037
10
83.823528875323149
20
-15.23529411764704
10
79.823528875323163
20
-15.23529411764704
0
LWPOLYLINE
5
156
100
AcDbEntity
8
0
100
AcDbPolyline
90
4
70
1
43
0.0
10
86.058822992970221
20
-11.235294117647037
10
90.058822992970207
20
-11.235294117647037
10
90.058822992970207
20
-15.23529411764704
10
86.058822992970221
20
-15.23529411764704
0
LWPOLYLINE
5
157
100
AcDbEntity
8
0
100
AcDbPolyline
90
4
70
1
43
0.0
10
92.294117110617279
20
-11.235294117647037
10
96.294117110617265
20
-11.235294117647037
10
96.294117110617265
20
-15.23529411764704
10
92.294117110617279
20
-15.23529411764704
0
LWPOLYLINE
5
158
100
AcDbEntity
8
0
100
AcDbPolyline
90
4
70
1
43
0.0
10
98.529411228264351
20
-11.235294117647037
10
102.52941122826434
20
-11.235294117647037
10
102.52941122826434
20
-15.23529411764704
10
98.529411228264351
20
-15.23529411764704
0
LWPOLYLINE
5
159
100
AcDbEntity
8
0
100
AcDbPolyline
90
4
70
1
43
0.0
10
104.76470534591141
20
-11.235294117647037
10
108.76470534591138
20
-11.235294117647037
10
108.76470534591138
20
-15.23529411764704
10
104.76470534591141
20
-15.23529411764704
0
LWPOLYLINE
5
160
100
AcDbEntity
8
0
100
AcDbPolyline
90
4
70
1
43
0.0
10
110.99999946355845
20
-11.235294117647037
10
114.99999946355844
20
-11.235294117647037
10
114.99999946355844
20
-15.23529411764704
10
110.99999946355845
20
-15.23529411764704
0
LWPOLYLINE
5
161
100
AcDbEntity
8
0
100
AcDbPolyline
90
4
70
1
43
0.0
10
4.9999994635584351
20
-4.9999999999999822
10
8.9999994635584351
20
-4.9999999999999822
10
8.9999994635584351
20
-8.9999999999999858
10
4.9999994635584351
20
-8.9999999999999858
0
LWPOLYLINE
5
162
100
AcDbEntity
8
0
100
AcDbPolyline
90
4
70
1
43
0.0
10
11.235293581205495
20
-4.9999999999999822
10
15.235293581205497
20
-4.9999999999999822
10
15.235293581205497
20
-8.9999999999999858
10
11.235293581205495
20
-8.9999999999999858
0
LWPOLYLINE
5
163
100
AcDbEntity
8
0
100
AcDbPolyline
90
4
70
1
43
0.0
10
17.470587698852555
20
-4.9999999999999822
10
21.470587698852555
20
-4.9999999999999822
10
21.470587698852555
20
-8.9999999999999858
10
17.470587698852555
20
-8.9999999999999858
0
LWPOLYLINE
5
164
100
AcDbEntity
8
0
100
AcDbPolyline
90
4
70
1
43
0.0
10
23.705881816499613
20
-4.9999999999999822
10
27.70588181649962
20
-4.9999999999999822
10
27.70588181649962
20
-8.9999999999999858
10
23.705881816499613
20
-8.9999999999999858
0
LWPOLYLINE
5
165
100
AcDbEntity
8
0
100
AcDbPolyline
90
4
70
1
43
0.0
10
29.941175934146674
20
-4.9999999999999822
10
33.941175934146671
20
-4.9999999999999822
10
33.941175934146671
20
-8.9999999999999858
10
29.941175934146674
20
-8.9999999999999858
0
LWPOLYLINE
5
166
100
AcDbEntity
8
0
100
AcDbPolyline
90
4
70
1
43
0.0
10
36.176470051793729
20
-4.9999999999999822
10
40.176470051793736
20
-4.9999999999999822
10
40.176470051793736
20
-8.9999999999999858
10
36.176470051793729
20
-8.9999999999999858
0
LWPOLYLINE
5
167
100
AcDbEntity
8
0
100
AcDbPolyline
90
4
70
1
43
0.0
10
42.411764169440794
20
-4.9999999999999822
10
46.411764169440801
20
-4.9999999999999822
10
46.411764169440801
20
-8.9999999999999858
10
42.411764169440794
20
-8.9999999999999858
0
LWPOLYLINE
5
168
100
AcDbEntity
8
0
100
AcDbPolyline
90
4
70
1
43
0.0
10
48.647058287087852
20
-4.9999999999999822
10
52.647058287087852
20
-4.9999999999999822
10
52.647058287087852
20
-8.9999999999999858
10
48.647058287087852
20
-8.9999999999999858
0
LWPOLYLINE
5
169
100
AcDbEntity
8
0
100
AcDbPolyline
90
4
70
1
43
0.0
10
54.882352404734917
20
-4.9999999999999822
10
58.882352404734917
20
-4.9999999999999822
10
58.882352404734917
20
-8.9999999999999858
10
54.882352404734917
20
-8.9999999999999858
0
LWPOLYLINE
5
170
100
AcDbEntity
8
0
100
AcDbPolyline
90
4
70
1
43
0.0
10
61.117646522381975
20
-4.9999999999999822
10
65.117646522381975
20
-4.9999999999999822
10
65.117646522381975
20
-8.9999999999999858
10
61.117646522381975
20
-8.9999999999999858
0
LWPOLYLINE
5
171
100
AcDbEntity
8
0
100
AcDbPolyline
90
4
70
1
43
0.0
10
67.352940640029033
20
-4.9999999999999822
10
71.352940640029033
20
-4.9999999999999822
10
71.352940640029033
20
-8.9999999999999858
10
67.352940640029033
20
-8.9999999999999858
0
LWPOLYLINE
5
172
100
AcDbEntity
8
0
100
AcDbPolyline
90
4
70
1
43
0.0
10
73.588234757676091
20
-4.9999999999999822
10
77.588234757676105
20
-4.9999999999999822
10
77.588234757676105
20
-8.9999999999999858
10
73.588234757676091
20
-8.9999999999999858
0
LWPOLYLINE
5
173
100
AcDbEntity
8
0
100
AcDbPolyline
90
4
70
1
43
0.0
10
79.823528875323163
20
-4.9999999999999822
10
83.823528875323149
20
-4.9999999999999822
10
83.823528875323149
20
-8.9999999999999858
10
79.823528875323163
20
-8.9999999999999858
0
LWPOLYLINE
5
174
100
AcDbEntity
8
0
100
AcDbPolyline
90
4
70
1
43
0.0
10
86.058822992970221
20
-4.9999999999999822
10
90.058822992970207
20
-4.9999999999999822
10
90.058822992970207
20
-8.9999999999999858
10
86.058822992970221
20
-8.9999999999999858
0
LWPOLYLINE
5
175
100
AcDbEntity
8
0
100
AcDbPolyline
90
4
70
1
43
0.0
10
92.294117110617279
20
-4.9999999999999822
10
96.294117110617265
20
-4.9999999999999822
10
96.294117110617265
20
-8.9999999999999858
10
92.294117110617279
20
-8.9999999999999858
0
LWPOLYLINE
5
176
100
AcDbEntity
8
0
100
AcDbPolyline
90
4
70
1
43
0.0
10
98.529411228264351
20
-4.9999999999999822
10
102.52941122826434
20
-4.9999999999999822
10
102.52941122826434
20
-8.9999999999999858
10
98.529411228264351
20
-8.9999999999999858
0
LWPOLYLINE
5
177
100
AcDbEntity
8
0
100
AcDbPolyline
90
4
70
1
43
0.0
10
104.76470534591141
20
-4.9999999999999822
10
108.76470534591138
20
-4.9999999999999822
10
108.76470534591138
20
-8.9999999999999858
10
104.76470534591141
20
-8.9999999999999858
0
LWPOLYLINE
5
178
100
AcDbEntity
8
0
100
AcDbPolyline
90
4
70
1
43
0.0
10
110.99999946355845
20
-4.9999999999999822
10
114.99999946355844
20
-4.9999999999999822
10
114.99999946355844
20
-8.9999999999999858
10
110.99999946355845
20
-8.9999999999999858
0
LWPOLYLINE
5
179
100
AcDbEntity
8
0
100
AcDbPolyline
90
4
70
1
43
0.0
10
11.235293581205495
20
-48.647058823529399
10
15.235293581205497
20
-48.647058823529399
10
15.235293581205497
20
-52.647058823529406
10
11.235293581205495
20
-52.647058823529406
0
LWPOLYLINE
5
180
100
AcDbEntity
8
0
100
AcDbPolyline
90
4
70
1
43
0.0
10
17.470587698852555
20
-48.647058823529399
10
21.470587698852555
20
-48.647058823529399
10
21.470587698852555
20
-52.647058823529406
10
17.470587698852555
20
-52.647058823529406
0
LWPOLYLINE
5
181
100
AcDbEntity
8
0
100
AcDbPolyline
90
4
70
1
43
0.0
10
23.705881816499613
20
-48.647058823529399
10
27.70588181649962
20
-48.647058823529399
10
27.70588181649962
20
-52.647058823529406
10
23.705881816499613
20
-52.647058823529406
0
LWPOLYLINE
5
182
100
AcDbEntity
8
0
100
AcDbPolyline
90
4
70
1
43
0.0
10
29.941175934146674
20
-48.647058823529399
10
33.941175934146671
20
-48.647058823529399
10
33.941175934146671
20
-52.647058823529406
10
29.941175934146674
20
-52.647058823529406
0
LWPOLYLINE
5
183
100
AcDbEntity
8
0
100
AcDbPolyline
90
4
70
1
43
0.0
10
36.176470051793729
20
-48.647058823529399
10
40.176470051793736
20
-48.647058823529399
10
40.176470051793736
20
-52.647058823529406
10
36.176470051793729
20
-52.647058823529406
0
LWPOLYLINE
5
184
100
AcDbEntity
8
0
100
AcDbPolyline
90
4
70
1
43
0.0
10
42.411764169440794
20
-48.647058823529399
10
46.411764169440801
20
-48.647058823529399
10
46.411764169440801
20
-52.647058823529406
10
42.411764169440794
20
-52.647058823529406
0
LWPOLYLINE
5
185
100
AcDbEntity
8
0
100
AcDbPolyline
90
4
70
1
43
0.0
10
48.647058287087852
20
-48.647058823529399
10
52.647058287087852
20
-48.647058823529399
10
52.647058287087852
20
-52.647058823529406
10
48.647058287087852
20
-52.647058823529406
0
LWPOLYLINE
5
186
100
AcDbEntity
8
0
100
AcDbPolyline
90
4
70
1
43
0.0
10
54.882352404734917
20
-48.647058823529399
10
58.882352404734917
20
-48.647058823529399
10
58.882352404734917
20
-52.647058823529406
10
54.882352404734917
20
-52.647058823529406
0
LWPOLYLINE
5
187
100
AcDbEntity
8
0
100
AcDbPolyline
90
4
70
1
43
0.0
10
61.117646522381975
20
-48.647058823529399
10
65.117646522381975
20
-48.647058823529399
10
65.117646522381975
20
-52.647058823529406
10
61.117646522381975
20
-52.647058823529406
0
LWPOLYLINE
5
188
100
AcDbEntity
8
0
100
AcDbPolyline
90
4
70
1
43
0.0
10
67.352940640029033
20
-48.647058823529399
10
71.352940640029033
20
-48.647058823529399
10
71.352940640029033
20
-52.647058823529406
10
67.352940640029033
20
-52.647058823529406
0
LWPOLYLINE
5
189
100
AcDbEntity
8
0
100
AcDbPolyline
90
4
70
1
43
0.0
10
73.588234757676091
20
-48.647058823529399
10
77.588234757676105
20
-48.647058823529399
10
77.588234757676105
20
-52.647058823529406
10
73.588234757676091
20
-52.647058823529406
0
LWPOLYLINE
5
190
100
AcDbEntity
8
0
100
AcDbPolyline
90
4
70
1
43
0.0
10
79.823528875323163
20
-48.647058823529399
10
83.823528875323149
20
-48.647058823529399
10
83.823528875323149
20
-52.647058823529406
10
79.823528875323163
20
-52.647058823529406
0
LWPOLYLINE
5
191
100
AcDbEntity
8
0
100
AcDbPolyline
90
4
70
1
43
0.0
10
4.9999994635584351
20
-42.411764705882334
10
8.9999994635584351
20
-42.411764705882334
10
8.9999994635584351
20
-46.411764705882341
10
4.9999994635584351
20
-46.411764705882341
0
LWPOLYLINE
5
192
100
AcDbEntity
8
0
100
AcDbPolyline
90
4
70
1
43
0.0
10
11.235293581205495
20
-42.411764705882334
10
15.235293581205497
20
-42.411764705882334
10
15.235293581205497
20
-46.411764705882341
10
11.235293581205495
20
-46.411764705882341
0
LWPOLYLINE
5
193
100
AcDbEntity
8
0
100
AcDbPolyline
90
4
70
1
43
0.0
10
17.470587698852555
20
-42.411764705882334
10
21.470587698852555
20
-42.411764705882334
10
21.470587698852555
20
-46.411764705882341
10
17.470587698852555
20
-46.411764705882341
0
LWPOLYLINE
5
194
100
AcDbEntity
8
0
100
AcDbPolyline
90
4
70
1
43
0.0
10
23.705881816499613
20
-42.411764705882334
10
27.70588181649962
20
-42.411764705882334
10
27.70588181649962
20
-46.411764705882341
10
23.705881816499613
20
-46.411764705882341
0
LWPOLYLINE
5
195
100
AcDbEntity
8
0
100
AcDbPolyline
90
4
70
1
43
0.0
10
29.941175934146674
20
-42.411764705882334
10
33.941175934146671
20
-42.411764705882334
10
33.941175934146671
20
-46.411764705882341
10
29.941175934146674
20
-46.411764705882341
0
LWPOLYLINE
5
196
100
AcDbEntity
8
0
100
AcDbPolyline
90
4
70
1
43
0.0
10
36.176470051793729
20
-42.411764705882334
10
40.176470051793736
20
-42.411764705882334
10
40.176470051793736
20
-46.411764705882341
10
36.176470051793729
20
-46.411764705882341
0
LWPOLYLINE
5
197
100
AcDbEntity
8
0
100
AcDbPolyline
90
4
70
1
43
0.0
10
42.411764169440794
20
-42.411764705882334
10
46.411764169440801
20
-42.411764705882334
10
46.411764169440801
20
-46.411764705882341
10
42.411764169440794
20
-46.411764705882341
0
LWPOLYLINE
5
198
100
AcDbEntity
8
0
100
AcDbPolyline
90
4
70
1
43
0.0
10
48.647058287087852
20
-42.411764705882334
10
52.647058287087852
20
-42.411764705882334
10
52.647058287087852
20
-46.411764705882341
10
48.647058287087852
20
-46.411764705882341
0
LWPOLYLINE
5
199
100
AcDbEntity
8
0
100
AcDbPolyline
90
4
70
1
43
0.0
10
54.882352404734917
20
-42.411764705882334
10
58.882352404734917
20
-42.411764705882334
10
58.882352404734917
20
-46.411764705882341
10
54.882352404734917
20
-46.411764705882341
0
LWPOLYLINE
5
200
100
AcDbEntity
8
0
100
AcDbPolyline
90
4
70
1
43
0.0
10
61.117646522381975
20
-42.411764705882334
10
65.117646522381975
20
-42.411764705882334
10
65.117646522381975
20
-46.411764705882341
10
61.117646522381975
20
-46.411764705882341
0
LWPOLYLINE
5
201
100
AcDbEntity
8
0
100
AcDbPolyline
90
4
70
1
43
0.0
10
67.352940640029033
20
-42.411764705882334
10
71.352940640029033
20
-42.411764705882334
10
71.352940640029033
20
-46.411764705882341
10
67.352940640029033
20
-46.411764705882341
0
LWPOLYLINE
5
202
100
AcDbEntity
8
0
100
AcDbPolyline
90
4
70
1
43
0.0
10
73.588234757676091
20
-42.411764705882334
10
77.588234757676105
20
-42.411764705882334
10
77.588234757676105
20
-46.411764705882341
10
73.588234757676091
20
-46.411764705882341
0
LWPOLYLINE
5
203
100
AcDbEntity
8
0
100
AcDbPolyline
90
4
70
1
43
0.0
10
79.823528875323163
20
-42.411764705882334
10
83.823528875323149
20
-42.411764705882334
10
83.823528875323149
20
-46.411764705882341
10
79.823528875323163
20
-46.411764705882341
0
LWPOLYLINE
5
204
100
AcDbEntity
8
0
100
AcDbPolyline
90
4
70
1
43
0.0
10
4.9999994635584351
20
-36.176470588235276
10
8.9999994635584351
20
-36.176470588235276
10
8.9999994635584351
20
-40.176470588235276
10
4.9999994635584351
20
-40.176470588235276
0
LWPOLYLINE
5
205
100
AcDbEntity
8
0
100
AcDbPolyline
90
4
70
1
43
0.0
10
11.235293581205495
20
-36.176470588235276
10
15.235293581205497
20
-36.176470588235276
10
15.235293581205497
20
-40.176470588235276
10
11.235293581205495
20
-40.176470588235276
0
LWPOLYLINE
5
206
100
AcDbEntity
8
0
100
AcDbPolyline
90
4
70
1
43
0.0
10
17.470587698852555
20
-36.176470588235276
10
21.470587698852555
20
-36.176470588235276
10
21.470587698852555
20
-40.176470588235276
10
17.470587698852555
20
-40.176470588235276
0
LWPOLYLINE
5
207
100
AcDbEntity
8
0
100
AcDbPolyline
90
4
70
1
43
0.0
10
23.705881816499613
20
-36.176470588235276
10
27.70588181649962
20
-36.176470588235276
10
27.70588181649962
20
-40.176470588235276
10
23.705881816499613
20
-40.176470588235276
0
LWPOLYLINE
5
208
100
AcDbEntity
8
0
100
AcDbPolyline
90
4
70
1
43
0.0
10
29.941175934146674
20
-36.176470588235276
10
33.941175934146671
20
-36.176470588235276
10
33.941175934146671
20
-40.176470588235276
10
29.941175934146674
20
-40.176470588235276
0
LWPOLYLINE
5
209
100
AcDbEntity
8
0
100
AcDbPolyline
90
4
70
1
43
0.0
10
36.176470051793729
20
-36.176470588235276
10
40.176470051793736
20
-36.176470588235276
10
40.176470051793736
20
-40.176470588235276
10
36.176470051793729
20
-40.176470588235276
0
LWPOLYLINE
5
210
100
AcDbEntity
8
0
100
AcDbPolyline
90
4
70
1
43
0.0
10
42.411764169440794
20
-36.176470588235276
10
46.411764169440801
20
-36.176470588235276
10
46.411764169440801
20
-40.176470588235276
10
42.411764169440794
20
-40.176470588235276
0
LWPOLYLINE
5
211
100
AcDbEntity
8
0
100
AcDbPolyline
90
4
70
1
43
0.0
10
48.647058287087852
20
-36.176470588235276
10
52.647058287087852
20
-36.176470588235276
10
52.647058287087852
20
-40.176470588235276
10
48.647058287087852
20
-40.176470588235276
0
LWPOLYLINE
5
212
100
AcDbEntity
8
0
100
AcDbPolyline
90
4
70
1
43
0.0
10
54.882352404734917
20
-36.176470588235276
10
58.882352404734917
20
-36.176470588235276
10
58.882352404734917
20
-40.176470588235276
10
54.882352404734917
20
-40.176470588235276
0
LWPOLYLINE
5
213
100
AcDbEntity
8
0
100
AcDbPolyline
90
4
70
1
43
0.0
10
61.117646522381975
20
-36.176470588235276
10
65.117646522381975
20
-36.176470588235276
10
65.117646522381975
20
-40.176470588235276
10
61.117646522381975
20
-40.176470588235276
0
LWPOLYLINE
5
214
100
AcDbEntity
8
0
100
AcDbPolyline
90
4
70
1
43
0.0
10
67.352940640029033
20
-36.176470588235276
10
71.352940640029033
20
-36.176470588235276
10
71.352940640029033
20
-40.176470588235276
10
67.352940640029033
20
-40.176470588235276
0
LWPOLYLINE
5
215
100
AcDbEntity
8
0
100
AcDbPolyline
90
4
70
1
43
0.0
10
73.588234757676091
20
-36.176470588235276
10
77.588234757676105
20
-36.176470588235276
10
77.588234757676105
20
-40.176470588235276
10
73.588234757676091
20
-40.176470588235276
0
LWPOLYLINE
5
216
100
AcDbEntity
8
0
100
AcDbPolyline
90
4
70
1
43
0.0
10
79.823528875323163
20
-36.176470588235276
10
83.823528875323149
20
-36.176470588235276
10
83.823528875323149
20
-40.176470588235276
10
79.823528875323163
20
-40.176470588235276
0
LWPOLYLINE
5
217
100
AcDbEntity
8
0
100
AcDbPolyline
90
4
70
1
43
0.0
10
86.058822992970221
20
-111
10
90.058822992970207
20
-111
10
90.058822992970207
20
-115
10
86.058822992970221
20
-115
0
LWPOLYLINE
5
218
100
AcDbEntity
8
0
100
AcDbPolyline
90
4
70
1
43
0.0
10
92.294117110617279
20
-111
10
96.294117110617265
20
-111
10
96.294117110617265
20
-115
10
92.294117110617279
20
-115
0
LWPOLYLINE
5
219
100
AcDbEntity
8
0
100
AcDbPolyline
90
4
70
1
43
0.0
10
98.529411228264351
20
-111
10
102.52941122826434
20
-111
10
102.52941122826434
20
-115
10
98.529411228264351
20
-115
0
LWPOLYLINE
5
220
100
AcDbEntity
8
0
100
AcDbPolyline
90
4
70
1
43
0.0
10
104.76470534591141
20
-111
10
108.76470534591138
20
-111
10
108.76470534591138
20
-115
10
104.76470534591141
20
-115
0
LWPOLYLINE
5
221
100
AcDbEntity
8
0
100
AcDbPolyline
90
4
70
1
43
0.0
10
110.99999946355845
20
-111
10
114.99999946355844
20
-111
10
114.99999946355844
20
-115
10
110.99999946355845
20
-115
0
LWPOLYLINE
5
222
100
AcDbEntity
8
0
100
AcDbPolyline
90
4
70
1
43
0.0
10
86.058822992970221
20
-104.76470588235294
10
90.058822992970207
20
-104.76470588235294
10
90.058822992970207
20
-108.76470588235294
10
86.058822992970221
20
-108.76470588235294
0
LWPOLYLINE
5
223
100
AcDbEntity
8
0
100
AcDbPolyline
90
4
70
1
43
0.0
10
92.294117110617279
20
-104.76470588235294
10
96.294117110617265
20
-104.76470588235294
10
96.294117110617265
20
-108.76470588235294
10
92.294117110617279
20
-108.76470588235294
0
LWPOLYLINE
5
224
100
AcDbEntity
8
0
100
AcDbPolyline
90
4
70
1
43
0.0
10
98.529411228264351
20
-104.76470588235294
10
102.52941122826434
20
-104.76470588235294
10
102.52941122826434
20
-108.76470588235294
10
98.529411228264351
20
-108.76470588235294
0
LWPOLYLINE
5
225
100
AcDbEntity
8
0
100
AcDbPolyline
90
4
70
1
43
0.0
10
104.76470534591141
20
-104.76470588235294
10
108.76470534591138
20
-104.76470588235294
10
108.76470534591138
20
-108.76470588235294
10
104.76470534591141
20
-108.76470588235294
0
LWPOLYLINE
5
226
100
AcDbEntity
8
0
100
AcDbPolyline
90
4
70
1
43
0.0
10
110.99999946355845
20
-104.76470588235294
10
114.99999946355844
20
-104.76470588235294
10
114.99999946355844
20
-108.76470588235294
10
110.99999946355845
20
-108.76470588235294
0
LWPOLYLINE
5
227
100
AcDbEntity
8
0
100
AcDbPolyline
90
4
70
1
43
0.0
10
86.058822992970221
20
-98.52941176470587
10
90.058822992970207
20
-98.52941176470587
10
90.058822992970207
20
-102.52941176470587
10
86.058822992970221
20
-102.52941176470587
0
LWPOLYLINE
5
228
100
AcDbEntity
8
0
100
AcDbPolyline
90
4
70
1
43
0.0
10
92.294117110617279
20
-98.52941176470587
10
96.294117110617265
20
-98.52941176470587
10
96.294117110617265
20
-102.52941176470587
10
92.294117110617279
20
-102.52941176470587
0
LWPOLYLINE
5
229
100
AcDbEntity
8
0
100
AcDbPolyline
90
4
70
1
43
0.0
10
98.529411228264351
20
-98.52941176470587
10
102.52941122826434
20
-98.52941176470587
10
102.52941122826434
20
-102.52941176470587
10
98.529411228264351
20
-102.52941176470587
0
LWPOLYLINE
5
230
100
AcDbEntity
8
0
100
AcDbPolyline
90
4
70
1
43
0.0
10
104.76470534591141
20
-98.52941176470587
10
108.76470534591138
20
-98.52941176470587
10
108.76470534591138
20
-102.52941176470587
10
104.76470534591141
20
-102.52941176470587
0
LWPOLYLINE
5
231
100
AcDbEntity
8
0
100
AcDbPolyline
90
4
70
1
43
0.0
10
110.99999946355845
20
-98.52941176470587
10
114.99999946355844
20
-98.52941176470587
10
114.99999946355844
20
-102.52941176470587
10
110.99999946355845
20
-102.52941176470587
0
LWPOLYLINE
5
232
100
AcDbEntity
8
0
100
AcDbPolyline
90
4
70
1
43
0.0
10
86.058822992970221
20
-92.294117647058812
10
90.058822992970207
20
-92.294117647058812
10
90.058822992970207
20
-96.294117647058812
10
86.058822992970221
20
-96.294117647058812
0
LWPOLYLINE
5
233
100
AcDbEntity
8
0
100
AcDbPolyline
90
4
70
1
43
0.0
10
92.294117110617279
20
-92.294117647058812
10
96.294117110617265
20
-92.294117647058812
10
96.294117110617265
20
-96.294117647058812
10
92.294117110617279
20
-96.294117647058812
0
LWPOLYLINE
5
234
100
AcDbEntity
8
0
100
AcDbPolyline
90
4
70
1
43
0.0
10
98.529411228264351
20
-92.294117647058812
10
102.52941122826434
20
-92.294117647058812
10
102.52941122826434
20
-96.294117647058812
10
98.529411228264351
20
-96.294117647058812
0
LWPOLYLINE
5
235
100
AcDbEntity
8
0
100
AcDbPolyline
90
4
70
1
43
0.0
10
104.76470534591141
20
-92.294117647058812
10
108.76470534591138
20
-92.294117647058812
10
108.76470534591138
20
-96.294117647058812
10
104.76470534591141
20
-96.294117647058812
0
LWPOLYLINE
5
236
100
AcDbEntity
8
0
100
AcDbPolyline
90
4
70
1
43
0.0
10
110.99999946355845
20
-92.294117647058812
10
114.99999946355844
20
-92.294117647058812
10
114.99999946355844
20
-96.294117647058812
10
110.99999946355845
20
-96.294117647058812
0
LWPOLYLINE
5
237
100
AcDbEntity
8
0
100
AcDbPolyline
90
4
70
1
43
0.0
10
86.058822992970221
20
-86.058823529411768
10
90.058822992970207
20
-86.058823529411768
10
90.058822992970207
20
-90.058823529411768
10
86.058822992970221
20
-90.058823529411768
0
LWPOLYLINE
5
238
100
AcDbEntity
8
0
100
AcDbPolyline
90
4
70
1
43
0.0
10
92.294117110617279
20
-86.058823529411768
10
96.294117110617265
20
-86.058823529411768
10
96.294117110617265
20
-90.058823529411768
10
92.294117110617279
20
-90.058823529411768
0
LWPOLYLINE
5
239
100
AcDbEntity
8
0
100
AcDbPolyline
90
4
70
1
43
0.0
10
98.529411228264351
20
-86.058823529411768
10
102.52941122826434
20
-86.058823529411768
10
102.52941122826434
20
-90.058823529411768
10
98.529411228264351
20
-90.058823529411768
0
LWPOLYLINE
5
240
100
AcDbEntity
8
0
100
AcDbPolyline
90
4
70
1
43
0.0
10
104.76470534591141
20
-86.058823529411768
10
108.76470534591138
20
-86.058823529411768
10
108.76470534591138
20
-90.058823529411768
10
104.76470534591141
20
-90.058823529411768
0
LWPOLYLINE
5
241
100
AcDbEntity
8
0
100
AcDbPolyline
90
4
70
1
43
0.0
10
110.99999946355845
20
-86.058823529411768
10
114.99999946355844
20
-86.058823529411768
10
114.99999946355844
20
-90.058823529411768
10
110.99999946355845
20
-90.058823529411768
0
LWPOLYLINE
5
242
100
AcDbEntity
8
0
100
AcDbPolyline
90
4
70
1
43
0.0
10
86.058822992970221
20
-79.823529411764696
10
90.058822992970207
20
-79.823529411764696
10
90.058822992970207
20
-83.82352941176471
10
86.058822992970221
20
-83.82352941176471
0
LWPOLYLINE
5
243
100
AcDbEntity
8
0
100
AcDbPolyline
90
4
70
1
43
0.0
10
92.294117110617279
20
-79.823529411764696
10
96.294117110617265
20
-79.823529411764696
10
96.294117110617265
20
-83.82352941176471
10
92.294117110617279
20
-83.82352941176471
0
LWPOLYLINE
5
244
100
AcDbEntity
8
0
100
AcDbPolyline
90
4
70
1
43
0.0
10
98.529411228264351
20
-79.823529411764696
10
102.52941122826434
20
-79.823529411764696
10
102.52941122826434
20
-83.82352941176471
10
98.529411228264351
20
-83.82352941176471
0
LWPOLYLINE
5
245
100
AcDbEntity
8
0
100
AcDbPolyline
90
4
70
1
43
0.0
10
104.76470534591141
20
-79.823529411764696
10
108.76470534591138
20
-79.823529411764696
10
108.76470534591138
20
-83.82352941176471
10
104.76470534591141
20
-83.82352941176471
0
LWPOLYLINE
5
246
100
AcDbEntity
8
0
100
AcDbPolyline
90
4
70
1
43
0.0
10
110.99999946355845
20
-79.823529411764696
10
114.99999946355844
20
-79.823529411764696
10
114.99999946355844
20
-83.82352941176471
10
110.99999946355845
20
-83.82352941176471
0
LWPOLYLINE
5
247
100
AcDbEntity
8
0
100
AcDbPolyline
90
4
70
1
43
0.0
10
86.058822992970221
20
-73.588235294117638
10
90.058822992970207
20
-73.588235294117638
10
90.058822992970207
20
-77.588235294117638
10
86.058822992970221
20
-77.588235294117638
0
LWPOLYLINE
5
248
100
AcDbEntity
8
0
100
AcDbPolyline
90
4
70
1
43
0.0
10
92.294117110617279
20
-73.588235294117638
10
96.294117110617265
20
-73.588235294117638
10
96.294117110617265
20
-77.588235294117638
10
92.294117110617279
20
-77.588235294117638
0
LWPOLYLINE
5
249
100
AcDbEntity
8
0
100
AcDbPolyline
90
4
70
1
43
0.0
10
98.529411228264351
20
-73.588235294117638
10
102.52941122826434
20
-73.588235294117638
10
102.52941122826434
20
-77.588235294117638
10
98.529411228264351
20
-77.588235294117638
0
LWPOLYLINE
5
250
100
AcDbEntity
8
0
100
AcDbPolyline
90
4
70
1
43
0.0
10
104.76470534591141
20
-73.588235294117638
10
108.76470534591138
20
-73.588235294117638
10
108.76470534591138
20
-77.588235294117638
10
104.76470534591141
20
-77.588235294117638
0
LWPOLYLINE
5
251
100
AcDbEntity
8
0
100
AcDbPolyline
90
4
70
1
43
0.0
10
110.99999946355845
20
-73.588235294117638
10
114.99999946355844
20
-73.588235294117638
10
114.99999946355844
20
-77.588235294117638
10
110.99999946355845
20
-77.588235294117638
0
LWPOLYLINE
5
252
100
AcDbEntity
8
0
100
AcDbPolyline
90
4
70
1
43
0.0
10
86.058822992970221
20
-67.35294117647058
10
90.058822992970207
20
-67.35294117647058
10
90.058822992970207
20
-71.35294117647058
10
86.058822992970221
20
-71.35294117647058
0
LWPOLYLINE
5
253
100
AcDbEntity
8
0
100
AcDbPolyline
90
4
70
1
43
0.0
10
92.294117110617279
20
-67.35294117647058
10
96.294117110617265
20
-67.35294117647058
10
96.294117110617265
20
-71.35294117647058
10
92.294117110617279
20
-71.35294117647058
0
LWPOLYLINE
5
254
100
AcDbEntity
8
0
100
AcDbPolyline
90
4
70
1
43
0.0
10
98.529411228264351
20
-67.35294117647058
10
102.52941122826434
20
-67.35294117647058
10
102.52941122826434
20
-71.35294117647058
10
98.529411228264351
20
-71.35294117647058
0
LWPOLYLINE
5
255
100
AcDbEntity
8
0
100
AcDbPolyline
90
4
70
1
43
0.0
10
104.76470534591141
20
-67.35294117647058
10
108.76470534591138
20
-67.35294117647058
10
108.76470534591138
20
-71.35294117647058
10
104.76470534591141
20
-71.35294117647058
0
LWPOLYLINE
5
256
100
AcDbEntity
8
0
100
AcDbPolyline
90
4
70
1
43
0.0
10
110.99999946355845
20
-67.35294117647058
10
114.99999946355844
20
-67.35294117647058
10
114.99999946355844
20
-71.35294117647058
10
110.99999946355845
20
-71.35294117647058
0
LWPOLYLINE
5
257
100
AcDbEntity
8
0
100
AcDbPolyline
90
4
70
1
43
0.0
10
86.058822992970221
20
-61.117647058823515
10
90.058822992970207
20
-61.117647058823515
10
90.058822992970207
20
-65.117647058823522
10
86.058822992970221
20
-65.117647058823522
0
LWPOLYLINE
5
258
100
AcDbEntity
8
0
100
AcDbPolyline
90
4
70
1
43
0.0
10
92.294117110617279
20
-61.117647058823515
10
96.294117110617265
20
-61.117647058823515
10
96.294117110617265
20
-65.117647058823522
10
92.294117110617279
20
-65.117647058823522
0
LWPOLYLINE
5
259
100
AcDbEntity
8
0
100
AcDbPolyline
90
4
70
1
43
0.0
10
98.529411228264351
20
-61.117647058823515
10
102.52941122826434
20
-61.117647058823515
10
102.52941122826434
20
-65.117647058823522
10
98.529411228264351
20
-65.117647058823522
0
LWPOLYLINE
5
260
100
AcDbEntity
8
0
100
AcDbPolyline
90
4
70
1
43
0.0
10
104.76470534591141
20
-61.117647058823515
10
108.76470534591138
20
-61.117647058823515
10
108.76470534591138
20
-65.117647058823522
10
104.76470534591141
20
-65.117647058823522
0
LWPOLYLINE
5
261
100
AcDbEntity
8
0
100
AcDbPolyline
90
4
70
1
43
0.0
10
110.99999946355845
20
-61.117647058823515
10
114.99999946355844
20
-61.117647058823515
10
114.99999946355844
20
-65.117647058823522
10
110.99999946355845
20
-65.117647058823522
0
LWPOLYLINE
5
262
100
AcDbEntity
8
0
100
AcDbPolyline
90
4
70
1
43
0.0
10
86.058822992970221
20
-54.88235294117645
10
90.058822992970207
20
-54.88235294117645
10
90.058822992970207
20
-58.882352941176457
10
86.058822992970221
20
-58.882352941176457
0
LWPOLYLINE
5
263
100
AcDbEntity
8
0
100
AcDbPolyline
90
4
70
1
43
0.0
10
92.294117110617279
20
-54.88235294117645
10
96.294117110617265
20
-54.88235294117645
10
96.294117110617265
20
-58.882352941176457
10
92.294117110617279
20
-58.882352941176457
0
LWPOLYLINE
5
264
100
AcDbEntity
8
0
100
AcDbPolyline
90
4
70
1
43
0.0
10
98.529411228264351
20
-54.88235294117645
10
102.52941122826434
20
-54.88235294117645
10
102.52941122826434
20
-58.882352941176457
10
98.529411228264351
20
-58.882352941176457
0
LWPOLYLINE
5
265
100
AcDbEntity
8
0
100
AcDbPolyline
90
4
70
1
43
0.0
10
104.76470534591141
20
-54.88235294117645
10
108.76470534591138
20
-54.88235294117645
10
108.76470534591138
20
-58.882352941176457
10
104.76470534591141
20
-58.882352941176457
0
LWPOLYLINE
5
266
100
AcDbEntity
8
0
100
AcDbPolyline
90
4
70
1
43
0.0
10
110.99999946355845
20
-54.88235294117645
10
114.99999946355844
20
-54.88235294117645
10
114.99999946355844
20
-58.882352941176457
10
110.99999946355845
20
-58.882352941176457
0
LWPOLYLINE
5
267
100
AcDbEntity
8
0
100
AcDbPolyline
90
4
70
1
43
0.0
10
86.058822992970221
20
-48.647058823529399
10
90.058822992970207
20
-48.647058823529399
10
90.058822992970207
20
-52.647058823529406
10
86.058822992970221
20
-52.647058823529406
0
LWPOLYLINE
5
268
100
AcDbEntity
8
0
100
AcDbPolyline
90
4
70
1
43
0.0
10
92.294117110617279
20
-48.647058823529399
10
96.294117110617265
20
-48.647058823529399
10
96.294117110617265
20
-52.647058823529406
10
92.294117110617279
20
-52.647058823529406
0
LWPOLYLINE
5
269
100
AcDbEntity
8
0
100
AcDbPolyline
90
4
70
1
43
0.0
10
98.529411228264351
20
-48.647058823529399
10
102.52941122826434
20
-48.647058823529399
10
102.52941122826434
20
-52.647058823529406
10
98.529411228264351
20
-52.647058823529406
0
LWPOLYLINE
5
270
100
AcDbEntity
8
0
100
AcDbPolyline
90
4
70
1
43
0.0
10
104.76470534591141
20
-48.647058823529399
10
108.76470534591138
20
-48.647058823529399
10
108.76470534591138
20
-52.647058823529406
10
104.76470534591141
20
-52.647058823529406
0
LWPOLYLINE
5
271
100
AcDbEntity
8
0
100
AcDbPolyline
90
4
70
1
43
0.0
10
110.99999946355845
20
-48.647058823529399
10
114.99999946355844
20
-48.647058823529399
10
114.99999946355844
20
-52.647058823529406
10
110.99999946355845
20
-52.647058823529406
0
LWPOLYLINE
5
272
100
AcDbEntity
8
0
100
AcDbPolyline
90
4
70
1
43
0.0
10
86.058822992970221
20
-42.411764705882334
10
90.058822992970207
20
-42.411764705882334
10
90.058822992970207
20
-46.411764705882341
10
86.058822992970221
20
-46.411764705882341
0
LWPOLYLINE
5
273
100
AcDbEntity
8
0
100
AcDbPolyline
90
4
70
1
43
0.0
10
92.294117110617279
20
-42.411764705882334
10
96.294117110617265
20
-42.411764705882334
10
96.294117110617265
20
-46.411764705882341
10
92.294117110617279
20
-46.411764705882341
0
LWPOLYLINE
5
274
100
AcDbEntity
8
0
100
AcDbPolyline
90
4
70
1
43
0.0
10
98.529411228264351
20
-42.411764705882334
10
102.52941122826434
20
-42.411764705882334
10
102.52941122826434
20
-46.411764705882341
10
98.529411228264351
20
-46.411764705882341
0
LWPOLYLINE
5
275
100
AcDbEntity
8
0
100
AcDbPolyline
90
4
70
1
43
0.0
10
104.76470534591141
20
-42.411764705882334
10
108.76470534591138
20
-42.411764705882334
10
108.76470534591138
20
-46.411764705882341
10
104.76470534591141
20
-46.411764705882341
0
LWPOLYLINE
5
276
100
AcDbEntity
8
0
100
AcDbPolyline
90
4
70
1
43
0.0
10
110.99999946355845
20
-42.411764705882334
10
114.99999946355844
20
-42.411764705882334
10
114.99999946355844
20
-46.411764705882341
10
110.99999946355845
20
-46.411764705882341
0
LWPOLYLINE
5
277
100
AcDbEntity
8
0
100
AcDbPolyline
90
4
70
1
43
0.0
10
86.058822992970221
20
-36.176470588235276
10
90.058822992970207
20
-36.176470588235276
10
90.058822992970207
20
-40.176470588235276
10
86.058822992970221
20
-40.176470588235276
0
LWPOLYLINE
5
278
100
AcDbEntity
8
0
100
AcDbPolyline
90
4
70
1
43
0.0
10
92.294117110617279
20
-36.176470588235276
10
96.294117110617265
20
-36.176470588235276
10
96.294117110617265
20
-40.176470588235276
10
92.294117110617279
20
-40.176470588235276
0
LWPOLYLINE
5
279
100
AcDbEntity
8
0
100
AcDbPolyline
90
4
70
1
43
0.0
10
98.529411228264351
20
-36.176470588235276
10
102.52941122826434
20
-36.176470588235276
10
102.52941122826434
20
-40.176470588235276
10
98.529411228264351
20
-40.176470588235276
0
LWPOLYLINE
5
280
100
AcDbEntity
8
0
100
AcDbPolyline
90
4
70
1
43
0.0
10
104.76470534591141
20
-36.176470588235276
10
108.76470534591138
20
-36.176470588235276
10
108.76470534591138
20
-40.176470588235276
10
104.76470534591141
20
-40.176470588235276
0
LWPOLYLINE
5
281
100
AcDbEntity
8
0
100
AcDbPolyline
90
4
70
1
43
0.0
10
110.99999946355845
20
-36.176470588235276
10
114.99999946355844
20
-36.176470588235276
10
114.99999946355844
20
-40.176470588235276
10
110.99999946355845
20
-40.176470588235276
0
LWPOLYLINE
5
282
100
AcDbEntity
8
0
100
AcDbPolyline
90
4
70
1
43
0.0
10
4.9999994635584351
20
-29.941176470588218
10
8.9999994635584351
20
-29.941176470588218
10
8.9999994635584351
20
-33.941176470588218
10
4.9999994635584351
20
-33.941176470588218
0
LWPOLYLINE
5
283
100
AcDbEntity
8
0
100
AcDbPolyline
90
4
70
1
43
0.0
10
11.235293581205495
20
-29.941176470588218
10
15.235293581205497
20
-29.941176470588218
10
15.235293581205497
20
-33.941176470588218
10
11.235293581205495
20
-33.941176470588218
0
LWPOLYLINE
5
284
100
AcDbEntity
8
0
100
AcDbPolyline
90
4
70
1
43
0.0
10
17.470587698852555
20
-29.941176470588218
10
21.470587698852555
20
-29.941176470588218
10
21.470587698852555
20
-33.941176470588218
10
17.470587698852555
20
-33.941176470588218
0
LWPOLYLINE
5
285
100
AcDbEntity
8
0
100
AcDbPolyline
90
4
70
1
43
0.0
10
23.705881816499613
20
-29.941176470588218
10
27.70588181649962
20
-29.941176470588218
10
27.70588181649962
20
-33.941176470588218
10
23.705881816499613
20
-33.941176470588218
0
LWPOLYLINE
5
286
100
AcDbEntity
8
0
100
AcDbPolyline
90
4
70
1
43
0.0
10
29.941175934146674
20
-29.941176470588218
10
33.941175934146671
20
-29.941176470588218
10
33.941175934146671
20
-33.941176470588218
10
29.941175934146674
20
-33.941176470588218
0
LWPOLYLINE
5
287
100
AcDbEntity
8
0
100
AcDbPolyline
90
4
70
1
43
0.0
10
36.176470051793729
20
-29.941176470588218
10
40.176470051793736
20
-29.941176470588218
10
40.176470051793736
20
-33.941176470588218
10
36.176470051793729
20
-33.941176470588218
0
LWPOLYLINE
5
288
100
AcDbEntity
8
0
100
AcDbPolyline
90
4
70
1
43
0.0
10
67.352940640029033
20
-29.941176470588218
10
71.352940640029033
20
-29.941176470588218
10
71.352940640029033
20
-33.941176470588218
10
67.352940640029033
20
-33.941176470588218
0
LWPOLYLINE
5
289
100
AcDbEntity
8
0
100
AcDbPolyline
90
4
70
1
43
0.0
10
42.411764169440794
20
-29.941176470588218
10
46.411764169440801
20
-29.941176470588218
10
46.411764169440801
20
-33.941176470588218
10
42.411764169440794
20
-33.941176470588218
0
LWPOLYLINE
5
290
100
AcDbEntity
8
0
100
AcDbPolyline
90
4
70
1
43
0.0
10
61.117646522381975
20
-29.941176470588218
10
65.117646522381975
20
-29.941176470588218
10
65.117646522381975
20
-33.941176470588218
10
61.117646522381975
20
-33.941176470588218
0
LWPOLYLINE
5
291
100
AcDbEntity
8
0
100
AcDbPolyline
90
4
70
1
43
0.0
10
48.647058287087852
20
-29.941176470588218
10
52.647058287087852
20
-29.941176470588218
10
52.647058287087852
20
-33.941176470588218
10
48.647058287087852
20
-33.941176470588218
0
LWPOLYLINE
5
292
100
AcDbEntity
8
0
100
AcDbPolyline
90
4
70
1
43
0.0
10
54.882352404734917
20
-29.941176470588218
10
58.882352404734917
20
-29.941176470588218
10
58.882352404734917
20
-33.941176470588218
10
54.882352404734917
20
-33.941176470588218
0
LWPOLYLINE
5
293
100
AcDbEntity
8
0
100
AcDbPolyline
90
4
70
1
43
0.0
10
54.882352404734917
20
-104.76470588235294
10
58.882352404734917
20
-104.76470588235294
10
58.882352404734917
20
-108.76470588235294
10
54.882352404734917
20
-108.76470588235294
0
LWPOLYLINE
5
294
100
AcDbEntity
8
0
100
AcDbPolyline
90
4
70
1
43
0.0
10
61.117646522381975
20
-111
10
65.117646522381975
20
-111
10
65.117646522381975
20
-115
10
61.117646522381975
20
-115
0
LWPOLYLINE
5
295
100
AcDbEntity
8
0
100
AcDbPolyline
90
4
70
1
43
0.0
10
54.882352404734917
20
-111
10
58.882352404734917
20
-111
10
58.882352404734917
20
-115
10
54.882352404734917
20
-115
0
LWPOLYLINE
5
296
100
AcDbEntity
8
0
100
AcDbPolyline
90
4
70
1
43
0.0
10
48.647058287087852
20
-67.35294117647058
10
52.647058287087852
20
-67.35294117647058
10
52.647058287087852
20
-71.35294117647058
10
48.647058287087852
20
-71.35294117647058
0
LWPOLYLINE
5
297
100
AcDbEntity
8
0
100
AcDbPolyline
90
4
70
1
43
0.0
10
42.411764169440794
20
-67.35294117647058
10
46.411764169440801
20
-67.35294117647058
10
46.411764169440801
20
-71.35294117647058
10
42.411764169440794
20
-71.35294117647058
0
LWPOLYLINE
5
298
100
AcDbEntity
8
0
100
AcDbPolyline
90
4
70
1
43
0.0
10
36.176470051793729
20
-67.35294117647058
10
40.176470051793736
20
-67.35294117647058
10
40.176470051793736
20
-71.35294117647058
10
36.176470051793729
20
-71.35294117647058
0
LWPOLYLINE
5
299
100
AcDbEntity
8
0
100
AcDbPolyline
90
4
70
1
43
0.0
10
29.941175934146674
20
-67.35294117647058
10
33.941175934146671
20
-67.35294117647058
10
33.941175934146671
20
-71.35294117647058
10
29.941175934146674
20
-71.35294117647058
0
LWPOLYLINE
5
300
100
AcDbEntity
8
0
100
AcDbPolyline
90
4
70
1
43
0.0
10
4.9999994635584351
20
-48.647058823529399
10
8.9999994635584351
20
-48.647058823529399
10
8.9999994635584351
20
-52.647058823529406
10
4.9999994635584351
20
-52.647058823529406
0
LWPOLYLINE
5
301
100
AcDbEntity
8
0
100
AcDbPolyline
90
4
70
1
43
0.0
10
61.117646522381975
20
-104.76470588235294
10
65.117646522381975
20
-104.76470588235294
10
65.117646522381975
20
-108.76470588235294
10
61.117646522381975
20
-108.76470588235294
0
LWPOLYLINE
5
302
100
AcDbEntity
8
0
100
AcDbPolyline
90
4
70
1
43
0.0
10
54.882352404734917
20
-98.52941176470587
10
58.882352404734917
20
-98.52941176470587
10
58.882352404734917
20
-102.52941176470587
10
54.882352404734917
20
-102.52941176470587
0
LWPOLYLINE
5
303
100
AcDbEntity
8
0
100
AcDbPolyline
90
4
70
1
43
0.0
10
61.117646522381975
20
-98.52941176470587
10
65.117646522381975
20
-98.52941176470587
10
65.117646522381975
20
-102.52941176470587
10
61.117646522381975
20
-102.52941176470587
0
LWPOLYLINE
5
304
100
AcDbEntity
8
0
100
AcDbPolyline
90
4
70
1
43
0.0
10
54.882352404734917
20
-92.294117647058812
10
58.882352404734917
20
-92.294117647058812
10
58.882352404734917
20
-96.294117647058812
10
54.882352404734917
20
-96.294117647058812
0
LWPOLYLINE
5
305
100
AcDbEntity
8
0
100
AcDbPolyline
90
4
70
1
43
0.0
10
61.117646522381975
20
-92.294117647058812
10
65.117646522381975
20
-92.294117647058812
10
65.117646522381975
20
-96.294117647058812
10
61.117646522381975
20
-96.294117647058812
0
LWPOLYLINE
5
306
100
AcDbEntity
8
0
100
AcDbPolyline
90
4
70
1
43
0.0
10
54.882352404734917
20
-86.058823529411768
10
58.882352404734917
20
-86.058823529411768
10
58.882352404734917
20
-90.058823529411768
10
54.882352404734917
20
-90.058823529411768
0
LWPOLYLINE
5
307
100
AcDbEntity
8
0
100
AcDbPolyline
90
4
70
1
43
0.0
10
61.117646522381975
20
-86.058823529411768
10
65.117646522381975
20
-86.058823529411768
10
65.117646522381975
20
-90.058823529411768
10
61.117646522381975
20
-90.058823529411768
0
LWPOLYLINE
5
308
100
AcDbEntity
8
0
100
AcDbPolyline
90
4
70
1
43
0.0
10
54.882352404734917
20
-79.823529411764696
10
58.882352404734917
20
-79.823529411764696
10
58.882352404734917
20
-83.82352941176471
10
54.882352404734917
20
-83.82352941176471
0
LWPOLYLINE
5
309
100
AcDbEntity
8
0
100
AcDbPolyline
90
4
70
1
43
0.0
10
61.117646522381975
20
-79.823529411764696
10
65.117646522381975
20
-79.823529411764696
10
65.117646522381975
20
-83.82352941176471
10
61.117646522381975
20
-83.82352941176471
0
LWPOLYLINE
5
310
100
AcDbEntity
8
0
100
AcDbPolyline
90
4
70
1
43
0.0
10
54.882352404734917
20
-73.588235294117638
10
58.882352404734917
20
-73.588235294117638
10
58.882352404734917
20
-77.588235294117638
10
54.882352404734917
20
-77.588235294117638
0
LWPOLYLINE
5
311
100
AcDbEntity
8
0
100
AcDbPolyline
90
4
70
1
43
0.0
10
61.117646522381975
20
-73.588235294117638
10
65.117646522381975
20
-73.588235294117638
10
65.117646522381975
20
-77.588235294117638
10
61.117646522381975
20
-77.588235294117638
0
LWPOLYLINE
5
312
100
AcDbEntity
8
0
100
AcDbPolyline
90
4
70
1
43
0.0
10
54.882352404734917
20
-67.35294117647058
10
58.882352404734917
20
-67.35294117647058
10
58.882352404734917
20
-71.35294117647058
10
54.882352404734917
20
-71.35294117647058
0
LWPOLYLINE
5
313
100
AcDbEntity
8
0
100
AcDbPolyline
90
4
70
1
43
0.0
10
61.117646522381975
20
-67.35294117647058
10
65.117646522381975
20
-67.35294117647058
10
65.117646522381975
20
-71.35294117647058
10
61.117646522381975
20
-71.35294117647058
0
LWPOLYLINE
5
314
100
AcDbEntity
8
0
100
AcDbPolyline
90
4
70
1
43
0.0
10
4.9999994635584351
20
-61.117647058823515
10
8.9999994635584351
20
-61.117647058823515
10
8.9999994635584351
20
-65.117647058823522
10
4.9999994635584351
20
-65.117647058823522
0
LWPOLYLINE
5
315
100
AcDbEntity
8
0
100
AcDbPolyline
90
4
70
1
43
0.0
10
11.235293581205495
20
-61.117647058823515
10
15.235293581205497
20
-61.117647058823515
10
15.235293581205497
20
-65.117647058823522
10
11.235293581205495
20
-65.117647058823522
0
LWPOLYLINE
5
316
100
AcDbEntity
8
0
100
AcDbPolyline
90
4
70
1
43
0.0
10
17.470587698852555
20
-61.117647058823515
10
21.470587698852555
20
-61.117647058823515
10
21.470587698852555
20
-65.117647058823522
10
17.470587698852555
20
-65.117647058823522
0
LWPOLYLINE
5
317
100
AcDbEntity
8
0
100
AcDbPolyline
90
4
70
1
43
0.0
10
23.705881816499613
20
-61.117647058823515
10
27.70588181649962
20
-61.117647058823515
10
27.70588181649962
20
-65.117647058823522
10
23.705881816499613
20
-65.117647058823522
0
LWPOLYLINE
5
318
100
AcDbEntity
8
0
100
AcDbPolyline
90
4
70
1
43
0.0
10
29.941175934146674
20
-61.117647058823515
10
33.941175934146671
20
-61.117647058823515
10
33.941175934146671
20
-65.117647058823522
10
29.941175934146674
20
-65.117647058823522
0
LWPOLYLINE
5
319
100
AcDbEntity
8
0
100
AcDbPolyline
90
4
70
1
43
0.0
10
36.176470051793729
20
-61.117647058823515
10
40.176470051793736
20
-61.117647058823515
10
40.176470051793736
20
-65.117647058823522
10
36.176470051793729
20
-65.117647058823522
0
LWPOLYLINE
5
320
100
AcDbEntity
8
0
100
AcDbPolyline
90
4
70
1
43
0.0
10
42.411764169440794
20
-61.117647058823515
10
46.411764169440801
20
-61.117647058823515
10
46.411764169440801
20
-65.117647058823522
10
42.411764169440794
20
-65.117647058823522
0
LWPOLYLINE
5
321
100
AcDbEntity
8
0
100
AcDbPolyline
90
4
70
1
43
0.0
10
48.647058287087852
20
-61.117647058823515
10
52.647058287087852
20
-61.117647058823515
10
52.647058287087852
20
-65.117647058823522
10
48.647058287087852
20
-65.117647058823522
0
LWPOLYLINE
5
322
100
AcDbEntity
8
0
100
AcDbPolyline
90
4
70
1
43
0.0
10
54.882352404734917
20
-61.117647058823515
10
58.882352404734917
20
-61.117647058823515
10
58.882352404734917
20
-65.117647058823522
10
54.882352404734917
20
-65.117647058823522
0
LWPOLYLINE
5
323
100
AcDbEntity
8
0
100
AcDbPolyline
90
4
70
1
43
0.0
10
61.117646522381975
20
-61.117647058823515
10
65.117646522381975
20
-61.117647058823515
10
65.117646522381975
20
-65.117647058823522
10
61.117646522381975
20
-65.117647058823522
0
LWPOLYLINE
5
324
100
AcDbEntity
8
0
100
AcDbPolyline
90
4
70
1
43
0.0
10
4.9999994635584351
20
-54.88235294117645
10
8.9999994635584351
20
-54.88235294117645
10
8.9999994635584351
20
-58.882352941176457
10
4.9999994635584351
20
-58.882352941176457
0
LWPOLYLINE
5
325
100
AcDbEntity
8
0
100
AcDbPolyline
90
4
70
1
43
0.0
10
11.235293581205495
20
-54.88235294117645
10
15.235293581205497
20
-54.88235294117645
10
15.235293581205497
20
-58.882352941176457
10
11.235293581205495
20
-58.882352941176457
0
LWPOLYLINE
5
326
100
AcDbEntity
8
0
100
AcDbPolyline
90
4
70
1
43
0.0
10
17.470587698852555
20
-54.88235294117645
10
21.470587698852555
20
-54.88235294117645
10
21.470587698852555
20
-58.882352941176457
10
17.470587698852555
20
-58.882352941176457
0
LWPOLYLINE
5
327
100
AcDbEntity
8
0
100
AcDbPolyline
90
4
70
1
43
0.0
10
23.705881816499613
20
-54.88235294117645
10
27.70588181649962
20
-54.88235294117645
10
27.70588181649962
20
-58.882352941176457
10
23.705881816499613
20
-58.882352941176457
0
LWPOLYLINE
5
328
100
AcDbEntity
8
0
100
AcDbPolyline
90
4
70
1
43
0.0
10
29.941175934146674
20
-54.88235294117645
10
33.941175934146671
20
-54.88235294117645
10
33.941175934146671
20
-58.882352941176457
10
29.941175934146674
20
-58.882352941176457
0
LWPOLYLINE
5
329
100
AcDbEntity
8
0
100
AcDbPolyline
90
4
70
1
43
0.0
10
36.176470051793729
20
-54.88235294117645
10
40.176470051793736
20
-54.88235294117645
10
40.176470051793736
20
-58.882352941176457
10
36.176470051793729
20
-58.882352941176457
0
LWPOLYLINE
5
330
100
AcDbEntity
8
0
100
AcDbPolyline
90
4
70
1
43
0.0
10
42.411764169440794
20
-54.88235294117645
10
46.411764169440801
20
-54.88235294117645
10
46.411764169440801
20
-58.882352941176457
10
42.411764169440794
20
-58.882352941176457
0
LWPOLYLINE
5
331
100
AcDbEntity
8
0
100
AcDbPolyline
90
4
70
1
43
0.0
10
48.647058287087852
20
-54.88235294117645
10
52.647058287087852
20
-54.88235294117645
10
52.647058287087852
20
-58.882352941176457
10
48.647058287087852
20
-58.882352941176457
0
LWPOLYLINE
5
332
100
AcDbEntity
8
0
100
AcDbPolyline
90
4
70
1
43
0.0
10
54.882352404734917
20
-54.88235294117645
10
58.882352404734917
20
-54.88235294117645
10
58.882352404734917
20
-58.882352941176457
10
54.882352404734917
20
-58.882352941176457
0
LWPOLYLINE
5
333
100
AcDbEntity
8
0
100
AcDbPolyline
90
4
70
1
43
0.0
10
61.117646522381975
20
-54.88235294117645
10
65.117646522381975
20
-54.88235294117645
10
65.117646522381975
20
-58.882352941176457
10
61.117646522381975
20
-58.882352941176457
0
LWPOLYLINE
5
334
100
AcDbEntity
8
0
100
AcDbPolyline
90
4
70
1
43
0.0
10
67.352940640029033
20
-111
10
71.352940640029033
20
-111
10
71.352940640029033
20
-115
10
67.352940640029033
20
-115
0
LWPOLYLINE
5
335
100
AcDbEntity
8
0
100
AcDbPolyline
90
4
70
1
43
0.0
10
73.588234757676091
20
-111
10
77.588234757676105
20
-111
10
77.588234757676105
20
-115
10
73.588234757676091
20
-115
0
LWPOLYLINE
5
336
100
AcDbEntity
8
0
100
AcDbPolyline
90
4
70
1
43
0.0
10
79.823528875323163
20
-111
10
83.823528875323149
20
-111
10
83.823528875323149
20
-115
10
79.823528875323163
20
-115
0
LWPOLYLINE
5
337
100
AcDbEntity
8
0
100
AcDbPolyline
90
4
70
1
43
0.0
10
67.352940640029033
20
-104.76470588235294
10
71.352940640029033
20
-104.76470588235294
10
71.352940640029033
20
-108.76470588235294
10
67.352940640029033
20
-108.76470588235294
0
LWPOLYLINE
5
338
100
AcDbEntity
8
0
100
AcDbPolyline
90
4
70
1
43
0.0
10
73.588234757676091
20
-104.76470588235294
10
77.588234757676105
20
-104.76470588235294
10
77.588234757676105
20
-108.76470588235294
10
73.588234757676091
20
-108.76470588235294
0
LWPOLYLINE
5
339
100
AcDbEntity
8
0
100
AcDbPolyline
90
4
70
1
43
0.0
10
79.823528875323163
20
-104.76470588235294
10
83.823528875323149
20
-104.76470588235294
10
83.823528875323149
20
-108.76470588235294
10
79.823528875323163
20
-108.76470588235294
0
LWPOLYLINE
5
340
100
AcDbEntity
8
0
100
AcDbPolyline
90
4
70
1
43
0.0
10
67.352940640029033
20
-98.52941176470587
10
71.352940640029033
20
-98.52941176470587
10
71.352940640029033
20
-102.52941176470587
10
67.352940640029033
20
-102.52941176470587
0
LWPOLYLINE
5
341
100
AcDbEntity
8
0
100
AcDbPolyline
90
4
70
1
43
0.0
10
73.588234757676091
20
-98.52941176470587
10
77.588234757676105
20
-98.52941176470587
10
77.588234757676105
20
-102.52941176470587
10
73.588234757676091
20
-102.52941176470587
0
LWPOLYLINE
5
342
100
AcDbEntity
8
0
100
AcDbPolyline
90
4
70
1
43
0.0
10
79.823528875323163
20
-98.52941176470587
10
83.823528875323149
20
-98.52941176470587
10
83.823528875323149
20
-102.52941176470587
10
79.823528875323163
20
-102.52941176470587
0
LWPOLYLINE
5
343
100
AcDbEntity
8
0
100
AcDbPolyline
90
4
70
1
43
0.0
10
67.352940640029033
20
-92.294117647058812
10
71.352940640029033
20
-92.294117647058812
10
71.352940640029033
20
-96.294117647058812
10
67.352940640029033
20
-96.294117647058812
0
LWPOLYLINE
5
344
100
AcDbEntity
8
0
100
AcDbPolyline
90
4
70
1
43
0.0
10
73.588234757676091
20
-92.294117647058812
10
77.588234757676105
20
-92.294117647058812
10
77.588234757676105
20
-96.294117647058812
10
73.588234757676091
20
-96.294117647058812
0
LWPOLYLINE
5
345
100
AcDbEntity
8
0
100
AcDbPolyline
90
4
70
1
43
0.0
10
79.823528875323163
20
-92.294117647058812
10
83.823528875323149
20
-92.294117647058812
10
83.823528875323149
20
-96.294117647058812
10
79.823528875323163
20
-96.294117647058812
0
LWPOLYLINE
5
346
100
AcDbEntity
8
0
100
AcDbPolyline
90
4
70
1
43
0.0
10
67.352940640029033
20
-86.058823529411768
10
71.352940640029033
20
-86.058823529411768
10
71.352940640029033
20
-90.058823529411768
10
67.352940640029033
20
-90.058823529411768
0
LWPOLYLINE
5
347
100
AcDbEntity
8
0
100
AcDbPolyline
90
4
70
1
43
0.0
10
73.588234757676091
20
-86.058823529411768
10
77.588234757676105
20
-86.058823529411768
10
77.588234757676105
20
-90.058823529411768
10
73.588234757676091
20
-90.058823529411768
0
LWPOLYLINE
5
348
100
AcDbEntity
8
0
100
AcDbPolyline
90
4
70
1
43
0.0
10
79.823528875323163
20
-86.058823529411768
10
83.823528875323149
20
-86.058823529411768
10
83.823528875323149
20
-90.058823529411768
10
79.823528875323163
20
-90.058823529411768
0
LWPOLYLINE
5
349
100
AcDbEntity
8
0
100
AcDbPolyline
90
4
70
1
43
0.0
10
67.352940640029033
20
-79.823529411764696
10
71.352940640029033
20
-79.823529411764696
10
71.352940640029033
20
-83.82352941176471
10
67.352940640029033
20
-83.82352941176471
0
LWPOLYLINE
5
350
100
AcDbEntity
8
0
100
AcDbPolyline
90
4
70
1
43
0.0
10
73.588234757676091
20
-79.823529411764696
10
77.588234757676105
20
-79.823529411764696
10
77.588234757676105
20
-83.82352941176471
10
73.588234757676091
20
-83.82352941176471
0
LWPOLYLINE
5
351
100
AcDbEntity
8
0
100
AcDbPolyline
90
4
70
1
43
0.0
10
79.823528875323163
20
-79.823529411764696
10
83.823528875323149
20
-79.823529411764696
10
83.823528875323149
20
-83.82352941176471
10
79.823528875323163
20
-83.82352941176471
0
LWPOLYLINE
5
352
100
AcDbEntity
8
0
100
AcDbPolyline
90
4
70
1
43
0.0
10
67.352940640029033
20
-73.588235294117638
10
71.352940640029033
20
-73.588235294117638
10
71.352940640029033
20
-77.588235294117638
10
67.352940640029033
20
-77.588235294117638
0
LWPOLYLINE
5
353
100
AcDbEntity
8
0
100
AcDbPolyline
90
4
70
1
43
0.0
10
73.588234757676091
20
-73.588235294117638
10
77.588234757676105
20
-73.588235294117638
10
77.588234757676105
20
-77.588235294117638
10
73.588234757676091
20
-77.588235294117638
0
LWPOLYLINE
5
354
100
AcDbEntity
8
0
100
AcDbPolyline
90
4
70
1
43
0.0
10
79.823528875323163
20
-73.588235294117638
10
83.823528875323149
20
-73.588235294117638
10
83.823528875323149
20
-77.588235294117638
10
79.823528875323163
20
-77.588235294117638
0
LWPOLYLINE
5
355
100
AcDbEntity
8
0
100
AcDbPolyline
90
4
70
1
43
0.0
10
67.352940640029033
20
-67.35294117647058
10
71.352940640029033
20
-67.35294117647058
10
71.352940640029033
20
-71.35294117647058
10
67.352940640029033
20
-71.35294117647058
0
LWPOLYLINE
5
356
100
AcDbEntity
8
0
100
AcDbPolyline
90
4
70
1
43
0.0
10
73.588234757676091
20
-67.35294117647058
10
77.588234757676105
20
-67.35294117647058
10
77.588234757676105
20
-71.35294117647058
10
73.588234757676091
20
-71.35294117647058
0
LWPOLYLINE
5
357
100
AcDbEntity
8
0
100
AcDbPolyline
90
4
70
1
43
0.0
10
79.823528875323163
20
-67.35294117647058
10
83.823528875323149
20
-67.35294117647058
10
83.823528875323149
20
-71.35294117647058
10
79.823528875323163
20
-71.35294117647058
0
LWPOLYLINE
5
358
100
AcDbEntity
8
0
100
AcDbPolyline
90
4
70
1
43
0.0
10
67.352940640029033
20
-61.117647058823515
10
71.352940640029033
20
-61.117647058823515
10
71.352940640029033
20
-65.117647058823522
10
67.352940640029033
20
-65.117647058823522
0
LWPOLYLINE
5
359
100
AcDbEntity
8
0
100
AcDbPolyline
90
4
70
1
43
0.0
10
73.588234757676091
20
-61.117647058823515
10
77.588234757676105
20
-61.117647058823515
10
77.588234757676105
20
-65.117647058823522
10
73.588234757676091
20
-65.117647058823522
0
LWPOLYLINE
5
360
100
AcDbEntity
8
0
100
AcDbPolyline
90
4
70
1
43
0.0
10
79.823528875323163
20
-61.117647058823515
10
83.823528875323149
20
-61.117647058823515
10
83.823528875323149
20
-65.117647058823522
10
79.823528875323163
20
-65.117647058823522
0
LWPOLYLINE
5
361
100
AcDbEntity
8
0
100
AcDbPolyline
90
4
70
1
43
0.0
10
79.823528875323163
20
-54.88235294117645
10
83.823528875323149
20
-54.88235294117645
10
83.823528875323149
20
-58.882352941176457
10
79.823528875323163
20
-58.882352941176457
0
LWPOLYLINE
5
362
100
AcDbEntity
8
0
100
AcDbPolyline
90
4
70
1
43
0.0
10
67.352940640029033
20
-54.88235294117645
10
71.352940640029033
20
-54.88235294117645
10
71.352940640029033
20
-58.882352941176457
10
67.352940640029033
20
-58.882352941176457
0
LWPOLYLINE
5
363
100
AcDbEntity
8
0
100
AcDbPolyline
90
4
70
1
43
0.0
10
73.588234757676091
20
-54.88235294117645
10
77.588234757676105
20
-54.88235294117645
10
77.588234757676105
20
-58.882352941176457
10
73.588234757676091
20
-58.882352941176457
0
LWPOLYLINE
5
364
100
AcDbEntity
8
0
100
AcDbPolyline
90
4
70
1
43
0.0
10
11.235293581205495
20
-111
10
15.235293581205497
20
-111
10
15.235293581205497
20
-115
10
11.235293581205495
20
-115
0
LWPOLYLINE
5
365
100
AcDbEntity
8
0
100
AcDbPolyline
90
4
70
1
43
0.0
10
17.470587698852555
20
-111
10
21.470587698852555
20
-111
10
21.470587698852555
20
-115
10
17.470587698852555
20
-115
0
LWPOLYLINE
5
366
100
AcDbEntity
8
0
100
AcDbPolyline
90
4
70
1
43
0.0
10
23.705881816499613
20
-111
10
27.70588181649962
20
-111
10
27.70588181649962
20
-115
10
23.705881816499613
20
-115
0
LWPOLYLINE
5
367
100
AcDbEntity
8
0
100
AcDbPolyline
90
4
70
1
43
0.0
10
29.941175934146674
20
-111
10
33.941175934146671
20
-111
10
33.941175934146671
20
-115
10
29.941175934146674
20
-115
0
LWPOLYLINE
5
368
100
AcDbEntity
8
0
100
AcDbPolyline
90
4
70
1
43
0.0
10
36.176470051793729
20
-111
10
40.176470051793736
20
-111
10
40.176470051793736
20
-115
10
36.176470051793729
20
-115
0
LWPOLYLINE
5
369
100
AcDbEntity
8
0
100
AcDbPolyline
90
4
70
1
43
0.0
10
42.411764169440794
20
-111
10
46.411764169440801
20
-111
10
46.411764169440801
20
-115
10
42.411764169440794
20
-115
0
LWPOLYLINE
5
370
100
AcDbEntity
8
0
100
AcDbPolyline
90
4
70
1
43
0.0
10
48.647058287087852
20
-111
10
52.647058287087852
20
-111
10
52.647058287087852
20
-115
10
48.647058287087852
20
-115
0
LWPOLYLINE
5
371
100
AcDbEntity
8
0
100
AcDbPolyline
90
4
70
1
43
0.0
10
4.9999994635584351
20
-104.76470588235294
10
8.9999994635584351
20
-104.76470588235294
10
8.9999994635584351
20
-108.76470588235294
10
4.9999994635584351
20
-108.76470588235294
0
LWPOLYLINE
5
372
100
AcDbEntity
8
0
100
AcDbPolyline
90
4
70
1
43
0.0
10
11.235293581205495
20
-104.76470588235294
10
15.235293581205497
20
-104.76470588235294
10
15.235293581205497
20
-108.76470588235294
10
11.235293581205495
20
-108.76470588235294
0
LWPOLYLINE
5
373
100
AcDbEntity
8
0
100
AcDbPolyline
90
4
70
1
43
0.0
10
17.470587698852555
20
-104.76470588235294
10
21.470587698852555
20
-104.76470588235294
10
21.470587698852555
20
-108.76470588235294
10
17.470587698852555
20
-108.76470588235294
0
LWPOLYLINE
5
374
100
AcDbEntity
8
0
100
AcDbPolyline
90
4
70
1
43
0.0
10
23.705881816499613
20
-104.76470588235294
10
27.70588181649962
20
-104.76470588235294
10
27.70588181649962
20
-108.76470588235294
10
23.705881816499613
20
-108.76470588235294
0
LWPOLYLINE
5
375
100
AcDbEntity
8
0
100
AcDbPolyline
90
4
70
1
43
0.0
10
29.941175934146674
20
-104.76470588235294
10
33.941175934146671
20
-104.76470588235294
10
33.941175934146671
20
-108.76470588235294
10
29.941175934146674
20
-108.76470588235294
0
LWPOLYLINE
5
376
100
AcDbEntity
8
0
100
AcDbPolyline
90
4
70
1
43
0.0
10
36.176470051793729
20
-104.76470588235294
10
40.176470051793736
20
-104.76470588235294
10
40.176470051793736
20
-108.76470588235294
10
36.176470051793729
20
-108.76470588235294
0
LWPOLYLINE
5
377
100
AcDbEntity
8
0
100
AcDbPolyline
90
4
70
1
43
0.0
10
17.470587698852555
20
-98.52941176470587
10
21.470587698852555
20
-98.52941176470587
10
21.470587698852555
20
-102.52941176470587
10
17.470587698852555
20
-102.52941176470587
0
LWPOLYLINE
5
378
100
AcDbEntity
8
0
100
AcDbPolyline
90
4
70
1
43
0.0
10
42.411764169440794
20
-104.76470588235294
10
46.411764169440801
20
-104.76470588235294
10
46.411764169440801
20
-108.76470588235294
10
42.411764169440794
20
-108.76470588235294
0
LWPOLYLINE
5
379
100
AcDbEntity
8
0
100
AcDbPolyline
90
4
70
1
43
0.0
10
11.235293581205495
20
-98.52941176470587
10
15.235293581205497
20
-98.52941176470587
10
15.235293581205497
20
-102.52941176470587
10
11.235293581205495
20
-102.52941176470587
0
LWPOLYLINE
5
380
100
AcDbEntity
8
0
100
AcDbPolyline
90
4
70
1
43
0.0
10
48.647058287087852
20
-104.76470588235294
10
52.647058287087852
20
-104.76470588235294
10
52.647058287087852
20
-108.76470588235294
10
48.647058287087852
20
-108.76470588235294
0
LWPOLYLINE
5
381
100
AcDbEntity
8
0
100
AcDbPolyline
90
4
70
1
43
0.0
10
4.9999994635584351
20
-98.52941176470587
10
8.9999994635584351
20
-98.52941176470587
10
8.9999994635584351
20
-102.52941176470587
10
4.9999994635584351
20
-102.52941176470587
0
LWPOLYLINE
5
382
100
AcDbEntity
8
0
100
AcDbPolyline
90
4
70
1
43
0.0
10
4.9999994635584351
20
-92.294117647058812
10
8.9999994635584351
20
-92.294117647058812
10
8.9999994635584351
20
-96.294117647058812
10
4.9999994635584351
20
-96.294117647058812
0
LWPOLYLINE
5
383
100
AcDbEntity
8
0
100
AcDbPolyline
90
4
70
1
43
0.0
10
11.235293581205495
20
-92.294117647058812
10
15.235293581205497
20
-92.294117647058812
10
15.235293581205497
20
-96.294117647058812
10
11.235293581205495
20
-96.294117647058812
0
LWPOLYLINE
5
384
100
AcDbEntity
8
0
100
AcDbPolyline
90
4
70
1
43
0.0
10
23.705881816499613
20
-92.294117647058812
10
27.70588181649962
20
-92.294117647058812
10
27.70588181649962
20
-96.294117647058812
10
23.705881816499613
20
-96.294117647058812
0
LWPOLYLINE
5
385
100
AcDbEntity
8
0
100
AcDbPolyline
90
4
70
1
43
0.0
10
36.176470051793729
20
-92.294117647058812
10
40.176470051793736
20
-92.294117647058812
10
40.176470051793736
20
-96.294117647058812
10
36.176470051793729
20
-96.294117647058812
0
LWPOLYLINE
5
386
100
AcDbEntity
8
0
100
AcDbPolyline
90
4
70
1
43
0.0
10
29.941175934146674
20
-92.294117647058812
10
33.941175934146671
20
-92.294117647058812
10
33.941175934146671
20
-96.294117647058812
10
29.941175934146674
20
-96.294117647058812
0
LWPOLYLINE
5
387
100
AcDbEntity
8
0
100
AcDbPolyline
90
4
70
1
43
0.0
10
48.647058287087852
20
-98.52941176470587
10
52.647058287087852
20
-98.52941176470587
10
52.647058287087852
20
-102.52941176470587
10
48.647058287087852
20
-102.52941176470587
0
LWPOLYLINE
5
388
100
AcDbEntity
8
0
100
AcDbPolyline
90
4
70
1
43
0.0
10
17.470587698852555
20
-92.294117647058812
10
21.470587698852555
20
-92.294117647058812
10
21.470587698852555
20
-96.294117647058812
10
17.470587698852555
20
-96.294117647058812
0
LWPOLYLINE
5
389
100
AcDbEntity
8
0
100
AcDbPolyline
90
4
70
1
43
0.0
10
42.411764169440794
20
-92.294117647058812
10
46.411764169440801
20
-92.294117647058812
10
46.411764169440801
20
-96.294117647058812
10
42.411764169440794
20
-96.294117647058812
0
LWPOLYLINE
5
390
100
AcDbEntity
8
0
100
AcDbPolyline
90
4
70
1
43
0.0
10
4.9999994635584351
20
-111
10
8.9999994635584351
20
-111
10
8.9999994635584351
20
-115
10
4.9999994635584351
20
-115
0
LWPOLYLINE
5
391
100
AcDbEntity
8
0
100
AcDbPolyline
90
4
70
1
43
0.0
10
29.941175934146674
20
-98.52941176470587
10
33.941175934146671
20
-98.52941176470587
10
33.941175934146671
20
-102.52941176470587
10
29.941175934146674
20
-102.52941176470587
0
LWPOLYLINE
5
392
100
AcDbEntity
8
0
100
AcDbPolyline
90
4
70
1
43
0.0
10
23.705881816499613
20
-98.52941176470587
10
27.70588181649962
20
-98.52941176470587
10
27.70588181649962
20
-102.52941176470587
10
23.705881816499613
20
-102.52941176470587
0
LWPOLYLINE
5
393
100
AcDbEntity
8
0
100
AcDbPolyline
90
4
70
1
43
0.0
10
42.411764169440794
20
-98.52941176470587
10
46.411764169440801
20
-98.52941176470587
10
46.411764169440801
20
-102.52941176470587
10
42.411764169440794
20
-102.52941176470587
0
LWPOLYLINE
5
394
100
AcDbEntity
8
0
100
AcDbPolyline
90
4
70
1
43
0.0
10
36.176470051793729
20
-98.52941176470587
10
40.176470051793736
20
-98.52941176470587
10
40.176470051793736
20
-102.52941176470587
10
36.176470051793729
20
-102.52941176470587
0
LWPOLYLINE
5
395
100
AcDbEntity
8
0
100
AcDbPolyline
90
4
70
1
43
0.0
10
4.9999994635584351
20
-73.588235294117638
10
8.9999994635584351
20
-73.588235294117638
10
8.9999994635584351
20
-77.588235294117638
10
4.9999994635584351
20
-77.588235294117638
0
LWPOLYLINE
5
396
100
AcDbEntity
8
0
100
AcDbPolyline
90
4
70
1
43
0.0
10
48.647058287087852
20
-79.823529411764696
10
52.647058287087852
20
-79.823529411764696
10
52.647058287087852
20
-83.82352941176471
10
48.647058287087852
20
-83.82352941176471
0
LWPOLYLINE
5
397
100
AcDbEntity
8
0
100
AcDbPolyline
90
4
70
1
43
0.0
10
42.411764169440794
20
-79.823529411764696
10
46.411764169440801
20
-79.823529411764696
10
46.411764169440801
20
-83.82352941176471
10
42.411764169440794
20
-83.82352941176471
0
LWPOLYLINE
5
398
100
AcDbEntity
8
0
100
AcDbPolyline
90
4
70
1
43
0.0
10
36.176470051793729
20
-79.823529411764696
10
40.176470051793736
20
-79.823529411764696
10
40.176470051793736
20
-83.82352941176471
10
36.176470051793729
20
-83.82352941176471
0
LWPOLYLINE
5
399
100
AcDbEntity
8
0
100
AcDbPolyline
90
4
70
1
43
0.0
10
29.941175934146674
20
-79.823529411764696
10
33.941175934146671
20
-79.823529411764696
10
33.941175934146671
20
-83.82352941176471
10
29.941175934146674
20
-83.82352941176471
0
LWPOLYLINE
5
400
100
AcDbEntity
8
0
100
AcDbPolyline
90
4
70
1
43
0.0
10
23.705881816499613
20
-79.823529411764696
10
27.70588181649962
20
-79.823529411764696
10
27.70588181649962
20
-83.82352941176471
10
23.705881816499613
20
-83.82352941176471
0
LWPOLYLINE
5
401
100
AcDbEntity
8
0
100
AcDbPolyline
90
4
70
1
43
0.0
10
17.470587698852555
20
-79.823529411764696
10
21.470587698852555
20
-79.823529411764696
10
21.470587698852555
20
-83.82352941176471
10
17.470587698852555
20
-83.82352941176471
0
LWPOLYLINE
5
402
100
AcDbEntity
8
0
100
AcDbPolyline
90
4
70
1
43
0.0
10
11.235293581205495
20
-79.823529411764696
10
15.235293581205497
20
-79.823529411764696
10
15.235293581205497
20
-83.82352941176471
10
11.235293581205495
20
-83.82352941176471
0
LWPOLYLINE
5
403
100
AcDbEntity
8
0
100
AcDbPolyline
90
4
70
1
43
0.0
10
4.9999994635584351
20
-79.823529411764696
10
8.9999994635584351
20
-79.823529411764696
10
8.9999994635584351
20
-83.82352941176471
10
4.9999994635584351
20
-83.82352941176471
0
LWPOLYLINE
5
404
100
AcDbEntity
8
0
100
AcDbPolyline
90
4
70
1
43
0.0
10
48.647058287087852
20
-86.058823529411768
10
52.647058287087852
20
-86.058823529411768
10
52.647058287087852
20
-90.058823529411768
10
48.647058287087852
20
-90.058823529411768
0
LWPOLYLINE
5
405
100
AcDbEntity
8
0
100
AcDbPolyline
90
4
70
1
43
0.0
10
42.411764169440794
20
-86.058823529411768
10
46.411764169440801
20
-86.058823529411768
10
46.411764169440801
20
-90.058823529411768
10
42.411764169440794
20
-90.058823529411768
0
LWPOLYLINE
5
406
100
AcDbEntity
8
0
100
AcDbPolyline
90
4
70
1
43
0.0
10
36.176470051793729
20
-86.058823529411768
10
40.176470051793736
20
-86.058823529411768
10
40.176470051793736
20
-90.058823529411768
10
36.176470051793729
20
-90.058823529411768
0
LWPOLYLINE
5
407
100
AcDbEntity
8
0
100
AcDbPolyline
90
4
70
1
43
0.0
10
29.941175934146674
20
-86.058823529411768
10
33.941175934146671
20
-86.058823529411768
10
33.941175934146671
20
-90.058823529411768
10
29.941175934146674
20
-90.058823529411768
0
LWPOLYLINE
5
408
100
AcDbEntity
8
0
100
AcDbPolyline
90
4
70
1
43
0.0
10
48.647058287087852
20
-92.294117647058812
10
52.647058287087852
20
-92.294117647058812
10
52.647058287087852
20
-96.294117647058812
10
48.647058287087852
20
-96.294117647058812
0
LWPOLYLINE
5
409
100
AcDbEntity
8
0
100
AcDbPolyline
90
4
70
1
43
0.0
10
4.9999994635584351
20
-86.058823529411768
10
8.9999994635584351
20
-86.058823529411768
10
8.9999994635584351
20
-90.058823529411768
10
4.9999994635584351
20
-90.058823529411768
0
LWPOLYLINE
5
410
100
AcDbEntity
8
0
100
AcDbPolyline
90
4
70
1
43
0.0
10
11.235293581205495
20
-86.058823529411768
10
15.235293581205497
20
-86.058823529411768
10
15.235293581205497
20
-90.058823529411768
10
11.235293581205495
20
-90.058823529411768
0
LWPOLYLINE
5
411
100
AcDbEntity
8
0
100
AcDbPolyline
90
4
70
1
43
0.0
10
17.470587698852555
20
-86.058823529411768
10
21.470587698852555
20
-86.058823529411768
10
21.470587698852555
20
-90.058823529411768
10
17.470587698852555
20
-90.058823529411768
0
LWPOLYLINE
5
412
100
AcDbEntity
8
0
100
AcDbPolyline
90
4
70
1
43
0.0
10
23.705881816499613
20
-86.058823529411768
10
27.70588181649962
20
-86.058823529411768
10
27.70588181649962
20
-90.058823529411768
10
23.705881816499613
20
-90.058823529411768
0
LWPOLYLINE
5
413
100
AcDbEntity
8
0
100
AcDbPolyline
90
4
70
1
43
0.0
10
11.235293581205495
20
-67.35294117647058
10
15.235293581205497
20
-67.35294117647058
10
15.235293581205497
20
-71.35294117647058
10
11.235293581205495
20
-71.35294117647058
0
LWPOLYLINE
5
414
100
AcDbEntity
8
0
100
AcDbPolyline
90
4
70
1
43
0.0
10
4.9999994635584351
20
-67.35294117647058
10
8.9999994635584351
20
-67.35294117647058
10
8.9999994635584351
20
-71.35294117647058
10
4.9999994635584351
20
-71.35294117647058
0
LWPOLYLINE
5
415
100
AcDbEntity
8
0
100
AcDbPolyline
90
4
70
1
43
0.0
10
17.470587698852555
20
-67.35294117647058
10
21.470587698852555
20
-67.35294117647058
10
21.470587698852555
20
-71.35294117647058
10
17.470587698852555
20
-71.35294117647058
0
LWPOLYLINE
5
416
100
AcDbEntity
8
0
100
AcDbPolyline
90
4
70
1
43
0.0
10
48.647058287087852
20
-73.588235294117638
10
52.647058287087852
20
-73.588235294117638
10
52.647058287087852
20
-77.588235294117638
10
48.647058287087852
20
-77.588235294117638
0
LWPOLYLINE
5
417
100
AcDbEntity
8
0
100
AcDbPolyline
90
4
70
1
43
0.0
10
23.705881816499613
20
-67.35294117647058
10
27.70588181649962
20
-67.35294117647058
10
27.70588181649962
20
-71.35294117647058
10
23.705881816499613
20
-71.35294117647058
0
LWPOLYLINE
5
418
100
AcDbEntity
8
0
100
AcDbPolyline
90
4
70
1
43
0.0
10
42.411764169440794
20
-73.588235294117638
10
46.411764169440801
20
-73.588235294117638
10
46.411764169440801
20
-77.588235294117638
10
42.411764169440794
20
-77.588235294117638
0
LWPOLYLINE
5
419
100
AcDbEntity
8
0
100
AcDbPolyline
90
4
70
1
43
0.0
10
36.176470051793729
20
-73.588235294117638
10
40.176470051793736
20
-73.588235294117638
10
40.176470051793736
20
-77.588235294117638
10
36.176470051793729
20
-77.588235294117638
0
LWPOLYLINE
5
420
100
AcDbEntity
8
0
100
AcDbPolyline
90
4
70
1
43
0.0
10
29.941175934146674
20
-73.588235294117638
10
33.941175934146671
20
-73.588235294117638
10
33.941175934146671
20
-77.588235294117638
10
29.941175934146674
20
-77.588235294117638
0
LWPOLYLINE
5
421
100
AcDbEntity
8
0
100
AcDbPolyline
90
4
70
1
43
0.0
10
23.705881816499613
20
-73.588235294117638
10
27.70588181649962
20
-73.588235294117638
10
27.70588181649962
20
-77.588235294117638
10
23.705881816499613
20
-77.588235294117638
0
LWPOLYLINE
5
422
100
AcDbEntity
8
0
100
AcDbPolyline
90
4
70
1
43
0.0
10
17.470587698852555
20
-73.588235294117638
10
21.470587698852555
20
-73.588235294117638
10
21.470587698852555
20
-77.588235294117638
10
17.470587698852555
20
-77.588235294117638
0
LWPOLYLINE
5
423
100
AcDbEntity
8
0
100
AcDbPolyline
90
4
70
1
43
0.0
10
11.235293581205495
20
-73.588235294117638
10
15.235293581205497
20
-73.588235294117638
10
15.235293581205497
20
-77.588235294117638
10
11.235293581205495
20
-77.588235294117638
0
LWPOLYLINE
5
424
100
AcDbEntity
8
0
100
AcDbPolyline
90
100
70
1
43
0.0
10
65
20
0
10
55
20
0
10
55
20
3.0000000000000071
10
45
20
3.0000000000000071
10
45
20
0
10
35
20
0
10
35
20
3.0000000000000071
10
25
20
3.0000000000000071
10
25
20
0
10
15
20
0
10
15
20
3.0000000000000071
10
5
20
3.0000000000000071
10
5
20
0
10
0
20
0
10
0
20
-5.0000015646219254
10
-3.0000000447034836
20
-5.0000015646219254
10
-3.0000000447034836
20
-15.000001713633537
10
0
20
-15.000001713633537
10
0
20
-25.000001564621925
10
-3.0000000447034836
20
-25.000001564621925
10
-3.0000000447034836
20
-35.000001713633537
10
0
20
-35.000001713633537
10
0
20
-45.000001564621925
10
-3.0000000447034836
20
-45.000001564621925
10
-3.0000000447034836
20
-55.000001713633537
10
0
20
-55.000001713633537
10
0
20
-65.000001564621925
10
-3.0000000447034836
20
-65.000001564621925
10
-3.0000000447034836
20
-75.000001713633537
10
0
20
-75.000001713633537
10
0
20
-85.000001564621925
10
-3.0000000447034836
20
-85.000001564621925
10
-3.0000000447034836
20
-95.000001713633537
10
0
20
-95.000001713633537
10
0
20
-105.00000156462193
10
-3.0000000447034836
20
-105.00000156462193
10
-3.0000000447034836
20
-115.00000171363354
10
0
20
-115.00000171363354
10
0
20
-120
10
5
20
-120
10
5
20
-123
10
15
20
-123
10
15
20
-120
10
25
20
-120
10
25
20
-123
10
35
20
-123
10
35
20
-120
10
45
20
-120
10
45
20
-123
10
55
20
-123
10
55
20
-120
10
65
20
-120
10
65
20
-123
10
75
20
-123
10
75
20
-120
10
85
20
-120
10
85
20
-123
10
95
20
-123
10
95
20
-120
10
105
20
-120
10
105
20
-123
10
115
20
-123
10
115
20
-120
10
120
20
-120
10
119.99999995529652
20
-115.00000171363354
10
123
20
-115.00000171363354
10
123
20
-105.00000156462193
10
119.99999995529652
20
-105.00000156462193
10
119.99999995529652
20
-95.000001713633537
10
123
20
-95.000001713633537
10
123
20
-85.000001564621925
10
119.99999995529652
20
-85.000001564621925
10
119.99999995529652
20
-75.000001713633537
10
123
20
-75.000001713633537
10
123
20
-65.000001564621925
10
119.99999995529652
20
-65.000001564621925
10
119.99999995529652
20
-55.000001713633537
10
123
20
-55.000001713633537
10
123
20
-45.000001564621925
10
119.99999995529652
20
-45.000001564621925
10
119.99999995529652
20
-35.000001713633537
10
123
20
-35.000001713633537
10
123
20
-25.000001564621925
10
119.99999995529652
20
-25.000001564621925
10
119.99999995529652
20
-15.000001713633537
10
123
20
-15.000001713633537
10
123
20
-5.0000015646219254
10
119.99999995529652
20
-5.0000015646219254
10
120
20
0
10
115
20
0
10
115
20
3.0000000000000071
10
105
20
3.0000000000000071
10
105
20
0
10
95
20
0
10
95
20
3.0000000000000071
10
85
20
3.0000000000000071
10
85
20
0
10
75
20
0
10
75
20
3.0000000000000071
10
65
20
3.0000000000000071
0
ENDSEC
0
SECTION
2
OBJECTS
0
DICTIONARY
5
C
100
AcDbDictionary
3
ACAD_GROUP
350
D
3
ACAD_MLINESTYLE
350
17
0
DICTIONARY
5
D
100
AcDbDictionary
0
DICTIONARY
5
1A
330
C
100
AcDbDictionary
0
DICTIONARY
5
17
100
AcDbDictionary
0
ENDSEC
0
EOF
