0
SECTION
2
HEADER
9
$INSUNITS
70
4
9
$ACADVER
1
AC1014
9
$HANDSEED
5
FFFF
0
ENDSEC
0
SECTION
2
TABLES
0
TABLE
2
VPORT
5
8
100
AcDbSymbolTable
0
ENDTAB
0
TABLE
2
LTYPE
5
5
100
AcDbSymbolTable
0
LTYPE
5
14
100
AcDbSymbolTableRecord
100
AcDbLinetypeTableRecord
2
BYBLOCK
70
0
0
LTYPE
5
15
100
AcDbSymbolTableRecord
100
AcDbLinetypeTableRecord
2
BYLAYER
70
0
0
ENDTAB
0
TABLE
2
LAYER
5
2
100
AcDbSymbolTable
70
2
0
LAYER
5
50
100
AcDbSymbolTableRecord
100
AcDbLayerTableRecord
2
0
70
0
6
CONTINUOUS
0
ENDTAB
0
TABLE
2
STYLE
5
3
100
AcDbSymbolTable
70
1
0
STYLE
5
11
100
AcDbSymbolTableRecord
100
AcDbTextStyleTableRecord
2
STANDARD
70
0
0
ENDTAB
0
TABLE
2
VIEW
5
6
100
AcDbSymbolTable
70
0
0
ENDTAB
0
TABLE
2
UCS
5
7
100
AcDbSymbolTable
70
0
0
ENDTAB
0
TABLE
2
APPID
5
9
100
AcDbSymbolTable
70
2
0
APPID
5
12
100
AcDbSymbolTableRecord
100
AcDbRegAppTableRecord
2
ACAD
70
0
0
ENDTAB
0
TABLE
2
DIMSTYLE
5
A
100
AcDbSymbolTable
70
1
0
ENDTAB
0
TABLE
2
BLOCK_RECORD
5
1
100
AcDbSymbolTable
70
1
0
BLOCK_RECORD
5
1F
100
AcDbSymbolTableRecord
100
AcDbBlockTableRecord
2
*MODEL_SPACE
0
BLOCK_RECORD
5
1B
100
AcDbSymbolTableRecord
100
AcDbBlockTableRecord
2
*PAPER_SPACE
0
ENDTAB
0
ENDSEC
0
SECTION
2
BLOCKS
0
BLOCK
5
20
100
AcDbEntity
100
AcDbBlockBegin
2
*MODEL_SPACE
0
ENDBLK
5
21
100
AcDbEntity
100
AcDbBlockEnd
0
BLOCK
5
1C
100
AcDbEntity
100
AcDbBlockBegin
2
*PAPER_SPACE
0
ENDBLK
5
1D
100
AcDbEntity
100
AcDbBlockEnd
0
ENDSEC
0
SECTION
2
ENTITIES
0
LWPOLYLINE
5
100
100
AcDbEntity
8
0
100
AcDbPolyline
90
4
70
1
43
0.0
10
5
20
-109
10
11
20
-109
10
11
20
-115
10
5
20
-115
0
LWPOLYLINE
5
101
100
AcDbEntity
8
0
100
AcDbPolyline
90
4
70
1
43
0.0
10
31
20
-109
10
37
20
-109
10
37
20
-115
10
31
20
-115
0
LWPOLYLINE
5
102
100
AcDbEntity
8
0
100
AcDbPolyline
90
4
70
1
43
0.0
10
39.666666666666671
20
-109
10
45.666666666666664
20
-109
10
45.666666666666664
20
-115
10
39.666666666666671
20
-115
0
LWPOLYLINE
5
103
100
AcDbEntity
8
0
100
AcDbPolyline
90
4
70
1
43
0.0
10
48.333333333333343
20
-109
10
54.333333333333336
20
-109
10
54.333333333333336
20
-115
10
48.333333333333343
20
-115
0
LWPOLYLINE
5
104
100
AcDbEntity
8
0
100
AcDbPolyline
90
4
70
1
43
0.0
10
57
20
-109
10
63.000000000000007
20
-109
10
63.000000000000007
20
-115
10
57
20
-115
0
LWPOLYLINE
5
105
100
AcDbEntity
8
0
100
AcDbPolyline
90
4
70
1
43
0.0
10
65.666666666666657
20
-109
10
71.666666666666657
20
-109
10
71.666666666666657
20
-115
10
65.666666666666657
20
-115
0
LWPOLYLINE
5
106
100
AcDbEntity
8
0
100
AcDbPolyline
90
4
70
1
43
0.0
10
5
20
-100.33333333333333
10
11
20
-100.33333333333333
10
11
20
-106.33333333333333
10
5
20
-106.33333333333333
0
LWPOLYLINE
5
107
100
AcDbEntity
8
0
100
AcDbPolyline
90
4
70
1
43
0.0
10
13.666666666666668
20
-100.33333333333333
10
19.666666666666668
20
-100.33333333333333
10
19.666666666666668
20
-106.33333333333333
10
13.666666666666668
20
-106.33333333333333
0
LWPOLYLINE
5
108
100
AcDbEntity
8
0
100
AcDbPolyline
90
4
70
1
43
0.0
10
22.333333333333336
20
-100.33333333333333
10
28.333333333333336
20
-100.33333333333333
10
28.333333333333336
20
-106.33333333333333
10
22.333333333333336
20
-106.33333333333333
0
LWPOLYLINE
5
109
100
AcDbEntity
8
0
100
AcDbPolyline
90
4
70
1
43
0.0
10
31
20
-100.33333333333333
10
37
20
-100.33333333333333
10
37
20
-106.33333333333333
10
31
20
-106.33333333333333
0
LWPOLYLINE
5
110
100
AcDbEntity
8
0
100
AcDbPolyline
90
4
70
1
43
0.0
10
39.666666666666671
20
-100.33333333333333
10
45.666666666666664
20
-100.33333333333333
10
45.666666666666664
20
-106.33333333333333
10
39.666666666666671
20
-106.33333333333333
0
LWPOLYLINE
5
111
100
AcDbEntity
8
0
100
AcDbPolyline
90
4
70
1
43
0.0
10
48.333333333333343
20
-100.33333333333333
10
54.333333333333336
20
-100.33333333333333
10
54.333333333333336
20
-106.33333333333333
10
48.333333333333343
20
-106.33333333333333
0
LWPOLYLINE
5
112
100
AcDbEntity
8
0
100
AcDbPolyline
90
4
70
1
43
0.0
10
57
20
-100.33333333333333
10
63.000000000000007
20
-100.33333333333333
10
63.000000000000007
20
-106.33333333333333
10
57
20
-106.33333333333333
0
LWPOLYLINE
5
113
100
AcDbEntity
8
0
100
AcDbPolyline
90
4
70
1
43
0.0
10
65.666666666666657
20
-100.33333333333333
10
71.666666666666657
20
-100.33333333333333
10
71.666666666666657
20
-106.33333333333333
10
65.666666666666657
20
-106.33333333333333
0
LWPOLYLINE
5
114
100
AcDbEntity
8
0
100
AcDbPolyline
90
4
70
1
43
0.0
10
5
20
-91.666666666666686
10
11
20
-91.666666666666686
10
11
20
-97.666666666666657
10
5
20
-97.666666666666671
0
LWPOLYLINE
5
115
100
AcDbEntity
8
0
100
AcDbPolyline
90
4
70
1
43
0.0
10
48.333333333333343
20
-91.666666666666686
10
54.333333333333336
20
-91.666666666666686
10
54.333333333333336
20
-97.666666666666657
10
48.333333333333343
20
-97.666666666666671
0
LWPOLYLINE
5
116
100
AcDbEntity
8
0
100
AcDbPolyline
90
4
70
1
43
0.0
10
13.666666666666668
20
-91.666666666666686
10
19.666666666666668
20
-91.666666666666686
10
19.666666666666668
20
-97.666666666666657
10
13.666666666666668
20
-97.666666666666671
0
LWPOLYLINE
5
117
100
AcDbEntity
8
0
100
AcDbPolyline
90
4
70
1
43
0.0
10
39.666666666666671
20
-91.666666666666686
10
45.666666666666664
20
-91.666666666666686
10
45.666666666666664
20
-97.666666666666657
10
39.666666666666671
20
-97.666666666666671
0
LWPOLYLINE
5
118
100
AcDbEntity
8
0
100
AcDbPolyline
90
4
70
1
43
0.0
10
22.333333333333336
20
-91.666666666666686
10
28.333333333333336
20
-91.666666666666686
10
28.333333333333336
20
-97.666666666666657
10
22.333333333333336
20
-97.666666666666671
0
LWPOLYLINE
5
119
100
AcDbEntity
8
0
100
AcDbPolyline
90
4
70
1
43
0.0
10
31
20
-91.666666666666686
10
37
20
-91.666666666666686
10
37
20
-97.666666666666657
10
31
20
-97.666666666666671
0
LWPOLYLINE
5
120
100
AcDbEntity
8
0
100
AcDbPolyline
90
4
70
1
43
0.0
10
22.333333333333336
20
-109
10
28.333333333333336
20
-109
10
28.333333333333336
20
-115
10
22.333333333333336
20
-115
0
LWPOLYLINE
5
121
100
AcDbEntity
8
0
100
AcDbPolyline
90
4
70
1
43
0.0
10
13.666666666666668
20
-109
10
19.666666666666668
20
-109
10
19.666666666666668
20
-115
10
13.666666666666668
20
-115
0
LWPOLYLINE
5
122
100
AcDbEntity
8
0
100
AcDbPolyline
90
4
70
1
43
0.0
10
74.333333333333343
20
-13.666666666666671
10
80.333333333333329
20
-13.666666666666671
10
80.333333333333329
20
-19.666666666666668
10
74.333333333333343
20
-19.666666666666668
0
LWPOLYLINE
5
123
100
AcDbEntity
8
0
100
AcDbPolyline
90
4
70
1
43
0.0
10
83
20
-13.666666666666671
10
89
20
-13.666666666666671
10
89
20
-19.666666666666668
10
83
20
-19.666666666666668
0
LWPOLYLINE
5
124
100
AcDbEntity
8
0
100
AcDbPolyline
90
4
70
1
43
0.0
10
91.666666666666686
20
-13.666666666666671
10
97.666666666666671
20
-13.666666666666671
10
97.666666666666671
20
-19.666666666666668
10
91.666666666666686
20
-19.666666666666668
0
LWPOLYLINE
5
125
100
AcDbEntity
8
0
100
AcDbPolyline
90
4
70
1
43
0.0
10
100.33333333333333
20
-13.666666666666671
10
106.33333333333333
20
-13.666666666666671
10
106.33333333333333
20
-19.666666666666668
10
100.33333333333333
20
-19.666666666666668
0
LWPOLYLINE
5
126
100
AcDbEntity
8
0
100
AcDbPolyline
90
4
70
1
43
0.0
10
109
20
-13.666666666666671
10
115
20
-13.666666666666671
10
115
20
-19.666666666666668
10
109
20
-19.666666666666668
0
LWPOLYLINE
5
127
100
AcDbEntity
8
0
100
AcDbPolyline
90
4
70
1
43
0.0
10
5
20
-5
10
11
20
-5
10
11
20
-10.999999999999996
10
5
20
-10.999999999999996
0
LWPOLYLINE
5
128
100
AcDbEntity
8
0
100
AcDbPolyline
90
4
70
1
43
0.0
10
13.666666666666668
20
-5
10
19.666666666666668
20
-5
10
19.666666666666668
20
-10.999999999999996
10
13.666666666666668
20
-10.999999999999996
0
LWPOLYLINE
5
129
100
AcDbEntity
8
0
100
AcDbPolyline
90
4
70
1
43
0.0
10
22.333333333333336
20
-5
10
28.333333333333336
20
-5
10
28.333333333333336
20
-10.999999999999996
10
22.333333333333336
20
-10.999999999999996
0
LWPOLYLINE
5
130
100
AcDbEntity
8
0
100
AcDbPolyline
90
4
70
1
43
0.0
10
31
20
-5
10
37
20
-5
10
37
20
-10.999999999999996
10
31
20
-10.999999999999996
0
LWPOLYLINE
5
131
100
AcDbEntity
8
0
100
AcDbPolyline
90
4
70
1
43
0.0
10
39.666666666666671
20
-5
10
45.666666666666664
20
-5
10
45.666666666666664
20
-10.999999999999996
10
39.666666666666671
20
-10.999999999999996
0
LWPOLYLINE
5
132
100
AcDbEntity
8
0
100
AcDbPolyline
90
4
70
1
43
0.0
10
48.333333333333343
20
-5
10
54.333333333333336
20
-5
10
54.333333333333336
20
-10.999999999999996
10
48.333333333333343
20
-10.999999999999996
0
LWPOLYLINE
5
133
100
AcDbEntity
8
0
100
AcDbPolyline
90
4
70
1
43
0.0
10
57
20
-5
10
63.000000000000007
20
-5
10
63.000000000000007
20
-10.999999999999996
10
57
20
-10.999999999999996
0
LWPOLYLINE
5
134
100
AcDbEntity
8
0
100
AcDbPolyline
90
4
70
1
43
0.0
10
65.666666666666657
20
-5
10
71.666666666666657
20
-5
10
71.666666666666657
20
-10.999999999999996
10
65.666666666666657
20
-10.999999999999996
0
LWPOLYLINE
5
135
100
AcDbEntity
8
0
100
AcDbPolyline
90
4
70
1
43
0.0
10
74.333333333333343
20
-5
10
80.333333333333329
20
-5
10
80.333333333333329
20
-10.999999999999996
10
74.333333333333343
20
-10.999999999999996
0
LWPOLYLINE
5
136
100
AcDbEntity
8
0
100
AcDbPolyline
90
4
70
1
43
0.0
10
83
20
-5
10
89
20
-5
10
89
20
-10.999999999999996
10
83
20
-10.999999999999996
0
LWPOLYLINE
5
137
100
AcDbEntity
8
0
100
AcDbPolyline
90
4
70
1
43
0.0
10
91.666666666666686
20
-5
10
97.666666666666671
20
-5
10
97.666666666666671
20
-10.999999999999996
10
91.666666666666686
20
-10.999999999999996
0
LWPOLYLINE
5
138
100
AcDbEntity
8
0
100
AcDbPolyline
90
4
70
1
43
0.0
10
100.33333333333333
20
-5
10
106.33333333333333
20
-5
10
106.33333333333333
20
-10.999999999999996
10
100.33333333333333
20
-10.999999999999996
0
LWPOLYLINE
5
139
100
AcDbEntity
8
0
100
AcDbPolyline
90
4
70
1
43
0.0
10
109
20
-5
10
115
20
-5
10
115
20
-10.999999999999996
10
109
20
-10.999999999999996
0
LWPOLYLINE
5
140
100
AcDbEntity
8
0
100
AcDbPolyline
90
4
70
1
43
0.0
10
65.666666666666657
20
-91.666666666666686
10
71.666666666666657
20
-91.666666666666686
10
71.666666666666657
20
-97.666666666666657
10
65.666666666666657
20
-97.666666666666671
0
LWPOLYLINE
5
141
100
AcDbEntity
8
0
100
AcDbPolyline
90
4
70
1
43
0.0
10
57
20
-91.666666666666686
10
63.000000000000007
20
-91.666666666666686
10
63.000000000000007
20
-97.666666666666657
10
57
20
-97.666666666666671
0
LWPOLYLINE
5
142
100
AcDbEntity
8
0
100
AcDbPolyline
90
4
70
1
43
0.0
10
22.333333333333336
20
-83
10
28.333333333333336
20
-83
10
28.333333333333336
20
-89
10
22.333333333333336
20
-89
0
LWPOLYLINE
5
143
100
AcDbEntity
8
0
100
AcDbPolyline
90
4
70
1
43
0.0
10
5
20
-83
10
11
20
-83
10
11
20
-89
10
5
20
-89
0
LWPOLYLINE
5
144
100
AcDbEntity
8
0
100
AcDbPolyline
90
4
70
1
43
0.0
10
31
20
-83
10
37
20
-83
10
37
20
-89
10
31
20
-89
0
LWPOLYLINE
5
145
100
AcDbEntity
8
0
100
AcDbPolyline
90
4
70
1
43
0.0
10
39.666666666666671
20
-83
10
45.666666666666664
20
-83
10
45.666666666666664
20
-89
10
39.666666666666671
20
-89
0
LWPOLYLINE
5
146
100
AcDbEntity
8
0
100
AcDbPolyline
90
4
70
1
43
0.0
10
13.666666666666668
20
-83
10
19.666666666666668
20
-83
10
19.666666666666668
20
-89
10
13.666666666666668
20
-89
0
LWPOLYLINE
5
147
100
AcDbEntity
8
0
100
AcDbPolyline
90
4
70
1
43
0.0
10
65.666666666666657
20
-83
10
71.666666666666657
20
-83
10
71.666666666666657
20
-89
10
65.666666666666657
20
-89
0
LWPOLYLINE
5
148
100
AcDbEntity
8
0
100
AcDbPolyline
90
4
70
1
43
0.0
10
13.666666666666668
20
-74.333333333333343
10
19.666666666666668
20
-74.333333333333343
10
19.666666666666668
20
-80.333333333333329
10
13.666666666666668
20
-80.333333333333329
0
LWPOLYLINE
5
149
100
AcDbEntity
8
0
100
AcDbPolyline
90
4
70
1
43
0.0
10
57
20
-83
10
63.000000000000007
20
-83
10
63.000000000000007
20
-89
10
57
20
-89
0
LWPOLYLINE
5
150
100
AcDbEntity
8
0
100
AcDbPolyline
90
4
70
1
43
0.0
10
5
20
-74.333333333333343
10
11
20
-74.333333333333343
10
11
20
-80.333333333333329
10
5
20
-80.333333333333329
0
LWPOLYLINE
5
151
100
AcDbEntity
8
0
100
AcDbPolyline
90
4
70
1
43
0.0
10
48.333333333333343
20
-83
10
54.333333333333336
20
-83
10
54.333333333333336
20
-89
10
48.333333333333343
20
-89
0
LWPOLYLINE
5
152
100
AcDbEntity
8
0
100
AcDbPolyline
90
4
70
1
43
0.0
10
57
20
-74.333333333333343
10
63.000000000000007
20
-74.333333333333343
10
63.000000000000007
20
-80.333333333333329
10
57
20
-80.333333333333329
0
LWPOLYLINE
5
153
100
AcDbEntity
8
0
100
AcDbPolyline
90
4
70
1
43
0.0
10
65.666666666666657
20
-74.333333333333343
10
71.666666666666657
20
-74.333333333333343
10
71.666666666666657
20
-80.333333333333329
10
65.666666666666657
20
-80.333333333333329
0
LWPOLYLINE
5
154
100
AcDbEntity
8
0
100
AcDbPolyline
90
4
70
1
43
0.0
10
5
20
-65.666666666666657
10
11
20
-65.666666666666657
10
11
20
-71.666666666666657
10
5
20
-71.666666666666657
0
LWPOLYLINE
5
155
100
AcDbEntity
8
0
100
AcDbPolyline
90
4
70
1
43
0.0
10
13.666666666666668
20
-65.666666666666657
10
19.666666666666668
20
-65.666666666666657
10
19.666666666666668
20
-71.666666666666657
10
13.666666666666668
20
-71.666666666666657
0
LWPOLYLINE
5
156
100
AcDbEntity
8
0
100
AcDbPolyline
90
4
70
1
43
0.0
10
22.333333333333336
20
-65.666666666666657
10
28.333333333333336
20
-65.666666666666657
10
28.333333333333336
20
-71.666666666666657
10
22.333333333333336
20
-71.666666666666657
0
LWPOLYLINE
5
157
100
AcDbEntity
8
0
100
AcDbPolyline
90
4
70
1
43
0.0
10
31
20
-65.666666666666657
10
37
20
-65.666666666666657
10
37
20
-71.666666666666657
10
31
20
-71.666666666666657
0
LWPOLYLINE
5
158
100
AcDbEntity
8
0
100
AcDbPolyline
90
4
70
1
43
0.0
10
39.666666666666671
20
-65.666666666666657
10
45.666666666666664
20
-65.666666666666657
10
45.666666666666664
20
-71.666666666666657
10
39.666666666666671
20
-71.666666666666657
0
LWPOLYLINE
5
159
100
AcDbEntity
8
0
100
AcDbPolyline
90
4
70
1
43
0.0
10
48.333333333333343
20
-65.666666666666657
10
54.333333333333336
20
-65.666666666666657
10
54.333333333333336
20
-71.666666666666657
10
48.333333333333343
20
-71.666666666666657
0
LWPOLYLINE
5
160
100
AcDbEntity
8
0
100
AcDbPolyline
90
4
70
1
43
0.0
10
57
20
-65.666666666666657
10
63.000000000000007
20
-65.666666666666657
10
63.000000000000007
20
-71.666666666666657
10
57
20
-71.666666666666657
0
LWPOLYLINE
5
161
100
AcDbEntity
8
0
100
AcDbPolyline
90
4
70
1
43
0.0
10
65.666666666666657
20
-65.666666666666657
10
71.666666666666657
20
-65.666666666666657
10
71.666666666666657
20
-71.666666666666657
10
65.666666666666657
20
-71.666666666666657
0
LWPOLYLINE
5
162
100
AcDbEntity
8
0
100
AcDbPolyline
90
4
70
1
43
0.0
10
5
20
-57
10
11
20
-57
10
11
20
-63
10
5
20
-63
0
LWPOLYLINE
5
163
100
AcDbEntity
8
0
100
AcDbPolyline
90
4
70
1
43
0.0
10
13.666666666666668
20
-57
10
19.666666666666668
20
-57
10
19.666666666666668
20
-63
10
13.666666666666668
20
-63
0
LWPOLYLINE
5
164
100
AcDbEntity
8
0
100
AcDbPolyline
90
4
70
1
43
0.0
10
22.333333333333336
20
-57
10
28.333333333333336
20
-57
10
28.333333333333336
20
-63
10
22.333333333333336
20
-63
0
LWPOLYLINE
5
165
100
AcDbEntity
8
0
100
AcDbPolyline
90
4
70
1
43
0.0
10
31
20
-57
10
37
20
-57
10
37
20
-63
10
31
20
-63
0
LWPOLYLINE
5
166
100
AcDbEntity
8
0
100
AcDbPolyline
90
4
70
1
43
0.0
10
39.666666666666671
20
-57
10
45.666666666666664
20
-57
10
45.666666666666664
20
-63
10
39.666666666666671
20
-63
0
LWPOLYLINE
5
167
100
AcDbEntity
8
0
100
AcDbPolyline
90
4
70
1
43
0.0
10
48.333333333333343
20
-57
10
54.333333333333336
20
-57
10
54.333333333333336
20
-63
10
48.333333333333343
20
-63
0
LWPOLYLINE
5
168
100
AcDbEntity
8
0
100
AcDbPolyline
90
4
70
1
43
0.0
10
57
20
-57
10
63.000000000000007
20
-57
10
63.000000000000007
20
-63
10
57
20
-63
0
LWPOLYLINE
5
169
100
AcDbEntity
8
0
100
AcDbPolyline
90
4
70
1
43
0.0
10
65.666666666666657
20
-57
10
71.666666666666657
20
-57
10
71.666666666666657
20
-63
10
65.666666666666657
20
-63
0
LWPOLYLINE
5
170
100
AcDbEntity
8
0
100
AcDbPolyline
90
4
70
1
43
0.0
10
5
20
-48.333333333333343
10
11
20
-48.333333333333343
10
11
20
-54.333333333333336
10
5
20
-54.333333333333336
0
LWPOLYLINE
5
171
100
AcDbEntity
8
0
100
AcDbPolyline
90
4
70
1
43
0.0
10
13.666666666666668
20
-48.333333333333343
10
19.666666666666668
20
-48.333333333333343
10
19.666666666666668
20
-54.333333333333336
10
13.666666666666668
20
-54.333333333333336
0
LWPOLYLINE
5
172
100
AcDbEntity
8
0
100
AcDbPolyline
90
4
70
1
43
0.0
10
22.333333333333336
20
-48.333333333333343
10
28.333333333333336
20
-48.333333333333343
10
28.333333333333336
20
-54.333333333333336
10
22.333333333333336
20
-54.333333333333336
0
LWPOLYLINE
5
173
100
AcDbEntity
8
0
100
AcDbPolyline
90
4
70
1
43
0.0
10
31
20
-48.333333333333343
10
37
20
-48.333333333333343
10
37
20
-54.333333333333336
10
31
20
-54.333333333333336
0
LWPOLYLINE
5
174
100
AcDbEntity
8
0
100
AcDbPolyline
90
4
70
1
43
0.0
10
39.666666666666671
20
-48.333333333333343
10
45.666666666666664
20
-48.333333333333343
10
45.666666666666664
20
-54.333333333333336
10
39.666666666666671
20
-54.333333333333336
0
LWPOLYLINE
5
175
100
AcDbEntity
8
0
100
AcDbPolyline
90
4
70
1
43
0.0
10
48.333333333333343
20
-48.333333333333343
10
54.333333333333336
20
-48.333333333333343
10
54.333333333333336
20
-54.333333333333336
10
48.333333333333343
20
-54.333333333333336
0
LWPOLYLINE
5
176
100
AcDbEntity
8
0
100
AcDbPolyline
90
4
70
1
43
0.0
10
57
20
-48.333333333333343
10
63.000000000000007
20
-48.333333333333343
10
63.000000000000007
20
-54.333333333333336
10
57
20
-54.333333333333336
0
LWPOLYLINE
5
177
100
AcDbEntity
8
0
100
AcDbPolyline
90
4
70
1
43
0.0
10
65.666666666666657
20
-48.333333333333343
10
71.666666666666657
20
-48.333333333333343
10
71.666666666666657
20
-54.333333333333336
10
65.666666666666657
20
-54.333333333333336
0
LWPOLYLINE
5
178
100
AcDbEntity
8
0
100
AcDbPolyline
90
4
70
1
43
0.0
10
74.333333333333343
20
-109
10
80.333333333333329
20
-109
10
80.333333333333329
20
-115
10
74.333333333333343
20
-115
0
LWPOLYLINE
5
179
100
AcDbEntity
8
0
100
AcDbPolyline
90
4
70
1
43
0.0
10
83
20
-109
10
89
20
-109
10
89
20
-115
10
83
20
-115
0
LWPOLYLINE
5
180
100
AcDbEntity
8
0
100
AcDbPolyline
90
4
70
1
43
0.0
10
74.333333333333343
20
-100.33333333333333
10
80.333333333333329
20
-100.33333333333333
10
80.333333333333329
20
-106.33333333333333
10
74.333333333333343
20
-106.33333333333333
0
LWPOLYLINE
5
181
100
AcDbEntity
8
0
100
AcDbPolyline
90
4
70
1
43
0.0
10
83
20
-100.33333333333333
10
89
20
-100.33333333333333
10
89
20
-106.33333333333333
10
83
20
-106.33333333333333
0
LWPOLYLINE
5
182
100
AcDbEntity
8
0
100
AcDbPolyline
90
4
70
1
43
0.0
10
74.333333333333343
20
-91.666666666666686
10
80.333333333333329
20
-91.666666666666686
10
80.333333333333329
20
-97.666666666666657
10
74.333333333333343
20
-97.666666666666671
0
LWPOLYLINE
5
183
100
AcDbEntity
8
0
100
AcDbPolyline
90
4
70
1
43
0.0
10
83
20
-91.666666666666686
10
89
20
-91.666666666666686
10
89
20
-97.666666666666657
10
83
20
-97.666666666666671
0
LWPOLYLINE
5
184
100
AcDbEntity
8
0
100
AcDbPolyline
90
4
70
1
43
0.0
10
74.333333333333343
20
-83
10
80.333333333333329
20
-83
10
80.333333333333329
20
-89
10
74.333333333333343
20
-89
0
LWPOLYLINE
5
185
100
AcDbEntity
8
0
100
AcDbPolyline
90
4
70
1
43
0.0
10
83
20
-83
10
89
20
-83
10
89
20
-89
10
83
20
-89
0
LWPOLYLINE
5
186
100
AcDbEntity
8
0
100
AcDbPolyline
90
4
70
1
43
0.0
10
74.333333333333343
20
-74.333333333333343
10
80.333333333333329
20
-74.333333333333343
10
80.333333333333329
20
-80.333333333333329
10
74.333333333333343
20
-80.333333333333329
0
LWPOLYLINE
5
187
100
AcDbEntity
8
0
100
AcDbPolyline
90
4
70
1
43
0.0
10
83
20
-74.333333333333343
10
89
20
-74.333333333333343
10
89
20
-80.333333333333329
10
83
20
-80.333333333333329
0
LWPOLYLINE
5
188
100
AcDbEntity
8
0
100
AcDbPolyline
90
4
70
1
43
0.0
10
74.333333333333343
20
-65.666666666666657
10
80.333333333333329
20
-65.666666666666657
10
80.333333333333329
20
-71.666666666666657
10
74.333333333333343
20
-71.666666666666657
0
LWPOLYLINE
5
189
100
AcDbEntity
8
0
100
AcDbPolyline
90
4
70
1
43
0.0
10
83
20
-65.666666666666657
10
89
20
-65.666666666666657
10
89
20
-71.666666666666657
10
83
20
-71.666666666666657
0
LWPOLYLINE
5
190
100
AcDbEntity
8
0
100
AcDbPolyline
90
4
70
1
43
0.0
10
74.333333333333343
20
-57
10
80.333333333333329
20
-57
10
80.333333333333329
20
-63
10
74.333333333333343
20
-63
0
LWPOLYLINE
5
191
100
AcDbEntity
8
0
100
AcDbPolyline
90
4
70
1
43
0.0
10
83
20
-57
10
89
20
-57
10
89
20
-63
10
83
20
-63
0
LWPOLYLINE
5
192
100
AcDbEntity
8
0
100
AcDbPolyline
90
4
70
1
43
0.0
10
74.333333333333343
20
-48.333333333333343
10
80.333333333333329
20
-48.333333333333343
10
80.333333333333329
20
-54.333333333333336
10
74.333333333333343
20
-54.333333333333336
0
LWPOLYLINE
5
193
100
AcDbEntity
8
0
100
AcDbPolyline
90
4
70
1
43
0.0
10
83
20
-48.333333333333343
10
89
20
-48.333333333333343
10
89
20
-54.333333333333336
10
83
20
-54.333333333333336
0
LWPOLYLINE
5
194
100
AcDbEntity
8
0
100
AcDbPolyline
90
4
70
1
43
0.0
10
5
20
-39.666666666666671
10
11
20
-39.666666666666671
10
11
20
-45.666666666666664
10
5
20
-45.666666666666664
0
LWPOLYLINE
5
195
100
AcDbEntity
8
0
100
AcDbPolyline
90
4
70
1
43
0.0
10
13.666666666666668
20
-39.666666666666671
10
19.666666666666668
20
-39.666666666666671
10
19.666666666666668
20
-45.666666666666664
10
13.666666666666668
20
-45.666666666666664
0
LWPOLYLINE
5
196
100
AcDbEntity
8
0
100
AcDbPolyline
90
4
70
1
43
0.0
10
22.333333333333336
20
-39.666666666666671
10
28.333333333333336
20
-39.666666666666671
10
28.333333333333336
20
-45.666666666666664
10
22.333333333333336
20
-45.666666666666664
0
LWPOLYLINE
5
197
100
AcDbEntity
8
0
100
AcDbPolyline
90
4
70
1
43
0.0
10
31
20
-39.666666666666671
10
37
20
-39.666666666666671
10
37
20
-45.666666666666664
10
31
20
-45.666666666666664
0
LWPOLYLINE
5
198
100
AcDbEntity
8
0
100
AcDbPolyline
90
4
70
1
43
0.0
10
39.666666666666671
20
-39.666666666666671
10
45.666666666666664
20
-39.666666666666671
10
45.666666666666664
20
-45.666666666666664
10
39.666666666666671
20
-45.666666666666664
0
LWPOLYLINE
5
199
100
AcDbEntity
8
0
100
AcDbPolyline
90
4
70
1
43
0.0
10
48.333333333333343
20
-39.666666666666671
10
54.333333333333336
20
-39.666666666666671
10
54.333333333333336
20
-45.666666666666664
10
48.333333333333343
20
-45.666666666666664
0
LWPOLYLINE
5
200
100
AcDbEntity
8
0
100
AcDbPolyline
90
4
70
1
43
0.0
10
57
20
-39.666666666666671
10
63.000000000000007
20
-39.666666666666671
10
63.000000000000007
20
-45.666666666666664
10
57
20
-45.666666666666664
0
LWPOLYLINE
5
201
100
AcDbEntity
8
0
100
AcDbPolyline
90
4
70
1
43
0.0
10
65.666666666666657
20
-39.666666666666671
10
71.666666666666657
20
-39.666666666666671
10
71.666666666666657
20
-45.666666666666664
10
65.666666666666657
20
-45.666666666666664
0
LWPOLYLINE
5
202
100
AcDbEntity
8
0
100
AcDbPolyline
90
4
70
1
43
0.0
10
74.333333333333343
20
-39.666666666666671
10
80.333333333333329
20
-39.666666666666671
10
80.333333333333329
20
-45.666666666666664
10
74.333333333333343
20
-45.666666666666664
0
LWPOLYLINE
5
203
100
AcDbEntity
8
0
100
AcDbPolyline
90
4
70
1
43
0.0
10
83
20
-39.666666666666671
10
89
20
-39.666666666666671
10
89
20
-45.666666666666664
10
83
20
-45.666666666666664
0
LWPOLYLINE
5
204
100
AcDbEntity
8
0
100
AcDbPolyline
90
4
70
1
43
0.0
10
5
20
-30.999999999999996
10
11
20
-30.999999999999996
10
11
20
-36.999999999999993
10
5
20
-36.999999999999993
0
LWPOLYLINE
5
205
100
AcDbEntity
8
0
100
AcDbPolyline
90
4
70
1
43
0.0
10
13.666666666666668
20
-30.999999999999996
10
19.666666666666668
20
-30.999999999999996
10
19.666666666666668
20
-36.999999999999993
10
13.666666666666668
20
-36.999999999999993
0
LWPOLYLINE
5
206
100
AcDbEntity
8
0
100
AcDbPolyline
90
4
70
1
43
0.0
10
22.333333333333336
20
-30.999999999999996
10
28.333333333333336
20
-30.999999999999996
10
28.333333333333336
20
-36.999999999999993
10
22.333333333333336
20
-36.999999999999993
0
LWPOLYLINE
5
207
100
AcDbEntity
8
0
100
AcDbPolyline
90
4
70
1
43
0.0
10
31
20
-30.999999999999996
10
37
20
-30.999999999999996
10
37
20
-36.999999999999993
10
31
20
-36.999999999999993
0
LWPOLYLINE
5
208
100
AcDbEntity
8
0
100
AcDbPolyline
90
4
70
1
43
0.0
10
39.666666666666671
20
-30.999999999999996
10
45.666666666666664
20
-30.999999999999996
10
45.666666666666664
20
-36.999999999999993
10
39.666666666666671
20
-36.999999999999993
0
LWPOLYLINE
5
209
100
AcDbEntity
8
0
100
AcDbPolyline
90
4
70
1
43
0.0
10
48.333333333333343
20
-30.999999999999996
10
54.333333333333336
20
-30.999999999999996
10
54.333333333333336
20
-36.999999999999993
10
48.333333333333343
20
-36.999999999999993
0
LWPOLYLINE
5
210
100
AcDbEntity
8
0
100
AcDbPolyline
90
4
70
1
43
0.0
10
57
20
-30.999999999999996
10
63.000000000000007
20
-30.999999999999996
10
63.000000000000007
20
-36.999999999999993
10
57
20
-36.999999999999993
0
LWPOLYLINE
5
211
100
AcDbEntity
8
0
100
AcDbPolyline
90
4
70
1
43
0.0
10
65.666666666666657
20
-30.999999999999996
10
71.666666666666657
20
-30.999999999999996
10
71.666666666666657
20
-36.999999999999993
10
65.666666666666657
20
-36.999999999999993
0
LWPOLYLINE
5
212
100
AcDbEntity
8
0
100
AcDbPolyline
90
4
70
1
43
0.0
10
74.333333333333343
20
-30.999999999999996
10
80.333333333333329
20
-30.999999999999996
10
80.333333333333329
20
-36.999999999999993
10
74.333333333333343
20
-36.999999999999993
0
LWPOLYLINE
5
213
100
AcDbEntity
8
0
100
AcDbPolyline
90
4
70
1
43
0.0
10
83
20
-30.999999999999996
10
89
20
-30.999999999999996
10
89
20
-36.999999999999993
10
83
20
-36.999999999999993
0
LWPOLYLINE
5
214
100
AcDbEntity
8
0
100
AcDbPolyline
90
4
70
1
43
0.0
10
91.666666666666686
20
-109
10
97.666666666666671
20
-109
10
97.666666666666671
20
-115
10
91.666666666666686
20
-115
0
LWPOLYLINE
5
215
100
AcDbEntity
8
0
100
AcDbPolyline
90
4
70
1
43
0.0
10
100.33333333333333
20
-109
10
106.33333333333333
20
-109
10
106.33333333333333
20
-115
10
100.33333333333333
20
-115
0
LWPOLYLINE
5
216
100
AcDbEntity
8
0
100
AcDbPolyline
90
4
70
1
43
0.0
10
109
20
-109
10
115
20
-109
10
115
20
-115
10
109
20
-115
0
LWPOLYLINE
5
217
100
AcDbEntity
8
0
100
AcDbPolyline
90
4
70
1
43
0.0
10
91.666666666666686
20
-100.33333333333333
10
97.666666666666671
20
-100.33333333333333
10
97.666666666666671
20
-106.33333333333333
10
91.666666666666686
20
-106.33333333333333
0
LWPOLYLINE
5
218
100
AcDbEntity
8
0
100
AcDbPolyline
90
4
70
1
43
0.0
10
100.33333333333333
20
-100.33333333333333
10
106.33333333333333
20
-100.33333333333333
10
106.33333333333333
20
-106.33333333333333
10
100.33333333333333
20
-106.33333333333333
0
LWPOLYLINE
5
219
100
AcDbEntity
8
0
100
AcDbPolyline
90
4
70
1
43
0.0
10
109
20
-100.33333333333333
10
115
20
-100.33333333333333
10
115
20
-106.33333333333333
10
109
20
-106.33333333333333
0
LWPOLYLINE
5
220
100
AcDbEntity
8
0
100
AcDbPolyline
90
4
70
1
43
0.0
10
91.666666666666686
20
-91.666666666666686
10
97.666666666666671
20
-91.666666666666686
10
97.666666666666671
20
-97.666666666666657
10
91.666666666666686
20
-97.666666666666657
0
LWPOLYLINE
5
221
100
AcDbEntity
8
0
100
AcDbPolyline
90
4
70
1
43
0.0
10
100.33333333333333
20
-91.666666666666686
10
106.33333333333333
20
-91.666666666666686
10
106.33333333333333
20
-97.666666666666657
10
100.33333333333333
20
-97.666666666666657
0
LWPOLYLINE
5
222
100
AcDbEntity
8
0
100
AcDbPolyline
90
4
70
1
43
0.0
10
109
20
-91.666666666666686
10
115
20
-91.666666666666686
10
115
20
-97.666666666666657
10
109
20
-97.666666666666657
0
LWPOLYLINE
5
223
100
AcDbEntity
8
0
100
AcDbPolyline
90
4
70
1
43
0.0
10
91.666666666666686
20
-83
10
97.666666666666671
20
-83
10
97.666666666666671
20
-89
10
91.666666666666686
20
-89
0
LWPOLYLINE
5
224
100
AcDbEntity
8
0
100
AcDbPolyline
90
4
70
1
43
0.0
10
100.33333333333333
20
-83
10
106.33333333333333
20
-83
10
106.33333333333333
20
-89
10
100.33333333333333
20
-89
0
LWPOLYLINE
5
225
100
AcDbEntity
8
0
100
AcDbPolyline
90
4
70
1
43
0.0
10
109
20
-83
10
115
20
-83
10
115
20
-89
10
109
20
-89
0
LWPOLYLINE
5
226
100
AcDbEntity
8
0
100
AcDbPolyline
90
4
70
1
43
0.0
10
91.666666666666686
20
-74.333333333333343
10
97.666666666666671
20
-74.333333333333343
10
97.666666666666671
20
-80.333333333333329
10
91.666666666666686
20
-80.333333333333329
0
LWPOLYLINE
5
227
100
AcDbEntity
8
0
100
AcDbPolyline
90
4
70
1
43
0.0
10
100.33333333333333
20
-74.333333333333343
10
106.33333333333333
20
-74.333333333333343
10
106.33333333333333
20
-80.333333333333329
10
100.33333333333333
20
-80.333333333333329
0
LWPOLYLINE
5
228
100
AcDbEntity
8
0
100
AcDbPolyline
90
4
70
1
43
0.0
10
109
20
-74.333333333333343
10
115
20
-74.333333333333343
10
115
20
-80.333333333333329
10
109
20
-80.333333333333329
0
LWPOLYLINE
5
229
100
AcDbEntity
8
0
100
AcDbPolyline
90
4
70
1
43
0.0
10
91.666666666666686
20
-65.666666666666657
10
97.666666666666671
20
-65.666666666666657
10
97.666666666666671
20
-71.666666666666657
10
91.666666666666686
20
-71.666666666666657
0
LWPOLYLINE
5
230
100
AcDbEntity
8
0
100
AcDbPolyline
90
4
70
1
43
0.0
10
100.33333333333333
20
-65.666666666666657
10
106.33333333333333
20
-65.666666666666657
10
106.33333333333333
20
-71.666666666666657
10
100.33333333333333
20
-71.666666666666657
0
LWPOLYLINE
5
231
100
AcDbEntity
8
0
100
AcDbPolyline
90
4
70
1
43
0.0
10
109
20
-65.666666666666657
10
115
20
-65.666666666666657
10
115
20
-71.666666666666657
10
109
20
-71.666666666666657
0
LWPOLYLINE
5
232
100
AcDbEntity
8
0
100
AcDbPolyline
90
4
70
1
43
0.0
10
91.666666666666686
20
-57
10
97.666666666666671
20
-57
10
97.666666666666671
20
-63
10
91.666666666666686
20
-63
0
LWPOLYLINE
5
233
100
AcDbEntity
8
0
100
AcDbPolyline
90
4
70
1
43
0.0
10
100.33333333333333
20
-57
10
106.33333333333333
20
-57
10
106.33333333333333
20
-63
10
100.33333333333333
20
-63
0
LWPOLYLINE
5
234
100
AcDbEntity
8
0
100
AcDbPolyline
90
4
70
1
43
0.0
10
109
20
-57
10
115
20
-57
10
115
20
-63
10
109
20
-63
0
LWPOLYLINE
5
235
100
AcDbEntity
8
0
100
AcDbPolyline
90
4
70
1
43
0.0
10
91.666666666666686
20
-48.333333333333343
10
97.666666666666671
20
-48.333333333333343
10
97.666666666666671
20
-54.333333333333336
10
91.666666666666686
20
-54.333333333333336
0
LWPOLYLINE
5
236
100
AcDbEntity
8
0
100
AcDbPolyline
90
4
70
1
43
0.0
10
100.33333333333333
20
-48.333333333333343
10
106.33333333333333
20
-48.333333333333343
10
106.33333333333333
20
-54.333333333333336
10
100.33333333333333
20
-54.333333333333336
0
LWPOLYLINE
5
237
100
AcDbEntity
8
0
100
AcDbPolyline
90
4
70
1
43
0.0
10
109
20
-48.333333333333343
10
115
20
-48.333333333333343
10
115
20
-54.333333333333336
10
109
20
-54.333333333333336
0
LWPOLYLINE
5
238
100
AcDbEntity
8
0
100
AcDbPolyline
90
4
70
1
43
0.0
10
91.666666666666686
20
-39.666666666666671
10
97.666666666666671
20
-39.666666666666671
10
97.666666666666671
20
-45.666666666666664
10
91.666666666666686
20
-45.666666666666664
0
LWPOLYLINE
5
239
100
AcDbEntity
8
0
100
AcDbPolyline
90
4
70
1
43
0.0
10
100.33333333333333
20
-39.666666666666671
10
106.33333333333333
20
-39.666666666666671
10
106.33333333333333
20
-45.666666666666664
10
100.33333333333333
20
-45.666666666666664
0
LWPOLYLINE
5
240
100
AcDbEntity
8
0
100
AcDbPolyline
90
4
70
1
43
0.0
10
109
20
-39.666666666666671
10
115
20
-39.666666666666671
10
115
20
-45.666666666666664
10
109
20
-45.666666666666664
0
LWPOLYLINE
5
241
100
AcDbEntity
8
0
100
AcDbPolyline
90
4
70
1
43
0.0
10
91.666666666666686
20
-30.999999999999996
10
97.666666666666671
20
-30.999999999999996
10
97.666666666666671
20
-36.999999999999993
10
91.666666666666686
20
-36.999999999999993
0
LWPOLYLINE
5
242
100
AcDbEntity
8
0
100
AcDbPolyline
90
4
70
1
43
0.0
10
100.33333333333333
20
-30.999999999999996
10
106.33333333333333
20
-30.999999999999996
10
106.33333333333333
20
-36.999999999999993
10
100.33333333333333
20
-36.999999999999993
0
LWPOLYLINE
5
243
100
AcDbEntity
8
0
100
AcDbPolyline
90
4
70
1
43
0.0
10
109
20
-30.999999999999996
10
115
20
-30.999999999999996
10
115
20
-36.999999999999993
10
109
20
-36.999999999999993
0
LWPOLYLINE
5
244
100
AcDbEntity
8
0
100
AcDbPolyline
90
4
70
1
43
0.0
10
5
20
-22.333333333333325
10
11
20
-22.333333333333325
10
11
20
-28.333333333333321
10
5
20
-28.333333333333321
0
LWPOLYLINE
5
245
100
AcDbEntity
8
0
100
AcDbPolyline
90
4
70
1
43
0.0
10
13.666666666666668
20
-22.333333333333325
10
19.666666666666668
20
-22.333333333333325
10
19.666666666666668
20
-28.333333333333321
10
13.666666666666668
20
-28.333333333333321
0
LWPOLYLINE
5
246
100
AcDbEntity
8
0
100
AcDbPolyline
90
4
70
1
43
0.0
10
22.333333333333336
20
-22.333333333333325
10
28.333333333333336
20
-22.333333333333325
10
28.333333333333336
20
-28.333333333333321
10
22.333333333333336
20
-28.333333333333321
0
LWPOLYLINE
5
247
100
AcDbEntity
8
0
100
AcDbPolyline
90
4
70
1
43
0.0
10
31
20
-22.333333333333325
10
37
20
-22.333333333333325
10
37
20
-28.333333333333321
10
31
20
-28.333333333333321
0
LWPOLYLINE
5
248
100
AcDbEntity
8
0
100
AcDbPolyline
90
4
70
1
43
0.0
10
39.666666666666671
20
-22.333333333333325
10
45.666666666666664
20
-22.333333333333325
10
45.666666666666664
20
-28.333333333333321
10
39.666666666666671
20
-28.333333333333321
0
LWPOLYLINE
5
249
100
AcDbEntity
8
0
100
AcDbPolyline
90
4
70
1
43
0.0
10
48.333333333333343
20
-22.333333333333325
10
54.333333333333336
20
-22.333333333333325
10
54.333333333333336
20
-28.333333333333321
10
48.333333333333343
20
-28.333333333333321
0
LWPOLYLINE
5
250
100
AcDbEntity
8
0
100
AcDbPolyline
90
4
70
1
43
0.0
10
57
20
-22.333333333333325
10
63.000000000000007
20
-22.333333333333325
10
63.000000000000007
20
-28.333333333333321
10
57
20
-28.333333333333321
0
LWPOLYLINE
5
251
100
AcDbEntity
8
0
100
AcDbPolyline
90
4
70
1
43
0.0
10
65.666666666666657
20
-22.333333333333325
10
71.666666666666657
20
-22.333333333333325
10
71.666666666666657
20
-28.333333333333321
10
65.666666666666657
20
-28.333333333333321
0
LWPOLYLINE
5
252
100
AcDbEntity
8
0
100
AcDbPolyline
90
4
70
1
43
0.0
10
74.333333333333343
20
-22.333333333333325
10
80.333333333333329
20
-22.333333333333325
10
80.333333333333329
20
-28.333333333333321
10
74.333333333333343
20
-28.333333333333321
0
LWPOLYLINE
5
253
100
AcDbEntity
8
0
100
AcDbPolyline
90
4
70
1
43
0.0
10
83
20
-22.333333333333325
10
89
20
-22.333333333333325
10
89
20
-28.333333333333321
10
83
20
-28.333333333333321
0
LWPOLYLINE
5
254
100
AcDbEntity
8
0
100
AcDbPolyline
90
4
70
1
43
0.0
10
91.666666666666686
20
-22.333333333333325
10
97.666666666666671
20
-22.333333333333325
10
97.666666666666671
20
-28.333333333333321
10
91.666666666666686
20
-28.333333333333321
0
LWPOLYLINE
5
255
100
AcDbEntity
8
0
100
AcDbPolyline
90
4
70
1
43
0.0
10
100.33333333333333
20
-22.333333333333325
10
106.33333333333333
20
-22.333333333333325
10
106.33333333333333
20
-28.333333333333321
10
100.33333333333333
20
-28.333333333333321
0
LWPOLYLINE
5
256
100
AcDbEntity
8
0
100
AcDbPolyline
90
4
70
1
43
0.0
10
109
20
-22.333333333333325
10
115
20
-22.333333333333325
10
115
20
-28.333333333333321
10
109
20
-28.333333333333321
0
LWPOLYLINE
5
257
100
AcDbEntity
8
0
100
AcDbPolyline
90
4
70
1
43
0.0
10
5
20
-13.666666666666671
10
11
20
-13.666666666666671
10
11
20
-19.666666666666668
10
5
20
-19.666666666666668
0
LWPOLYLINE
5
258
100
AcDbEntity
8
0
100
AcDbPolyline
90
4
70
1
43
0.0
10
13.666666666666668
20
-13.666666666666671
10
19.666666666666668
20
-13.666666666666671
10
19.666666666666668
20
-19.666666666666668
10
13.666666666666668
20
-19.666666666666668
0
LWPOLYLINE
5
259
100
AcDbEntity
8
0
100
AcDbPolyline
90
4
70
1
43
0.0
10
22.333333333333336
20
-13.666666666666671
10
28.333333333333336
20
-13.666666666666671
10
28.333333333333336
20
-19.666666666666668
10
22.333333333333336
20
-19.666666666666668
0
LWPOLYLINE
5
260
100
AcDbEntity
8
0
100
AcDbPolyline
90
4
70
1
43
0.0
10
65.666666666666657
20
-13.666666666666671
10
71.666666666666657
20
-13.666666666666671
10
71.666666666666657
20
-19.666666666666668
10
65.666666666666657
20
-19.666666666666668
0
LWPOLYLINE
5
261
100
AcDbEntity
8
0
100
AcDbPolyline
90
4
70
1
43
0.0
10
31
20
-13.666666666666671
10
37
20
-13.666666666666671
10
37
20
-19.666666666666668
10
31
20
-19.666666666666668
0
LWPOLYLINE
5
262
100
AcDbEntity
8
0
100
AcDbPolyline
90
4
70
1
43
0.0
10
57
20
-13.666666666666671
10
63.000000000000007
20
-13.666666666666671
10
63.000000000000007
20
-19.666666666666668
10
57
20
-19.666666666666668
0
LWPOLYLINE
5
263
100
AcDbEntity
8
0
100
AcDbPolyline
90
4
70
1
43
0.0
10
39.666666666666671
20
-13.666666666666671
10
45.666666666666664
20
-13.666666666666671
10
45.666666666666664
20
-19.666666666666668
10
39.666666666666671
20
-19.666666666666668
0
LWPOLYLINE
5
264
100
AcDbEntity
8
0
100
AcDbPolyline
90
4
70
1
43
0.0
10
48.333333333333343
20
-13.666666666666671
10
54.333333333333336
20
-13.666666666666671
10
54.333333333333336
20
-19.666666666666668
10
48.333333333333343
20
-19.666666666666668
0
LWPOLYLINE
5
265
100
AcDbEntity
8
0
100
AcDbPolyline
90
4
70
1
43
0.0
10
48.333333333333343
20
-74.333333333333343
10
54.333333333333336
20
-74.333333333333343
10
54.333333333333336
20
-80.333333333333329
10
48.333333333333343
20
-80.333333333333329
0
LWPOLYLINE
5
266
100
AcDbEntity
8
0
100
AcDbPolyline
90
4
70
1
43
0.0
10
22.333333333333336
20
-74.333333333333343
10
28.333333333333336
20
-74.333333333333343
10
28.333333333333336
20
-80.333333333333329
10
22.333333333333336
20
-80.333333333333329
0
LWPOLYLINE
5
267
100
AcDbEntity
8
0
100
AcDbPolyline
90
4
70
1
43
0.0
10
31
20
-74.333333333333343
10
37
20
-74.333333333333343
10
37
20
-80.333333333333329
10
31
20
-80.333333333333329
0
LWPOLYLINE
5
268
100
AcDbEntity
8
0
100
AcDbPolyline
90
4
70
1
43
0.0
10
39.666666666666671
20
-74.333333333333343
10
45.666666666666664
20
-74.333333333333343
10
45.666666666666664
20
-80.333333333333329
10
39.666666666666671
20
-80.333333333333329
0
LWPOLYLINE
5
269
100
AcDbEntity
8
0
100
AcDbPolyline
90
100
70
1
43
0.0
10
123
20
-5.0000015646219254
10
119.99999995529652
20
-5.0000015646219254
10
120
20
0
10
115
20
0
10
115
20
3.0000000000000071
10
105
20
3.0000000000000071
10
105
20
0
10
95
20
0
10
95
20
3.0000000000000071
10
85
20
3.0000000000000071
10
85
20
0
10
75
20
0
10
75
20
3.0000000000000071
10
65
20
3.0000000000000071
10
65
20
0
10
55
20
0
10
55
20
3.0000000000000071
10
45
20
3.0000000000000071
10
45
20
0
10
35
20
0
10
35
20
3.0000000000000071
10
25
20
3.0000000000000071
10
25
20
0
10
15
20
0
10
15
20
3.0000000000000071
10
5
20
3.0000000000000071
10
5
20
0
10
0
20
0
10
0
20
-5.0000015646219254
10
-3.0000000447034836
20
-5.0000015646219254
10
-3.0000000447034836
20
-15.000001713633537
10
0
20
-15.000001713633537
10
0
20
-25.000001564621925
10
-3.0000000447034836
20
-25.000001564621925
10
-3.0000000447034836
20
-35.000001713633537
10
0
20
-35.000001713633537
10
0
20
-45.000001564621925
10
-3.0000000447034836
20
-45.000001564621925
10
-3.0000000447034836
20
-55.000001713633537
10
0
20
-55.000001713633537
10
0
20
-65.000001564621925
10
-3.0000000447034836
20
-65.000001564621925
10
-3.0000000447034836
20
-75.000001713633537
10
0
20
-75.000001713633537
10
0
20
-85.000001564621925
10
-3.0000000447034836
20
-85.000001564621925
10
-3.0000000447034836
20
-95.000001713633537
10
0
20
-95.000001713633537
10
0
20
-105.00000156462193
10
-3.0000000447034836
20
-105.00000156462193
10
-3.0000000447034836
20
-115.00000171363354
10
0
20
-115.00000171363354
10
4.9303806576313238e-31
20
-120
10
5
20
-120
10
5
20
-123
10
15
20
-123
10
15
20
-120
10
25
20
-120
10
25
20
-123
10
35
20
-123
10
35
20
-120
10
45
20
-120
10
45
20
-123
10
55
20
-123
10
55
20
-120
10
65
20
-120
10
65
20
-123
10
75
20
-123
10
75
20
-120
10
85
20
-120
10
85
20
-123
10
95
20
-123
10
95
20
-120
10
105
20
-120
10
105
20
-123
10
115
20
-123
10
115
20
-120
10
120
20
-120
10
119.99999995529652
20
-115.00000171363354
10
123
20
-115.00000171363354
10
123
20
-105.00000156462193
10
119.99999995529652
20
-105.00000156462193
10
119.99999995529652
20
-95.000001713633537
10
123
20
-95.000001713633537
10
123
20
-85.000001564621925
10
119.99999995529652
20
-85.000001564621925
10
119.99999995529652
20
-75.000001713633537
10
123
20
-75.000001713633537
10
123
20
-65.000001564621925
10
119.99999995529652
20
-65.000001564621925
10
119.99999995529652
20
-55.000001713633537
10
123
20
-55.000001713633537
10
123
20
-45.000001564621925
10
119.99999995529652
20
-45.000001564621925
10
119.99999995529652
20
-35.000001713633537
10
123
20
-35.000001713633537
10
123
20
-25.000001564621925
10
119.99999995529652
20
-25.000001564621925
10
119.99999995529652
20
-15.000001713633537
10
123
20
-15.000001713633537
0
ENDSEC
0
SECTION
2
OBJECTS
0
DICTIONARY
5
C
100
AcDbDictionary
3
ACAD_GROUP
350
D
3
ACAD_MLINESTYLE
350
17
0
DICTIONARY
5
D
100
AcDbDictionary
0
DICTIONARY
5
1A
330
C
100
AcDbDictionary
0
DICTIONARY
5
17
100
AcDbDictionary
0
ENDSEC
0
EOF
