0
SECTION
2
HEADER
9
$INSUNITS
70
4
9
$ACADVER
1
AC1014
9
$HANDSEED
5
FFFF
0
ENDSEC
0
SECTION
2
TABLES
0
TABLE
2
VPORT
5
8
100
AcDbSymbolTable
0
ENDTAB
0
TABLE
2
LTYPE
5
5
100
AcDbSymbolTable
0
LTYPE
5
14
100
AcDbSymbolTableRecord
100
AcDbLinetypeTableRecord
2
BYBLOCK
70
0
0
LTYPE
5
15
100
AcDbSymbolTableRecord
100
AcDbLinetypeTableRecord
2
BYLAYER
70
0
0
ENDTAB
0
TABLE
2
LAYER
5
2
100
AcDbSymbolTable
70
2
0
LAYER
5
50
100
AcDbSymbolTableRecord
100
AcDbLayerTableRecord
2
0
70
0
6
CONTINUOUS
0
ENDTAB
0
TABLE
2
STYLE
5
3
100
AcDbSymbolTable
70
1
0
STYLE
5
11
100
AcDbSymbolTableRecord
100
AcDbTextStyleTableRecord
2
STANDARD
70
0
0
ENDTAB
0
TABLE
2
VIEW
5
6
100
AcDbSymbolTable
70
0
0
ENDTAB
0
TABLE
2
UCS
5
7
100
AcDbSymbolTable
70
0
0
ENDTAB
0
TABLE
2
APPID
5
9
100
AcDbSymbolTable
70
2
0
APPID
5
12
100
AcDbSymbolTableRecord
100
AcDbRegAppTableRecord
2
ACAD
70
0
0
ENDTAB
0
TABLE
2
DIMSTYLE
5
A
100
AcDbSymbolTable
70
1
0
ENDTAB
0
TABLE
2
BLOCK_RECORD
5
1
100
AcDbSymbolTable
70
1
0
BLOCK_RECORD
5
1F
100
AcDbSymbolTableRecord
100
AcDbBlockTableRecord
2
*MODEL_SPACE
0
BLOCK_RECORD
5
1B
100
AcDbSymbolTableRecord
100
AcDbBlockTableRecord
2
*PAPER_SPACE
0
ENDTAB
0
ENDSEC
0
SECTION
2
BLOCKS
0
BLOCK
5
20
100
AcDbEntity
100
AcDbBlockBegin
2
*MODEL_SPACE
0
ENDBLK
5
21
100
AcDbEntity
100
AcDbBlockEnd
0
BLOCK
5
1C
100
AcDbEntity
100
AcDbBlockBegin
2
*PAPER_SPACE
0
ENDBLK
5
1D
100
AcDbEntity
100
AcDbBlockEnd
0
ENDSEC
0
SECTION
2
ENTITIES
0
LWPOLYLINE
5
100
100
AcDbEntity
8
0
100
AcDbPolyline
90
4
70
1
43
0.0
10
84.333333333333343
20
-72.999999999999986
10
92.333333333333343
20
-72.999999999999986
10
92.333333333333343
20
-81
10
84.333333333333343
20
-81
0
LWPOLYLINE
5
101
100
AcDbEntity
8
0
100
AcDbPolyline
90
4
70
1
43
0.0
10
73
20
-61.66666666666665
10
81.000000000000014
20
-61.66666666666665
10
81.000000000000014
20
-69.666666666666657
10
73
20
-69.666666666666657
0
LWPOLYLINE
5
102
100
AcDbEntity
8
0
100
AcDbPolyline
90
4
70
1
43
0.0
10
84.333333333333343
20
-61.66666666666665
10
92.333333333333343
20
-61.66666666666665
10
92.333333333333343
20
-69.666666666666657
10
84.333333333333343
20
-69.666666666666657
0
LWPOLYLINE
5
103
100
AcDbEntity
8
0
100
AcDbPolyline
90
4
70
1
43
0.0
10
5
20
-50.333333333333314
10
13
20
-50.333333333333314
10
13
20
-58.333333333333321
10
5
20
-58.333333333333321
0
LWPOLYLINE
5
104
100
AcDbEntity
8
0
100
AcDbPolyline
90
4
70
1
43
0.0
10
16.333333333333336
20
-50.333333333333314
10
24.333333333333336
20
-50.333333333333314
10
24.333333333333336
20
-58.333333333333321
10
16.333333333333336
20
-58.333333333333321
0
LWPOLYLINE
5
105
100
AcDbEntity
8
0
100
AcDbPolyline
90
4
70
1
43
0.0
10
27.666666666666671
20
-50.333333333333314
10
35.666666666666671
20
-50.333333333333314
10
35.666666666666671
20
-58.333333333333321
10
27.666666666666671
20
-58.333333333333321
0
LWPOLYLINE
5
106
100
AcDbEntity
8
0
100
AcDbPolyline
90
4
70
1
43
0.0
10
39
20
-50.333333333333314
10
47
20
-50.333333333333314
10
47
20
-58.333333333333321
10
39
20
-58.333333333333321
0
LWPOLYLINE
5
107
100
AcDbEntity
8
0
100
AcDbPolyline
90
4
70
1
43
0.0
10
50.333333333333343
20
-50.333333333333314
10
58.333333333333343
20
-50.333333333333314
10
58.333333333333343
20
-58.333333333333321
10
50.333333333333343
20
-58.333333333333321
0
LWPOLYLINE
5
108
100
AcDbEntity
8
0
100
AcDbPolyline
90
4
70
1
43
0.0
10
61.666666666666679
20
-50.333333333333314
10
69.666666666666671
20
-50.333333333333314
10
69.666666666666671
20
-58.333333333333321
10
61.666666666666679
20
-58.333333333333321
0
LWPOLYLINE
5
109
100
AcDbEntity
8
0
100
AcDbPolyline
90
4
70
1
43
0.0
10
73
20
-50.333333333333314
10
81.000000000000014
20
-50.333333333333314
10
81.000000000000014
20
-58.333333333333321
10
73
20
-58.333333333333321
0
LWPOLYLINE
5
110
100
AcDbEntity
8
0
100
AcDbPolyline
90
4
70
1
43
0.0
10
84.333333333333343
20
-50.333333333333314
10
92.333333333333343
20
-50.333333333333314
10
92.333333333333343
20
-58.333333333333321
10
84.333333333333343
20
-58.333333333333321
0
LWPOLYLINE
5
111
100
AcDbEntity
8
0
100
AcDbPolyline
90
4
70
1
43
0.0
10
5
20
-38.999999999999986
10
13
20
-38.999999999999986
10
13
20
-46.999999999999993
10
5
20
-46.999999999999993
0
LWPOLYLINE
5
112
100
AcDbEntity
8
0
100
AcDbPolyline
90
4
70
1
43
0.0
10
16.333333333333336
20
-38.999999999999986
10
24.333333333333336
20
-38.999999999999986
10
24.333333333333336
20
-46.999999999999993
10
16.333333333333336
20
-46.999999999999993
0
LWPOLYLINE
5
113
100
AcDbEntity
8
0
100
AcDbPolyline
90
4
70
1
43
0.0
10
27.666666666666671
20
-38.999999999999986
10
35.666666666666671
20
-38.999999999999986
10
35.666666666666671
20
-46.999999999999993
10
27.666666666666671
20
-46.999999999999993
0
LWPOLYLINE
5
114
100
AcDbEntity
8
0
100
AcDbPolyline
90
4
70
1
43
0.0
10
39
20
-38.999999999999986
10
47
20
-38.999999999999986
10
47
20
-46.999999999999993
10
39
20
-46.999999999999993
0
LWPOLYLINE
5
115
100
AcDbEntity
8
0
100
AcDbPolyline
90
4
70
1
43
0.0
10
50.333333333333343
20
-38.999999999999986
10
58.333333333333343
20
-38.999999999999986
10
58.333333333333343
20
-46.999999999999993
10
50.333333333333343
20
-46.999999999999993
0
LWPOLYLINE
5
116
100
AcDbEntity
8
0
100
AcDbPolyline
90
4
70
1
43
0.0
10
61.666666666666679
20
-38.999999999999986
10
69.666666666666671
20
-38.999999999999986
10
69.666666666666671
20
-46.999999999999993
10
61.666666666666679
20
-46.999999999999993
0
LWPOLYLINE
5
117
100
AcDbEntity
8
0
100
AcDbPolyline
90
4
70
1
43
0.0
10
73
20
-38.999999999999986
10
81.000000000000014
20
-38.999999999999986
10
81.000000000000014
20
-46.999999999999993
10
73
20
-46.999999999999993
0
LWPOLYLINE
5
118
100
AcDbEntity
8
0
100
AcDbPolyline
90
4
70
1
43
0.0
10
84.333333333333343
20
-38.999999999999986
10
92.333333333333343
20
-38.999999999999986
10
92.333333333333343
20
-46.999999999999993
10
84.333333333333343
20
-46.999999999999993
0
LWPOLYLINE
5
119
100
AcDbEntity
8
0
100
AcDbPolyline
90
4
70
1
43
0.0
10
5
20
-27.66666666666665
10
13
20
-27.66666666666665
10
13
20
-35.666666666666657
10
5
20
-35.666666666666657
0
LWPOLYLINE
5
120
100
AcDbEntity
8
0
100
AcDbPolyline
90
4
70
1
43
0.0
10
16.333333333333336
20
-27.66666666666665
10
24.333333333333336
20
-27.66666666666665
10
24.333333333333336
20
-35.666666666666657
10
16.333333333333336
20
-35.666666666666657
0
LWPOLYLINE
5
121
100
AcDbEntity
8
0
100
AcDbPolyline
90
4
70
1
43
0.0
10
27.666666666666671
20
-27.66666666666665
10
35.666666666666671
20
-27.66666666666665
10
35.666666666666671
20
-35.666666666666657
10
27.666666666666671
20
-35.666666666666657
0
LWPOLYLINE
5
122
100
AcDbEntity
8
0
100
AcDbPolyline
90
4
70
1
43
0.0
10
39
20
-27.66666666666665
10
47
20
-27.66666666666665
10
47
20
-35.666666666666657
10
39
20
-35.666666666666657
0
LWPOLYLINE
5
123
100
AcDbEntity
8
0
100
AcDbPolyline
90
4
70
1
43
0.0
10
50.333333333333343
20
-27.66666666666665
10
58.333333333333343
20
-27.66666666666665
10
58.333333333333343
20
-35.666666666666657
10
50.333333333333343
20
-35.666666666666657
0
LWPOLYLINE
5
124
100
AcDbEntity
8
0
100
AcDbPolyline
90
4
70
1
43
0.0
10
61.666666666666679
20
-27.66666666666665
10
69.666666666666671
20
-27.66666666666665
10
69.666666666666671
20
-35.666666666666657
10
61.666666666666679
20
-35.666666666666657
0
LWPOLYLINE
5
125
100
AcDbEntity
8
0
100
AcDbPolyline
90
4
70
1
43
0.0
10
73
20
-27.66666666666665
10
81.000000000000014
20
-27.66666666666665
10
81.000000000000014
20
-35.666666666666657
10
73
20
-35.666666666666657
0
LWPOLYLINE
5
126
100
AcDbEntity
8
0
100
AcDbPolyline
90
4
70
1
43
0.0
10
84.333333333333343
20
-27.66666666666665
10
92.333333333333343
20
-27.66666666666665
10
92.333333333333343
20
-35.666666666666657
10
84.333333333333343
20
-35.666666666666657
0
LWPOLYLINE
5
127
100
AcDbEntity
8
0
100
AcDbPolyline
90
4
70
1
43
0.0
10
95.666666666666686
20
-107
10
103.66666666666669
20
-107
10
103.66666666666669
20
-115
10
95.666666666666686
20
-115
0
LWPOLYLINE
5
128
100
AcDbEntity
8
0
100
AcDbPolyline
90
4
70
1
43
0.0
10
107.00000000000001
20
-107
10
115.00000000000001
20
-107
10
115.00000000000001
20
-115
10
107.00000000000001
20
-115
0
LWPOLYLINE
5
129
100
AcDbEntity
8
0
100
AcDbPolyline
90
4
70
1
43
0.0
10
95.666666666666686
20
-95.666666666666657
10
103.66666666666669
20
-95.666666666666657
10
103.66666666666669
20
-103.66666666666667
10
95.666666666666686
20
-103.66666666666667
0
LWPOLYLINE
5
130
100
AcDbEntity
8
0
100
AcDbPolyline
90
4
70
1
43
0.0
10
107.00000000000001
20
-95.666666666666657
10
115.00000000000001
20
-95.666666666666657
10
115.00000000000001
20
-103.66666666666667
10
107.00000000000001
20
-103.66666666666667
0
LWPOLYLINE
5
131
100
AcDbEntity
8
0
100
AcDbPolyline
90
4
70
1
43
0.0
10
95.666666666666686
20
-84.333333333333314
10
103.66666666666669
20
-84.333333333333314
10
103.66666666666669
20
-92.333333333333329
10
95.666666666666686
20
-92.333333333333329
0
LWPOLYLINE
5
132
100
AcDbEntity
8
0
100
AcDbPolyline
90
4
70
1
43
0.0
10
107.00000000000001
20
-84.333333333333314
10
115.00000000000001
20
-84.333333333333314
10
115.00000000000001
20
-92.333333333333329
10
107.00000000000001
20
-92.333333333333329
0
LWPOLYLINE
5
133
100
AcDbEntity
8
0
100
AcDbPolyline
90
4
70
1
43
0.0
10
95.666666666666686
20
-72.999999999999986
10
103.66666666666669
20
-72.999999999999986
10
103.66666666666669
20
-81
10
95.666666666666686
20
-81
0
LWPOLYLINE
5
134
100
AcDbEntity
8
0
100
AcDbPolyline
90
4
70
1
43
0.0
10
107.00000000000001
20
-72.999999999999986
10
115.00000000000001
20
-72.999999999999986
10
115.00000000000001
20
-81
10
107.00000000000001
20
-81
0
LWPOLYLINE
5
135
100
AcDbEntity
8
0
100
AcDbPolyline
90
4
70
1
43
0.0
10
95.666666666666686
20
-61.66666666666665
10
103.66666666666669
20
-61.66666666666665
10
103.66666666666669
20
-69.666666666666657
10
95.666666666666686
20
-69.666666666666657
0
LWPOLYLINE
5
136
100
AcDbEntity
8
0
100
AcDbPolyline
90
4
70
1
43
0.0
10
107.00000000000001
20
-61.66666666666665
10
115.00000000000001
20
-61.66666666666665
10
115.00000000000001
20
-69.666666666666657
10
107.00000000000001
20
-69.666666666666657
0
LWPOLYLINE
5
137
100
AcDbEntity
8
0
100
AcDbPolyline
90
4
70
1
43
0.0
10
95.666666666666686
20
-50.333333333333314
10
103.66666666666669
20
-50.333333333333314
10
103.66666666666669
20
-58.333333333333321
10
95.666666666666686
20
-58.333333333333321
0
LWPOLYLINE
5
138
100
AcDbEntity
8
0
100
AcDbPolyline
90
4
70
1
43
0.0
10
107.00000000000001
20
-50.333333333333314
10
115.00000000000001
20
-50.333333333333314
10
115.00000000000001
20
-58.333333333333321
10
107.00000000000001
20
-58.333333333333321
0
LWPOLYLINE
5
139
100
AcDbEntity
8
0
100
AcDbPolyline
90
4
70
1
43
0.0
10
95.666666666666686
20
-38.999999999999986
10
103.66666666666669
20
-38.999999999999986
10
103.66666666666669
20
-46.999999999999993
10
95.666666666666686
20
-46.999999999999993
0
LWPOLYLINE
5
140
100
AcDbEntity
8
0
100
AcDbPolyline
90
4
70
1
43
0.0
10
107.00000000000001
20
-38.999999999999986
10
115.00000000000001
20
-38.999999999999986
10
115.00000000000001
20
-46.999999999999993
10
107.00000000000001
20
-46.999999999999993
0
LWPOLYLINE
5
141
100
AcDbEntity
8
0
100
AcDbPolyline
90
4
70
1
43
0.0
10
95.666666666666686
20
-27.66666666666665
10
103.66666666666669
20
-27.66666666666665
10
103.66666666666669
20
-35.666666666666657
10
95.666666666666686
20
-35.666666666666657
0
LWPOLYLINE
5
142
100
AcDbEntity
8
0
100
AcDbPolyline
90
4
70
1
43
0.0
10
107.00000000000001
20
-27.66666666666665
10
115.00000000000001
20
-27.66666666666665
10
115.00000000000001
20
-35.666666666666657
10
107.00000000000001
20
-35.666666666666657
0
LWPOLYLINE
5
143
100
AcDbEntity
8
0
100
AcDbPolyline
90
4
70
1
43
0.0
10
5
20
-16.333333333333311
10
13
20
-16.333333333333311
10
13
20
-24.333333333333318
10
5
20
-24.333333333333318
0
LWPOLYLINE
5
144
100
AcDbEntity
8
0
100
AcDbPolyline
90
4
70
1
43
0.0
10
16.333333333333336
20
-16.333333333333311
10
24.333333333333336
20
-16.333333333333311
10
24.333333333333336
20
-24.333333333333318
10
16.333333333333336
20
-24.333333333333318
0
LWPOLYLINE
5
145
100
AcDbEntity
8
0
100
AcDbPolyline
90
4
70
1
43
0.0
10
27.666666666666671
20
-16.333333333333311
10
35.666666666666671
20
-16.333333333333311
10
35.666666666666671
20
-24.333333333333318
10
27.666666666666671
20
-24.333333333333318
0
LWPOLYLINE
5
146
100
AcDbEntity
8
0
100
AcDbPolyline
90
4
70
1
43
0.0
10
39
20
-16.333333333333311
10
47
20
-16.333333333333311
10
47
20
-24.333333333333318
10
39
20
-24.333333333333318
0
LWPOLYLINE
5
147
100
AcDbEntity
8
0
100
AcDbPolyline
90
4
70
1
43
0.0
10
50.333333333333343
20
-16.333333333333311
10
58.333333333333343
20
-16.333333333333311
10
58.333333333333343
20
-24.333333333333318
10
50.333333333333343
20
-24.333333333333318
0
LWPOLYLINE
5
148
100
AcDbEntity
8
0
100
AcDbPolyline
90
4
70
1
43
0.0
10
61.666666666666679
20
-16.333333333333311
10
69.666666666666671
20
-16.333333333333311
10
69.666666666666671
20
-24.333333333333318
10
61.666666666666679
20
-24.333333333333318
0
LWPOLYLINE
5
149
100
AcDbEntity
8
0
100
AcDbPolyline
90
4
70
1
43
0.0
10
73
20
-16.333333333333311
10
81.000000000000014
20
-16.333333333333311
10
81.000000000000014
20
-24.333333333333318
10
73
20
-24.333333333333318
0
LWPOLYLINE
5
150
100
AcDbEntity
8
0
100
AcDbPolyline
90
4
70
1
43
0.0
10
84.333333333333343
20
-16.333333333333311
10
92.333333333333343
20
-16.333333333333311
10
92.333333333333343
20
-24.333333333333318
10
84.333333333333343
20
-24.333333333333318
0
LWPOLYLINE
5
151
100
AcDbEntity
8
0
100
AcDbPolyline
90
4
70
1
43
0.0
10
95.666666666666686
20
-16.333333333333311
10
103.66666666666669
20
-16.333333333333311
10
103.66666666666669
20
-24.333333333333318
10
95.666666666666686
20
-24.333333333333318
0
LWPOLYLINE
5
152
100
AcDbEntity
8
0
100
AcDbPolyline
90
4
70
1
43
0.0
10
107.00000000000001
20
-16.333333333333311
10
115.00000000000001
20
-16.333333333333311
10
115.00000000000001
20
-24.333333333333318
10
107.00000000000001
20
-24.333333333333318
0
LWPOLYLINE
5
153
100
AcDbEntity
8
0
100
AcDbPolyline
90
4
70
1
43
0.0
10
5
20
-4.9999999999999822
10
13
20
-4.9999999999999822
10
13
20
-12.999999999999989
10
5
20
-12.999999999999989
0
LWPOLYLINE
5
154
100
AcDbEntity
8
0
100
AcDbPolyline
90
4
70
1
43
0.0
10
16.333333333333336
20
-4.9999999999999822
10
24.333333333333336
20
-4.9999999999999822
10
24.333333333333336
20
-12.999999999999989
10
16.333333333333336
20
-12.999999999999989
0
LWPOLYLINE
5
155
100
AcDbEntity
8
0
100
AcDbPolyline
90
4
70
1
43
0.0
10
27.666666666666671
20
-4.9999999999999822
10
35.666666666666671
20
-4.9999999999999822
10
35.666666666666671
20
-12.999999999999989
10
27.666666666666671
20
-12.999999999999989
0
LWPOLYLINE
5
156
100
AcDbEntity
8
0
100
AcDbPolyline
90
4
70
1
43
0.0
10
39
20
-4.9999999999999822
10
47
20
-4.9999999999999822
10
47
20
-12.999999999999989
10
39
20
-12.999999999999989
0
LWPOLYLINE
5
157
100
AcDbEntity
8
0
100
AcDbPolyline
90
4
70
1
43
0.0
10
50.333333333333343
20
-4.9999999999999822
10
58.333333333333343
20
-4.9999999999999822
10
58.333333333333343
20
-12.999999999999989
10
50.333333333333343
20
-12.999999999999989
0
LWPOLYLINE
5
158
100
AcDbEntity
8
0
100
AcDbPolyline
90
4
70
1
43
0.0
10
61.666666666666679
20
-4.9999999999999822
10
69.666666666666671
20
-4.9999999999999822
10
69.666666666666671
20
-12.999999999999989
10
61.666666666666679
20
-12.999999999999989
0
LWPOLYLINE
5
159
100
AcDbEntity
8
0
100
AcDbPolyline
90
4
70
1
43
0.0
10
73
20
-4.9999999999999822
10
81.000000000000014
20
-4.9999999999999822
10
81.000000000000014
20
-12.999999999999989
10
73
20
-12.999999999999989
0
LWPOLYLINE
5
160
100
AcDbEntity
8
0
100
AcDbPolyline
90
4
70
1
43
0.0
10
84.333333333333343
20
-4.9999999999999822
10
92.333333333333343
20
-4.9999999999999822
10
92.333333333333343
20
-12.999999999999989
10
84.333333333333343
20
-12.999999999999989
0
LWPOLYLINE
5
161
100
AcDbEntity
8
0
100
AcDbPolyline
90
4
70
1
43
0.0
10
95.666666666666686
20
-4.9999999999999822
10
103.66666666666669
20
-4.9999999999999822
10
103.66666666666669
20
-12.999999999999989
10
95.666666666666686
20
-12.999999999999989
0
LWPOLYLINE
5
162
100
AcDbEntity
8
0
100
AcDbPolyline
90
4
70
1
43
0.0
10
107.00000000000001
20
-4.9999999999999822
10
115.00000000000001
20
-4.9999999999999822
10
115.00000000000001
20
-12.999999999999989
10
107.00000000000001
20
-12.999999999999989
0
LWPOLYLINE
5
163
100
AcDbEntity
8
0
100
AcDbPolyline
90
4
70
1
43
0.0
10
50.333333333333343
20
-61.66666666666665
10
58.333333333333343
20
-61.66666666666665
10
58.333333333333343
20
-69.666666666666657
10
50.333333333333343
20
-69.666666666666657
0
LWPOLYLINE
5
164
100
AcDbEntity
8
0
100
AcDbPolyline
90
4
70
1
43
0.0
10
27.666666666666671
20
-61.66666666666665
10
35.666666666666671
20
-61.66666666666665
10
35.666666666666671
20
-69.666666666666657
10
27.666666666666671
20
-69.666666666666657
0
LWPOLYLINE
5
165
100
AcDbEntity
8
0
100
AcDbPolyline
90
4
70
1
43
0.0
10
39
20
-61.66666666666665
10
47
20
-61.66666666666665
10
47
20
-69.666666666666657
10
39
20
-69.666666666666657
0
LWPOLYLINE
5
166
100
AcDbEntity
8
0
100
AcDbPolyline
90
4
70
1
43
0.0
10
61.666666666666679
20
-61.66666666666665
10
69.666666666666671
20
-61.66666666666665
10
69.666666666666671
20
-69.666666666666657
10
61.666666666666679
20
-69.666666666666657
0
LWPOLYLINE
5
167
100
AcDbEntity
8
0
100
AcDbPolyline
90
4
70
1
43
0.0
10
5
20
-84.333333333333314
10
13
20
-84.333333333333314
10
13
20
-92.333333333333329
10
5
20
-92.333333333333329
0
LWPOLYLINE
5
168
100
AcDbEntity
8
0
100
AcDbPolyline
90
4
70
1
43
0.0
10
16.333333333333336
20
-84.333333333333314
10
24.333333333333336
20
-84.333333333333314
10
24.333333333333336
20
-92.333333333333329
10
16.333333333333336
20
-92.333333333333329
0
LWPOLYLINE
5
169
100
AcDbEntity
8
0
100
AcDbPolyline
90
4
70
1
43
0.0
10
27.666666666666671
20
-84.333333333333314
10
35.666666666666671
20
-84.333333333333314
10
35.666666666666671
20
-92.333333333333329
10
27.666666666666671
20
-92.333333333333329
0
LWPOLYLINE
5
170
100
AcDbEntity
8
0
100
AcDbPolyline
90
4
70
1
43
0.0
10
39
20
-84.333333333333314
10
47
20
-84.333333333333314
10
47
20
-92.333333333333329
10
39
20
-92.333333333333329
0
LWPOLYLINE
5
171
100
AcDbEntity
8
0
100
AcDbPolyline
90
4
70
1
43
0.0
10
50.333333333333343
20
-84.333333333333314
10
58.333333333333343
20
-84.333333333333314
10
58.333333333333343
20
-92.333333333333329
10
50.333333333333343
20
-92.333333333333329
0
LWPOLYLINE
5
172
100
AcDbEntity
8
0
100
AcDbPolyline
90
4
70
1
43
0.0
10
61.666666666666679
20
-84.333333333333314
10
69.666666666666671
20
-84.333333333333314
10
69.666666666666671
20
-92.333333333333329
10
61.666666666666679
20
-92.333333333333329
0
LWPOLYLINE
5
173
100
AcDbEntity
8
0
100
AcDbPolyline
90
4
70
1
43
0.0
10
84.333333333333343
20
-84.333333333333314
10
92.333333333333343
20
-84.333333333333314
10
92.333333333333343
20
-92.333333333333329
10
84.333333333333343
20
-92.333333333333329
0
LWPOLYLINE
5
174
100
AcDbEntity
8
0
100
AcDbPolyline
90
4
70
1
43
0.0
10
73
20
-84.333333333333314
10
81.000000000000014
20
-84.333333333333314
10
81.000000000000014
20
-92.333333333333329
10
73
20
-92.333333333333329
0
LWPOLYLINE
5
175
100
AcDbEntity
8
0
100
AcDbPolyline
90
4
70
1
43
0.0
10
5
20
-72.999999999999986
10
13
20
-72.999999999999986
10
13
20
-81
10
5
20
-81
0
LWPOLYLINE
5
176
100
AcDbEntity
8
0
100
AcDbPolyline
90
4
70
1
43
0.0
10
73
20
-72.999999999999986
10
81.000000000000014
20
-72.999999999999986
10
81.000000000000014
20
-81
10
73
20
-81
0
LWPOLYLINE
5
177
100
AcDbEntity
8
0
100
AcDbPolyline
90
4
70
1
43
0.0
10
16.333333333333336
20
-72.999999999999986
10
24.333333333333336
20
-72.999999999999986
10
24.333333333333336
20
-81
10
16.333333333333336
20
-81
0
LWPOLYLINE
5
178
100
AcDbEntity
8
0
100
AcDbPolyline
90
4
70
1
43
0.0
10
61.666666666666679
20
-72.999999999999986
10
69.666666666666671
20
-72.999999999999986
10
69.666666666666671
20
-81
10
61.666666666666679
20
-81
0
LWPOLYLINE
5
179
100
AcDbEntity
8
0
100
AcDbPolyline
90
4
70
1
43
0.0
10
84.333333333333343
20
-95.666666666666657
10
92.333333333333343
20
-95.666666666666657
10
92.333333333333343
20
-103.66666666666667
10
84.333333333333343
20
-103.66666666666667
0
LWPOLYLINE
5
180
100
AcDbEntity
8
0
100
AcDbPolyline
90
4
70
1
43
0.0
10
73
20
-95.666666666666657
10
81.000000000000014
20
-95.666666666666657
10
81.000000000000014
20
-103.66666666666667
10
73
20
-103.66666666666667
0
LWPOLYLINE
5
181
100
AcDbEntity
8
0
100
AcDbPolyline
90
4
70
1
43
0.0
10
61.666666666666679
20
-95.666666666666657
10
69.666666666666671
20
-95.666666666666657
10
69.666666666666671
20
-103.66666666666667
10
61.666666666666679
20
-103.66666666666667
0
LWPOLYLINE
5
182
100
AcDbEntity
8
0
100
AcDbPolyline
90
4
70
1
43
0.0
10
50.333333333333343
20
-95.666666666666657
10
58.333333333333343
20
-95.666666666666657
10
58.333333333333343
20
-103.66666666666667
10
50.333333333333343
20
-103.66666666666667
0
LWPOLYLINE
5
183
100
AcDbEntity
8
0
100
AcDbPolyline
90
4
70
1
43
0.0
10
39
20
-95.666666666666657
10
47
20
-95.666666666666657
10
47
20
-103.66666666666667
10
39
20
-103.66666666666667
0
LWPOLYLINE
5
184
100
AcDbEntity
8
0
100
AcDbPolyline
90
4
70
1
43
0.0
10
27.666666666666671
20
-95.666666666666657
10
35.666666666666671
20
-95.666666666666657
10
35.666666666666671
20
-103.66666666666667
10
27.666666666666671
20
-103.66666666666667
0
LWPOLYLINE
5
185
100
AcDbEntity
8
0
100
AcDbPolyline
90
4
70
1
43
0.0
10
16.333333333333336
20
-95.666666666666657
10
24.333333333333336
20
-95.666666666666657
10
24.333333333333336
20
-103.66666666666667
10
16.333333333333336
20
-103.66666666666667
0
LWPOLYLINE
5
186
100
AcDbEntity
8
0
100
AcDbPolyline
90
4
70
1
43
0.0
10
5
20
-95.666666666666657
10
13
20
-95.666666666666657
10
13
20
-103.66666666666667
10
5
20
-103.66666666666667
0
LWPOLYLINE
5
187
100
AcDbEntity
8
0
100
AcDbPolyline
90
4
70
1
43
0.0
10
84.333333333333343
20
-107
10
92.333333333333343
20
-107
10
92.333333333333343
20
-115
10
84.333333333333343
20
-115
0
LWPOLYLINE
5
188
100
AcDbEntity
8
0
100
AcDbPolyline
90
4
70
1
43
0.0
10
73
20
-107
10
81.000000000000014
20
-107
10
81.000000000000014
20
-115
10
73
20
-115
0
LWPOLYLINE
5
189
100
AcDbEntity
8
0
100
AcDbPolyline
90
4
70
1
43
0.0
10
61.666666666666679
20
-107
10
69.666666666666671
20
-107
10
69.666666666666671
20
-115
10
61.666666666666679
20
-115
0
LWPOLYLINE
5
190
100
AcDbEntity
8
0
100
AcDbPolyline
90
4
70
1
43
0.0
10
50.333333333333343
20
-107
10
58.333333333333343
20
-107
10
58.333333333333343
20
-115
10
50.333333333333343
20
-115
0
LWPOLYLINE
5
191
100
AcDbEntity
8
0
100
AcDbPolyline
90
4
70
1
43
0.0
10
39
20
-107
10
47
20
-107
10
47
20
-115
10
39
20
-115
0
LWPOLYLINE
5
192
100
AcDbEntity
8
0
100
AcDbPolyline
90
4
70
1
43
0.0
10
27.666666666666671
20
-107
10
35.666666666666671
20
-107
10
35.666666666666671
20
-115
10
27.666666666666671
20
-115
0
LWPOLYLINE
5
193
100
AcDbEntity
8
0
100
AcDbPolyline
90
4
70
1
43
0.0
10
16.333333333333336
20
-107
10
24.333333333333336
20
-107
10
24.333333333333336
20
-115
10
16.333333333333336
20
-115
0
LWPOLYLINE
5
194
100
AcDbEntity
8
0
100
AcDbPolyline
90
4
70
1
43
0.0
10
5
20
-107
10
13
20
-107
10
13
20
-115
10
5
20
-115
0
LWPOLYLINE
5
195
100
AcDbEntity
8
0
100
AcDbPolyline
90
4
70
1
43
0.0
10
39
20
-72.999999999999986
10
47
20
-72.999999999999986
10
47
20
-81
10
39
20
-81
0
LWPOLYLINE
5
196
100
AcDbEntity
8
0
100
AcDbPolyline
90
4
70
1
43
0.0
10
27.666666666666671
20
-72.999999999999986
10
35.666666666666671
20
-72.999999999999986
10
35.666666666666671
20
-81
10
27.666666666666671
20
-81
0
LWPOLYLINE
5
197
100
AcDbEntity
8
0
100
AcDbPolyline
90
4
70
1
43
0.0
10
5
20
-61.66666666666665
10
13
20
-61.66666666666665
10
13
20
-69.666666666666657
10
5
20
-69.666666666666657
0
LWPOLYLINE
5
198
100
AcDbEntity
8
0
100
AcDbPolyline
90
4
70
1
43
0.0
10
16.333333333333336
20
-61.66666666666665
10
24.333333333333336
20
-61.66666666666665
10
24.333333333333336
20
-69.666666666666657
10
16.333333333333336
20
-69.666666666666657
0
LWPOLYLINE
5
199
100
AcDbEntity
8
0
100
AcDbPolyline
90
4
70
1
43
0.0
10
50.333333333333343
20
-72.999999999999986
10
58.333333333333343
20
-72.999999999999986
10
58.333333333333343
20
-81
10
50.333333333333343
20
-81
0
LWPOLYLINE
5
200
100
AcDbEntity
8
0
100
AcDbPolyline
90
100
70
1
43
0.0
10
123
20
-5.0000015646219254
10
119.99999995529652
20
-5.0000015646219254
10
120
20
0
10
115
20
0
10
115
20
3.0000000000000071
10
105
20
3.0000000000000071
10
105
20
0
10
95
20
0
10
95
20
3.0000000000000071
10
85
20
3.0000000000000071
10
85
20
0
10
75
20
0
10
75
20
3.0000000000000071
10
65
20
3.0000000000000071
10
65
20
0
10
55
20
0
10
55
20
3.0000000000000071
10
45
20
3.0000000000000071
10
45
20
0
10
35
20
0
10
35
20
3.0000000000000071
10
25
20
3.0000000000000071
10
25
20
0
10
15
20
0
10
15
20
3.0000000000000071
10
5
20
3.0000000000000071
10
5
20
0
10
0
20
0
10
0
20
-5.0000015646219254
10
-3.0000000447034836
20
-5.0000015646219254
10
-3.0000000447034836
20
-15.000001713633537
10
0
20
-15.000001713633537
10
0
20
-25.000001564621925
10
-3.0000000447034836
20
-25.000001564621925
10
-3.0000000447034836
20
-35.000001713633537
10
0
20
-35.000001713633537
10
0
20
-45.000001564621925
10
-3.0000000447034836
20
-45.000001564621925
10
-3.0000000447034836
20
-55.000001713633537
10
0
20
-55.000001713633537
10
0
20
-65.000001564621925
10
-3.0000000447034836
20
-65.000001564621925
10
-3.0000000447034836
20
-75.000001713633537
10
0
20
-75.000001713633537
10
0
20
-85.000001564621925
10
-3.0000000447034836
20
-85.000001564621925
10
-3.0000000447034836
20
-95.000001713633537
10
0
20
-95.000001713633537
10
0
20
-105.00000156462193
10
-3.0000000447034836
20
-105.00000156462193
10
-3.0000000447034836
20
-115.00000171363354
10
0
20
-115.00000171363354
10
4.9303806576313238e-31
20
-120
10
5
20
-120
10
5
20
-123
10
15
20
-123
10
15
20
-120
10
25
20
-120
10
25
20
-123
10
35
20
-123
10
35
20
-120
10
45
20
-120
10
45
20
-123
10
55
20
-123
10
55
20
-120
10
65
20
-120
10
65
20
-123
10
75
20
-123
10
75
20
-120
10
85
20
-120
10
85
20
-123
10
95
20
-123
10
95
20
-120
10
105
20
-120
10
105
20
-123
10
115
20
-123
10
115
20
-120
10
120
20
-120
10
119.99999995529652
20
-115.00000171363354
10
123
20
-115.00000171363354
10
123
20
-105.00000156462193
10
119.99999995529652
20
-105.00000156462193
10
119.99999995529652
20
-95.000001713633537
10
123
20
-95.000001713633537
10
123
20
-85.000001564621925
10
119.99999995529652
20
-85.000001564621925
10
119.99999995529652
20
-75.000001713633537
10
123
20
-75.000001713633537
10
123
20
-65.000001564621925
10
119.99999995529652
20
-65.000001564621925
10
119.99999995529652
20
-55.000001713633537
10
123
20
-55.000001713633537
10
123
20
-45.000001564621925
10
119.99999995529652
20
-45.000001564621925
10
119.99999995529652
20
-35.000001713633537
10
123
20
-35.000001713633537
10
123
20
-25.000001564621925
10
119.99999995529652
20
-25.000001564621925
10
119.99999995529652
20
-15.000001713633537
10
123
20
-15.000001713633537
0
ENDSEC
0
SECTION
2
OBJECTS
0
DICTIONARY
5
C
100
AcDbDictionary
3
ACAD_GROUP
350
D
3
ACAD_MLINESTYLE
350
17
0
DICTIONARY
5
D
100
AcDbDictionary
0
DICTIONARY
5
1A
330
C
100
AcDbDictionary
0
DICTIONARY
5
17
100
AcDbDictionary
0
ENDSEC
0
EOF
